<?xml version="1.0" encoding="UTF-8"?>
<!DOCTYPE svg PUBLIC "-//W3C//DTD SVG 1.1//EN" "http://www.w3.org/Graphics/SVG/1.1/DTD/svg11.dtd">
<svg xmlns="http://www.w3.org/2000/svg" version="1.1" width="512px" height="512px" style="shape-rendering:geometricPrecision; text-rendering:geometricPrecision; image-rendering:optimizeQuality; fill-rule:evenodd; clip-rule:evenodd" xmlns:xlink="http://www.w3.org/1999/xlink">
<g><path style="opacity:0.943" fill="#000000" d="M 247.5,10.5 C 252.833,10.5 258.167,10.5 263.5,10.5C 263.5,24.8333 263.5,39.1667 263.5,53.5C 268.5,53.5 273.5,53.5 278.5,53.5C 278.5,68.8333 278.5,84.1667 278.5,99.5C 288.5,99.5 298.5,99.5 308.5,99.5C 308.5,131.833 308.5,164.167 308.5,196.5C 318.5,196.5 328.5,196.5 338.5,196.5C 338.5,237.167 338.5,277.833 338.5,318.5C 348.5,318.5 358.5,318.5 368.5,318.5C 368.5,373.833 368.5,429.167 368.5,484.5C 396.5,484.5 424.5,484.5 452.5,484.5C 452.5,489.833 452.5,495.167 452.5,500.5C 321.167,500.5 189.833,500.5 58.5,500.5C 58.5,495.167 58.5,489.833 58.5,484.5C 86.5,484.5 114.5,484.5 142.5,484.5C 142.5,440.167 142.5,395.833 142.5,351.5C 152.5,351.5 162.5,351.5 172.5,351.5C 172.5,310.5 172.5,269.5 172.5,228.5C 182.5,228.5 192.5,228.5 202.5,228.5C 202.5,196.167 202.5,163.833 202.5,131.5C 212.5,131.5 222.5,131.5 232.5,131.5C 232.5,105.5 232.5,79.5 232.5,53.5C 237.5,53.5 242.5,53.5 247.5,53.5C 247.5,39.1667 247.5,24.8333 247.5,10.5 Z M 248.5,69.5 C 253.167,69.5 257.833,69.5 262.5,69.5C 262.5,90.1667 262.5,110.833 262.5,131.5C 257.833,131.5 253.167,131.5 248.5,131.5C 248.5,110.833 248.5,90.1667 248.5,69.5 Z M 278.5,115.5 C 283.167,115.5 287.833,115.5 292.5,115.5C 292.5,142.5 292.5,169.5 292.5,196.5C 282.5,196.5 272.5,196.5 262.5,196.5C 262.5,292.5 262.5,388.5 262.5,484.5C 247.833,484.5 233.167,484.5 218.5,484.5C 218.5,383.167 218.5,281.833 218.5,180.5C 223.167,180.5 227.833,180.5 232.5,180.5C 232.5,260.5 232.5,340.5 232.5,420.5C 237.833,420.5 243.167,420.5 248.5,420.5C 248.5,335.167 248.5,249.833 248.5,164.5C 238.5,164.5 228.5,164.5 218.5,164.5C 218.5,158.833 218.5,153.167 218.5,147.5C 238.5,147.5 258.5,147.5 278.5,147.5C 278.5,136.833 278.5,126.167 278.5,115.5 Z M 278.5,212.5 C 293.167,212.5 307.833,212.5 322.5,212.5C 322.5,220.833 322.5,229.167 322.5,237.5C 307.833,237.5 293.167,237.5 278.5,237.5C 278.5,229.167 278.5,220.833 278.5,212.5 Z M 188.5,244.5 C 193.167,244.5 197.833,244.5 202.5,244.5C 202.5,253.5 202.5,262.5 202.5,271.5C 197.833,271.5 193.167,271.5 188.5,271.5C 188.5,262.5 188.5,253.5 188.5,244.5 Z M 278.5,253.5 C 293.167,253.5 307.833,253.5 322.5,253.5C 322.5,261.833 322.5,270.167 322.5,278.5C 307.833,278.5 293.167,278.5 278.5,278.5C 278.5,270.167 278.5,261.833 278.5,253.5 Z M 188.5,287.5 C 193.167,287.5 197.833,287.5 202.5,287.5C 202.5,296.5 202.5,305.5 202.5,314.5C 197.833,314.5 193.167,314.5 188.5,314.5C 188.5,305.5 188.5,296.5 188.5,287.5 Z M 278.5,294.5 C 293.167,294.5 307.833,294.5 322.5,294.5C 322.5,302.5 322.5,310.5 322.5,318.5C 312.5,318.5 302.5,318.5 292.5,318.5C 292.5,373.833 292.5,429.167 292.5,484.5C 287.833,484.5 283.167,484.5 278.5,484.5C 278.5,421.167 278.5,357.833 278.5,294.5 Z M 188.5,330.5 C 193.167,330.5 197.833,330.5 202.5,330.5C 202.5,339.167 202.5,347.833 202.5,356.5C 197.833,356.5 193.167,356.5 188.5,356.5C 188.5,347.833 188.5,339.167 188.5,330.5 Z M 308.5,334.5 C 323.167,334.5 337.833,334.5 352.5,334.5C 352.5,340.5 352.5,346.5 352.5,352.5C 337.833,352.5 323.167,352.5 308.5,352.5C 308.5,346.5 308.5,340.5 308.5,334.5 Z M 158.5,367.5 C 163.167,367.5 167.833,367.5 172.5,367.5C 172.5,406.5 172.5,445.5 172.5,484.5C 167.833,484.5 163.167,484.5 158.5,484.5C 158.5,445.5 158.5,406.5 158.5,367.5 Z M 308.5,368.5 C 323.167,368.5 337.833,368.5 352.5,368.5C 352.5,374.167 352.5,379.833 352.5,385.5C 337.833,385.5 323.167,385.5 308.5,385.5C 308.5,379.833 308.5,374.167 308.5,368.5 Z M 188.5,372.5 C 193.167,372.5 197.833,372.5 202.5,372.5C 202.5,381.5 202.5,390.5 202.5,399.5C 197.833,399.5 193.167,399.5 188.5,399.5C 188.5,390.5 188.5,381.5 188.5,372.5 Z M 308.5,401.5 C 323.167,401.5 337.833,401.5 352.5,401.5C 352.5,407.167 352.5,412.833 352.5,418.5C 337.833,418.5 323.167,418.5 308.5,418.5C 308.5,412.833 308.5,407.167 308.5,401.5 Z M 188.5,415.5 C 193.167,415.5 197.833,415.5 202.5,415.5C 202.5,424.167 202.5,432.833 202.5,441.5C 197.833,441.5 193.167,441.5 188.5,441.5C 188.5,432.833 188.5,424.167 188.5,415.5 Z M 308.5,434.5 C 323.167,434.5 337.833,434.5 352.5,434.5C 352.5,440.167 352.5,445.833 352.5,451.5C 337.833,451.5 323.167,451.5 308.5,451.5C 308.5,445.833 308.5,440.167 308.5,434.5 Z M 188.5,457.5 C 193.167,457.5 197.833,457.5 202.5,457.5C 202.5,466.5 202.5,475.5 202.5,484.5C 197.833,484.5 193.167,484.5 188.5,484.5C 188.5,475.5 188.5,466.5 188.5,457.5 Z M 308.5,467.5 C 323.167,467.5 337.833,467.5 352.5,467.5C 352.5,473.167 352.5,478.833 352.5,484.5C 337.833,484.5 323.167,484.5 308.5,484.5C 308.5,478.833 308.5,473.167 308.5,467.5 Z"/></g>
<g><path style="opacity:0.883" fill="#000000" d="M 95.5,88.5 C 100.833,88.5 106.167,88.5 111.5,88.5C 111.5,93.8333 111.5,99.1667 111.5,104.5C 106.489,104.666 101.489,104.499 96.5,104C 95.5286,98.9283 95.1953,93.7616 95.5,88.5 Z"/></g>
<g><path style="opacity:0.919" fill="#000000" d="M 125.5,88.5 C 140.833,88.5 156.167,88.5 171.5,88.5C 171.5,93.8333 171.5,99.1667 171.5,104.5C 156.496,104.667 141.496,104.5 126.5,104C 125.529,98.9283 125.195,93.7616 125.5,88.5 Z"/></g>
<g><path style="opacity:0.919" fill="#000000" d="M 339.5,148.5 C 354.833,148.5 370.167,148.5 385.5,148.5C 385.805,153.762 385.471,158.928 384.5,164C 369.504,164.5 354.504,164.667 339.5,164.5C 339.5,159.167 339.5,153.833 339.5,148.5 Z"/></g>
<g><path style="opacity:0.883" fill="#000000" d="M 399.5,148.5 C 404.833,148.5 410.167,148.5 415.5,148.5C 415.666,153.511 415.499,158.511 415,163.5C 409.928,164.471 404.762,164.805 399.5,164.5C 399.5,159.167 399.5,153.833 399.5,148.5 Z"/></g>
<g><path style="opacity:0.879" fill="#000000" d="M 232.5,434.5 C 237.833,434.5 243.167,434.5 248.5,434.5C 248.5,439.833 248.5,445.167 248.5,450.5C 243.167,450.5 237.833,450.5 232.5,450.5C 232.5,445.167 232.5,439.833 232.5,434.5 Z"/></g>
</svg>
