<svg width="20" height="10" viewBox="0 0 20 10" fill="none" xmlns="http://www.w3.org/2000/svg">
<path d="M18.6118 0.224219L9.99912 8.1941L1.38645 0.224219C1.23257 0.0815238 1.026 0.00163573 0.810891 0.00163573C0.595781 0.00163573 0.389208 0.0815238 0.235334 0.224219C0.160826 0.293521 0.101633 0.376238 0.0612238 0.467529C0.0208142 0.55882 0 0.656848 0 0.755871C0 0.854894 0.0208142 0.952921 0.0612238 1.04421C0.101633 1.1355 0.160826 1.21822 0.235334 1.28752L9.39771 9.76779C9.55862 9.91667 9.77442 10 9.99912 10C10.2238 10 10.4396 9.91667 10.6005 9.76779L19.7629 1.28916C19.8379 1.21981 19.8976 1.13688 19.9383 1.04529C19.979 0.953697 20 0.855288 20 0.755871C20 0.656454 19.979 0.558044 19.9383 0.46645C19.8976 0.374857 19.8379 0.291936 19.7629 0.222582C19.609 0.0798873 19.4025 0 19.1873 0C18.9722 0 18.7657 0.0798873 18.6118 0.222582V0.224219Z" fill="black"/>
</svg>
