<?xml version="1.0" encoding="UTF-8"?>
<!DOCTYPE svg PUBLIC "-//W3C//DTD SVG 1.1//EN" "http://www.w3.org/Graphics/SVG/1.1/DTD/svg11.dtd">
<svg xmlns="http://www.w3.org/2000/svg" version="1.1" width="512px" height="512px" style="shape-rendering:geometricPrecision; text-rendering:geometricPrecision; image-rendering:optimizeQuality; fill-rule:evenodd; clip-rule:evenodd" xmlns:xlink="http://www.w3.org/1999/xlink">
<g><path style="opacity:0.934" fill="#000000" d="M 323.5,77.5 C 394.201,76.746 444.701,108.079 475,171.5C 493.444,220.159 489.444,266.825 463,311.5C 458.998,315.122 454.665,315.456 450,312.5C 449.042,310.801 448.542,308.967 448.5,307C 454.654,294.517 460.154,281.683 465,268.5C 479.476,207.59 462.309,157.757 413.5,119C 363.34,86.5442 312.34,85.2108 260.5,115C 222.635,140.753 201.635,176.586 197.5,222.5C 211.167,222.5 224.833,222.5 238.5,222.5C 243.697,180.273 266.363,152.106 306.5,138C 352.499,127.216 388.999,141.05 416,179.5C 430.049,204.105 433.382,230.105 426,257.5C 422.54,268.587 417.374,278.753 410.5,288C 421.908,291.741 429.741,299.241 434,310.5C 435.616,329.781 435.95,349.115 435,368.5C 432.27,381.563 424.437,389.73 411.5,393C 405.843,393.499 400.176,393.666 394.5,393.5C 393.628,402.243 390.295,409.91 384.5,416.5C 401.824,417.333 419.157,417.833 436.5,418C 440.277,420.911 441.444,424.744 440,429.5C 438.786,431.049 437.286,432.215 435.5,433C 307.167,433.667 178.833,433.667 50.5,433C 45.7762,430.565 44.2762,426.731 46,421.5C 46.8333,420.667 47.6667,419.833 48.5,419C 57.4187,417.887 66.4187,417.054 75.5,416.5C 69.7051,409.91 66.3717,402.243 65.5,393.5C 48.2633,396.461 35.43,390.461 27,375.5C 26.1779,373.212 25.5112,370.878 25,368.5C 24.3333,350.5 24.3333,332.5 25,314.5C 27.9855,301.515 35.8189,293.015 48.5,289C 61.1667,288.667 73.8333,288.333 86.5,288C 103.167,267 119.833,246 136.5,225C 137.833,224.333 139.167,223.667 140.5,223C 154.163,222.5 167.829,222.333 181.5,222.5C 188.786,151.729 226.119,105.229 293.5,83C 303.515,80.4559 313.515,78.6226 323.5,77.5 Z M 331.5,149.5 C 373.302,151.473 400.135,172.473 412,212.5C 418.385,256.727 401.052,287.727 360,305.5C 321.542,316.126 290.542,305.46 267,273.5C 245.344,233.45 251.177,197.95 284.5,167C 298.595,156.694 314.262,150.86 331.5,149.5 Z M 146.5,238.5 C 163.833,238.5 181.167,238.5 198.5,238.5C 198.5,255.167 198.5,271.833 198.5,288.5C 168.159,288.833 137.826,288.5 107.5,287.5C 120.749,271.319 133.749,254.985 146.5,238.5 Z M 214.5,238.5 C 222.5,238.5 230.5,238.5 238.5,238.5C 240.241,256.807 246.574,273.307 257.5,288C 243.171,288.5 228.837,288.667 214.5,288.5C 214.5,271.833 214.5,255.167 214.5,238.5 Z M 51.5,304.5 C 125.834,304.333 200.167,304.5 274.5,305C 302.744,326.318 333.744,331.318 367.5,320C 377.115,316.529 385.782,311.529 393.5,305C 398.5,304.333 403.5,304.333 408.5,305C 414.07,306.905 417.57,310.739 419,316.5C 419.667,333.167 419.667,349.833 419,366.5C 417.594,371.573 414.428,375.073 409.5,377C 404.511,377.499 399.511,377.666 394.5,377.5C 390.825,358.653 379.825,346.153 361.5,340C 330.009,334.236 309.675,346.569 300.5,377C 253.5,377.667 206.5,377.667 159.5,377C 150.836,348.32 131.503,335.654 101.5,339C 81.6785,344.651 69.6785,357.484 65.5,377.5C 60.4889,377.666 55.4889,377.499 50.5,377C 45.5723,375.073 42.4056,371.573 41,366.5C 40.3333,349.833 40.3333,333.167 41,316.5C 42.5938,310.745 46.0938,306.745 51.5,304.5 Z M 109.5,353.5 C 129.945,354.689 141.279,365.356 143.5,385.5C 140.366,409.74 126.699,419.907 102.5,416C 84.404,408.309 77.5706,394.809 82,375.5C 87.2543,363.06 96.421,355.727 109.5,353.5 Z M 345.5,353.5 C 365.831,354.999 377.164,365.832 379.5,386C 377.676,405.157 367.176,415.657 348,417.5C 328.579,415.579 318.079,404.912 316.5,385.5C 317.932,367.267 327.599,356.6 345.5,353.5 Z M 159.5,393.5 C 206.501,393.333 253.501,393.5 300.5,394C 302.557,402.448 306.224,410.114 311.5,417C 257.167,417.667 202.833,417.667 148.5,417C 153.927,409.98 157.594,402.147 159.5,393.5 Z"/></g>
<g><path style="opacity:0.925" fill="#000000" d="M 330.5,166.5 C 338.012,165.592 342.012,168.926 342.5,176.5C 360.677,182.444 368.01,194.61 364.5,213C 359.886,215.402 355.719,214.902 352,211.5C 349.381,193.944 339.881,188.444 323.5,195C 315.938,202.378 315.605,210.045 322.5,218C 328.727,221.313 335.393,222.98 342.5,223C 360.415,228.596 368.248,240.763 366,259.5C 362.833,272 355,279.833 342.5,283C 342.45,293.604 337.617,296.77 328,292.5C 326.982,289.361 326.149,286.195 325.5,283C 307.215,277.434 299.882,265.434 303.5,247C 309.226,244.096 313.726,245.262 317,250.5C 317.497,261.332 323.164,267.332 334,268.5C 346.08,267.098 351.413,260.431 350,248.5C 348.073,243.572 344.573,240.406 339.5,239C 327.767,239.092 317.6,235.259 309,227.5C 298.087,211.7 299.254,196.866 312.5,183C 316.554,180.306 320.888,178.139 325.5,176.5C 326.308,174.577 326.808,172.577 327,170.5C 328.376,169.295 329.542,167.962 330.5,166.5 Z"/></g>
</svg>
