<?xml version="1.0" encoding="UTF-8"?>
<svg version="1.1" xmlns="http://www.w3.org/2000/svg" width="512" height="512">
<path d="M0 0 C1.26538325 -0.00538554 2.53076651 -0.01077108 3.83449471 -0.01631981 C7.34005566 -0.03077127 10.84538144 -0.02653072 14.35095525 -0.019153 C18.13429168 -0.01442282 21.91757712 -0.02692988 25.70089722 -0.03717041 C33.11032025 -0.0543671 40.51965851 -0.05519657 47.92909633 -0.04995751 C53.95196779 -0.04591596 59.97481421 -0.04735918 65.99768448 -0.05270576 C66.85492374 -0.05345419 67.712163 -0.05420261 68.59537921 -0.05497371 C70.33687416 -0.05650519 72.07836911 -0.05804354 73.81986405 -0.05958868 C90.15182711 -0.07331703 106.48374227 -0.06787382 122.81570424 -0.05640347 C137.75410857 -0.04647214 152.69238902 -0.05940942 167.63077424 -0.08333766 C182.97206408 -0.10772597 198.3132962 -0.1173371 213.65460503 -0.11068493 C222.26654736 -0.10719193 230.87839444 -0.10943001 239.49032211 -0.12693596 C246.82200676 -0.14165465 254.15352907 -0.14229785 261.48521052 -0.12486505 C265.22498708 -0.1163496 268.96447361 -0.11421848 272.70423508 -0.1295166 C276.76074102 -0.14590478 280.81654657 -0.13122364 284.87304688 -0.11352539 C286.64124466 -0.1279329 286.64124466 -0.1279329 288.44516361 -0.14263147 C296.14639403 -0.07342221 301.58793754 0.95702449 307.58694458 6.1337738 C308.03296021 6.69193787 308.47897583 7.25010193 308.93850708 7.82518005 C309.63073364 8.65855896 309.63073364 8.65855896 310.33694458 9.5087738 C312.95206836 13.51474367 313.81366209 17.07143294 313.8235693 21.82195759 C313.83063489 22.90683187 313.83770048 23.99170615 313.84498018 25.10945541 C313.8425651 26.29562821 313.84015001 27.48180102 313.83766174 28.70391846 C313.84289842 29.96844729 313.8481351 31.23297612 313.85353047 32.535824 C313.86770476 36.04359157 313.86937387 39.5512705 313.86893356 43.0590626 C313.87058226 46.84309446 313.88364969 50.62708985 313.89512634 54.41110229 C313.91797059 62.68380628 313.92589619 70.95648461 313.93095279 79.22921586 C313.9342102 84.3951412 313.94073291 89.56105909 313.94795418 94.72698021 C313.96751863 109.03157848 313.98392399 123.33616984 313.98683071 137.64078236 C313.98701828 138.55605374 313.98720585 139.47132513 313.9873991 140.41433201 C313.98776535 142.2697825 313.98812905 144.12523299 313.98849022 145.98068348 C313.98867303 146.90172331 313.98885584 147.82276313 313.98904419 148.77171326 C313.98931501 150.15496014 313.98931501 150.15496014 313.98959131 151.5661514 C313.99313354 166.51110284 314.02015969 181.45591023 314.05754208 196.40081171 C314.09561989 211.74658476 314.11498815 227.09228632 314.11529022 242.43810767 C314.11587488 251.05345375 314.12437225 259.66862797 314.15328789 268.28392982 C314.17779466 275.61931155 314.18508943 282.95445871 314.17004036 290.2898703 C314.16286871 294.03173517 314.16373924 297.7731368 314.18645096 301.5149498 C314.21085081 305.57380432 314.19641278 309.63160381 314.17823792 313.69049072 C314.19143788 314.86997136 314.20463785 316.04945201 314.21823782 317.26467448 C314.12765821 326.11080015 311.94164106 330.9327703 305.81350708 337.20018005 C297.24209746 342.96939806 288.52959524 342.79626438 278.46585083 342.6806488 C277.02140242 342.67504265 275.57694825 342.67077738 274.13249207 342.66778564 C270.3594952 342.65641687 266.58685344 342.62702018 262.81399536 342.59367371 C258.95255332 342.56279929 255.09105302 342.54924347 251.22952271 342.53416443 C243.67402355 342.50214127 236.11881537 342.45104366 228.56350708 342.38768005 C228.57016891 343.20929626 228.57683075 344.03091248 228.58369446 344.87742615 C228.64396807 352.64504058 228.68956369 360.41254056 228.7189436 368.18032837 C228.73455621 372.17321299 228.75571318 376.16590332 228.78982544 380.15867615 C228.82257713 384.0166259 228.84039317 387.87438953 228.84813881 391.73246765 C228.8536541 393.19957913 228.86442381 394.66668118 228.88069725 396.13371277 C229.05380201 412.39523288 229.05380201 412.39523288 224.02053833 419.5947113 C223.47784302 420.12451599 222.93514771 420.65432068 222.37600708 421.20018005 C221.84620239 421.74287537 221.31639771 422.28557068 220.77053833 422.8447113 C214.73767531 427.0623766 208.52704025 427.89130411 201.31350708 427.82518005 C200.52460083 427.84516052 199.73569458 427.86514099 198.92288208 427.88572693 C195.16670721 427.88255448 193.17848975 427.82285441 190.05178833 425.6103363 C188.49784871 423.28962333 187.99561389 422.14899471 188.00100708 419.38768005 C187.96813599 418.39768005 187.96813599 418.39768005 187.93460083 417.38768005 C188.95231891 414.15121012 190.70697958 413.12132291 193.56350708 411.38768005 C197.22756958 410.8837738 197.22756958 410.8837738 201.18850708 410.82518005 C205.9725497 410.95714509 205.9725497 410.95714509 210.24888611 409.25869751 C212.1648166 406.53187398 211.96384255 404.39299212 211.99588013 401.08030701 C212.02557137 399.12862358 212.02557137 399.12862358 212.05586243 397.13751221 C212.06263225 395.71699671 212.06907911 394.29647964 212.07522583 392.8759613 C212.09207037 391.42291744 212.11022032 389.96988817 212.12962341 388.51687622 C212.1771545 384.69468241 212.20694343 380.87254775 212.23306274 377.05015564 C212.26285281 373.14887304 212.3093884 369.24779434 212.35452271 365.34666443 C212.44059124 357.6937532 212.50637251 350.04087201 212.56350708 342.38768005 C207.61350708 342.38768005 202.66350708 342.38768005 197.56350708 342.38768005 C197.58969116 343.84585144 197.61587524 345.30402283 197.64285278 346.80638123 C197.73340251 352.22012467 197.7907747 357.63380128 197.83816528 363.04808044 C197.86329833 365.39064289 197.89741016 367.73312701 197.94070435 370.07542419 C198.00140636 373.44402904 198.02972959 376.81159655 198.05178833 380.1806488 C198.07759476 381.22665756 198.10340118 382.27266632 198.12998962 383.35037231 C198.13171769 387.83755231 198.00477286 390.6233531 195.73342896 394.55760193 C190.98301674 397.30013813 186.74701483 397.00895307 181.35647583 396.8759613 C180.27594437 396.86888657 179.1954129 396.86181183 178.08213806 396.85452271 C174.63771763 396.82657852 171.19493453 396.76383638 167.75100708 396.70018005 C165.41313996 396.67509738 163.07524732 396.65228416 160.73733521 396.63182068 C155.01209687 396.57675112 149.28807938 396.49047501 143.56350708 396.38768005 C143.56350708 401.33768005 143.56350708 406.28768005 143.56350708 411.38768005 C144.96085083 411.36447693 146.35819458 411.3412738 147.79788208 411.31736755 C149.6364184 411.29860698 151.4749605 411.28040709 153.31350708 411.26268005 C154.23389771 411.24592224 155.15428833 411.22916443 156.10256958 411.2118988 C156.99202271 411.20545349 157.88147583 411.19900818 158.79788208 411.19236755 C159.61482544 411.18189392 160.4317688 411.17142029 161.27346802 411.16062927 C163.8165729 411.4127708 165.39409701 412.05836721 167.56350708 413.38768005 C169.64509728 416.06401031 169.55938299 417.50521673 169.43850708 420.95018005 C168.56350708 424.38768005 168.56350708 424.38768005 166.82034302 426.08421326 C164.16232895 427.61938603 162.62869413 427.73643348 159.57913208 427.6806488 C158.64456177 427.67098083 157.70999146 427.66131287 156.74710083 427.65135193 C155.77901489 427.62621521 154.81092896 427.60107849 153.81350708 427.57518005 C152.82995239 427.5616449 151.84639771 427.54810974 150.83303833 427.53416443 C148.40930293 427.49886731 145.98668563 427.4495606 143.56350708 427.38768005 C143.57349983 428.57918922 143.57349983 428.57918922 143.58369446 429.79476929 C143.64401839 437.31189703 143.68958897 444.82890598 143.7189436 452.34621334 C143.73454288 456.21015763 143.75567492 460.07390049 143.78982544 463.93772888 C143.82262542 467.67249063 143.84040315 471.40705966 143.84813881 475.14195442 C143.85364556 476.56079195 143.86439814 477.97961996 143.88069725 479.39837456 C143.9860471 488.95605196 144.06272004 498.34026179 137.25100708 505.76268005 C136.69799927 506.38916443 136.14499146 507.0156488 135.57522583 507.66111755 C129.23940182 513.09885389 123.09141872 512.81581312 115.12701416 512.77536011 C113.22893928 512.78343841 113.22893928 512.78343841 111.29251945 512.79167992 C107.7869585 512.80613138 104.28163272 512.80189083 100.77605891 512.79451311 C96.99272248 512.78978293 93.20943704 512.80228999 89.42611694 512.81253052 C82.01669391 512.8297272 74.60735565 512.83055668 67.19791783 512.82531761 C61.17504637 512.82127607 55.15219995 512.82271929 49.12932968 512.82806587 C48.27209042 512.82881429 47.41485116 512.82956272 46.53163495 512.83033382 C44.79014 512.8318653 43.04864505 512.83340365 41.30715011 512.83494879 C24.97518705 512.84867713 8.64327189 512.84323393 -7.68869008 512.83176357 C-22.62709441 512.82183224 -37.56537486 512.83476952 -52.50376008 512.85869776 C-67.84504991 512.88308608 -83.18628204 512.89269721 -98.52759087 512.88604504 C-107.1395332 512.88255204 -115.75138028 512.88479012 -124.36330795 512.90229607 C-131.6949926 512.91701476 -139.02651491 512.91765795 -146.35819636 512.90022516 C-150.09797292 512.89170971 -153.83745945 512.88957859 -157.57722092 512.90487671 C-161.63372686 512.92126488 -165.68953241 512.90658374 -169.74603271 512.8888855 C-170.92483124 512.8984905 -172.10362976 512.90809551 -173.31814945 512.91799158 C-181.00814229 512.8488833 -186.50960972 511.84455021 -192.45993042 506.60643005 C-192.90594604 506.03924255 -193.35196167 505.47205505 -193.81149292 504.88768005 C-194.27297729 504.32049255 -194.73446167 503.75330505 -195.20993042 503.16893005 C-197.81164355 499.39064602 -198.68695704 496.67995236 -198.69655514 492.06083298 C-198.70362073 490.97446635 -198.71068632 489.88809972 -198.71796602 488.76881289 C-198.71555094 487.5758363 -198.71313585 486.3828597 -198.71064758 485.1537323 C-198.71588426 483.88597434 -198.72112094 482.61821639 -198.72651631 481.31204152 C-198.74070901 477.79061316 -198.74235936 474.26927301 -198.7419194 470.74782014 C-198.7435665 466.950819 -198.75663105 463.15385433 -198.76811218 459.35687256 C-198.79096999 451.05311862 -198.79888368 442.74939023 -198.80393863 434.44560909 C-198.80719484 429.26076056 -198.81371687 424.07591946 -198.82094002 418.89107513 C-198.84050721 404.53590509 -198.85691064 390.18074195 -198.85981655 375.82555771 C-198.86000412 374.90678359 -198.86019169 373.98800947 -198.86038494 373.04139371 C-198.8607512 371.17880742 -198.86111489 369.31622112 -198.86147606 367.45363483 C-198.86165887 366.5290426 -198.86184168 365.60445038 -198.86203003 364.65184021 C-198.86230085 363.26325915 -198.86230085 363.26325915 -198.86257715 361.84662595 C-198.86611878 346.84664568 -198.89313993 331.84680898 -198.93052792 316.8468785 C-198.96860587 301.44689654 -198.98797399 286.04698582 -198.98827606 270.64695573 C-198.98886076 262.00029587 -198.99736061 253.35380726 -199.02627373 244.70719147 C-199.05078083 237.34433741 -199.05807514 229.98171703 -199.0430262 222.61883321 C-199.03585436 218.86279908 -199.03672583 215.10722644 -199.0594368 211.35124397 C-199.08383583 207.2770105 -199.0693989 203.20382811 -199.05122375 199.12956238 C-199.07102371 197.35348181 -199.07102371 197.35348181 -199.09122366 195.54152083 C-199.00081686 186.67914241 -196.82601287 181.85423454 -190.68649292 175.57518005 C-182.97128954 170.3822547 -174.6533259 169.16991197 -165.43649292 170.38768005 C-161.94447476 172.07450238 -160.61402203 173.12138639 -158.43649292 176.38768005 C-158.65746066 182.57477683 -158.65746066 182.57477683 -161.05368042 185.07518005 C-165.14852969 187.33070358 -169.5393871 186.86487228 -174.12399292 186.98143005 C-177.62253503 187.41049654 -179.03631268 187.84902787 -181.43649292 190.38768005 C-182.4497909 193.44297181 -182.56259697 196.26914909 -182.56512737 199.47302914 C-182.56835182 200.50551153 -182.57157627 201.53799393 -182.57489842 202.60176367 C-182.57334982 203.73453145 -182.57180122 204.86729923 -182.57020569 206.03439331 C-182.57247124 207.23893113 -182.5747368 208.44346894 -182.57707101 209.68450791 C-182.5823125 213.02929949 -182.58305483 216.37403739 -182.58187664 219.71882927 C-182.58167276 223.32557253 -182.58719009 226.93230773 -182.5919342 230.53904724 C-182.60024384 237.60547967 -182.60298918 244.67190376 -182.60354658 251.73834067 C-182.60402155 257.4809578 -182.6060753 263.22357217 -182.60924721 268.96618843 C-182.61805423 285.2417998 -182.62266645 301.51740457 -182.62191673 317.79301833 C-182.62187678 318.6706068 -182.62183682 319.54819526 -182.62179565 320.45237732 C-182.62175477 321.33103512 -182.62171389 322.20969292 -182.62167177 323.11497671 C-182.62126517 337.36034698 -182.6308381 351.60569084 -182.64493402 365.85105347 C-182.65928808 380.47243658 -182.66620476 395.0938068 -182.66534024 409.71519715 C-182.66500796 417.9263073 -182.66776871 426.13738976 -182.6785183 434.34849358 C-182.68761048 441.33844614 -182.68980908 448.32835845 -182.68300887 455.31831437 C-182.67973731 458.88548416 -182.67970984 462.45257665 -182.68836212 466.01973915 C-182.69764003 469.88452323 -182.69146777 473.74919362 -182.68373108 477.61398315 C-182.68887464 478.74452022 -182.69401821 479.87505728 -182.69931763 481.03985304 C-182.69471884 482.07494318 -182.69012004 483.11003332 -182.68538189 484.17648983 C-182.68559926 485.06856292 -182.68581663 485.960636 -182.68604058 486.87974161 C-182.39489837 489.80570268 -181.88559616 491.81862322 -180.43649292 494.38768005 C-177.03164166 496.30837432 -174.07590617 496.63841224 -170.21247864 496.64215565 C-168.65554338 496.65090394 -168.65554338 496.65090394 -167.06715488 496.65982896 C-165.93340899 496.65604964 -164.79966311 496.65227031 -163.63156128 496.64837646 C-161.81734759 496.65411479 -161.81734759 496.65411479 -159.96648312 496.65996903 C-156.61249198 496.66850422 -153.25871999 496.66806469 -149.90473509 496.66378844 C-146.2864132 496.6613231 -142.66811714 496.67033292 -139.04980469 496.67782593 C-131.96277985 496.69057975 -124.87579289 496.69236582 -117.78875852 496.69002566 C-112.02947648 496.68824332 -106.27020595 496.68999036 -100.51092529 496.69425011 C-99.2818465 496.69514289 -99.2818465 496.69514289 -98.02793783 496.69605371 C-96.36342215 496.69726545 -94.69890648 496.69847958 -93.03439081 496.69969609 C-77.42264104 496.710574 -61.81091287 496.70840779 -46.19916189 496.70231124 C-31.91180691 496.69714034 -17.62452008 496.70840163 -3.33717859 496.72740946 C11.32944126 496.74677251 25.99602884 496.75504665 40.66266155 496.75128621 C48.89836049 496.74937202 57.13400141 496.75188294 65.36968994 496.76600075 C72.37976559 496.7778959 79.38974749 496.77934038 86.39982438 496.76721058 C89.97716024 496.76130907 93.55432445 496.76025738 97.13164902 496.77221298 C101.00737688 496.78501552 104.88284273 496.77463773 108.75857544 496.76190186 C109.89232133 496.76927614 111.02606722 496.77665043 112.19416904 496.78424817 C113.23212588 496.77704163 114.27008272 496.76983509 115.3394928 496.76241016 C116.23406157 496.76246518 117.12863035 496.7625202 118.05030727 496.76257688 C121.14138599 496.30147721 123.03685419 495.19744605 125.56350708 493.38768005 C126.80336802 490.90795817 126.69337363 489.2609502 126.70052147 486.48595715 C126.70559601 485.44352327 126.71067055 484.40108939 126.71589887 483.3270666 C126.71639663 482.17290934 126.71689439 481.01875208 126.71740723 479.82962036 C126.72178948 478.61045718 126.72617173 477.39129401 126.73068678 476.13518649 C126.74176907 472.74027612 126.74830469 469.34541194 126.75286794 465.95049012 C126.75881745 462.29326258 126.77042884 458.6360521 126.78115845 454.97883606 C126.80569623 446.14160908 126.82031101 437.30437644 126.83321851 428.46712586 C126.83692925 425.97220771 126.84090257 423.47729012 126.84497118 420.98237252 C126.87020494 405.49765434 126.89226354 390.01293531 126.90469933 374.5282011 C126.90762914 370.94042648 126.91059079 367.35265188 126.91360474 363.76487732 C126.91472381 362.42725043 126.91472381 362.42725043 126.9158655 361.06260077 C126.92852469 346.61012574 126.9617546 332.15777358 127.00340657 317.70535602 C127.04579517 302.87611499 127.06939074 288.04693692 127.07461989 273.21763545 C127.07803736 264.88793335 127.089832 256.55842332 127.12272263 248.22878075 C127.15068206 241.13625796 127.16174062 234.0439666 127.15052716 226.95139297 C127.14532998 223.33142337 127.14829487 219.7119387 127.17299271 216.09203911 C127.19952871 212.17005761 127.1874608 208.24874213 127.17150879 204.32669067 C127.18539088 203.17922558 127.19927296 202.03176049 127.21357572 200.84952372 C127.16668368 196.19108883 127.06582372 193.23922773 124.67119884 189.17976189 C120.16778197 186.58282107 116.35082047 186.70555594 111.23243713 186.77536011 C109.65605291 186.76705999 109.65605291 186.76705999 108.04782254 186.75859219 C104.52067177 186.74599578 100.99464685 186.76901946 97.46755981 186.79173279 C94.94132226 186.78982942 92.41508554 186.78567521 89.88885498 186.7794342 C84.44636719 186.77063397 79.00422029 186.77682781 73.56176567 186.79609489 C65.68860865 186.82359118 57.81570315 186.81975119 49.94251884 186.80750907 C37.1629163 186.78811709 24.38339666 186.78805643 11.60379028 186.80296326 C10.83907904 186.80384939 10.07436779 186.80473553 9.28648347 186.80564851 C6.18781145 186.80928266 3.08913953 186.81300005 -0.00953228 186.81681507 C-8.54206893 186.82728058 -17.07460664 186.83552393 -25.60714722 186.84202576 C-26.37122985 186.84261399 -27.13531248 186.84320223 -27.92254914 186.84380829 C-40.65572591 186.85308275 -53.38885312 186.84662253 -66.12202114 186.82971531 C-73.97715363 186.82011697 -81.83202023 186.82530559 -89.68712281 186.84948302 C-95.7015872 186.86707026 -101.71586848 186.86473423 -107.73035812 186.85504532 C-110.20074108 186.85450856 -112.67113634 186.86089166 -115.1414814 186.87458611 C-118.50542451 186.89233368 -121.86846153 186.88575397 -125.23240662 186.87301636 C-126.21731836 186.88418737 -127.20223011 186.89535839 -128.21698767 186.90686792 C-134.77619228 186.84591803 -134.77619228 186.84591803 -138.04690456 184.57609653 C-140.08157046 181.37176889 -139.90079144 179.10206823 -139.43649292 175.38768005 C-137.67634161 172.20264436 -136.93758376 171.55471033 -133.43649292 170.38768005 C-131.88227563 170.3066132 -130.32482265 170.28011107 -128.76852417 170.2900238 C-127.87584839 170.29324646 -126.98317261 170.29646912 -126.06344604 170.29978943 C-124.67029175 170.31235779 -124.67029175 170.31235779 -123.24899292 170.32518005 C-122.30862183 170.32969177 -121.36825073 170.33420349 -120.39938354 170.33885193 C-118.0783558 170.3506338 -115.75745648 170.36708447 -113.43649292 170.38768005 C-113.44648567 169.15525574 -113.44648567 169.15525574 -113.4566803 167.89793396 C-113.51695391 160.13031953 -113.56254953 152.36281954 -113.59192944 144.59503174 C-113.60754205 140.60214712 -113.62869902 136.60945679 -113.66281128 132.61668396 C-113.69556297 128.7587342 -113.71337901 124.90097058 -113.72112465 121.04289246 C-113.72663994 119.57578098 -113.73740965 118.10867893 -113.75368309 116.64164734 C-113.92678785 100.38012723 -113.92678785 100.38012723 -108.89352417 93.1806488 C-108.35082886 92.65084412 -107.80813354 92.12103943 -107.24899292 91.57518005 C-106.71918823 91.03248474 -106.18938354 90.48978943 -105.64352417 89.9306488 C-97.74277997 84.40711968 -89.21521085 84.99247794 -79.99899292 85.0947113 C-78.50827463 85.10031534 -77.01755077 85.10458162 -75.52682495 85.10757446 C-71.62723192 85.11895977 -67.72798083 85.14837137 -63.82852173 85.1816864 C-59.83981958 85.21252452 -55.8510615 85.22610899 -51.86227417 85.24119568 C-44.05352552 85.27324815 -36.24505736 85.32436659 -28.43649292 85.38768005 C-28.44648567 84.19617088 -28.44648567 84.19617088 -28.4566803 82.98059082 C-28.51700423 75.46346308 -28.56257481 67.94645413 -28.59192944 60.42914677 C-28.60752872 56.56520247 -28.62866076 52.70145962 -28.66281128 48.83763123 C-28.69561126 45.10286948 -28.71338899 41.36830045 -28.72112465 37.63340569 C-28.7266314 36.21456815 -28.73738398 34.79574015 -28.75368309 33.37698555 C-28.85903294 23.81930815 -28.93570588 14.43509831 -22.12399292 7.01268005 C-21.57098511 6.38619568 -21.01797729 5.7597113 -20.44821167 5.11424255 C-14.11238766 -0.32349378 -7.96440456 -0.04045301 0 0 Z M-10.43649292 18.38768005 C-12.77218897 21.89122413 -12.6839672 23.26421879 -12.67700195 27.40505981 C-12.67975128 28.66289276 -12.68250061 29.92072571 -12.68533325 31.2166748 C-12.67825496 32.61311435 -12.67098534 34.00955294 -12.6635437 35.4059906 C-12.66297964 36.87439466 -12.66329604 38.34279928 -12.66442871 39.811203 C-12.66500343 43.80061679 -12.65322984 47.78991074 -12.6392808 51.77929664 C-12.62679331 55.94732035 -12.6256045 60.1153467 -12.62322998 64.28338623 C-12.61700937 72.17753198 -12.60059071 80.07162245 -12.580531 87.96574384 C-12.55819005 96.95233358 -12.54718311 105.93892593 -12.53714013 114.92553651 C-12.51622498 133.41294992 -12.48063571 151.90030852 -12.43649292 170.38768005 C-7.48649292 170.38768005 -2.53649292 170.38768005 2.56350708 170.38768005 C2.56937332 168.73254898 2.57523956 167.07741791 2.58128357 165.37213135 C2.63844718 149.78918883 2.71099775 134.20639782 2.79922199 118.62360096 C2.84418561 110.61194995 2.88359893 102.60034345 2.90994263 94.58860779 C2.93291817 87.60548957 2.96631113 80.62251214 3.01220864 73.63950557 C3.03614699 69.94211182 3.05487169 66.24485755 3.06112099 62.54738808 C3.06829297 58.41948703 3.09872236 54.29207141 3.13113403 50.16429138 C3.12969894 48.93861954 3.12826385 47.71294769 3.12678528 46.45013428 C3.13932343 45.32417847 3.15186157 44.19822266 3.16477966 43.03814697 C3.16938863 42.0619682 3.17399759 41.08578943 3.17874622 40.08002949 C3.68124489 36.56381423 4.04094073 34.9619942 6.56350708 32.38768005 C10.10558767 31.61625873 13.61831609 31.72305884 17.23025513 31.76622009 C18.34142795 31.75983127 19.45260077 31.75344245 20.59744549 31.74686003 C24.34039956 31.73153556 28.08230775 31.75212199 31.82522583 31.77244568 C34.5005983 31.76894672 37.17590091 31.76348794 39.85125732 31.75563049 C46.37517126 31.74108408 52.89877461 31.75335766 59.42265916 31.77474374 C67.01547674 31.79872277 74.60822268 31.79704128 82.20106971 31.79443783 C95.74610044 31.79074535 109.29098457 31.81159297 122.83596802 31.84568787 C135.98769842 31.87878072 149.13927494 31.89294644 162.29104614 31.88670349 C176.60281838 31.87994335 190.91452609 31.882389 205.2262888 31.90206289 C205.98270894 31.90310238 206.73912909 31.90414186 207.51847106 31.90521285 C209.0378211 31.90730379 210.55717111 31.90941476 212.0765211 31.91154602 C217.37259339 31.91844905 222.66864583 31.9191097 227.96472168 31.91766357 C234.41644551 31.91622561 240.86804365 31.92588279 247.31972575 31.94960994 C250.61326399 31.9614909 253.90659068 31.96698467 257.20015335 31.96277237 C260.7658918 31.9590807 264.33108353 31.97372495 267.89675903 31.99327087 C269.46808861 31.98527899 269.46808861 31.98527899 271.07116222 31.97712564 C272.02276887 31.98618228 272.97437551 31.99523892 273.95481873 32.00457001 C275.19007782 32.00692681 275.19007782 32.00692681 276.45029163 32.00933123 C279.1025695 32.48419347 279.98685649 33.22624724 281.56350708 35.38768005 C281.85826741 38.10808094 281.96818894 40.59975301 281.94445801 43.32102966 C281.94913798 44.13818671 281.95381795 44.95534376 281.95863974 45.79726315 C281.97063925 48.54501342 281.96111328 51.29226951 281.95169067 54.0400238 C281.95575418 56.00602002 281.96109481 57.97201395 281.96762085 59.93800354 C281.98132657 65.28502092 281.97598236 70.63186514 281.96648359 75.97888565 C281.95890385 81.56689684 281.96592791 87.15489291 281.97064209 92.74290466 C281.97610456 102.12810435 281.96889513 111.51323329 281.95462036 120.89842224 C281.93829293 131.75878666 281.94358109 142.61898214 281.96009958 153.47934246 C281.97370043 162.7931879 281.97564096 172.10698239 281.96778357 181.42083454 C281.96309935 186.98825158 281.96250275 192.55558913 281.97239304 198.1230011 C281.98104006 203.35639759 281.97508229 208.58957564 281.95771027 213.82294846 C281.95373329 215.7470806 281.95490005 217.67123104 281.96149826 219.59535599 C281.96965616 222.21526486 281.95946233 224.834467 281.94445801 227.45433044 C281.95115017 228.22173522 281.95784234 228.98914 281.9647373 229.77979946 C281.90794625 234.86711316 281.90794625 234.86711316 280.25844765 237.3600769 C277.36844998 239.11221545 274.8351825 238.73821671 271.56350708 238.38768005 C268.94757555 236.55652799 268.59361253 235.47799639 267.56350708 232.38768005 C267.45837575 229.91730237 267.40868506 227.47439514 267.4052887 225.00360107 C267.40035904 224.24740982 267.39542938 223.49121857 267.39035034 222.71211243 C267.37493914 220.16297132 267.36660393 217.61385513 267.35818481 215.06468201 C267.34847179 213.21203737 267.33832645 211.35939497 267.32778263 209.50675488 C267.30069408 204.53653272 267.27953807 199.56630171 267.25959015 194.59604645 C267.23999258 189.93554805 267.21507254 185.27508413 267.19058228 180.61460876 C267.12202905 166.97649176 267.06204398 153.33833277 267.00100708 139.70018005 C266.85663208 109.23705505 266.71225708 78.77393005 266.56350708 47.38768005 C184.72350708 47.38768005 102.88350708 47.38768005 18.56350708 47.38768005 C18.56350708 87.97768005 18.56350708 128.56768005 18.56350708 170.38768005 C28.66975708 170.77955505 38.77600708 171.17143005 49.18850708 171.57518005 C52.35009399 171.74815613 55.51168091 171.9211322 58.76907349 172.09934998 C72.05465246 172.88986077 72.05465246 172.88986077 84.22354126 168.60649109 C88.59341732 164.28528556 91.47915738 159.3548703 94.19503784 153.88465881 C96.14464921 150.32729848 98.63413128 147.31097023 101.22259521 144.20059204 C102.76172666 142.49550843 102.76172666 142.49550843 102.56350708 140.38768005 C101.79264771 140.27810974 101.02178833 140.16853943 100.22756958 140.0556488 C99.22467896 139.89709412 98.22178833 139.73853943 97.18850708 139.57518005 C96.19077271 139.42435974 95.19303833 139.27353943 94.16506958 139.1181488 C91.56350708 138.38768005 91.56350708 138.38768005 89.56350708 135.38768005 C88.89439406 131.77630293 88.99321383 129.37885233 90.84573364 126.15916443 C92.71492305 123.58016964 94.6756403 121.10618668 96.68850708 118.63768005 C98.17175482 116.7586366 99.65349795 114.87840458 101.13381958 112.99705505 C101.8817981 112.0553949 102.62977661 111.11373474 103.40042114 110.14353943 C106.55210773 106.12816265 109.56066655 102.01483791 112.56350708 97.88768005 C117.71168663 90.86262218 122.92460082 83.88896558 128.18850708 76.95018005 C128.86397583 76.05557068 129.53944458 75.1609613 130.23538208 74.23924255 C130.87217896 73.40264099 131.50897583 72.56603943 132.16506958 71.7040863 C132.72532837 70.96617859 133.28558716 70.22827087 133.86282349 69.46800232 C138.72081529 63.52557507 138.72081529 63.52557507 143.00100708 62.82518005 C150.39561805 63.99275021 154.74333829 72.35601886 159.00100708 78.01268005 C159.70402954 78.94128845 160.407052 79.86989685 161.13137817 80.8266449 C167.42207281 89.15526986 173.62131583 97.54998751 179.78860474 105.97019958 C181.69045713 108.56059057 183.6006793 111.14464932 185.51272583 113.7275238 C186.15902954 114.60134705 186.80533325 115.47517029 187.47122192 116.37547302 C188.71660219 118.05885937 189.9629803 119.74150808 191.21047974 121.42332458 C191.76654907 122.17597595 192.32261841 122.92862732 192.89553833 123.7040863 C193.63380859 124.70097473 193.63380859 124.70097473 194.38699341 125.71800232 C196.7252695 129.03642319 196.8108804 131.34724915 196.56350708 135.38768005 C194.56350708 138.38768005 194.56350708 138.38768005 191.74319458 139.1181488 C190.65264771 139.26896912 189.56210083 139.41978943 188.43850708 139.57518005 C187.34280396 139.73373474 186.24710083 139.89228943 185.11819458 140.0556488 C183.85362427 140.22000427 183.85362427 140.22000427 182.56350708 140.38768005 C186.62660813 146.67947452 190.97872647 152.64190086 195.62600708 158.51268005 C208.43843016 174.75921869 208.43843016 174.75921869 208.56350708 180.38768005 C207.59745133 183.13722333 207.18335194 184.07775763 204.56350708 185.38768005 C202.85986886 185.61390087 201.15022007 185.79656478 199.43850708 185.95018005 C198.52842896 186.03396912 197.61835083 186.11775818 196.68069458 186.2040863 C195.98202271 186.26467224 195.28335083 186.32525818 194.56350708 186.38768005 C195.94931951 189.34584861 197.55883588 191.89171661 199.50491333 194.51268005 C200.08483032 195.29602722 200.66474731 196.07937439 201.26223755 196.88645935 C202.18480347 198.1245636 202.18480347 198.1245636 203.12600708 199.38768005 C203.75136353 200.23693054 204.37671997 201.08618103 205.02102661 201.96116638 C207.78221358 205.70159087 210.55417851 209.41822975 213.48928833 213.0243988 C220.0962803 221.25416073 220.0962803 221.25416073 220.37600708 225.95018005 C219.56350708 229.38768005 219.56350708 229.38768005 218.09768677 231.07054138 C214.22750686 233.08206553 210.5071323 232.8680173 206.20413208 232.8993988 C205.29975403 232.91735001 204.39537598 232.93530121 203.46359253 232.95379639 C200.58027788 233.00789863 197.69712876 233.0417948 194.81350708 233.07518005 C192.8564528 233.10835321 190.89942036 233.14284286 188.94241333 233.17869568 C184.14942077 233.2660997 179.35718164 233.3261683 174.56350708 233.38768005 C174.56350708 243.61768005 174.56350708 253.84768005 174.56350708 264.38768005 C180.99850708 262.40768005 180.99850708 262.40768005 187.56350708 260.38768005 C210.83268657 256.50948347 227.79267132 265.22675338 246.93850708 277.07518005 C248.79219747 278.21853939 250.64677891 279.36038795 252.50311279 280.49945068 C254.17152132 281.52371261 255.83709254 282.55259208 257.50247192 283.58177185 C260.46503533 285.32958502 263.46864911 286.88894335 266.56350708 288.38768005 C266.5780896 287.71712585 266.59267212 287.04657166 266.60769653 286.35569763 C266.68239008 283.30329183 266.77898007 280.25195421 266.87600708 277.20018005 C266.89856567 276.1450824 266.92112427 275.08998474 266.94436646 274.00291443 C266.99754028 272.47054138 266.99754028 272.47054138 267.05178833 270.9072113 C267.07797241 269.96982117 267.10415649 269.03243103 267.13113403 268.06663513 C267.64672653 264.87205779 268.61201108 262.95919292 270.56350708 260.38768005 C274.00100708 259.38768005 274.00100708 259.38768005 277.56350708 259.38768005 C279.75282288 260.6111908 279.75282288 260.6111908 281.56350708 262.38768005 C282.07817078 264.43663025 282.07817078 264.43663025 282.09695435 266.81150818 C282.11279068 267.70253235 282.12862701 268.59355652 282.14494324 269.51158142 C282.13750343 270.95071899 282.13750343 270.95071899 282.12991333 272.41893005 C282.13611191 273.40639221 282.14231049 274.39385437 282.1486969 275.41123962 C282.15580169 277.49924228 282.15260961 279.58730151 282.1399231 281.67527771 C282.1260575 284.87604121 282.16011857 288.07388244 282.19827271 291.2743988 C282.19922386 293.30174327 282.19736527 295.32909141 282.19241333 297.35643005 C282.20567154 298.3158551 282.21892975 299.27528015 282.23258972 300.26377869 C282.22005661 301.15480286 282.2075235 302.04582703 282.1946106 302.96385193 C282.19364883 303.74756165 282.19268707 304.53127136 282.19169617 305.33872986 C281.56350708 307.38768005 281.56350708 307.38768005 279.37739944 308.99081898 C276.267105 310.53481878 274.36297371 310.77011883 270.91304016 310.78640747 C269.22410645 310.80521469 269.22410645 310.80521469 267.50105286 310.82440186 C266.27538101 310.82296677 265.04970917 310.82153168 263.78689575 310.8200531 C262.48894073 310.83024475 261.19098572 310.8404364 259.85369873 310.85093689 C256.30243281 310.87848693 252.75132703 310.88778862 249.1999681 310.89379096 C245.48565957 310.90317989 241.77147041 310.92938368 238.05723572 310.95379639 C231.02735642 310.99745088 223.9975003 311.02600425 216.96752673 311.04911977 C208.96265763 311.07617711 200.95790866 311.12008826 192.95312536 311.16540849 C176.48997792 311.25823972 160.02681324 311.32932955 143.56350708 311.38768005 C143.56350708 316.33768005 143.56350708 321.28768005 143.56350708 326.38768005 C162.9043033 326.48026219 182.24503697 326.55165139 201.58600903 326.59492874 C210.56629668 326.61555698 219.54644416 326.64368252 228.52664185 326.68943787 C236.35348027 326.72929769 244.18021718 326.75511097 252.00715429 326.76403403 C256.15178545 326.76925026 260.29612618 326.7815155 264.44066429 326.81060028 C268.34193555 326.83775603 272.2427968 326.84612484 276.14415359 326.84011078 C277.5756395 326.84121096 279.00713916 326.84916427 280.43854332 326.86450195 C282.39413396 326.88442801 284.34994474 326.87722876 286.30561829 326.86869812 C287.39978656 326.87238529 288.49395483 326.87607246 289.62127972 326.87987137 C293.31324114 326.26226059 294.96303001 325.04630657 297.56350708 322.38768005 C298.61173096 319.34672239 298.68961496 316.50136592 298.69214153 313.30233097 C298.69536598 312.26984858 298.69859043 311.23736618 298.70191258 310.17359644 C298.70036398 309.04082866 298.69881538 307.90806088 298.69721985 306.7409668 C298.69948541 305.53642898 298.70175096 304.33189116 298.70408517 303.0908522 C298.70932666 299.74606062 298.71006899 296.40132272 298.7088908 293.05653083 C298.70868692 289.44978758 298.71420425 285.84305238 298.71894836 282.23631287 C298.727258 275.16988044 298.73000334 268.10345635 298.73056074 261.03701944 C298.73103571 255.29440231 298.73308946 249.55178793 298.73626137 243.80917168 C298.74506839 227.53356031 298.74968061 211.25795554 298.74893089 194.98234177 C298.74889094 194.10475331 298.74885098 193.22716484 298.74880981 192.32298279 C298.74876893 191.44432499 298.74872805 190.56566719 298.74868593 189.6603834 C298.74827933 175.41501312 298.75785226 161.16966927 298.77194818 146.92430664 C298.78630224 132.30292352 298.79321892 117.6815533 298.7923544 103.06016296 C298.79202212 94.84905281 298.79478287 86.63797035 298.80553246 78.42686653 C298.81462464 71.43691396 298.81682324 64.44700165 298.81002303 57.45704574 C298.80675147 53.88987595 298.806724 50.32278346 298.81537628 46.75562096 C298.82465419 42.89083687 298.81848193 39.02616648 298.81074524 35.16137695 C298.81846058 33.46557136 298.81846058 33.46557136 298.82633179 31.73550707 C298.8194336 30.18287186 298.8194336 30.18287186 298.81239605 28.59887028 C298.81261342 27.70679719 298.81283079 26.8147241 298.81305474 25.8956185 C298.41953278 21.94074732 297.37803496 19.20220793 294.56350708 16.38768005 C291.51498574 15.34665725 288.6667622 15.26071518 285.46254063 15.25625229 C284.42657484 15.25241114 283.39060905 15.24857 282.32325035 15.24461246 C281.18659162 15.24547894 280.04993289 15.24634542 278.87882996 15.24723816 C277.67020859 15.24426704 276.46158722 15.24129591 275.21634096 15.23823476 C271.86014987 15.23105433 268.50400997 15.22837544 265.14781487 15.22763729 C261.52879966 15.22578604 257.90979554 15.21823846 254.29078674 15.21150208 C246.37771865 15.19792251 238.46465562 15.19189496 230.55157781 15.18749142 C225.61198968 15.18472902 220.6724035 15.18049174 215.7328167 15.17598724 C202.05961893 15.16379633 188.38642273 15.15349584 174.71321964 15.15011215 C173.83820501 15.14989259 172.96319037 15.14967302 172.06166014 15.1494468 C171.18454523 15.14922852 170.30743032 15.14901024 169.40373617 15.14878535 C167.62634536 15.14834189 165.84895454 15.14789532 164.07156372 15.14744568 C162.7490911 15.14711353 162.7490911 15.14711353 161.39990186 15.14677468 C147.10602046 15.14282452 132.81218998 15.12536309 118.51832826 15.10208616 C103.84722445 15.07838741 89.17614621 15.06591102 74.50502294 15.06474423 C66.26595024 15.06382678 58.02694392 15.05805645 49.78788948 15.03992462 C42.77413623 15.02454373 35.76046988 15.01939133 28.74670298 15.02766272 C25.16734427 15.03157606 21.58816068 15.03060648 18.00882339 15.01660538 C14.13086207 15.00157458 10.25314876 15.0097125 6.37516785 15.02018738 C5.24073984 15.01213097 4.10631183 15.00407457 2.93750721 14.99577403 C1.89893367 15.00236387 0.86036014 15.00895372 -0.20968533 15.01574326 C-1.10479618 15.01514617 -1.99990703 15.01454908 -2.92214245 15.0139339 C-6.03857362 15.47717647 -7.89560164 16.54777959 -10.43649292 18.38768005 Z M142.56350708 83.38768005 C141.49306009 84.6675665 140.46678861 85.98440565 139.45803833 87.3134613 C138.81028442 88.16456482 138.16253052 89.01566833 137.49514771 89.89256287 C136.7958313 90.81907654 136.09651489 91.74559021 135.37600708 92.70018005 C134.66508911 93.63829529 133.95417114 94.57641052 133.22171021 95.54295349 C128.30199832 102.04945799 123.41599502 108.58089749 118.56350708 115.13768005 C117.95869507 115.95277039 117.35388306 116.76786072 116.73074341 117.60765076 C116.18055542 118.35490417 115.63036743 119.10215759 115.06350708 119.87205505 C114.57881958 120.52915466 114.09413208 121.18625427 113.59475708 121.86326599 C112.4701204 123.21898176 112.4701204 123.21898176 112.56350708 124.38768005 C113.7023938 124.42635193 113.7023938 124.42635193 114.86428833 124.46580505 C116.35508911 124.55088318 116.35508911 124.55088318 117.87600708 124.63768005 C118.86213989 124.6840863 119.84827271 124.73049255 120.86428833 124.77830505 C123.56350708 125.38768005 123.56350708 125.38768005 125.41897583 127.05955505 C126.94089629 130.15533864 127.04573874 131.96511556 126.56350708 135.38768005 C124.90335083 138.33299255 124.90335083 138.33299255 122.50100708 141.51268005 C122.06997681 142.09235535 121.63894653 142.67203064 121.19485474 143.26927185 C119.66501472 145.31957564 118.11403292 147.35297846 116.56350708 149.38768005 C114.53777039 152.07730937 112.51606546 154.7699288 110.49539185 157.46336365 C109.13156035 159.27802846 107.76359732 161.08959601 106.39138794 162.89793396 C105.45178223 164.14002625 105.45178223 164.14002625 104.49319458 165.4072113 C103.92842407 166.15075867 103.36365356 166.89430603 102.7817688 167.66038513 C101.46744613 169.17159609 101.46744613 169.17159609 101.56350708 170.38768005 C102.14729126 170.40226257 102.73107544 170.41684509 103.33255005 170.43186951 C106.03512667 170.50737091 108.73660172 170.60368343 111.43850708 170.70018005 C112.81522583 170.73401794 112.81522583 170.73401794 114.21975708 170.76853943 C121.84659986 171.06394531 129.47363654 171.82374492 135.50100708 176.82518005 C136.18163208 177.67080505 136.86225708 178.51643005 137.56350708 179.38768005 C138.12038208 180.00643005 138.67725708 180.62518005 139.25100708 181.26268005 C143.54616825 188.21675051 142.98898392 196.4269944 143.18850708 204.32518005 C143.31225708 208.63580505 143.43600708 212.94643005 143.56350708 217.38768005 C161.05350708 217.38768005 178.54350708 217.38768005 196.56350708 217.38768005 C191.74838507 210.12394226 191.74838507 210.12394226 186.61819458 203.16111755 C185.5914563 201.83080505 185.5914563 201.83080505 184.54397583 200.47361755 C183.13360561 198.65766777 181.72213645 196.84257099 180.30960083 195.02830505 C170.60299222 182.44090712 170.60299222 182.44090712 170.50100708 177.13768005 C171.56350708 174.38768005 171.56350708 174.38768005 173.62600708 172.57518005 C177.34180209 171.07305016 180.57273122 170.7258814 184.56350708 170.38768005 C180.15532808 163.54381674 175.35656049 157.07338133 170.37600708 150.63768005 C168.96341927 148.81143326 167.55317774 146.9833687 166.14553833 145.15330505 C165.52912476 144.35698669 164.91271118 143.56066833 164.27761841 142.74021912 C160.65364405 137.76648077 158.86084006 134.71168322 159.56350708 128.38768005 C161.28893278 125.92361057 162.27867835 125.44167797 165.26272583 124.8759613 C169.41311646 124.63182068 169.41311646 124.63182068 173.56350708 124.38768005 C169.59367673 118.24634169 165.3596757 112.42489106 160.81350708 106.70018005 C155.85613027 100.40566382 151.05935648 94.03790266 146.49612427 87.45140076 C145.54052649 86.08126024 144.55538312 84.73179094 143.56350708 83.38768005 C143.23350708 83.38768005 142.90350708 83.38768005 142.56350708 83.38768005 Z M-95.80941772 103.01475525 C-97.94151169 106.12419891 -97.91971466 108.05207518 -97.89059448 111.80857849 C-97.89029236 113.10962524 -97.88999023 114.410672 -97.88967896 115.75114441 C-97.86925378 117.16645421 -97.84838982 118.58175773 -97.82711792 119.99705505 C-97.81965437 121.44864625 -97.81396197 122.90024754 -97.80996704 124.35185242 C-97.79471935 128.16614263 -97.75544601 131.97982027 -97.71115112 135.79386902 C-97.67017915 139.68833632 -97.65195198 143.58290294 -97.63180542 147.4775238 C-97.58894986 155.1145537 -97.51860827 162.75095289 -97.43649292 170.38768005 C-92.48649292 170.38768005 -87.53649292 170.38768005 -82.43649292 170.38768005 C-82.42714722 168.92427185 -82.41780151 167.46086365 -82.40817261 165.95310974 C-82.36831382 160.525879 -82.30256578 155.09921758 -82.22897339 149.67234802 C-82.20074004 147.32313854 -82.17953734 144.97383364 -82.16549683 142.62449646 C-82.14410068 139.24818488 -82.09746555 135.87302339 -82.04586792 132.49705505 C-82.04463928 131.44588501 -82.04341064 130.39471497 -82.04214478 129.31169128 C-81.9624229 125.34668852 -81.89609166 122.2961892 -80.09274292 118.73143005 C-75.67841122 116.49829754 -71.20322561 116.78400439 -66.32711792 116.77830505 C-64.7041983 116.75350067 -64.7041983 116.75350067 -63.04849243 116.72819519 C-59.59443534 116.67962904 -56.14081881 116.65832439 -52.68649292 116.63768005 C-50.34402274 116.6095277 -48.00157315 116.57960132 -45.65914917 116.5478363 C-39.9183 116.47386725 -34.17769665 116.42434487 -28.43649292 116.38768005 C-28.43649292 111.43768005 -28.43649292 106.48768005 -28.43649292 101.38768005 C-36.84236516 101.29729433 -45.24785934 101.2239161 -53.65408707 101.18043137 C-57.5574881 101.15956036 -61.46053931 101.13125249 -65.36373901 101.08592224 C-69.13091212 101.04244578 -72.89774887 101.01853928 -76.6651535 101.00817108 C-78.10210211 101.00078282 -79.53903239 100.98635499 -80.97583771 100.96475983 C-82.98890717 100.93570802 -85.00231545 100.93404601 -87.01559448 100.93357849 C-88.73434784 100.92025482 -88.73434784 100.92025482 -90.48782349 100.90666199 C-93.49909419 101.18329427 -93.49909419 101.18329427 -95.80941772 103.01475525 Z M-66.43649292 132.38768005 C-66.43649292 144.92768005 -66.43649292 157.46768005 -66.43649292 170.38768005 C-53.89649292 170.38768005 -41.35649292 170.38768005 -28.43649292 170.38768005 C-28.43649292 157.84768005 -28.43649292 145.30768005 -28.43649292 132.38768005 C-40.97649292 132.38768005 -53.51649292 132.38768005 -66.43649292 132.38768005 Z M143.56350708 233.38768005 C143.56350708 253.84768005 143.56350708 274.30768005 143.56350708 295.38768005 C148.51350708 295.38768005 153.46350708 295.38768005 158.56350708 295.38768005 C158.56350708 274.92768005 158.56350708 254.46768005 158.56350708 233.38768005 C153.61350708 233.38768005 148.66350708 233.38768005 143.56350708 233.38768005 Z M174.56350708 283.38768005 C174.56350708 287.34768005 174.56350708 291.30768005 174.56350708 295.38768005 C197.99350708 295.38768005 221.42350708 295.38768005 245.56350708 295.38768005 C232.56484574 284.98875098 215.4124046 273.19906222 198.02444458 274.0712738 C189.2545107 275.19883673 181.41841693 277.72492844 174.56350708 283.38768005 Z M143.56350708 342.38768005 C143.56350708 354.92768005 143.56350708 367.46768005 143.56350708 380.38768005 C156.10350708 380.38768005 168.64350708 380.38768005 181.56350708 380.38768005 C181.56350708 367.84768005 181.56350708 355.30768005 181.56350708 342.38768005 C169.02350708 342.38768005 156.48350708 342.38768005 143.56350708 342.38768005 Z " fill="#000000" transform="translate(198.43649291992188,-0.3876800537109375)"/>
<path d="M0 0 C0.93295627 -0.00384115 1.86591254 -0.00768229 2.82714021 -0.01163983 C3.85387428 -0.01077335 4.88060836 -0.00990687 5.93845558 -0.00901413 C7.02779951 -0.01198525 8.11714343 -0.01495637 9.23949778 -0.01801753 C12.90833327 -0.02672451 16.5771362 -0.02821446 20.24598122 -0.02970505 C22.86882027 -0.03433175 25.49165864 -0.03935621 28.11449623 -0.04475021 C35.25285469 -0.05833562 42.39120754 -0.06435842 49.52957678 -0.06876087 C53.98555909 -0.07152264 58.44153922 -0.07575985 62.89752007 -0.08026505 C75.23159524 -0.09245741 87.56566868 -0.10275716 99.89974976 -0.10614014 C100.68923879 -0.1063597 101.47872782 -0.10657927 102.29214076 -0.10680549 C103.47922503 -0.10713291 103.47922503 -0.10713291 104.69029081 -0.10746694 C106.29397798 -0.1079104 107.89766514 -0.10835697 109.50135231 -0.10880661 C110.2968384 -0.10902804 111.09232448 -0.10924947 111.91191621 -0.10947761 C124.80586077 -0.11342687 137.69974886 -0.13088491 150.5936716 -0.15416613 C163.8273682 -0.17786829 177.06103645 -0.19034145 190.29475462 -0.19150805 C197.72677411 -0.1924254 205.15871999 -0.1981926 212.59071922 -0.21632767 C219.57890245 -0.23331956 226.56694365 -0.23498979 233.55514145 -0.22618866 C236.12346394 -0.22541546 238.69179379 -0.22979798 241.2600975 -0.23964691 C244.75941622 -0.25228174 248.25823277 -0.24653546 251.75754738 -0.23606491 C253.29095632 -0.24814952 253.29095632 -0.24814952 254.85534322 -0.26047826 C263.70540824 -0.19831422 263.70540824 -0.19831422 267.47498512 3.13142776 C269.28528574 6.10541871 269.72574449 8.32017975 269.72946072 11.77949047 C269.73529291 12.71443779 269.7411251 13.64938511 269.74713403 14.61266416 C269.74335471 15.63648539 269.73957538 16.66030662 269.73568153 17.71515274 C269.73950708 18.80535109 269.74333263 19.89554944 269.7472741 21.01878411 C269.75762154 24.68455438 269.7536086 28.35016853 269.74964333 32.01594925 C269.75398882 34.63893657 269.75917142 37.26192262 269.765131 39.88490677 C269.77788914 46.27757127 269.77967031 52.6701938 269.77733073 59.06286889 C269.7755487 64.25819734 269.77729476 69.45351303 269.78155518 74.64883995 C269.78215036 75.38787583 269.78274555 76.1269117 269.78335878 76.88834261 C269.78457051 78.38962682 269.78578465 79.89091103 269.78700116 81.39219523 C269.79788095 95.47549924 269.7957121 109.55877931 269.78961631 123.64208467 C269.78444649 136.5295032 269.79570351 149.41684617 269.81471453 162.30424976 C269.83408034 175.53346287 269.84235116 188.76264021 269.83859128 201.9918676 C269.83667735 209.42051274 269.83918537 216.84909354 269.85330582 224.27772713 C269.8664468 231.26182874 269.86397668 238.24577639 269.85089493 245.22987747 C269.84852119 247.79658496 269.85129216 250.36330299 269.85951805 252.9299984 C269.86991957 256.42708337 269.86193754 259.92365314 269.84920692 263.42071915 C269.85658121 264.44230966 269.86395549 265.46390016 269.87155324 266.51644796 C269.82904583 272.04656692 269.59169049 276.0147224 265.47498512 280.13142776 C264.0244901 280.23167388 262.5691373 280.26249184 261.11518574 280.26564884 C260.16817789 280.27010669 259.22117004 280.27456453 258.24546498 280.27915746 C257.19276836 280.2789731 256.14007175 280.27878873 255.05547523 280.27859879 C253.94671683 280.28227547 252.83795843 280.28595216 251.69560128 280.28974026 C247.94912506 280.30082722 244.20267651 280.30462938 240.45618629 280.30842972 C237.78275828 280.31469053 235.10933328 280.32132371 232.43590736 280.32834244 C224.39026284 280.34812993 216.34461701 280.35817612 208.29895422 280.36707023 C204.51342067 280.37144954 200.72788854 280.37681728 196.94235611 280.3820591 C184.36387834 280.39907394 171.78540146 280.41356901 159.20691395 280.42080784 C155.94072086 280.42271785 152.67452779 280.42463816 149.40833473 280.42659378 C148.59650226 280.42707752 147.78466978 280.42756126 146.94823632 280.42805966 C133.79157732 280.43636326 120.63500915 280.46170455 107.47838982 280.49417446 C93.98146889 280.52721357 80.48459417 280.54525376 66.98763257 280.54845208 C59.4052415 280.55062015 51.82298285 280.55941189 44.2406311 280.58491325 C37.78414136 280.6065774 31.32781619 280.61469196 24.87129422 280.60494647 C21.57553518 280.60038911 18.28018836 280.60453427 14.98446083 280.62170792 C11.4144983 280.63927468 7.84540744 280.63239518 4.27544594 280.61917496 C2.70643926 280.63562883 2.70643926 280.63562883 1.10573548 280.6524151 C-2.79619626 280.61734915 -5.67021139 280.56996674 -9.16871834 278.77513123 C-11.39250452 274.4405104 -11.07035324 270.14431965 -11.02622032 265.3444252 C-11.03175472 264.23239796 -11.03728912 263.12037071 -11.04299122 261.97464567 C-11.05664378 258.23493346 -11.04160286 254.49588329 -11.02672386 250.75618362 C-11.03050534 248.08067355 -11.03585099 245.40520826 -11.04309654 242.72970963 C-11.05704074 236.20932068 -11.04946446 229.6891252 -11.03442096 223.16874545 C-11.01757594 215.57919283 -11.02076916 207.9896886 -11.02451504 200.40012307 C-11.03039567 186.86121868 -11.01621357 173.32240726 -10.99156761 159.78352737 C-10.96764148 146.63863516 -10.96056492 133.49386714 -10.9710598 120.34895706 C-10.982462 106.04194389 -10.9844081 91.73498818 -10.9699617 77.42797571 C-10.96843583 75.90325424 -10.96691547 74.37853275 -10.9654007 72.85381126 C-10.96464288 72.10357536 -10.96388507 71.35333945 -10.96310429 70.58036913 C-10.95835642 65.28678672 -10.96021642 59.99322993 -10.96446609 54.6996479 C-10.96938622 48.25161573 -10.96343761 41.80370111 -10.9435718 35.3556959 C-10.9336816 32.06417106 -10.93021513 28.7728627 -10.93646431 25.48132324 C-10.94238324 21.91783691 -10.92997687 18.35488475 -10.91269493 14.79144669 C-10.91870498 13.74457575 -10.92471502 12.69770482 -10.93090719 11.61911052 C-10.92246725 10.66812058 -10.91402731 9.71713063 -10.90533161 8.73732281 C-10.90430248 7.91435882 -10.90327335 7.09139483 -10.90221304 6.24349254 C-10.43012817 3.60012381 -9.63555067 2.74836994 -7.52501488 1.13142776 C-4.68496215 0.18474352 -2.94249672 0.00454369 0 0 Z M5.47498512 16.13142776 C5.47498512 74.21142776 5.47498512 132.29142776 5.47498512 192.13142776 C12.11704409 187.16838251 12.11704409 187.16838251 18.28748512 181.81892776 C21.76614017 178.63859536 25.30912253 175.59410656 28.97498512 172.63142776 C32.56976162 169.72329397 36.0575914 166.74601445 39.47498512 163.63142776 C43.77490303 159.71251524 48.23418059 156.03971907 52.75623512 152.38142776 C55.39646242 150.19641207 57.94228233 147.93971386 60.47498512 145.63142776 C64.77490303 141.71251524 69.23418059 138.03971907 73.75623512 134.38142776 C76.39646242 132.19641207 78.94228233 129.93971386 81.47498512 127.63142776 C86.64919222 122.92685411 91.99537354 118.47523378 97.47498512 114.13142776 C98.35670387 113.39472855 98.35670387 113.39472855 99.25623512 112.64314651 C101.88922024 110.6053841 103.34662387 110.12940999 106.70545387 110.18220901 C111.53779548 111.39905773 113.96646969 113.59445948 117.53748512 116.94392776 C118.85987324 118.13722209 120.18280222 119.32991728 121.50623512 120.52205276 C122.16881325 121.12726761 122.83139137 121.73248245 123.51404762 122.35603714 C126.46888714 125.03128527 129.50073565 127.61254036 132.53748512 130.19392776 C133.69018553 131.17918773 134.84252891 132.16486555 135.99451637 133.15095901 C136.56508766 133.6390303 137.13565895 134.12710159 137.72352028 134.62996292 C139.52275283 136.17237722 141.31769096 137.71966544 143.11170387 139.26814651 C149.79485501 145.03028851 156.52710175 150.68838549 163.47498512 156.13142776 C168.52629196 151.90502292 173.24431131 147.48497987 177.86951637 142.79939651 C178.54294579 142.12218048 179.2163752 141.44496445 179.91021156 140.74722672 C182.03843432 138.60689115 184.16335381 136.46332336 186.28748512 134.31892776 C189.10364381 131.47623432 191.92306018 128.63683095 194.74451637 125.79939651 C195.71322418 124.8182412 195.71322418 124.8182412 196.70150185 123.81726456 C197.29940025 123.21606293 197.89729866 122.6148613 198.5133152 121.99544144 C199.03847221 121.46504761 199.56362923 120.93465378 200.10470009 120.38818741 C202.55109448 118.14447192 205.06027912 117.46641285 208.37861061 117.53230667 C213.35525058 118.95457639 216.84083954 123.6939079 220.31092262 127.31892776 C221.7160992 128.74285562 223.12127691 130.16678236 224.52652359 131.59064102 C226.48430083 133.58354572 228.42526285 135.59247053 230.3669529 137.60103226 C233.31117775 140.63928619 236.27886033 143.65459594 239.24420547 146.67221451 C241.54862669 149.01781642 243.84765472 151.36818423 246.13767433 153.72786331 C247.36497765 154.98917068 247.36497765 154.98917068 248.61707497 156.27595901 C249.33986641 157.0220845 250.06265785 157.76820999 250.80735207 158.53694534 C252.21090806 160.24660721 252.21090806 160.24660721 253.47498512 160.13142776 C253.47498512 112.61142776 253.47498512 65.09142776 253.47498512 16.13142776 C171.63498512 16.13142776 89.79498512 16.13142776 5.47498512 16.13142776 Z M87.00623512 143.88142776 C83.49699026 147.00075653 79.8433639 149.92891909 76.19373512 152.88142776 C73.55350783 155.06644346 71.00768792 157.32314167 68.47498512 159.63142776 C64.17506722 163.55034029 59.71578966 167.22313646 55.19373512 170.88142776 C52.55350783 173.06644346 50.00768792 175.32314167 47.47498512 177.63142776 C43.17506722 181.55034029 38.71578966 185.22313646 34.19373512 188.88142776 C31.55350783 191.06644346 29.00768792 193.32314167 26.47498512 195.63142776 C19.72810221 201.77571826 12.5981127 207.43292571 5.47498512 213.13142776 C5.47498512 229.96142776 5.47498512 246.79142776 5.47498512 264.13142776 C87.31498512 264.13142776 169.15498512 264.13142776 253.47498512 264.13142776 C254.41685728 254.97535052 254.41685728 254.97535052 251.67420387 251.50252151 C250.84533669 250.86443558 250.0164695 250.22634964 249.16248512 249.56892776 C248.24853981 248.8354512 247.3345945 248.10197464 246.39295387 247.34627151 C245.43002419 246.61537308 244.4670945 245.88447464 243.47498512 245.13142776 C241.63725883 243.63681303 239.80389329 242.13682008 237.97498512 240.63142776 C237.05717262 239.88892776 236.13936012 239.14642776 235.19373512 238.38142776 C231.6973273 235.48784888 228.3599038 232.43793593 225.00623512 229.38142776 C222.38653702 227.05280723 219.69983203 224.83579829 216.97498512 222.63142776 C212.51222299 219.02110334 208.24778979 215.24714848 204.00623512 211.38142776 C201.38653702 209.05280723 198.69983203 206.83579829 195.97498512 204.63142776 C191.51222299 201.02110334 187.24778979 197.24714848 183.00623512 193.38142776 C180.38653702 191.05280723 177.69983203 188.83579829 174.97498512 186.63142776 C170.51222299 183.02110334 166.24778979 179.24714848 162.00623512 175.38142776 C159.38653702 173.05280723 156.69983203 170.83579829 153.97498512 168.63142776 C149.51222299 165.02110334 145.24778979 161.24714848 141.00623512 157.38142776 C138.38653702 155.05280723 135.69983203 152.83579829 132.97498512 150.63142776 C129.38020862 147.72329397 125.89237884 144.74601445 122.47498512 141.63142776 C105.24344426 125.94878945 103.78340872 128.59083917 87.00623512 143.88142776 Z M202.58582497 139.79353714 C201.36404868 141.01563139 200.14779333 142.24326014 198.93592262 143.47517776 C198.29506721 144.11886307 197.65421181 144.76254837 196.99393654 145.42573929 C194.94122945 147.48967224 192.89557141 149.56043939 190.84998512 151.63142776 C189.46242191 153.02901766 188.07440684 154.42615911 186.68592262 155.82283401 C183.27700528 159.25384364 179.87439564 162.69099967 176.47498512 166.13142776 C177.41762383 167.25140972 178.36318097 168.36893574 179.30994606 169.48543167 C179.83618568 170.10801865 180.36242531 170.73060562 180.90461159 171.37205887 C182.9807739 173.69808851 185.27082154 175.58865323 187.72498512 177.50642776 C191.41522743 180.44864798 194.99122085 183.44722284 198.47498512 186.63142776 C201.89237884 189.74601445 205.38020862 192.72329397 208.97498512 195.63142776 C213.43774726 199.24175219 217.70218045 203.01570705 221.94373512 206.88142776 C225.44891221 209.99714073 229.09767413 212.9224021 232.74451637 215.86970901 C236.23672075 218.76239333 239.57282327 221.80559949 242.89295387 224.89314651 C245.08757899 226.79559763 247.30962023 228.53769567 249.63636208 230.27132034 C250.35556328 230.80799835 251.07476448 231.34467636 251.81575966 231.89761734 C252.36330406 232.30477478 252.91084846 232.71193222 253.47498512 233.13142776 C258.69653241 205.68940136 258.69653241 205.68940136 251.45374489 179.66463089 C245.58859834 171.18629528 238.13327377 163.98506796 230.59998512 157.00642776 C230.05399414 156.49916908 229.50800316 155.9919104 228.945467 155.46928024 C216.30535382 141.52975637 216.30535382 141.52975637 202.58582497 139.79353714 Z " fill="#000000" transform="translate(41.525014877319336,200.86857223510742)"/>
<path d="M0 0 C8.61086586 5.24442073 15.76520039 13.41872073 18.5625 23.26171875 C20.43270204 34.9671797 19.86992292 46.24511008 13.45703125 56.45703125 C6.89754765 65.508218 -1.67090675 71.3462525 -12.6953125 73.53515625 C-24.97859538 75.05744345 -36.15490462 71.83278467 -46.1015625 64.4375 C-53.50617893 57.65265323 -58.29394696 48.00241811 -59 38 C-59.25005315 25.622369 -55.9055225 14.99221247 -47.24609375 5.97265625 C-34.47598283 -5.24283247 -15.22001307 -8.39467169 0 0 Z M-35.27734375 17.36328125 C-39.69174776 21.55746556 -41.89161759 26.05503979 -43 32 C-43.11566271 39.11968233 -41.20158213 45.32441739 -36.49609375 50.7265625 C-31.7278115 55.21826225 -26.30265249 57.82408235 -19.70703125 58.09375 C-12.42624386 57.59249097 -6.52166399 55.00455514 -1.625 49.5625 C3.00095535 43.99326326 3.56132256 38.42235471 3.44140625 31.36328125 C2.55713489 24.62560299 -1.02399728 19.27017799 -6.25 15 C-16.0337235 8.94443546 -26.6158392 10.25154889 -35.27734375 17.36328125 Z " fill="#000000" transform="translate(229,237)"/>
</svg>
