<svg width="16" height="14" viewBox="0 0 16 14" fill="none" xmlns="http://www.w3.org/2000/svg">
<g clip-path="url(#clip0_1181_3956)">
<path d="M14.1805 6.17723V1.72848C14.1805 0.82386 13.4445 0.0878906 12.5399 0.0878906H3.46003C2.55541 0.0878906 1.8195 0.82386 1.8195 1.72848V6.17723C0.777125 6.42798 0 7.36758 0 8.4858V11.804C0 12.0673 0.213406 12.2807 0.476656 12.2807H1.81947V13.4335C1.81947 13.6968 2.03288 13.9102 2.29612 13.9102C2.55937 13.9102 2.77278 13.6968 2.77278 13.4335V12.2807H13.2272V13.4335C13.2272 13.6968 13.4406 13.9102 13.7038 13.9102C13.9671 13.9102 14.1805 13.6968 14.1805 13.4335V12.2807H15.5233C15.7865 12.2807 15.9999 12.0673 15.9999 11.804V8.4858C16 7.36758 15.2229 6.42798 14.1805 6.17723ZM2.77281 1.72848C2.77281 1.34955 3.08113 1.04123 3.46003 1.04123H12.5399C12.9189 1.04123 13.2272 1.34955 13.2272 1.72848V6.11105H11.652V5.35905C11.652 4.11311 10.6384 3.09948 9.39247 3.09948H6.60759C5.36166 3.09948 4.34803 4.11314 4.34803 5.35905V6.11102H2.77281V1.72848ZM10.6987 5.35905V6.11102H5.30128V5.35905C5.30128 4.63877 5.88725 4.0528 6.60753 4.0528H9.39244C10.1127 4.05277 10.6987 4.6388 10.6987 5.35905ZM0.953313 11.3274V8.4858C0.953313 7.70202 1.59097 7.06436 2.37475 7.06436H13.6252C14.409 7.06436 15.0466 7.70202 15.0466 8.4858V11.3274H0.953313Z" fill="#8E8E93"/>
</g>
<defs>
<clipPath id="clip0_1181_3956">
<rect width="16" height="14" fill="white"/>
</clipPath>
</defs>
</svg>
