<?xml version="1.0" encoding="UTF-8"?>
<!DOCTYPE svg PUBLIC "-//W3C//DTD SVG 1.1//EN" "http://www.w3.org/Graphics/SVG/1.1/DTD/svg11.dtd">
<svg xmlns="http://www.w3.org/2000/svg" version="1.1" width="512px" height="512px" style="shape-rendering:geometricPrecision; text-rendering:geometricPrecision; image-rendering:optimizeQuality; fill-rule:evenodd; clip-rule:evenodd" xmlns:xlink="http://www.w3.org/1999/xlink">
<g><path style="opacity:0.956" fill="#000000" d="M 238.5,-0.5 C 250.167,-0.5 261.833,-0.5 273.5,-0.5C 339.149,9.64295 383.315,45.9763 406,108.5C 408.767,117.667 410.767,127 412,136.5C 420.422,137.318 428.922,137.818 437.5,138C 440.034,138.516 442.2,139.683 444,141.5C 445.64,159.743 445.973,178.076 445,196.5C 443.833,198.333 442.333,199.833 440.5,201C 431.506,201.5 422.506,201.666 413.5,201.5C 413.5,283.833 413.5,366.167 413.5,448.5C 422.506,448.334 431.506,448.5 440.5,449C 442.552,449.93 444.052,451.43 445,453.5C 445.667,471.167 445.667,488.833 445,506.5C 443.975,508.687 442.475,510.354 440.5,511.5C 317.5,511.5 194.5,511.5 71.5,511.5C 69.525,510.354 68.025,508.687 67,506.5C 66.3333,488.833 66.3333,471.167 67,453.5C 67.8333,451.333 69.3333,449.833 71.5,449C 80.4938,448.5 89.4938,448.334 98.5,448.5C 98.5,366.167 98.5,283.833 98.5,201.5C 88.7274,201.948 79.0607,201.448 69.5,200C 68.2986,199.097 67.4652,197.931 67,196.5C 66.3333,178.833 66.3333,161.167 67,143.5C 67.7845,141.714 68.9512,140.214 70.5,139C 80.1003,137.609 89.767,137.109 99.5,137.5C 108.517,79.27 139.517,37.4366 192.5,12C 207.455,5.93076 222.788,1.76409 238.5,-0.5 Z M 247.5,17.5 C 305.188,17.0807 348.688,41.414 378,90.5C 385.575,105.225 390.742,120.725 393.5,137C 373.825,137.833 354.158,137.666 334.5,136.5C 321.249,99.7783 295.083,80.1117 256,77.5C 216.475,79.6534 190.308,99.3201 177.5,136.5C 157.845,137.5 138.178,137.833 118.5,137.5C 130.121,76.0461 166.121,37.2128 226.5,21C 233.608,19.5932 240.608,18.4265 247.5,17.5 Z M 248.5,96.5 C 279.387,95.4239 301.387,108.757 314.5,136.5C 275.5,137.833 236.5,137.833 197.5,136.5C 207.512,114.145 224.512,100.811 248.5,96.5 Z M 84.5,156.5 C 198.5,156.5 312.5,156.5 426.5,156.5C 426.5,165.5 426.5,174.5 426.5,183.5C 312.5,183.5 198.5,183.5 84.5,183.5C 84.5,174.5 84.5,165.5 84.5,156.5 Z M 117.5,201.5 C 136.5,201.5 155.5,201.5 174.5,201.5C 174.5,241.5 174.5,281.5 174.5,321.5C 166.493,321.334 158.493,321.5 150.5,322C 149.069,322.465 147.903,323.299 147,324.5C 145.87,331.232 145.37,338.065 145.5,345C 145.667,351.167 145.833,357.333 146,363.5C 147.109,365.815 148.943,367.315 151.5,368C 186.333,368.167 221.167,368.333 256,368.5C 291.583,368.661 327.083,368.161 362.5,367C 364.049,365.786 365.215,364.286 366,362.5C 366.96,349.738 366.627,337.071 365,324.5C 364.097,323.299 362.931,322.465 361.5,322C 353.507,321.5 345.507,321.334 337.5,321.5C 337.5,281.5 337.5,241.5 337.5,201.5C 356.5,201.5 375.5,201.5 394.5,201.5C 394.5,283.833 394.5,366.167 394.5,448.5C 302.167,448.5 209.833,448.5 117.5,448.5C 117.5,366.167 117.5,283.833 117.5,201.5 Z M 192.5,201.5 C 234.5,201.5 276.5,201.5 318.5,201.5C 318.5,241.5 318.5,281.5 318.5,321.5C 310.833,321.5 303.167,321.5 295.5,321.5C 295.666,311.828 295.5,302.161 295,292.5C 288.455,268.976 272.955,258.476 248.5,261C 231.769,264.731 221.269,274.897 217,291.5C 216.5,301.494 216.334,311.494 216.5,321.5C 208.5,321.5 200.5,321.5 192.5,321.5C 192.5,281.5 192.5,241.5 192.5,201.5 Z M 255.5,278.5 C 264.275,279.445 270.775,283.778 275,291.5C 276.423,301.42 276.923,311.42 276.5,321.5C 262.5,321.5 248.5,321.5 234.5,321.5C 234.114,312.1 234.614,302.766 236,293.5C 239.556,284.492 246.056,279.492 255.5,278.5 Z M 163.5,339.5 C 224.833,339.5 286.167,339.5 347.5,339.5C 347.5,342.833 347.5,346.167 347.5,349.5C 286.167,349.5 224.833,349.5 163.5,349.5C 163.5,346.167 163.5,342.833 163.5,339.5 Z M 84.5,466.5 C 198.5,466.5 312.5,466.5 426.5,466.5C 426.5,475.5 426.5,484.5 426.5,493.5C 312.5,493.5 198.5,493.5 84.5,493.5C 84.5,484.5 84.5,475.5 84.5,466.5 Z"/></g>
<g><path style="opacity:0.912" fill="#000000" d="M 171.5,382.5 C 183.505,382.333 195.505,382.5 207.5,383C 213.931,386.036 215.764,390.87 213,397.5C 211.786,399.049 210.286,400.215 208.5,401C 195.833,401.667 183.167,401.667 170.5,401C 164.241,397.044 163.074,391.878 167,385.5C 168.652,384.601 170.152,383.601 171.5,382.5 Z"/></g>
<g><path style="opacity:0.917" fill="#000000" d="M 238.5,382.5 C 251.241,382.059 263.908,382.559 276.5,384C 280.203,387.396 281.369,391.563 280,396.5C 278.457,398.378 276.624,399.878 274.5,401C 262.167,401.667 249.833,401.667 237.5,401C 233.013,399.7 231.013,396.7 231.5,392C 231.745,387.26 234.078,384.093 238.5,382.5 Z"/></g>
<g><path style="opacity:0.915" fill="#000000" d="M 304.5,382.5 C 316.171,382.333 327.838,382.5 339.5,383C 347.095,386.119 348.929,391.286 345,398.5C 343.829,399.893 342.329,400.727 340.5,401C 328.167,401.667 315.833,401.667 303.5,401C 297.533,397.608 296.033,392.774 299,386.5C 300.5,384.531 302.333,383.198 304.5,382.5 Z"/></g>
</svg>
