<svg width="14" height="14" viewBox="0 0 14 14" fill="none" xmlns="http://www.w3.org/2000/svg">
<mask id="mask0_1181_3935" style="mask-type:luminance" maskUnits="userSpaceOnUse" x="0" y="0" width="14" height="14">
<path d="M14 0H0V14H14V0Z" fill="white"/>
</mask>
<g mask="url(#mask0_1181_3935)">
<path d="M8.16667 5.30273L13.3058 6.32357C13.72 6.41107 14 6.76107 14 7.17523V13.1252C14 13.6094 13.6092 14.0002 13.125 14.0002H7.875C8.03833 14.0002 8.16667 13.8719 8.16667 13.7086V13.4169H13.125C13.2825 13.4169 13.4167 13.2886 13.4167 13.1252V7.17523C13.4167 7.04107 13.3233 6.91857 13.1892 6.8894L8.16667 5.89773V5.30273Z" fill="#8E8E93" stroke="#8E8E93" stroke-width="0.3"/>
<path d="M11.3724 8.16602C11.5357 8.16602 11.6641 8.29434 11.6641 8.45767C11.6641 8.62101 11.5357 8.74934 11.3724 8.74934H10.2057C10.0424 8.74934 9.91406 8.62101 9.91406 8.45767C9.91406 8.29434 10.0424 8.16602 10.2057 8.16602H11.3724Z" fill="#8E8E93" stroke="#8E8E93" stroke-width="0.3"/>
<path d="M11.3724 9.91602C11.5357 9.91602 11.6641 10.0443 11.6641 10.2077C11.6641 10.371 11.5357 10.4993 11.3724 10.4993H10.2057C10.0424 10.4993 9.91406 10.371 9.91406 10.2077C9.91406 10.0443 10.0424 9.91602 10.2057 9.91602H11.3724Z" fill="#8E8E93" stroke="#8E8E93" stroke-width="0.3"/>
<path d="M11.3724 11.666C11.5357 11.666 11.6641 11.7943 11.6641 11.9577C11.6641 12.121 11.5357 12.2493 11.3724 12.2493H10.2057C10.0424 12.2493 9.91406 12.121 9.91406 11.9577C9.91406 11.7943 10.0424 11.666 10.2057 11.666H11.3724Z" fill="#8E8E93" stroke="#8E8E93" stroke-width="0.3"/>
<path d="M8.16927 13.7082C8.16927 13.8716 8.04094 13.9999 7.8776 13.9999C7.71427 13.9999 7.58594 13.8716 7.58594 13.7082V13.4166V5.54158C7.58594 5.45408 7.62677 5.37241 7.69094 5.31408C7.76094 5.26158 7.84844 5.23825 7.93594 5.25575L8.16927 5.30241V5.89741V13.4166V13.7082Z" fill="#8E8E93" stroke="#8E8E93" stroke-width="0.3"/>
<path d="M7.58073 13.416V13.7077C7.58073 13.871 7.70906 13.9993 7.8724 13.9993H5.53906C5.7024 13.9993 5.83073 13.871 5.83073 13.7077V13.416H7.58073Z" fill="#8E8E93" stroke="#8E8E93" stroke-width="0.3"/>
<path d="M6.1224 2.91602C6.28573 2.91602 6.41406 3.04435 6.41406 3.20768C6.41406 3.37102 6.28573 3.49935 6.1224 3.49935H4.95573C4.7924 3.49935 4.66406 3.37102 4.66406 3.20768C4.66406 3.04435 4.7924 2.91602 4.95573 2.91602H6.1224Z" fill="#8E8E93" stroke="#8E8E93" stroke-width="0.3"/>
<path d="M6.41406 4.95768C6.41406 5.12102 6.28573 5.24935 6.1224 5.24935H4.95573C4.7924 5.24935 4.66406 5.12102 4.66406 4.95768C4.66406 4.79435 4.7924 4.66602 4.95573 4.66602H6.1224C6.28573 4.66602 6.41406 4.79435 6.41406 4.95768Z" fill="#8E8E93" stroke="#8E8E93" stroke-width="0.3"/>
<path d="M6.1224 6.41602C6.28573 6.41602 6.41406 6.54435 6.41406 6.70768C6.41406 6.87102 6.28573 6.99935 6.1224 6.99935H4.95573C4.7924 6.99935 4.66406 6.87102 4.66406 6.70768C4.66406 6.54435 4.7924 6.41602 4.95573 6.41602H6.1224Z" fill="#8E8E93" stroke="#8E8E93" stroke-width="0.3"/>
<path d="M6.1224 8.16602C6.28573 8.16602 6.41406 8.29434 6.41406 8.45767C6.41406 8.62101 6.28573 8.74934 6.1224 8.74934H4.95573C4.7924 8.74934 4.66406 8.62101 4.66406 8.45767C4.66406 8.29434 4.7924 8.16602 4.95573 8.16602H6.1224Z" fill="#8E8E93" stroke="#8E8E93" stroke-width="0.3"/>
<path d="M3.5 8.45767C3.5 8.62101 3.37167 8.74934 3.20833 8.74934H2.04167C1.87833 8.74934 1.75 8.62101 1.75 8.45767C1.75 8.29434 1.87833 8.16602 2.04167 8.16602H3.20833C3.37167 8.16602 3.5 8.29434 3.5 8.45767Z" fill="#8E8E93" stroke="#8E8E93" stroke-width="0.3"/>
<path d="M3.20833 2.91602C3.37167 2.91602 3.5 3.04435 3.5 3.20768C3.5 3.37102 3.37167 3.49935 3.20833 3.49935H2.04167C1.87833 3.49935 1.75 3.37102 1.75 3.20768C1.75 3.04435 1.87833 2.91602 2.04167 2.91602H3.20833Z" fill="#8E8E93" stroke="#8E8E93" stroke-width="0.3"/>
<path d="M3.20833 4.66602C3.37167 4.66602 3.5 4.79435 3.5 4.95768C3.5 5.12102 3.37167 5.24935 3.20833 5.24935H2.04167C1.87833 5.24935 1.75 5.12102 1.75 4.95768C1.75 4.79435 1.87833 4.66602 2.04167 4.66602H3.20833Z" fill="#8E8E93" stroke="#8E8E93" stroke-width="0.3"/>
<path d="M3.20833 6.41602C3.37167 6.41602 3.5 6.54435 3.5 6.70768C3.5 6.87102 3.37167 6.99935 3.20833 6.99935H2.04167C1.87833 6.99935 1.75 6.87102 1.75 6.70768C1.75 6.54435 1.87833 6.41602 2.04167 6.41602H3.20833Z" fill="#8E8E93" stroke="#8E8E93" stroke-width="0.3"/>
<path d="M5.2526 10.791C5.2526 10.6277 5.11844 10.4993 4.96094 10.4993H3.21094C3.0476 10.4993 2.91927 10.6277 2.91927 10.791V13.416H2.33594V10.791C2.33594 10.3068 2.72677 9.91602 3.21094 9.91602H4.96094C5.4451 9.91602 5.83594 10.3068 5.83594 10.791V13.416H5.2526V10.791Z" fill="#8E8E93" stroke="#8E8E93" stroke-width="0.3"/>
<path d="M2.91927 13.416H5.2526H5.83594V13.7077C5.83594 13.871 5.7076 13.9993 5.54427 13.9993H2.6276C2.46427 13.9993 2.33594 13.871 2.33594 13.7077V13.416H2.91927Z" fill="#8E8E93" stroke="#8E8E93" stroke-width="0.3"/>
<path d="M1.02083 0.116826L7.43167 1.09099C7.8575 1.16099 8.16667 1.52266 8.16667 1.95433V5.30266L7.93333 5.25599C7.84583 5.23849 7.75833 5.26183 7.68833 5.31432C7.62417 5.37266 7.58333 5.45433 7.58333 5.54183V1.95433C7.58333 1.80849 7.47833 1.68599 7.33833 1.66266L0.9275 0.694326C0.91 0.688492 0.8925 0.688492 0.875 0.688492C0.805 0.688492 0.740833 0.711826 0.688333 0.758492C0.618333 0.816826 0.583333 0.892659 0.583333 0.980159V13.1252C0.583333 13.2885 0.7175 13.4168 0.875 13.4168H2.33333V13.7085C2.33333 13.8718 2.46167 14.0002 2.625 14.0002H0.875C0.390833 14.0002 0 13.6093 0 13.1252V0.980159C0 0.723492 0.110833 0.478492 0.309167 0.315159C0.5075 0.145992 0.764167 0.0759921 1.02083 0.116826Z" fill="#8E8E93" stroke="#8E8E93" stroke-width="0.3"/>
</g>
</svg>
