<?xml version="1.0" encoding="UTF-8"?>
<!DOCTYPE svg PUBLIC "-//W3C//DTD SVG 1.1//EN" "http://www.w3.org/Graphics/SVG/1.1/DTD/svg11.dtd">
<svg xmlns="http://www.w3.org/2000/svg" version="1.1" width="512px" height="512px" style="shape-rendering:geometricPrecision; text-rendering:geometricPrecision; image-rendering:optimizeQuality; fill-rule:evenodd; clip-rule:evenodd" xmlns:xlink="http://www.w3.org/1999/xlink">
<g><path style="opacity:0.948" fill="#000000" d="M 82.5,-0.5 C 108.5,-0.5 134.5,-0.5 160.5,-0.5C 165.768,4.33731 165.768,9.17064 160.5,14C 136.124,14.1763 111.791,14.6763 87.5,15.5C 86.3333,123.165 86.1667,230.832 87,338.5C 98.7963,343.072 109.13,340.739 118,331.5C 118.333,313.833 118.667,296.167 119,278.5C 120.825,273.015 124.659,270.181 130.5,270C 161.207,269.039 191.873,269.372 222.5,271C 225.728,272.563 227.895,275.063 229,278.5C 229.167,299.175 229.667,319.841 230.5,340.5C 233.5,339 236.5,337.5 239.5,336C 242.586,332.243 246.252,329.243 250.5,327C 254.091,326.211 257.591,326.378 261,327.5C 261.833,223.498 261.667,119.498 260.5,15.5C 236.209,14.6763 211.876,14.1763 187.5,14C 182.214,9.16873 182.214,4.33539 187.5,-0.5C 213.5,-0.5 239.5,-0.5 265.5,-0.5C 271.122,1.62437 274.955,5.62437 277,11.5C 277.5,50.8319 277.667,90.1653 277.5,129.5C 327.834,129.333 378.168,129.5 428.5,130C 434.307,131.807 438.141,135.64 440,141.5C 440.667,168.5 440.667,195.5 440,222.5C 435.7,227.446 431.033,227.779 426,223.5C 425.667,222.5 425.333,221.5 425,220.5C 424.833,195.493 424.333,170.493 423.5,145.5C 374.876,144.505 326.209,144.172 277.5,144.5C 277.167,209.503 277.5,274.503 278.5,339.5C 291.15,343.116 301.484,339.616 309.5,329C 319.154,324.236 327.154,326.236 333.5,335C 349.135,344.541 362.801,342.208 374.5,328C 383.695,324.509 391.028,326.843 396.5,335C 404.841,341.137 413.841,342.47 423.5,339C 424.329,309.905 424.829,280.739 425,251.5C 427.695,245.902 431.862,244.402 437.5,247C 438.701,247.903 439.535,249.069 440,250.5C 440.5,275.831 440.667,301.164 440.5,326.5C 443.85,326.335 447.183,326.502 450.5,327C 455.084,329.58 459.084,332.913 462.5,337C 475.234,343.39 486.901,341.724 497.5,332C 503.345,330.311 508.012,331.811 511.5,336.5C 511.5,390.5 511.5,444.5 511.5,498.5C 508.833,504.5 504.5,508.833 498.5,511.5C 336.5,511.5 174.5,511.5 12.5,511.5C 6.5,508.833 2.16667,504.5 -0.5,498.5C -0.5,444.5 -0.5,390.5 -0.5,336.5C 2.988,331.811 7.65467,330.311 13.5,332C 24.0622,341.817 35.7289,343.484 48.5,337C 51.916,332.913 55.916,329.58 60.5,327C 63.8168,326.502 67.1501,326.335 70.5,326.5C 70.3333,221.499 70.5,116.499 71,11.5C 73.0188,5.64984 76.8522,1.64984 82.5,-0.5 Z M 134.5,285.5 C 145.167,285.5 155.833,285.5 166.5,285.5C 166.5,303.833 166.5,322.167 166.5,340.5C 161.066,341.652 155.732,341.152 150.5,339C 144.739,336.062 139.739,332.229 135.5,327.5C 134.501,313.516 134.167,299.516 134.5,285.5 Z M 181.5,285.5 C 192.167,285.5 202.833,285.5 213.5,285.5C 213.833,303.179 213.5,320.846 212.5,338.5C 207.642,334.475 202.642,330.642 197.5,327C 191.684,325.591 186.517,326.758 182,330.5C 181.5,315.504 181.333,300.504 181.5,285.5 Z M 64.5,343.5 C 69.7345,347.541 75.4011,351.041 81.5,354C 99.4863,360.272 115.32,356.772 129,343.5C 150.18,362.078 171.346,362.078 192.5,343.5C 213.5,362.167 234.5,362.167 255.5,343.5C 276.5,362.167 297.5,362.167 318.5,343.5C 339.636,362.073 360.803,362.073 382,343.5C 403,362.167 424,362.167 445,343.5C 459.769,357.161 476.602,360.494 495.5,353.5C 495.667,364.505 495.5,375.505 495,386.5C 479.911,398.137 466.077,396.637 453.5,382C 447.833,378.667 442.167,378.667 436.5,382C 421.167,398.667 405.833,398.667 390.5,382C 380.642,377.616 372.642,379.95 366.5,389C 351.555,397.682 338.555,395.349 327.5,382C 321.804,378.743 316.138,378.743 310.5,382C 294.256,398.81 278.256,398.477 262.5,381C 257.833,379 253.167,379 248.5,381C 243.732,385.769 238.399,389.769 232.5,393C 224.374,395.526 216.707,394.526 209.5,390C 205.761,385.932 201.428,382.599 196.5,380C 192.739,379.262 189.072,379.595 185.5,381C 181.5,384.333 177.5,387.667 173.5,391C 159.297,397.116 147.297,394.116 137.5,382C 131.833,378.667 126.167,378.667 120.5,382C 105.167,398.667 89.8333,398.667 74.5,382C 65.2322,377.642 57.5655,379.642 51.5,388C 38.6151,397.201 26.4485,396.367 15,385.5C 14.3333,374.5 14.3333,363.5 15,352.5C 32.3945,359.888 48.5612,357.721 63.5,346C 64.2524,345.329 64.5858,344.496 64.5,343.5 Z M 65.5,396.5 C 81.9744,412.015 100.308,414.515 120.5,404C 123.63,401.872 126.463,399.372 129,396.5C 146.712,412.907 165.879,414.741 186.5,402C 188.333,400.167 190.167,398.333 192,396.5C 213.162,415.136 234.328,415.136 255.5,396.5C 276.627,415.142 297.794,415.142 319,396.5C 337.286,413.344 356.786,414.844 377.5,401C 379,399.5 380.5,398 382,396.5C 398.298,412.042 416.465,414.542 436.5,404C 439.63,401.872 442.463,399.372 445,396.5C 459.317,410.415 475.817,413.749 494.5,406.5C 495.666,417.819 495.832,429.152 495,440.5C 479.589,451.188 465.756,449.354 453.5,435C 447.312,431.501 441.312,431.835 435.5,436C 420.833,451.333 406.167,451.333 391.5,436C 381.486,430.586 373.153,432.586 366.5,442C 352.104,450.874 339.437,448.874 328.5,436C 322.654,432.03 316.654,431.697 310.5,435C 294.833,451.667 279.167,451.667 263.5,435C 258.167,431.667 252.833,431.667 247.5,435C 231.819,451.665 216.153,451.665 200.5,435C 194.346,431.697 188.346,432.03 182.5,436C 172.094,448.462 159.76,450.795 145.5,443C 134.558,429.018 123.558,429.018 112.5,443C 98.2548,450.785 85.9214,448.452 75.5,436C 65.4805,430.587 57.1472,432.587 50.5,442C 38.0259,449.957 26.1926,449.123 15,439.5C 14.3333,428.167 14.3333,416.833 15,405.5C 28.5284,412.183 42.0284,412.017 55.5,405C 59.0905,402.386 62.4238,399.552 65.5,396.5 Z M 65.5,449.5 C 78.7128,462.886 94.3795,466.719 112.5,461C 118.829,458.335 124.329,454.502 129,449.5C 143.17,463.601 159.67,467.101 178.5,460C 183.907,457.584 188.407,454.084 192,449.5C 206.17,463.601 222.67,467.101 241.5,460C 246.577,457.42 251.244,454.253 255.5,450.5C 276.513,467.832 297.513,467.832 318.5,450.5C 335.303,465.211 353.636,467.378 373.5,457C 376.63,454.872 379.463,452.372 382,449.5C 396.162,463.6 412.662,467.1 431.5,460C 436.858,457.646 441.358,454.146 445,449.5C 459.428,463.852 476.095,467.186 495,459.5C 495.667,471.167 495.667,482.833 495,494.5C 494.25,495.126 493.416,495.626 492.5,496C 334.5,496.667 176.5,496.667 18.5,496C 16.2769,495.348 15.1102,493.848 15,491.5C 14.1676,480.818 14.3343,470.151 15.5,459.5C 29.9105,465.417 43.9105,464.584 57.5,457C 60.6657,455 63.3324,452.5 65.5,449.5 Z"/></g>
<g><path style="opacity:0.896" fill="#000000" d="M 108.5,43.5 C 113.742,42.2706 117.575,43.9372 120,48.5C 120.667,52.8333 120.667,57.1667 120,61.5C 117.565,66.2238 113.731,67.7238 108.5,66C 107,65.1667 105.833,64 105,62.5C 104.333,57.5 104.333,52.5 105,47.5C 105.69,45.6498 106.856,44.3164 108.5,43.5 Z"/></g>
<g><path style="opacity:0.896" fill="#000000" d="M 139.5,43.5 C 144.742,42.2706 148.575,43.9372 151,48.5C 151.667,52.5 151.667,56.5 151,60.5C 149.171,66.1582 145.337,67.9916 139.5,66C 137.667,65.5 136.5,64.3333 136,62.5C 135.333,57.5 135.333,52.5 136,47.5C 136.69,45.6498 137.856,44.3164 139.5,43.5 Z"/></g>
<g><path style="opacity:0.901" fill="#000000" d="M 169.5,43.5 C 172.518,43.3354 175.518,43.502 178.5,44C 179.333,44.8333 180.167,45.6667 181,46.5C 181.667,51.8333 181.667,57.1667 181,62.5C 178.487,66.2115 174.987,67.3782 170.5,66C 169.069,65.5348 167.903,64.7014 167,63.5C 164.449,56.2762 165.282,49.6095 169.5,43.5 Z"/></g>
<g><path style="opacity:0.893" fill="#000000" d="M 200.5,43.5 C 203.187,43.3359 205.854,43.5026 208.5,44C 210.333,44.5 211.5,45.6667 212,47.5C 212.667,52.5 212.667,57.5 212,62.5C 211.5,64.3333 210.333,65.5 208.5,66C 203.269,67.7238 199.435,66.2238 197,61.5C 196.333,57.1667 196.333,52.8333 197,48.5C 197.997,46.6769 199.164,45.0103 200.5,43.5 Z"/></g>
<g><path style="opacity:0.901" fill="#000000" d="M 231.5,43.5 C 236.266,42.5511 240.1,43.8845 243,47.5C 243.667,52.5 243.667,57.5 243,62.5C 240.045,66.2765 236.212,67.4432 231.5,66C 229.951,64.786 228.785,63.286 228,61.5C 227.333,57.1667 227.333,52.8333 228,48.5C 228.997,46.6769 230.164,45.0103 231.5,43.5 Z"/></g>
<g><path style="opacity:0.88" fill="#000000" d="M 109.5,88.5 C 114.28,87.6409 117.78,89.3075 120,93.5C 120.667,98.1667 120.667,102.833 120,107.5C 116.911,112.305 112.744,113.472 107.5,111C 106.299,110.097 105.465,108.931 105,107.5C 104.333,102.833 104.333,98.1667 105,93.5C 106.025,91.313 107.525,89.6464 109.5,88.5 Z"/></g>
<g><path style="opacity:0.882" fill="#000000" d="M 139.5,88.5 C 145.192,87.2601 149.026,89.2601 151,94.5C 151.985,99.6895 151.485,104.689 149.5,109.5C 144.672,113.702 140.172,113.368 136,108.5C 135.333,103.167 135.333,97.8333 136,92.5C 137.376,91.2949 138.542,89.9616 139.5,88.5 Z"/></g>
<g><path style="opacity:0.896" fill="#000000" d="M 170.5,88.5 C 174.954,87.6171 178.454,88.9504 181,92.5C 181.667,97.8333 181.667,103.167 181,108.5C 176.333,113.833 171.667,113.833 167,108.5C 164.144,100.939 165.311,94.2722 170.5,88.5 Z"/></g>
<g><path style="opacity:0.885" fill="#000000" d="M 201.5,88.5 C 205.803,87.7962 209.303,89.1295 212,92.5C 212.667,97.8333 212.667,103.167 212,108.5C 206.138,114.194 201.138,113.527 197,106.5C 196.333,102.5 196.333,98.5 197,94.5C 197.599,91.7458 199.099,89.7458 201.5,88.5 Z"/></g>
<g><path style="opacity:0.877" fill="#000000" d="M 232.5,88.5 C 237.28,87.6409 240.78,89.3075 243,93.5C 243.667,98.1667 243.667,102.833 243,107.5C 240.774,111.861 237.274,113.361 232.5,112C 230.333,111.167 228.833,109.667 228,107.5C 227.333,102.833 227.333,98.1667 228,93.5C 229.025,91.313 230.525,89.6464 232.5,88.5 Z"/></g>
<g><path style="opacity:0.89" fill="#000000" d="M 111.5,133.5 C 115.671,133.664 118.505,135.664 120,139.5C 120.667,143.833 120.667,148.167 120,152.5C 117.565,157.224 113.731,158.724 108.5,157C 107.333,155.833 106.167,154.667 105,153.5C 104.333,148.5 104.333,143.5 105,138.5C 106.563,135.977 108.73,134.31 111.5,133.5 Z"/></g>
<g><path style="opacity:0.888" fill="#000000" d="M 141.5,133.5 C 148.801,134.138 152.134,138.138 151.5,145.5C 151.801,156.427 146.967,159.76 137,155.5C 135.43,149.947 135.097,144.281 136,138.5C 137.107,135.887 138.94,134.22 141.5,133.5 Z"/></g>
<g><path style="opacity:0.896" fill="#000000" d="M 172.5,133.5 C 175.939,133.589 178.772,134.922 181,137.5C 181.667,142.833 181.667,148.167 181,153.5C 179.607,156.366 177.274,157.699 174,157.5C 171.739,157.561 169.739,156.894 168,155.5C 165.093,149.661 164.76,143.661 167,137.5C 168.5,135.531 170.333,134.198 172.5,133.5 Z"/></g>
<g><path style="opacity:0.888" fill="#000000" d="M 203.5,133.5 C 210.974,134.244 213.974,138.41 212.5,146C 214.057,152.759 211.557,156.592 205,157.5C 198.154,156.581 195.321,152.581 196.5,145.5C 195.795,139.56 198.128,135.56 203.5,133.5 Z"/></g>
<g><path style="opacity:0.891" fill="#000000" d="M 234.5,133.5 C 238.221,133.783 241.054,135.45 243,138.5C 243.667,143.5 243.667,148.5 243,153.5C 240.045,157.277 236.212,158.443 231.5,157C 229.951,155.786 228.785,154.286 228,152.5C 227.333,148.167 227.333,143.833 228,139.5C 229.113,136.219 231.28,134.219 234.5,133.5 Z"/></g>
<g><path style="opacity:0.928" fill="#000000" d="M 300.5,164.5 C 334.502,164.333 368.502,164.5 402.5,165C 407.535,168.013 408.702,172.18 406,177.5C 405.097,178.701 403.931,179.535 402.5,180C 368.5,180.667 334.5,180.667 300.5,180C 295.776,177.565 294.276,173.731 296,168.5C 297.397,166.93 298.897,165.596 300.5,164.5 Z"/></g>
<g><path style="opacity:0.885" fill="#000000" d="M 108.5,179.5 C 113.635,178.426 117.468,180.093 120,184.5C 120.839,189.921 120.506,195.254 119,200.5C 113.539,204.796 108.873,204.129 105,198.5C 104.333,193.833 104.333,189.167 105,184.5C 105.997,182.677 107.164,181.01 108.5,179.5 Z"/></g>
<g><path style="opacity:0.885" fill="#000000" d="M 139.5,179.5 C 145.192,178.26 149.026,180.26 151,185.5C 151.985,190.689 151.485,195.689 149.5,200.5C 144.179,204.934 139.679,204.267 136,198.5C 135.333,193.5 135.333,188.5 136,183.5C 137.376,182.295 138.542,180.962 139.5,179.5 Z"/></g>
<g><path style="opacity:0.89" fill="#000000" d="M 170.5,179.5 C 172.857,179.337 175.19,179.503 177.5,180C 179.333,180.5 180.5,181.667 181,183.5C 181.667,188.833 181.667,194.167 181,199.5C 176.333,204.833 171.667,204.833 167,199.5C 164.76,193.339 165.093,187.339 168,181.5C 168.995,180.934 169.828,180.267 170.5,179.5 Z"/></g>
<g><path style="opacity:0.885" fill="#000000" d="M 201.5,179.5 C 205.909,178.618 209.409,179.952 212,183.5C 212.667,188.5 212.667,193.5 212,198.5C 208.914,203.752 204.747,204.752 199.5,201.5C 198.416,200.335 197.583,199.002 197,197.5C 196.333,193.5 196.333,189.5 197,185.5C 197.599,182.746 199.099,180.746 201.5,179.5 Z"/></g>
<g><path style="opacity:0.88" fill="#000000" d="M 232.5,179.5 C 237.439,178.352 240.939,180.019 243,184.5C 243.667,189.167 243.667,193.833 243,198.5C 239.929,203.299 235.762,204.465 230.5,202C 229.299,201.097 228.465,199.931 228,198.5C 227.333,193.833 227.333,189.167 228,184.5C 229.025,182.313 230.525,180.646 232.5,179.5 Z"/></g>
<g><path style="opacity:0.927" fill="#000000" d="M 299.5,196.5 C 333.835,196.333 368.168,196.5 402.5,197C 407.535,200.013 408.702,204.18 406,209.5C 404.829,210.893 403.329,211.727 401.5,212C 367.833,212.667 334.167,212.667 300.5,212C 295.776,209.565 294.276,205.731 296,200.5C 296.69,198.65 297.856,197.316 299.5,196.5 Z"/></g>
<g><path style="opacity:0.885" fill="#000000" d="M 110.5,224.5 C 118.194,225.018 121.528,229.184 120.5,237C 121.255,245.913 117.255,249.579 108.5,248C 105.024,245.215 103.691,241.549 104.5,237C 103.242,231.02 105.242,226.853 110.5,224.5 Z"/></g>
<g><path style="opacity:0.891" fill="#000000" d="M 141.5,224.5 C 148.785,225.123 152.118,229.123 151.5,236.5C 152.483,245.686 148.483,249.519 139.5,248C 136.024,245.215 134.691,241.549 135.5,237C 134.242,231.02 136.242,226.853 141.5,224.5 Z"/></g>
<g><path style="opacity:0.891" fill="#000000" d="M 171.5,224.5 C 175.426,224.047 178.592,225.38 181,228.5C 181.667,233.833 181.667,239.167 181,244.5C 180.5,246.333 179.333,247.5 177.5,248C 171.298,249.82 167.465,247.653 166,241.5C 164.327,234.472 166.16,228.805 171.5,224.5 Z"/></g>
<g><path style="opacity:0.891" fill="#000000" d="M 202.5,224.5 C 206.794,224.198 209.961,225.864 212,229.5C 212.667,234.5 212.667,239.5 212,244.5C 207.7,249.446 203.033,249.779 198,245.5C 196.508,240.589 196.174,235.589 197,230.5C 198.36,227.977 200.193,225.977 202.5,224.5 Z"/></g>
<g><path style="opacity:0.88" fill="#000000" d="M 233.5,224.5 C 237.794,224.198 240.961,225.864 243,229.5C 243.667,234.167 243.667,238.833 243,243.5C 240.565,248.224 236.731,249.724 231.5,248C 229.951,246.786 228.785,245.286 228,243.5C 227.333,238.833 227.333,234.167 228,229.5C 229.352,227.251 231.185,225.584 233.5,224.5 Z"/></g>
<g><path style="opacity:0.929" fill="#000000" d="M 299.5,228.5 C 334.168,228.333 368.835,228.5 403.5,229C 409.411,235.445 408.411,240.445 400.5,244C 367.5,244.667 334.5,244.667 301.5,244C 295.842,242.171 294.008,238.337 296,232.5C 296.69,230.65 297.856,229.316 299.5,228.5 Z"/></g>
<g><path style="opacity:0.986" fill="#000000" d="M 298.5,260.5 C 333.502,260.333 368.502,260.5 403.5,261C 408.833,265.667 408.833,270.333 403.5,275C 368.833,275.667 334.167,275.667 299.5,275C 296.634,273.607 295.301,271.274 295.5,268C 295.548,265.078 296.548,262.578 298.5,260.5 Z"/></g>
<g><path style="opacity:0.928" fill="#000000" d="M 300.5,291.5 C 334.168,291.333 367.835,291.5 401.5,292C 408.527,296.138 409.194,301.138 403.5,307C 368.833,307.667 334.167,307.667 299.5,307C 296.484,305.471 295.151,302.971 295.5,299.5C 295.546,295.793 297.213,293.127 300.5,291.5 Z"/></g>
</svg>
