<?xml version="1.0" standalone="no"?>
<!DOCTYPE svg PUBLIC "-//W3C//DTD SVG 20010904//EN"
 "http://www.w3.org/TR/2001/REC-SVG-20010904/DTD/svg10.dtd">
<svg version="1.0" xmlns="http://www.w3.org/2000/svg"
 width="300.000000pt" height="300.000000pt" viewBox="0 0 300.000000 300.000000"
 preserveAspectRatio="xMidYMid meet">
<metadata>
Created by potrace 1.10, written by Peter Selinger 2001-2011
</metadata>
<g transform="translate(0.000000,300.000000) scale(0.100000,-0.100000)"
fill="#000000" stroke="none">
<path d="M1459 2930 c0 -3 0 -60 1 -127 l1 -123 -45 0 -46 0 0 -230 0 -230
-90 0 -90 0 0 -285 0 -285 -85 0 -85 0 0 -357 0 -358 -90 3 -90 4 0 -396 0
-397 -245 3 -245 3 0 -45 0 -45 1150 0 1150 0 0 45 0 45 -245 -3 -245 -3 0
489 0 489 -90 -5 -90 -5 2 362 3 361 -87 0 -88 0 0 285 0 285 -90 0 -90 0 0
135 0 135 -46 0 -45 0 2 126 1 127 -41 1 c-23 0 -41 -1 -42 -4z m63 -267 c10
-9 28 -21 40 -27 13 -6 24 -20 26 -31 4 -19 3 -19 -20 3 -33 30 -102 31 -135
0 l-23 -21 0 21 c0 15 8 24 24 28 14 3 32 14 42 25 21 23 23 23 46 2z m23
-258 l0 -185 -45 0 -45 0 0 185 0 185 45 0 45 0 0 -185z m78 -57 c-25 -28 -33
-22 -33 24 l0 41 25 -23 c23 -22 24 -25 8 -42z m97 -265 l0 -243 -90 0 -90 0
2 -845 3 -845 -132 0 -133 0 0 900 0 900 45 0 45 0 0 -705 0 -705 45 0 45 0 0
745 0 745 -90 0 -90 0 0 53 0 53 175 -4 175 -5 0 99 0 99 45 0 45 0 0 -242z
m-270 105 c0 -4 -19 -8 -42 -8 l-41 0 23 25 c22 23 25 24 42 8 10 -9 18 -20
18 -25z m140 17 c0 -16 -27 -32 -37 -21 -7 7 16 36 28 36 5 0 9 -7 9 -15z
m-310 -219 c0 -14 -36 -37 -44 -29 -8 8 -8 58 1 66 8 9 43 -22 43 -37z m520
-178 c0 -4 -16 -8 -35 -8 -39 0 -42 5 -18 32 15 17 17 17 35 2 10 -10 18 -21
18 -26z m137 -23 c3 -9 3 -19 -1 -22 -7 -7 -36 16 -36 28 0 15 30 10 37 -6z
m-37 -107 l0 -78 -135 0 -135 0 0 78 0 77 135 0 135 0 0 -77z m-660 -68 c0
-45 -8 -49 -35 -20 -17 19 -17 21 0 40 27 29 35 25 35 -20z m-140 -8 c0 -10
-22 -32 -32 -32 -4 0 -8 9 -8 20 0 13 7 20 20 20 11 0 20 -4 20 -8z m528 -32
c10 -16 8 -21 -10 -34 -26 -19 -36 -8 -30 34 4 31 20 31 40 0z m312 -10 c0
-45 -8 -49 -35 -20 -17 19 -17 21 0 40 27 29 35 25 35 -20z m-750 -75 l0 -85
-45 0 -45 0 0 85 0 85 45 0 45 0 0 -85z m710 -45 l0 -80 -135 0 -135 0 0 80 0
80 135 0 135 0 0 -80z m-805 -60 c18 -20 18 -21 -8 -48 l-27 -27 0 48 c0 52 8
57 35 27z m145 -20 c0 -45 -8 -49 -35 -20 -17 19 -17 21 0 40 27 29 35 25 35
-20z m394 -43 c-2 -7 -13 -18 -24 -25 -19 -11 -20 -10 -20 28 l0 40 24 -16
c14 -8 23 -21 20 -27z m306 3 c0 -45 -8 -49 -35 -20 -17 19 -17 21 0 40 27 29
35 25 35 -20z m-750 -85 l0 -85 -45 0 -45 0 0 85 0 85 45 0 45 0 0 -85z m710
-36 l0 -82 -90 5 -90 5 0 -488 0 -489 -45 0 -45 0 0 565 0 565 135 0 135 0 0
-81z m-805 -69 c18 -20 18 -21 -8 -48 l-27 -27 0 48 c0 52 8 57 35 27z m145
-20 c0 -45 -8 -49 -35 -20 -17 19 -17 21 0 40 27 29 35 25 35 -20z m728 -8
c14 -21 13 -22 -27 -22 -45 0 -49 5 -24 32 20 22 31 20 51 -10z m-168 -31 c0
-12 -29 -35 -36 -28 -11 10 5 37 21 37 8 0 15 -4 15 -9z m-610 -86 l0 -85 -45
0 -45 0 0 85 0 85 45 0 45 0 0 -85z m880 0 l0 -55 -130 0 -130 0 0 55 0 55
130 0 130 0 0 -55z m-977 -102 l20 -23 -23 -25 -24 -26 -18 35 c-10 19 -23 38
-29 41 -7 5 -2 16 12 31 21 23 24 23 32 7 6 -10 19 -28 30 -40z m702 27 c17
-19 17 -21 0 -40 -27 -29 -35 -25 -35 20 0 45 8 49 35 20z m325 -26 c0 -39 -3
-41 -35 -16 l-24 19 21 21 c27 27 38 20 38 -24z m-880 -24 c0 -45 -8 -49 -35
-20 -17 19 -17 21 0 40 27 29 35 25 35 -20z m-320 21 c0 -5 -6 -14 -14 -20
-16 -13 -32 2 -21 19 8 12 35 13 35 1z m100 -381 l0 -350 -45 0 -45 0 0 350 0
350 45 0 45 0 0 -350z m1050 293 l0 -52 -130 -3 -130 -3 0 55 0 55 130 0 130
0 0 -52z m-880 -58 l0 -85 -45 0 -45 0 0 85 0 85 45 0 45 0 0 -85z m605 -25
c17 -19 17 -21 0 -40 -27 -29 -35 -25 -35 20 0 45 8 49 35 20z m325 -13 c0
-43 -9 -51 -32 -30 -23 20 -23 32 0 49 26 20 32 17 32 -19z m-1025 -67 c17
-19 17 -21 0 -40 -27 -29 -35 -25 -35 20 0 45 8 49 35 20z m145 -20 c0 -45 -8
-49 -35 -20 -17 19 -17 21 0 40 27 29 35 25 35 -20z m830 -15 l0 -55 -130 0
-130 0 0 55 0 55 130 0 130 0 0 -55z m-880 -110 l0 -85 -45 0 -45 0 0 85 0 85
45 0 45 0 0 -85z m605 35 c17 -19 17 -21 0 -40 -27 -29 -35 -25 -35 20 0 45 8
49 35 20z m325 -19 c0 -39 -10 -44 -36 -20 l-23 22 22 17 c27 22 37 17 37 -19z
m-50 -96 l0 -55 -130 0 -130 0 0 55 0 55 130 0 130 0 0 -55z m-975 -25 c17
-19 17 -21 0 -40 -27 -29 -35 -25 -35 20 0 45 8 49 35 20z m145 -20 c0 -45 -8
-49 -35 -20 -17 19 -17 21 0 40 27 29 35 25 35 -20z m552 -27 c22 -20 23 -31
1 -55 -25 -28 -33 -22 -33 27 0 49 4 53 32 28z m328 -29 c0 -28 -4 -35 -16
-32 -27 5 -40 34 -25 52 23 28 41 19 41 -20z m-930 -69 l0 -85 -45 0 -45 0 0
85 0 85 45 0 45 0 0 -85z m880 -30 l0 -55 -130 0 -130 0 0 55 0 55 130 0 130
0 0 -55z m-1150 -87 c0 -4 -16 -8 -35 -8 -39 0 -42 5 -18 32 15 17 17 17 35 2
10 -10 18 -21 18 -26z m168 14 c14 -21 13 -22 -27 -22 l-41 0 16 25 c19 29 31
28 52 -3z m182 -14 c0 -4 -16 -8 -35 -8 -39 0 -42 5 -18 32 15 17 17 17 35 2
10 -10 18 -21 18 -26z m343 17 l18 -25 -41 0 c-44 0 -48 5 -23 32 21 23 24 23
46 -7z m187 -17 c0 -4 -16 -8 -35 -8 -39 0 -42 5 -18 32 15 17 17 17 35 2 10
-10 18 -21 18 -26z m350 0 c0 -4 -16 -8 -35 -8 -39 0 -42 5 -18 32 15 17 17
17 35 2 10 -10 18 -21 18 -26z"/>
<path d="M1370 405 l0 -45 45 0 45 0 0 45 0 45 -45 0 -45 0 0 -45z"/>
<path d="M570 2435 l0 -45 45 0 45 0 0 45 0 45 -45 0 -45 0 0 -45z"/>
<path d="M740 2435 l0 -45 135 0 135 0 0 45 0 45 -135 0 -135 0 0 -45z"/>
<path d="M1990 2085 l0 -45 135 0 135 0 0 45 0 45 -135 0 -135 0 0 -45z"/>
<path d="M2340 2085 l0 -45 45 0 45 0 0 45 0 45 -45 0 -45 0 0 -45z"/>
</g>
</svg>
