<svg width="36" height="36" viewBox="0 0 36 36" fill="none" xmlns="http://www.w3.org/2000/svg">
<g opacity="0.7">
<path d="M19.0547 9.5625C19.0547 10.145 19.5269 10.6172 20.1094 10.6172C20.6918 10.6172 21.1641 10.145 21.1641 9.5625C21.1641 8.98003 20.6918 8.50781 20.1094 8.50781C19.5269 8.50781 19.0547 8.98003 19.0547 9.5625Z" fill="#2B2A28"/>
<path d="M23.2734 9.5625C23.2734 10.145 23.7457 10.6172 24.3281 10.6172C24.9106 10.6172 25.3828 10.145 25.3828 9.5625C25.3828 8.98003 24.9106 8.50781 24.3281 8.50781C23.7457 8.50781 23.2734 8.98003 23.2734 9.5625Z" fill="#2B2A28"/>
<path d="M27.4922 9.5625C27.4922 10.145 27.9644 10.6172 28.5469 10.6172C29.1293 10.6172 29.6016 10.145 29.6016 9.5625C29.6016 8.98003 29.1293 8.50781 28.5469 8.50781C27.9644 8.50781 27.4922 8.98003 27.4922 9.5625Z" fill="#2B2A28"/>
<path d="M16.3275 26.4375L19.4915 24.3281L25.8047 26.4375V30.6562C25.8047 31.8212 24.8753 32.7656 23.7103 32.7656C12.0606 32.7656 1.05469 21.8301 1.05469 10.1803C1.05469 9.0154 1.99912 8.08594 3.16406 8.08594H7.38281L9.49219 14.3991L7.38281 17.5631C8.72979 20.9306 12.96 25.0905 16.3275 26.4375Z" stroke="#2B2A28" stroke-width="1.7" stroke-miterlimit="10" stroke-linecap="round" stroke-linejoin="round"/>
<path d="M13.7812 9.5625C13.7812 13.0575 16.6144 15.8906 20.1094 15.8906V20.1094L24.3281 15.8906H28.5469C32.0418 15.8906 34.9454 13.0575 34.9454 9.5625C34.9454 6.06755 32.0418 3.23438 28.5469 3.23438H20.1094C16.6144 3.23438 13.7812 6.06755 13.7812 9.5625Z" stroke="#2B2A28" stroke-width="1.7" stroke-miterlimit="10" stroke-linecap="round" stroke-linejoin="round"/>
</g>
</svg>
