<?xml version="1.0" encoding="UTF-8"?>
<!DOCTYPE svg PUBLIC "-//W3C//DTD SVG 1.1//EN" "http://www.w3.org/Graphics/SVG/1.1/DTD/svg11.dtd">
<svg xmlns="http://www.w3.org/2000/svg" version="1.1" width="512px" height="512px" style="shape-rendering:geometricPrecision; text-rendering:geometricPrecision; image-rendering:optimizeQuality; fill-rule:evenodd; clip-rule:evenodd" xmlns:xlink="http://www.w3.org/1999/xlink">
<g><path style="opacity:0.927" fill="#000000" d="M 246.5,23.5 C 269.329,20.5469 285.163,29.5469 294,50.5C 299.718,74.8973 291.218,92.064 268.5,102C 244.103,107.718 226.936,99.2177 217,76.5C 211.424,49.977 221.257,32.3104 246.5,23.5 Z M 248.5,40.5 C 262.981,38.3182 272.814,43.9849 278,57.5C 280.366,71.6057 274.866,81.1057 261.5,86C 247.394,88.3661 237.894,82.8661 233,69.5C 230.85,55.7949 236.016,46.1282 248.5,40.5 Z"/></g>
<g><path style="opacity:0.952" fill="#000000" d="M 212.5,119.5 C 241.169,119.333 269.835,119.5 298.5,120C 322.667,125.5 337.5,140.333 343,164.5C 343.667,178.5 343.667,192.5 343,206.5C 337.543,220.482 327.376,225.982 312.5,223C 304.333,220.167 298.833,214.667 296,206.5C 295.934,195.095 295.267,183.762 294,172.5C 293.5,170.667 292.333,169.5 290.5,169C 286.94,167.763 283.273,167.263 279.5,167.5C 279.333,186.17 279.5,204.836 280,223.5C 291.088,239.343 302.422,255.01 314,270.5C 320.495,280.43 321.161,290.763 316,301.5C 306.209,312.243 294.709,314.41 281.5,308C 272.26,297.262 263.593,286.096 255.5,274.5C 248.806,283.36 242.306,292.36 236,301.5C 226.209,312.243 214.709,314.41 201.5,308C 190.757,298.209 188.59,286.709 195,273.5C 207,256.833 219,240.167 231,223.5C 231.5,204.836 231.667,186.17 231.5,167.5C 227.727,167.263 224.06,167.763 220.5,169C 218.667,169.5 217.5,170.667 217,172.5C 215.733,183.762 215.066,195.095 215,206.5C 209.543,220.482 199.376,225.982 184.5,223C 177.481,220.649 172.314,216.149 169,209.5C 167.383,194.568 167.049,179.568 168,164.5C 173.681,140.32 188.514,125.32 212.5,119.5 Z M 223.5,135.5 C 247.531,135.084 271.531,135.584 295.5,137C 315.099,142.353 325.599,155.187 327,175.5C 327.667,183.5 327.667,191.5 327,199.5C 325.134,206.347 320.968,208.18 314.5,205C 313.874,204.25 313.374,203.416 313,202.5C 311.733,191.238 311.066,179.905 311,168.5C 305.677,154.833 295.677,149.166 281,151.5C 276.5,151.667 272,151.833 267.5,152C 265.667,152.5 264.5,153.667 264,155.5C 263.333,180.5 263.333,205.5 264,230.5C 276.333,247.833 288.667,265.167 301,282.5C 304.322,291.044 301.489,294.877 292.5,294C 281.96,281.446 272.126,268.279 263,254.5C 261.38,252.274 259.214,250.94 256.5,250.5C 253.347,251.989 250.514,253.323 248,254.5C 238.956,267.421 229.789,280.255 220.5,293C 210.333,296.167 206.833,292.667 210,282.5C 222.333,265.167 234.667,247.833 247,230.5C 247.667,205.5 247.667,180.5 247,155.5C 246.5,153.667 245.333,152.5 243.5,152C 234.5,151.333 225.5,151.333 216.5,152C 208.333,154.833 202.833,160.333 200,168.5C 199.667,178.833 199.333,189.167 199,199.5C 197.824,205.341 194.324,207.507 188.5,206C 186.667,205.5 185.5,204.333 185,202.5C 182.918,189.464 183.251,176.464 186,163.5C 192.688,146.252 205.188,136.919 223.5,135.5 Z"/></g>
<g><path style="opacity:0.999" fill="#000000" d="M 27.5,327.5 C 179.5,327.333 331.5,327.5 483.5,328C 485.333,328.5 486.5,329.667 487,331.5C 487.667,382.167 487.667,432.833 487,483.5C 486.5,485.333 485.333,486.5 483.5,487C 331.5,487.667 179.5,487.667 27.5,487C 25.6667,486.5 24.5,485.333 24,483.5C 23.3333,432.833 23.3333,382.167 24,331.5C 24.6897,329.65 25.8564,328.316 27.5,327.5 Z M 39.5,343.5 C 183.5,343.5 327.5,343.5 471.5,343.5C 471.5,386.167 471.5,428.833 471.5,471.5C 327.5,471.5 183.5,471.5 39.5,471.5C 39.5,428.833 39.5,386.167 39.5,343.5 Z"/></g>
<g><path style="opacity:0.984" fill="#000000" d="M 67.5,399.5 C 96.8352,399.333 126.169,399.5 155.5,400C 158.516,401.529 159.849,404.029 159.5,407.5C 159.849,410.971 158.516,413.471 155.5,415C 126.167,415.667 96.8333,415.667 67.5,415C 64.484,413.471 63.1506,410.971 63.5,407.5C 63.2824,403.934 64.6157,401.268 67.5,399.5 Z"/></g>
<g><path style="opacity:0.984" fill="#000000" d="M 211.5,399.5 C 240.835,399.333 270.169,399.5 299.5,400C 302.516,401.529 303.849,404.029 303.5,407.5C 303.849,410.971 302.516,413.471 299.5,415C 270.167,415.667 240.833,415.667 211.5,415C 208.484,413.471 207.151,410.971 207.5,407.5C 207.282,403.934 208.616,401.268 211.5,399.5 Z"/></g>
<g><path style="opacity:0.984" fill="#000000" d="M 355.5,399.5 C 384.835,399.333 414.169,399.5 443.5,400C 446.516,401.529 447.849,404.029 447.5,407.5C 447.849,410.971 446.516,413.471 443.5,415C 414.167,415.667 384.833,415.667 355.5,415C 352.484,413.471 351.151,410.971 351.5,407.5C 351.282,403.934 352.616,401.268 355.5,399.5 Z"/></g>
</svg>
