<svg width="33" height="34" viewBox="0 0 33 34" fill="none" xmlns="http://www.w3.org/2000/svg">
<g clip-path="url(#clip0_4055_3096)">
<path opacity="0.7" d="M17.03 29.5657V31.3284C17.03 31.6241 16.7891 31.8659 16.4946 31.8659C16.2002 31.8659 15.9593 31.6241 15.9593 31.3284V29.5657C15.9593 29.27 16.2002 29.0282 16.4946 29.0282C16.7891 29.0282 17.03 29.27 17.03 29.5657ZM10.5093 27.4158C10.2522 27.2653 9.92571 27.3567 9.77582 27.6147L8.89776 29.141C8.74787 29.3991 8.83888 29.7269 9.09584 29.8773C9.18156 29.9257 9.27257 29.9473 9.36358 29.9473C9.55098 29.9473 9.72762 29.8505 9.82931 29.6785L10.7074 28.1521C10.8573 27.8942 10.7662 27.5664 10.5093 27.4158ZM5.3965 22.8207L3.87606 23.7021C3.61908 23.8526 3.53342 24.1804 3.67797 24.4384C3.77969 24.6104 3.95636 24.7072 4.14374 24.7072C4.23475 24.7072 4.32576 24.6856 4.41142 24.6372L5.93186 23.7559C6.18884 23.6054 6.2745 23.2775 6.12995 23.0195C5.98004 22.7616 5.65347 22.6756 5.3965 22.8207ZM4.52385 17.0055C4.52385 16.7099 4.28293 16.4681 3.98848 16.4681H2.23248C1.93803 16.4681 1.69711 16.7099 1.69711 17.0055C1.69711 17.3011 1.93803 17.5429 2.23248 17.5429H3.98848C4.28293 17.5429 4.52385 17.3011 4.52385 17.0055ZM5.93186 10.2606L4.41142 9.37917C4.15445 9.2287 3.82787 9.32006 3.67797 9.57802C3.52806 9.83599 3.61908 10.1638 3.87606 10.3143L5.3965 11.1957C5.48215 11.2441 5.57317 11.2656 5.66418 11.2656C5.85156 11.2656 6.02823 11.1689 6.12995 10.9969C6.27985 10.7389 6.18884 10.411 5.93186 10.2606ZM9.78111 6.40169C9.88289 6.57367 10.0595 6.67041 10.2469 6.67041C10.3379 6.67041 10.429 6.64892 10.5146 6.60055C10.7715 6.45006 10.8573 6.12222 10.7127 5.86425L9.83469 4.3379C9.6848 4.07992 9.35819 3.99393 9.10123 4.13905C8.84426 4.28953 8.75863 4.61737 8.90314 4.87535L9.78111 6.40169ZM16.5 2.15049C16.2055 2.15049 15.9646 2.39234 15.9646 2.68793V4.45076C15.9646 4.74636 16.2055 4.98821 16.5 4.98821C16.7945 4.98821 17.0354 4.74636 17.0354 4.45076V2.68793C17.0354 2.39234 16.7945 2.15049 16.5 2.15049ZM22.4854 6.59517C22.571 6.64355 22.6621 6.66504 22.7531 6.66504C22.9405 6.66504 23.1171 6.5683 23.2189 6.39631L24.0969 4.86997C24.2467 4.61199 24.1557 4.28415 23.8988 4.13367C23.6418 3.98319 23.3152 4.07455 23.1653 4.33252L22.2873 5.85887C22.1374 6.11684 22.2285 6.44469 22.4854 6.59517ZM27.3304 11.2602C27.4214 11.2602 27.5124 11.2387 27.5982 11.1903L29.1186 10.3089C29.3756 10.1585 29.4612 9.83058 29.3167 9.57262C29.1668 9.31466 28.8402 9.2287 28.5832 9.37376L27.0628 10.2551C26.8058 10.4057 26.7202 10.7335 26.8647 10.9915C26.9664 11.1635 27.1431 11.2602 27.3304 11.2602ZM30.7622 16.4627H29.0061C28.7117 16.4627 28.4708 16.7045 28.4708 17.0001C28.4708 17.2958 28.7117 17.5376 29.0061 17.5376H30.7622C31.0566 17.5376 31.2975 17.2958 31.2975 17.0001C31.2975 16.7045 31.0566 16.4627 30.7622 16.4627ZM29.1186 23.6913L27.5982 22.81C27.3412 22.6595 27.0146 22.7508 26.8647 23.0088C26.7148 23.2668 26.8058 23.5946 27.0628 23.7451L28.5832 24.6265C28.6689 24.6749 28.7599 24.6963 28.8509 24.6963C29.0383 24.6963 29.215 24.5997 29.3167 24.4277C29.4666 24.1697 29.3756 23.8418 29.1186 23.6913ZM23.2189 27.604C23.0689 27.346 22.7424 27.26 22.4854 27.4051C22.2285 27.5556 22.1427 27.8835 22.2873 28.1414L23.1653 29.6678C23.267 29.8398 23.4437 29.9364 23.631 29.9364C23.7221 29.9364 23.8131 29.915 23.8988 29.8666C24.1557 29.7161 24.2414 29.3883 24.0969 29.1303L23.2189 27.604ZM15.4186 15.7533L7.85918 11.3731C7.60221 11.2226 7.27563 11.3139 7.12573 11.5719C6.97583 11.8299 7.06684 12.1578 7.32381 12.3082L14.8832 16.6884C14.9689 16.7368 15.0599 16.7583 15.1509 16.7583C15.3382 16.7583 15.5149 16.6615 15.6166 16.4895C15.7665 16.2316 15.6755 15.9038 15.4186 15.7533ZM25.1408 11.3731L17.5814 15.7533C17.3245 15.9038 17.2388 16.2316 17.3834 16.4895C17.4851 16.6615 17.6618 16.7583 17.8491 16.7583C17.9401 16.7583 18.0311 16.7368 18.1168 16.6884L25.6762 12.3082C25.9331 12.1578 26.0189 11.8299 25.8743 11.5719C25.7244 11.3139 25.3978 11.228 25.1408 11.3731ZM33 17.0001C33 26.1313 25.6012 33.5642 16.5 33.5642C7.39877 33.5642 0 26.1313 0 17.0001C0 7.86892 7.40412 0.436035 16.5 0.436035C25.5958 0.436035 33 7.86892 33 17.0001ZM31.9292 17.0001C31.9292 8.46011 25.007 1.51093 16.5 1.51093C7.99303 1.51093 1.07074 8.46011 1.07074 17.0001C1.07074 25.5402 7.99303 32.4893 16.5 32.4893C25.007 32.4893 31.9292 25.5402 31.9292 17.0001ZM16.5 17.5376C16.7945 17.5376 17.0354 17.2958 17.0354 17.0001C17.0354 16.7045 16.7945 16.4627 16.5 16.4627C16.2055 16.4627 15.9646 16.7045 15.9646 17.0001C15.9646 17.2958 16.2055 17.5376 16.5 17.5376Z" fill="#2B2A28"/>
</g>
<defs>
<clipPath id="clip0_4055_3096">
<rect width="33" height="34" fill="white"/>
</clipPath>
</defs>
</svg>
