<?xml version="1.0" encoding="UTF-8"?>
<!DOCTYPE svg PUBLIC "-//W3C//DTD SVG 1.1//EN" "http://www.w3.org/Graphics/SVG/1.1/DTD/svg11.dtd">
<svg xmlns="http://www.w3.org/2000/svg" version="1.1" width="512px" height="512px" style="shape-rendering:geometricPrecision; text-rendering:geometricPrecision; image-rendering:optimizeQuality; fill-rule:evenodd; clip-rule:evenodd" xmlns:xlink="http://www.w3.org/1999/xlink">
<g><path style="opacity:0.929" fill="#000000" d="M 108.5,-0.5 C 111.167,-0.5 113.833,-0.5 116.5,-0.5C 118.144,0.316435 119.31,1.64977 120,3.5C 120.182,6.22626 120.682,8.89293 121.5,11.5C 129.592,7.45406 137.592,3.45406 145.5,-0.5C 148.167,-0.5 150.833,-0.5 153.5,-0.5C 155.774,1.63255 157.108,4.29922 157.5,7.5C 155.727,15.985 153.06,24.1517 149.5,32C 172.183,44.1498 186.017,62.9831 191,88.5C 193.902,108.233 193.235,127.9 189,147.5C 188.333,154.5 188.333,161.5 189,168.5C 199.93,155.957 205.93,141.29 207,124.5C 208.174,104.064 206.341,83.8973 201.5,64C 204.005,56.3874 208.838,54.5541 216,58.5C 216.739,60.2205 217.573,61.8872 218.5,63.5C 250.089,28.0363 289.422,6.70297 336.5,-0.5C 349.167,-0.5 361.833,-0.5 374.5,-0.5C 407.711,3.39961 439.378,12.8996 469.5,28C 471.429,31.2559 471.929,34.7559 471,38.5C 469.786,40.0488 468.286,41.2155 466.5,42C 460.516,43.2415 454.849,45.2415 449.5,48C 469.53,55.265 488.364,64.765 506,76.5C 506.667,79.1667 506.667,81.8333 506,84.5C 505.5,86.3333 504.333,87.5 502.5,88C 485.194,90.8796 468.861,96.5462 453.5,105C 443.704,104.872 440.871,100.372 445,91.5C 454.711,85.8952 464.878,81.2286 475.5,77.5C 424.064,50.1893 370.731,45.6893 315.5,64C 291.031,73.8019 270.531,88.9686 254,109.5C 254.543,131.91 250.876,153.576 243,174.5C 234.833,193.333 221.333,206.833 202.5,215C 209.948,225.879 219.281,234.712 230.5,241.5C 246.291,229.969 263.957,225.469 283.5,228C 287.537,228.568 291.37,229.735 295,231.5C 291.494,211.648 285.161,192.648 276,174.5C 274.833,166.333 278.333,162.833 286.5,164C 287.931,164.465 289.097,165.299 290,166.5C 298.577,184.231 305.577,202.564 311,221.5C 323.99,207.087 340.157,198.587 359.5,196C 368.5,195.667 377.5,195.333 386.5,195C 357.376,158.252 319.709,134.919 273.5,125C 269.5,120.667 269.5,116.333 273.5,112C 275.199,111.042 277.033,110.542 279,110.5C 324.95,119.879 363.117,142.213 393.5,177.5C 394.767,155.694 401.767,136.027 414.5,118.5C 424.112,114.942 428.279,118.276 427,128.5C 411.344,152.111 406.178,177.944 411.5,206C 411.667,211.833 408.833,214.667 403,214.5C 383.971,208.703 365.138,209.203 346.5,216C 330.244,222.589 319.077,234.089 313,250.5C 311.221,252.764 308.887,254.097 306,254.5C 300.978,252.406 296.145,249.906 291.5,247C 275.655,240.575 260.655,242.075 246.5,251.5C 265.259,264.076 282.426,278.743 298,295.5C 334.313,340.069 342.646,389.403 323,443.5C 305.985,481.363 277.152,504.03 236.5,511.5C 226.5,511.5 216.5,511.5 206.5,511.5C 158.828,504.996 130.995,477.996 123,430.5C 120.84,409.967 124.34,390.467 133.5,372C 124.716,365.174 123.383,357.174 129.5,348C 138.167,340.667 146.833,333.333 155.5,326C 148.745,322.208 142.245,318.041 136,313.5C 133.271,305.444 136.104,301.277 144.5,301C 152.56,305.696 160.893,309.863 169.5,313.5C 174.157,309.836 179.157,306.669 184.5,304C 192.455,302.894 197.955,306.061 201,313.5C 201.18,317.924 201.347,322.257 201.5,326.5C 225.092,333.373 245.259,345.706 262,363.5C 280.352,388.511 282.352,414.845 268,442.5C 246.955,471.178 219.789,479.011 186.5,466C 148.861,446.255 138.527,416.755 155.5,377.5C 154.472,375.639 152.972,374.305 151,373.5C 132.68,404.15 133.013,434.484 152,464.5C 168.943,485.302 190.943,495.635 218,495.5C 227.375,495.518 236.542,494.185 245.5,491.5C 245.833,491.167 246.167,490.833 246.5,490.5C 242.211,484.549 242.545,479.049 247.5,474C 250.634,473.21 253.634,473.543 256.5,475C 258.592,478.436 260.592,481.936 262.5,485.5C 276.029,479.469 287.362,470.636 296.5,459C 293.577,456.955 290.743,454.788 288,452.5C 285.215,445.732 287.382,441.732 294.5,440.5C 298.378,440.856 301.878,442.189 305,444.5C 309.335,438.52 312.335,431.853 314,424.5C 315.68,417.24 316.847,409.906 317.5,402.5C 312.489,402.666 307.489,402.499 302.5,402C 299.484,400.471 298.151,397.971 298.5,394.5C 298.336,390.823 300.003,388.323 303.5,387C 308.155,386.501 312.821,386.334 317.5,386.5C 316.692,371.961 313.526,357.961 308,344.5C 307.586,344.043 307.086,343.709 306.5,343.5C 301.977,346.512 297.144,348.845 292,350.5C 284.664,348.827 282.331,344.493 285,337.5C 289.916,333.957 295.083,330.79 300.5,328C 288.718,308.545 273.718,291.879 255.5,278C 240.672,267.752 225.672,257.752 210.5,248C 181.447,220.858 168.947,187.358 173,147.5C 174.784,134.977 176.284,122.477 177.5,110C 177.365,89.2497 170.365,71.2497 156.5,56C 152.405,52.5352 147.905,49.7019 143,47.5C 138.858,52.9808 134.692,58.4808 130.5,64C 139.377,70.9168 144.211,80.0835 145,91.5C 146.367,106.297 144.367,120.63 139,134.5C 130.862,152.775 122.196,170.775 113,188.5C 100.388,217.772 101.888,246.272 117.5,274C 114.51,283.373 109.344,284.873 102,278.5C 85.4628,247.204 84.1294,215.204 98,182.5C 105.395,166.711 113.061,151.044 121,135.5C 127.652,121.895 130.319,107.562 129,92.5C 127.949,85.3859 124.616,79.7193 119,75.5C 115.778,78.388 112.278,80.888 108.5,83C 106.014,88.4368 103.514,93.9368 101,99.5C 98.1667,102.333 95.3333,105.167 92.5,108C 73.1667,118 53.8333,128 34.5,138C 17.1751,141.674 6.84173,134.841 3.5,117.5C 4.21319,115.224 4.71319,112.891 5,110.5C 16.413,89.3389 28.0797,68.3389 40,47.5C 45.8333,40.3333 52.3333,33.8333 59.5,28C 75.8963,18.4733 92.2296,8.97332 108.5,-0.5 Z M 343.5,15.5 C 377.522,13.8047 410.189,19.638 441.5,33C 435.712,35.6448 429.879,38.1448 424,40.5C 358.189,26.1143 300.855,41.781 252,87.5C 249.878,79.53 245.045,77.3633 237.5,81C 236.002,83.4168 235.335,86.0835 235.5,89C 238.929,114.573 237.095,139.739 230,164.5C 224.04,182.126 212.373,194.126 195,200.5C 193.043,196.673 192.043,192.673 192,188.5C 211.157,171.182 221.49,149.515 223,123.5C 223.937,110.886 223.437,98.3856 221.5,86C 251.825,44.669 292.491,21.169 343.5,15.5 Z M 134.5,22.5 C 129.741,38.9228 120.575,52.9228 107,64.5C 106.962,53.7618 109.128,43.4285 113.5,33.5C 120.71,30.0633 127.71,26.3966 134.5,22.5 Z M 97.5,24.5 C 98.1239,24.9169 98.4573,25.5836 98.5,26.5C 96.1012,34.8632 93.6012,43.1966 91,51.5C 90.6667,62.5 90.3333,73.5 90,84.5C 87.9725,89.8643 84.4725,94.031 79.5,97C 62.3439,105.411 45.3439,114.078 28.5,123C 24.1271,123.986 21.1271,122.319 19.5,118C 29.4459,99.9448 39.2792,81.7781 49,63.5C 54.4136,54.7509 61.2469,47.2509 69.5,41C 78.7318,35.2216 88.0652,29.7216 97.5,24.5 Z M 183.5,323.5 C 181.01,340.103 177.51,356.77 173,373.5C 166.323,363.241 156.823,357.741 144.5,357C 157.692,345.968 170.692,334.802 183.5,323.5 Z M 196.5,342.5 C 217.244,348.449 235.078,359.116 250,374.5C 262.862,392.352 264.862,411.352 256,431.5C 242.044,452.226 222.877,459.726 198.5,454C 168.992,442.485 158.658,421.651 167.5,391.5C 176.651,394.835 183.485,392.168 188,383.5C 190.9,369.833 193.733,356.166 196.5,342.5 Z"/></g>
</svg>
