<?xml version="1.0" encoding="UTF-8"?>
<!DOCTYPE svg PUBLIC "-//W3C//DTD SVG 1.1//EN" "http://www.w3.org/Graphics/SVG/1.1/DTD/svg11.dtd">
<svg xmlns="http://www.w3.org/2000/svg" version="1.1" width="512px" height="512px" style="shape-rendering:geometricPrecision; text-rendering:geometricPrecision; image-rendering:optimizeQuality; fill-rule:evenodd; clip-rule:evenodd" xmlns:xlink="http://www.w3.org/1999/xlink">
<g><path style="opacity:0.926" fill="#000000" d="M 511.5,315.5 C 511.5,322.5 511.5,329.5 511.5,336.5C 505.74,358.133 493.074,374.633 473.5,386C 446.369,399.952 417.702,409.285 387.5,414C 299.497,427.98 211.497,427.98 123.5,414C 115.579,410.395 114.579,405.395 120.5,399C 122.333,398.833 124.167,398.667 126,398.5C 203.999,410.437 282.166,411.604 360.5,402C 386.383,398.757 411.716,393.09 436.5,385C 454.806,379.438 470.639,369.938 484,356.5C 501.997,330.538 498.83,307.371 474.5,287C 466.703,282.348 459.536,276.848 453,270.5C 444.556,255.446 437.056,239.946 430.5,224C 432.223,216.762 436.556,214.429 443.5,217C 451.383,231.265 458.883,245.765 466,260.5C 472.232,265.699 478.732,270.532 485.5,275C 487.5,275.667 489.5,275.667 491.5,275C 492.451,274.282 492.617,273.449 492,272.5C 485,262.833 478,253.167 471,243.5C 469.49,234.67 473.323,230.503 482.5,231C 482.957,230.586 483.291,230.086 483.5,229.5C 476.088,219.676 468.921,209.676 462,199.5C 460.773,195.409 461.606,191.909 464.5,189C 468.006,188.371 471.34,187.371 474.5,186C 464.379,171.385 453.712,157.218 442.5,143.5C 434.956,152.216 427.956,161.383 421.5,171C 424.794,177.088 427.961,183.255 431,189.5C 432.267,199.57 428.101,203.07 418.5,200C 402.114,167.394 385.614,134.894 369,102.5C 349.169,140.829 329.835,179.496 311,218.5C 306.879,226.578 302.379,234.411 297.5,242C 287.863,244.364 284.029,240.531 286,230.5C 289.421,224.658 292.588,218.658 295.5,212.5C 286.435,192.702 276.602,173.369 266,154.5C 265.228,154.645 264.561,154.978 264,155.5C 255.522,174.467 245.522,192.467 234,209.5C 219.415,226.21 201.582,238.044 180.5,245C 159.577,249.037 138.577,252.704 117.5,256C 91.3843,260.704 66.7177,269.371 43.5,282C 31.374,289.788 22.5407,300.288 17,313.5C 12.4687,333.906 18.3021,350.739 34.5,364C 53.3721,377.099 74.0388,386.432 96.5,392C 100.483,396.373 100.483,400.706 96.5,405C 93.634,406.457 90.634,406.79 87.5,406C 66.3297,400.615 46.663,391.948 28.5,380C 13.9515,369.041 4.28482,354.874 -0.5,337.5C -0.5,330.167 -0.5,322.833 -0.5,315.5C 4.58642,295.518 15.9198,280.018 33.5,269C 45.8705,261.648 58.8705,255.648 72.5,251C 89.8578,245.786 107.358,241.286 125,237.5C 127.639,233.361 130.472,229.361 133.5,225.5C 127.437,219.582 125.604,212.582 128,204.5C 132.696,197.97 137.196,191.303 141.5,184.5C 135.493,178.154 133.993,170.82 137,162.5C 147.559,147.219 158.725,132.386 170.5,118C 177.167,114.667 183.833,114.667 190.5,118C 202.439,132.604 213.605,147.771 224,163.5C 226.659,171.527 225.159,178.693 219.5,185C 221.452,187.732 223.285,190.565 225,193.5C 227.723,190.443 230.056,187.11 232,183.5C 238.139,169.888 244.806,156.555 252,143.5C 261.579,135.607 270.912,135.94 280,144.5C 288.078,160.989 296.411,177.323 305,193.5C 321,160.833 337,128.167 353,95.5C 359.113,86.6257 367.28,84.1257 377.5,88C 379.609,89.1411 381.442,90.6411 383,92.5C 393.182,112.864 403.349,133.198 413.5,153.5C 419.614,145.546 425.947,137.713 432.5,130C 440.899,126.036 448.732,126.869 456,132.5C 466.667,147.167 477.333,161.833 488,176.5C 492.362,186.077 490.528,194.244 482.5,201C 487,206.833 491.5,212.667 496,218.5C 501.351,228.189 500.185,237.023 492.5,245C 496.264,251.101 500.431,256.934 505,262.5C 510.885,273.098 509.052,282.098 499.5,289.5C 505.169,297.498 509.169,306.165 511.5,315.5 Z M 179.5,131.5 C 181.017,131.511 182.184,132.177 183,133.5C 191.833,145.833 200.667,158.167 209.5,170.5C 200.383,170.438 196.55,174.772 198,183.5C 203.378,191.089 208.878,198.589 214.5,206C 195.89,224.096 173.556,233.43 147.5,234C 150.812,229.875 153.479,225.375 155.5,220.5C 154.905,218.143 153.905,215.977 152.5,214C 149.089,213.091 145.755,212.091 142.5,211C 148.667,202.833 154.833,194.667 161,186.5C 165.88,176.606 162.713,171.273 151.5,170.5C 160.858,157.482 170.192,144.482 179.5,131.5 Z"/></g>
<g><path style="opacity:0.853" fill="#000000" d="M 369.5,222.5 C 378.711,221.542 382.545,225.542 381,234.5C 376.281,239.366 371.281,239.699 366,235.5C 363.635,230.11 364.801,225.776 369.5,222.5 Z"/></g>
<g><path style="opacity:0.876" fill="#000000" d="M 238.5,227.5 C 248.866,225.394 253.033,229.394 251,239.5C 246,244.833 241,244.833 236,239.5C 234.273,235.062 235.106,231.062 238.5,227.5 Z"/></g>
<g><path style="opacity:0.857" fill="#000000" d="M 397.5,248.5 C 404.66,246.902 408.994,249.568 410.5,256.5C 408.879,262.811 404.879,265.311 398.5,264C 393.776,261.565 392.276,257.731 394,252.5C 394.69,250.65 395.856,249.316 397.5,248.5 Z"/></g>
<g><path style="opacity:0.93" fill="#000000" d="M 237.5,267.5 C 245.065,268.713 247.565,273.046 245,280.5C 244.167,281.333 243.333,282.167 242.5,283C 208.252,284.326 174.252,287.992 140.5,294C 118.812,297.83 98.4785,305.163 79.5,316C 75.9414,318.545 73.6081,321.879 72.5,326C 72.9931,328.819 74.1597,331.319 76,333.5C 87.6583,341.911 100.492,348.078 114.5,352C 150.533,361.588 187.199,366.921 224.5,368C 272.512,370.277 320.178,367.277 367.5,359C 386.567,355.651 404.9,349.984 422.5,342C 426.5,339.333 430.5,336.667 434.5,334C 440.371,327.007 439.371,321.007 431.5,316C 417.844,307.667 403.178,301.667 387.5,298C 348.319,289.202 308.652,284.202 268.5,283C 267.069,282.535 265.903,281.701 265,280.5C 262.439,273.088 264.939,268.755 272.5,267.5C 309.165,268.556 345.499,272.722 381.5,280C 399.678,283.615 417.011,289.615 433.5,298C 443.142,302.974 449.975,310.474 454,320.5C 455.989,331.199 452.823,340.033 444.5,347C 436.274,353.282 427.274,358.282 417.5,362C 374.933,375.706 331.266,383.039 286.5,384C 243.978,385.878 201.644,383.878 159.5,378C 130.493,374.5 102.827,366.5 76.5,354C 67.1884,349.356 60.6884,342.19 57,332.5C 55.1362,320.724 58.9695,311.224 68.5,304C 77.4445,297.694 87.1111,292.694 97.5,289C 126.799,279.561 156.799,273.561 187.5,271C 204.307,269.58 220.973,268.413 237.5,267.5 Z"/></g>
<g><path style="opacity:0.915" fill="#000000" d="M 172.5,302.5 C 182.278,302.144 191.944,302.977 201.5,305C 208.922,309.516 209.255,314.516 202.5,320C 195.515,319.728 188.515,319.228 181.5,318.5C 174.485,319.228 167.485,319.728 160.5,320C 155.465,316.987 154.298,312.82 157,307.5C 157.903,306.299 159.069,305.465 160.5,305C 164.637,304.161 168.637,303.327 172.5,302.5 Z"/></g>
<g><path style="opacity:0.914" fill="#000000" d="M 360.5,313.5 C 369.173,313.334 377.84,313.5 386.5,314C 391.612,313.918 395.779,315.751 399,319.5C 400.801,326.236 398.301,330.236 391.5,331.5C 379.642,328.85 367.809,328.85 356,331.5C 348.766,329.796 346.433,325.462 349,318.5C 349.833,317.667 350.667,316.833 351.5,316C 354.678,315.34 357.678,314.507 360.5,313.5 Z"/></g>
<g><path style="opacity:0.907" fill="#000000" d="M 238.5,328.5 C 248.606,328.117 258.606,328.95 268.5,331C 274.259,334.892 274.926,339.559 270.5,345C 268.801,345.958 266.967,346.458 265,346.5C 259.222,345.342 253.388,344.676 247.5,344.5C 240.485,345.228 233.485,345.728 226.5,346C 221.701,342.929 220.535,338.762 223,333.5C 223.903,332.299 225.069,331.465 226.5,331C 230.665,330.295 234.665,329.461 238.5,328.5 Z"/></g>
</svg>
