<?xml version="1.0" encoding="UTF-8"?>
<!DOCTYPE svg PUBLIC "-//W3C//DTD SVG 1.1//EN" "http://www.w3.org/Graphics/SVG/1.1/DTD/svg11.dtd">
<svg xmlns="http://www.w3.org/2000/svg" version="1.1" width="512px" height="512px" style="shape-rendering:geometricPrecision; text-rendering:geometricPrecision; image-rendering:optimizeQuality; fill-rule:evenodd; clip-rule:evenodd" xmlns:xlink="http://www.w3.org/1999/xlink">
<g><path style="opacity:0.845" fill="#000000" d="M 88.5,32.5 C 91.5468,31.8554 93.7135,32.8554 95,35.5C 95.6667,40.5 95.6667,45.5 95,50.5C 92.679,53.9166 90.0124,54.2499 87,51.5C 86.3333,45.8333 86.3333,40.1667 87,34.5C 87.7172,33.9558 88.2172,33.2891 88.5,32.5 Z"/></g>
<g><path style="opacity:0.84" fill="#000000" d="M 42.5,51.5 C 44.5273,51.3379 46.5273,51.5045 48.5,52C 51.6667,55.1667 54.8333,58.3333 58,61.5C 59.1667,67 57,69.1667 51.5,68C 48.3333,64.8333 45.1667,61.6667 42,58.5C 41.2967,56.0709 41.4634,53.7375 42.5,51.5 Z"/></g>
<g><path style="opacity:0.835" fill="#000000" d="M 133.5,51.5 C 138.989,51.504 140.822,54.1707 139,59.5C 136.5,62 134,64.5 131.5,67C 125.601,69.7655 123.101,67.9321 124,61.5C 127.371,58.2975 130.538,54.9641 133.5,51.5 Z"/></g>
<g><path style="opacity:0.871" fill="#000000" d="M 84.5,62.5 C 115.826,62.6581 130.326,78.3248 128,109.5C 119.603,133.951 102.77,143.118 77.5,137C 58.5724,128.652 50.4057,114.152 53,93.5C 57.4574,76.8748 67.9574,66.5415 84.5,62.5 Z M 87.5,71.5 C 109.96,73.1227 120.46,85.1227 119,107.5C 113.264,124.546 101.43,131.712 83.5,129C 66.1449,122.793 59.3116,110.627 63,92.5C 67.0771,80.5806 75.2438,73.5806 87.5,71.5 Z"/></g>
<g><path style="opacity:0.878" fill="#000000" d="M 511.5,118.5 C 511.5,122.833 511.5,127.167 511.5,131.5C 507.417,139.74 500.751,144.906 491.5,147C 477.274,149.838 462.941,150.838 448.5,150C 425.713,164.794 409.546,184.961 400,210.5C 392.834,228.829 389.334,247.829 389.5,267.5C 413.836,267.333 438.169,267.5 462.5,268C 465.263,270.955 464.93,273.622 461.5,276C 420.835,276.5 380.168,276.667 339.5,276.5C 340.802,288.291 341.468,300.124 341.5,312C 340.963,327.186 340.463,342.353 340,357.5C 345.772,360.484 351.939,361.984 358.5,362C 361.93,364.378 362.263,367.045 359.5,370C 352.268,371.02 345.435,369.853 339,366.5C 337.979,377.279 335.312,387.612 331,397.5C 323.722,409.735 313.555,413.235 300.5,408C 293.42,402.257 291.087,395.257 293.5,387C 294.833,386.333 296.167,386.333 297.5,387C 300.139,391.265 302.806,395.598 305.5,400C 309.167,402 312.833,402 316.5,400C 319.762,397.408 322.262,394.241 324,390.5C 327.116,381.371 329.283,372.037 330.5,362.5C 328.992,360.493 327.158,358.826 325,357.5C 323.97,368.679 321.97,379.679 319,390.5C 317.579,396.168 314.246,397.834 309,395.5C 308.333,393.5 308.333,391.5 309,389.5C 314.082,374.922 316.082,359.922 315,344.5C 305.662,328.82 300.829,311.82 300.5,293.5C 297.523,292.929 294.69,291.929 292,290.5C 289.983,287.873 290.15,285.373 292.5,283C 300.375,284.629 308.375,285.963 316.5,287C 319.167,289.667 319.167,292.333 316.5,295C 314.19,295.497 311.857,295.663 309.5,295.5C 309.95,316.028 316.783,334.028 330,349.5C 333.263,325.216 333.263,300.883 330,276.5C 328.602,269.972 326.602,263.639 324,257.5C 315.667,243.833 307.333,230.167 299,216.5C 292.976,207.903 284.809,204.403 274.5,206C 268.551,207.973 263.217,210.973 258.5,215C 257.167,215.167 255.833,215.333 254.5,215.5C 213.039,209.128 171.372,207.295 129.5,210C 96.5258,212.873 67.1925,224.539 41.5,245C 23.228,261.81 16.0614,282.644 20,307.5C 18.6042,317.126 14.4375,325.292 7.5,332C 4.62932,334.107 1.96265,333.941 -0.5,331.5C -0.5,329.5 -0.5,327.5 -0.5,325.5C 1.73456,324.772 3.56789,323.439 5,321.5C 7.21871,317.729 8.88538,313.729 10,309.5C 12.0904,297.18 13.0904,284.847 13,272.5C 15.4132,263.674 19.4132,255.674 25,248.5C 44.3733,227.888 67.8733,214.055 95.5,207C 109.604,203.261 123.937,200.927 138.5,200C 167.203,199.103 195.87,199.77 224.5,202C 234.483,202.809 244.316,204.309 254,206.5C 268.384,194.586 283.551,193.419 299.5,203C 303.595,206.704 307.095,210.871 310,215.5C 315.581,226.334 321.914,236.668 329,246.5C 332.226,252.951 334.893,259.618 337,266.5C 341.066,267.464 345.233,267.797 349.5,267.5C 350.397,237.745 342.897,210.411 327,185.5C 311.977,166.727 292.81,154.06 269.5,147.5C 257.309,153.7 244.975,154.033 232.5,148.5C 220.034,153.217 207.367,153.717 194.5,150C 178.335,143.535 174.168,132.702 182,117.5C 190.356,110.098 200.19,106.098 211.5,105.5C 216.604,97.4378 223.937,92.6045 233.5,91C 238.833,90.6667 244.167,90.3333 249.5,90C 254.725,73.1381 265.558,67.9714 282,74.5C 288.524,70.1585 295.691,67.3252 303.5,66C 322.786,62.7243 340.62,66.2243 357,76.5C 369.561,69.6932 382.061,69.8598 394.5,77C 396,78.5 397.5,80 399,81.5C 406.311,78.7924 413.144,79.7924 419.5,84.5C 434.925,77.6184 448.425,80.2851 460,92.5C 461.411,94.6504 462.245,96.9837 462.5,99.5C 472.993,99.2699 483.326,100.437 493.5,103C 501.886,105.563 507.886,110.729 511.5,118.5 Z M 307.5,74.5 C 321.142,72.9961 334.142,75.1627 346.5,81C 349.702,83.5444 352.869,86.0444 356,88.5C 359.092,87.076 361.926,85.2426 364.5,83C 376.648,77.9425 386.648,80.6091 394.5,91C 398.51,91.2606 402.344,90.4273 406,88.5C 410.817,89.9957 415.151,92.3291 419,95.5C 431.278,86.7735 442.612,87.7735 453,98.5C 453.674,101.922 454.84,105.089 456.5,108C 466.921,108.153 477.255,109.153 487.5,111C 496.013,112.187 501.346,116.853 503.5,125C 501.026,132.134 496.026,136.467 488.5,138C 461.479,143.726 435.646,140.56 411,128.5C 398.241,138.316 384.074,140.816 368.5,136C 363.132,133.416 358.299,130.249 354,126.5C 333.557,132.87 312.724,134.203 291.5,130.5C 289.9,130.551 288.4,130.884 287,131.5C 286.056,134.347 286.556,136.847 288.5,139C 326.15,154.65 352.317,181.484 367,219.5C 369.333,220.833 371.667,220.833 374,219.5C 382.22,205.949 391.22,192.949 401,180.5C 404.311,168.249 402.145,157.082 394.5,147C 400.657,145.588 406.324,143.088 411.5,139.5C 418.885,143.096 426.551,145.93 434.5,148C 402.885,174.722 385.051,208.889 381,250.5C 380.501,256.157 380.334,261.824 380.5,267.5C 373.167,267.5 365.833,267.5 358.5,267.5C 359.372,238.658 352.872,211.658 339,186.5C 323.324,164.169 302.491,148.669 276.5,140C 279.099,135.933 279.099,131.933 276.5,128C 270.643,126.187 268.143,128.354 269,134.5C 260.987,143.839 251.153,146.339 239.5,142C 237.557,140.445 235.39,139.278 233,138.5C 219.019,146.58 205.186,146.414 191.5,138C 184.835,129.936 186.502,123.603 196.5,119C 203.305,116.699 210.305,115.366 217.5,115C 220.862,106.311 227.195,101.311 236.5,100C 243.567,99.7773 250.567,99.6107 257.5,99.5C 259.533,97.5485 259.866,95.3818 258.5,93C 259.416,85.2503 263.749,81.0837 271.5,80.5C 275.187,81.4305 278.687,82.7638 282,84.5C 289.972,79.6788 298.472,76.3454 307.5,74.5 Z M 348.5,137.5 C 350.199,137.34 351.866,137.506 353.5,138C 361.38,144.225 370.38,147.558 380.5,148C 390.592,153.907 394.759,162.74 393,174.5C 386.066,184.714 378.9,194.714 371.5,204.5C 359.172,178.029 340.506,157.196 315.5,142C 326.872,142.195 337.872,140.695 348.5,137.5 Z"/></g>
<g><path style="opacity:0.848" fill="#000000" d="M 24.5,96.5 C 30.1764,96.3339 35.8431,96.5006 41.5,97C 44.3532,100.096 44.0199,102.763 40.5,105C 35.1667,105.667 29.8333,105.667 24.5,105C 21.8987,102.17 21.8987,99.3371 24.5,96.5 Z"/></g>
<g><path style="opacity:0.851" fill="#000000" d="M 140.5,96.5 C 146.176,96.3339 151.843,96.5006 157.5,97C 160.031,99.9661 159.697,102.633 156.5,105C 151.167,105.667 145.833,105.667 140.5,105C 137.899,102.17 137.899,99.3371 140.5,96.5 Z"/></g>
<g><path style="opacity:0.8" fill="#000000" d="M 50.5,133.5 C 55.9933,132.178 58.4933,134.178 58,139.5C 55.2031,143.299 52.0364,146.799 48.5,150C 42.0758,150.93 39.9091,148.43 42,142.5C 45.0379,139.631 47.8712,136.631 50.5,133.5 Z"/></g>
<g><path style="opacity:0.851" fill="#000000" d="M 125.5,133.5 C 127.199,133.34 128.866,133.506 130.5,134C 133.667,137.167 136.833,140.333 140,143.5C 141.167,149 139,151.167 133.5,150C 130.333,146.833 127.167,143.667 124,140.5C 123.167,137.829 123.667,135.496 125.5,133.5 Z"/></g>
<g><path style="opacity:0.843" fill="#000000" d="M 88.5,148.5 C 91.5468,147.855 93.7135,148.855 95,151.5C 95.6667,156.5 95.6667,161.5 95,166.5C 92.679,169.917 90.0124,170.25 87,167.5C 86.3333,161.833 86.3333,156.167 87,150.5C 87.7172,149.956 88.2172,149.289 88.5,148.5 Z"/></g>
<g><path style="opacity:0.868" fill="#000000" d="M 215.5,218.5 C 226.856,219.765 238.19,221.265 249.5,223C 253.065,225.178 253.399,227.844 250.5,231C 239.717,231.008 229.05,229.841 218.5,227.5C 213.468,229.884 210.634,233.884 210,239.5C 208.058,269.697 218.225,294.863 240.5,315C 251.511,322.864 259.011,320.364 263,307.5C 264.445,298.21 263.945,288.877 261.5,279.5C 263.6,273.85 266.767,273.184 271,277.5C 272.093,283.484 273.093,289.484 274,295.5C 281.189,298.063 288.355,300.73 295.5,303.5C 298.08,305.956 298.08,308.456 295.5,311C 287.903,310.529 280.569,308.696 273.5,305.5C 269.867,326.647 258.201,333.147 238.5,325C 224.629,314.788 214.462,301.621 208,285.5C 200.296,268.006 198.629,250.006 203,231.5C 205.379,225.29 209.546,220.957 215.5,218.5 Z"/></g>
<g><path style="opacity:0.821" fill="#000000" d="M 78.5,231.5 C 83.9885,231.504 85.8219,234.171 84,239.5C 80.3302,242.593 76.1635,243.759 71.5,243C 69.5575,241.028 69.2242,238.861 70.5,236.5C 73.2308,234.808 75.8975,233.142 78.5,231.5 Z"/></g>
<g><path style="opacity:0.868" fill="#000000" d="M 223.5,240.5 C 230.901,240.886 232.401,244.219 228,250.5C 227.833,252.5 227.667,254.5 227.5,256.5C 227.889,262.721 229.222,268.721 231.5,274.5C 231.571,277.596 230.071,279.262 227,279.5C 225.289,279.561 223.956,278.894 223,277.5C 218.899,268.231 217.565,258.564 219,248.5C 219.738,245.352 221.238,242.685 223.5,240.5 Z"/></g>
<g><path style="opacity:0.83" fill="#000000" d="M 58.5,242.5 C 64.0001,241.831 66.1667,244.165 65,249.5C 59.7398,253.882 54.5731,258.382 49.5,263C 45.2623,265.527 42.2623,264.527 40.5,260C 40.8623,258.775 41.3623,257.609 42,256.5C 47.3976,251.593 52.8976,246.927 58.5,242.5 Z"/></g>
<g><path style="opacity:0.881" fill="#000000" d="M 414.5,242.5 C 428.504,242.333 442.504,242.5 456.5,243C 459.608,244.94 460.275,247.606 458.5,251C 443.5,251.667 428.5,251.667 413.5,251C 410.83,247.838 411.163,245.005 414.5,242.5 Z"/></g>
<g><path style="opacity:0.74" fill="#000000" d="M 297.5,244.5 C 304.158,243.344 306.158,245.844 303.5,252C 299.594,254.364 296.928,253.364 295.5,249C 296.044,247.415 296.711,245.915 297.5,244.5 Z"/></g>
<g><path style="opacity:0.889" fill="#000000" d="M 179.5,277.5 C 182.923,277.756 184.923,279.589 185.5,283C 178.338,299.377 177.838,315.877 184,332.5C 189.399,340.908 194.399,349.575 199,358.5C 200.741,363.054 202.074,367.721 203,372.5C 203.5,395.831 203.667,419.164 203.5,442.5C 215.505,442.667 227.505,442.5 239.5,442C 236.525,439.996 233.192,438.996 229.5,439C 228.128,437.758 227.128,436.258 226.5,434.5C 227.407,415.848 228.573,397.181 230,378.5C 232.666,364.503 235.333,350.503 238,336.5C 238.929,331.12 241.762,329.62 246.5,332C 247.116,333.4 247.449,334.9 247.5,336.5C 244.345,352.444 241.511,368.444 239,384.5C 237.929,399.824 237.096,415.157 236.5,430.5C 243.492,431.154 248.159,434.821 250.5,441.5C 259.148,442.332 267.814,442.832 276.5,443C 279.07,445.718 279.07,448.385 276.5,451C 249.595,451.828 222.761,451.661 196,450.5C 194.685,425.587 194.019,400.587 194,375.5C 192.147,364.962 187.98,355.462 181.5,347C 156.285,354.116 130.951,354.283 105.5,347.5C 103.125,357.583 98.6254,366.583 92,374.5C 90.0728,377.948 88.7394,381.615 88,385.5C 87.5001,400.496 87.3334,415.496 87.5,430.5C 96.5637,431.9 101.564,437.233 102.5,446.5C 101.872,448.258 100.872,449.758 99.5,451C 72.1667,451.667 44.8333,451.667 17.5,451C 13.9345,448.822 13.6012,446.156 16.5,443C 26.1609,442.5 35.8276,442.334 45.5,442.5C 45.6666,422.164 45.5,401.831 45,381.5C 24.9274,359.224 17.5941,333.224 23,303.5C 25.9146,300.93 28.5813,301.263 31,304.5C 28.1511,325.904 32.1511,345.904 43,364.5C 47.8226,368.655 51.4893,373.655 54,379.5C 54.5,400.497 54.6666,421.497 54.5,442.5C 66.5046,442.667 78.5046,442.5 90.5,442C 89.8333,441.333 89.1667,440.667 88.5,440C 85.8333,439.667 83.1667,439.333 80.5,439C 80,438.5 79.5,438 79,437.5C 78.3333,419.167 78.3333,400.833 79,382.5C 79.7138,379.405 80.7138,376.405 82,373.5C 98.2125,351.981 103.712,327.981 98.5,301.5C 98.8333,298.5 100.5,296.833 103.5,296.5C 105.601,296.632 107.101,297.632 108,299.5C 109.475,312.526 109.975,325.526 109.5,338.5C 131.875,346.552 154.208,346.385 176.5,338C 170.849,326.48 169.016,314.313 171,301.5C 171.778,294.61 173.445,287.943 176,281.5C 176.69,279.65 177.856,278.316 179.5,277.5 Z"/></g>
<g><path style="opacity:0.873" fill="#000000" d="M 362.5,299.5 C 374.838,299.333 387.171,299.5 399.5,300C 402.917,302.321 403.25,304.988 400.5,308C 387.5,308.667 374.5,308.667 361.5,308C 358.83,304.838 359.163,302.005 362.5,299.5 Z"/></g>
<g><path style="opacity:0.84" fill="#000000" d="M 419.5,299.5 C 424.179,299.334 428.845,299.501 433.5,300C 437.02,302.237 437.353,304.904 434.5,308C 429.5,308.667 424.5,308.667 419.5,308C 416.899,305.17 416.899,302.337 419.5,299.5 Z"/></g>
<g><path style="opacity:0.89" fill="#000000" d="M 110.5,357.5 C 112.527,357.338 114.527,357.505 116.5,358C 117.097,359.062 117.43,360.228 117.5,361.5C 116.002,366.491 113.836,371.158 111,375.5C 110.167,388.846 110.334,402.179 111.5,415.5C 119.384,418.049 124.051,423.383 125.5,431.5C 125.24,433.187 124.573,434.687 123.5,436C 116.5,436.667 109.5,436.667 102.5,436C 100.725,432.606 101.392,429.94 104.5,428C 107.5,427.667 110.5,427.333 113.5,427C 112.672,426.085 111.672,425.419 110.5,425C 107.574,424.782 104.74,424.282 102,423.5C 101.333,406.5 101.333,389.5 102,372.5C 104.228,367.118 107.062,362.118 110.5,357.5 Z"/></g>
<g><path style="opacity:0.864" fill="#000000" d="M 251.5,359.5 C 254.368,359.085 256.535,360.085 258,362.5C 259.531,377.841 261.031,393.174 262.5,408.5C 273.34,410.17 278.507,416.504 278,427.5C 277.097,428.701 275.931,429.535 274.5,430C 268.5,430.667 262.5,430.667 256.5,430C 252.5,427 252.5,424 256.5,421C 259.833,420.667 263.167,420.333 266.5,420C 262.45,418.227 258.283,416.727 254,415.5C 251.461,397.578 250.128,379.578 250,361.5C 250.717,360.956 251.217,360.289 251.5,359.5 Z"/></g>
<g><path style="opacity:0.853" fill="#000000" d="M 424.5,359.5 C 433.663,358.217 440.997,361.217 446.5,368.5C 452.158,361.446 459.491,358.612 468.5,360C 470.788,366.393 468.455,369.393 461.5,369C 453.021,372.407 450.688,377.907 454.5,385.5C 454.069,387.766 452.736,389.266 450.5,390C 432.833,390.667 415.167,390.667 397.5,390C 394.621,388.334 393.788,385.834 395,382.5C 395.75,381.874 396.584,381.374 397.5,381C 412.167,380.667 426.833,380.333 441.5,380C 438.583,371.753 432.75,367.253 424,366.5C 423.297,364.071 423.463,361.738 424.5,359.5 Z"/></g>
<g><path style="opacity:0.789" fill="#000000" d="M 468.5,380.5 C 472.839,379.846 476.673,380.846 480,383.5C 480.39,388.599 477.89,390.933 472.5,390.5C 468.516,390.845 465.849,389.179 464.5,385.5C 465.16,383.185 466.493,381.519 468.5,380.5 Z"/></g>
<g><path style="opacity:0.834" fill="#000000" d="M 359.5,442.5 C 364.179,442.334 368.845,442.501 373.5,443C 376.07,445.915 375.737,448.581 372.5,451C 368.5,451.667 364.5,451.667 360.5,451C 356.874,448.603 356.54,445.769 359.5,442.5 Z"/></g>
<g><path style="opacity:0.885" fill="#000000" d="M 393.5,442.5 C 414.169,442.333 434.836,442.5 455.5,443C 457.013,445.916 456.68,448.582 454.5,451C 434.5,451.667 414.5,451.667 394.5,451C 391.001,448.514 390.668,445.681 393.5,442.5 Z"/></g>
<g><path style="opacity:0.889" fill="#000000" d="M 90.5,469.5 C 112.503,469.333 134.503,469.5 156.5,470C 159.07,472.615 159.07,475.282 156.5,478C 134.5,478.667 112.5,478.667 90.5,478C 87.8987,475.17 87.8987,472.337 90.5,469.5 Z"/></g>
</svg>
