<?xml version="1.0" encoding="UTF-8"?>
<!DOCTYPE svg PUBLIC "-//W3C//DTD SVG 1.1//EN" "http://www.w3.org/Graphics/SVG/1.1/DTD/svg11.dtd">
<svg xmlns="http://www.w3.org/2000/svg" version="1.1" width="512px" height="512px" style="shape-rendering:geometricPrecision; text-rendering:geometricPrecision; image-rendering:optimizeQuality; fill-rule:evenodd; clip-rule:evenodd" xmlns:xlink="http://www.w3.org/1999/xlink">
<g><path style="opacity:0.928" fill="#000000" d="M 511.5,187.5 C 511.5,284.5 511.5,381.5 511.5,478.5C 510.691,479.469 509.691,480.302 508.5,481C 339.833,481.667 171.167,481.667 2.5,481C 1.30943,480.302 0.309426,479.469 -0.5,478.5C -0.5,381.5 -0.5,284.5 -0.5,187.5C 0.473444,187.013 1.47344,186.513 2.5,186C 10.4931,185.5 18.4931,185.334 26.5,185.5C 26.3334,164.164 26.5,142.831 27,121.5C 29.1962,118.875 32.0295,117.875 35.5,118.5C 35.4016,104.934 42.0682,97.9337 55.5,97.5C 55.3336,88.4938 55.5002,79.4938 56,70.5C 59.6203,66.5125 63.287,66.5125 67,70.5C 67.4998,79.4938 67.6664,88.4938 67.5,97.5C 80.9204,97.974 87.2538,104.974 86.5,118.5C 90.287,117.814 93.4537,118.814 96,121.5C 96.3333,126.5 96.6667,131.5 97,136.5C 140,118.833 183,101.167 226,83.5C 227.144,68.8549 234.977,61.1882 249.5,60.5C 249.334,51.1607 249.5,41.8274 250,32.5C 253.667,28.5 257.333,28.5 261,32.5C 261.5,41.8274 261.666,51.1607 261.5,60.5C 276.013,61.1787 283.847,68.8453 285,83.5C 328,101.167 371,118.833 414,136.5C 414.333,131.5 414.667,126.5 415,121.5C 417.546,118.814 420.713,117.814 424.5,118.5C 423.746,104.974 430.08,97.974 443.5,97.5C 443.334,88.4938 443.5,79.4938 444,70.5C 447.713,66.5125 451.38,66.5125 455,70.5C 455.5,79.4938 455.666,88.4938 455.5,97.5C 468.928,97.9304 475.595,104.93 475.5,118.5C 478.97,117.875 481.804,118.875 484,121.5C 484.5,142.831 484.667,164.164 484.5,185.5C 492.507,185.334 500.507,185.5 508.5,186C 509.527,186.513 510.527,187.013 511.5,187.5 Z M 245.5,72.5 C 252.175,72.3337 258.842,72.5004 265.5,73C 268.92,74.7512 271.254,77.4179 272.5,81C 261.167,81.6667 249.833,81.6667 238.5,81C 239.79,77.2227 242.123,74.3894 245.5,72.5 Z M 253.5,93.5 C 266.658,94.168 277.491,99.5013 286,109.5C 303.017,131.893 312.517,157.226 314.5,185.5C 275.167,185.5 235.833,185.5 196.5,185.5C 198.483,157.226 207.983,131.893 225,109.5C 232.94,101.12 242.44,95.7867 253.5,93.5 Z M 214.5,102.5 C 196.213,127.015 186.213,154.682 184.5,185.5C 169.818,185.833 155.152,185.499 140.5,184.5C 147.785,153.406 164.785,129.24 191.5,112C 198.839,107.945 206.506,104.778 214.5,102.5 Z M 296.5,102.5 C 329.105,113.268 351.938,134.602 365,166.5C 367.139,172.415 368.972,178.415 370.5,184.5C 355.848,185.499 341.182,185.833 326.5,185.5C 324.787,154.682 314.787,127.015 296.5,102.5 Z M 51.5,109.5 C 57.8421,109.334 64.1754,109.5 70.5,110C 73.8212,111.812 75.1546,114.645 74.5,118.5C 65.8333,118.5 57.1667,118.5 48.5,118.5C 47.9238,114.888 48.9238,111.888 51.5,109.5 Z M 440.5,109.5 C 446.842,109.334 453.175,109.5 459.5,110C 462.125,112.196 463.125,115.03 462.5,118.5C 453.833,118.5 445.167,118.5 436.5,118.5C 435.981,114.547 437.314,111.547 440.5,109.5 Z M 155.5,126.5 C 141.38,143.745 132.38,163.411 128.5,185.5C 117.833,185.5 107.167,185.5 96.5,185.5C 96.1677,173.482 96.501,161.482 97.5,149.5C 116.71,141.432 136.044,133.765 155.5,126.5 Z M 355.5,126.5 C 375.026,133.593 394.359,141.26 413.5,149.5C 414.499,161.482 414.832,173.482 414.5,185.5C 403.833,185.5 393.167,185.5 382.5,185.5C 378.62,163.411 369.62,143.745 355.5,126.5 Z M 38.5,130.5 C 53.8333,130.5 69.1667,130.5 84.5,130.5C 84.5,148.833 84.5,167.167 84.5,185.5C 69.1667,185.5 53.8333,185.5 38.5,185.5C 38.5,167.167 38.5,148.833 38.5,130.5 Z M 426.5,130.5 C 441.833,130.5 457.167,130.5 472.5,130.5C 472.5,148.833 472.5,167.167 472.5,185.5C 457.167,185.5 441.833,185.5 426.5,185.5C 426.5,167.167 426.5,148.833 426.5,130.5 Z M 11.5,197.5 C 174.167,197.5 336.833,197.5 499.5,197.5C 499.667,217.169 499.5,236.836 499,256.5C 478.794,238.991 455.627,233.491 429.5,240C 413.045,244.892 399.712,254.226 389.5,268C 300.167,268.667 210.833,268.667 121.5,268C 97.7804,238.988 68.1137,230.654 32.5,243C 24.8957,246.382 18.0624,250.882 12,256.5C 11.5,236.836 11.3334,217.169 11.5,197.5 Z M 53.5,249.5 C 77.4862,247.747 96.6528,256.413 111,275.5C 111.5,307.832 111.667,340.165 111.5,372.5C 105.833,372.5 100.167,372.5 94.5,372.5C 94.6666,349.831 94.5,327.164 94,304.5C 93.2496,303.874 92.4162,303.374 91.5,303C 71.1667,302.333 50.8333,302.333 30.5,303C 30,303.5 29.5,304 29,304.5C 28.5,327.164 28.3334,349.831 28.5,372.5C 22.8333,372.5 17.1667,372.5 11.5,372.5C 11.3334,340.165 11.5,307.832 12,275.5C 22.2327,261.131 36.066,252.465 53.5,249.5 Z M 441.5,249.5 C 465.558,247.786 484.725,256.452 499,275.5C 499.5,307.832 499.667,340.165 499.5,372.5C 493.833,372.5 488.167,372.5 482.5,372.5C 482.667,349.831 482.5,327.164 482,304.5C 481.5,304 481,303.5 480.5,303C 460.167,302.333 439.833,302.333 419.5,303C 418.584,303.374 417.75,303.874 417,304.5C 416.5,327.164 416.333,349.831 416.5,372.5C 410.833,372.5 405.167,372.5 399.5,372.5C 399.333,340.165 399.5,307.832 400,275.5C 410.38,261.28 424.214,252.613 441.5,249.5 Z M 56.5,267.5 C 66.4248,266.783 75.4248,269.283 83.5,275C 68.8333,275.667 54.1667,275.667 39.5,275C 44.7816,271.353 50.4483,268.853 56.5,267.5 Z M 444.5,267.5 C 454.425,266.783 463.425,269.283 471.5,275C 456.833,275.667 442.167,275.667 427.5,275C 432.782,271.353 438.448,268.853 444.5,267.5 Z M 123.5,280.5 C 142.5,280.5 161.5,280.5 180.5,280.5C 180.5,311.167 180.5,341.833 180.5,372.5C 177.833,372.5 175.167,372.5 172.5,372.5C 172.667,350.164 172.5,327.831 172,305.5C 171.167,304.667 170.333,303.833 169.5,303C 157.833,302.333 146.167,302.333 134.5,303C 134,303.5 133.5,304 133,304.5C 132.5,327.164 132.333,349.831 132.5,372.5C 129.5,372.5 126.5,372.5 123.5,372.5C 123.5,341.833 123.5,311.167 123.5,280.5 Z M 192.5,280.5 C 211.5,280.5 230.5,280.5 249.5,280.5C 249.5,311.167 249.5,341.833 249.5,372.5C 246.833,372.5 244.167,372.5 241.5,372.5C 241.667,350.497 241.5,328.497 241,306.5C 240.535,305.069 239.701,303.903 238.5,303C 226.833,302.333 215.167,302.333 203.5,303C 202.299,303.903 201.465,305.069 201,306.5C 200.5,328.497 200.333,350.497 200.5,372.5C 197.833,372.5 195.167,372.5 192.5,372.5C 192.5,341.833 192.5,311.167 192.5,280.5 Z M 261.5,280.5 C 280.5,280.5 299.5,280.5 318.5,280.5C 318.5,311.167 318.5,341.833 318.5,372.5C 315.833,372.5 313.167,372.5 310.5,372.5C 310.667,350.497 310.5,328.497 310,306.5C 309.535,305.069 308.701,303.903 307.5,303C 295.833,302.333 284.167,302.333 272.5,303C 271.299,303.903 270.465,305.069 270,306.5C 269.5,328.497 269.333,350.497 269.5,372.5C 266.833,372.5 264.167,372.5 261.5,372.5C 261.5,341.833 261.5,311.167 261.5,280.5 Z M 330.5,280.5 C 349.5,280.5 368.5,280.5 387.5,280.5C 387.5,311.167 387.5,341.833 387.5,372.5C 384.5,372.5 381.5,372.5 378.5,372.5C 378.667,349.831 378.5,327.164 378,304.5C 377.5,304 377,303.5 376.5,303C 364.833,302.333 353.167,302.333 341.5,303C 340.667,303.833 339.833,304.667 339,305.5C 338.5,327.831 338.333,350.164 338.5,372.5C 335.833,372.5 333.167,372.5 330.5,372.5C 330.5,341.833 330.5,311.167 330.5,280.5 Z M 40.5,314.5 C 54.5,314.5 68.5,314.5 82.5,314.5C 82.5,333.833 82.5,353.167 82.5,372.5C 68.5,372.5 54.5,372.5 40.5,372.5C 40.5,353.167 40.5,333.833 40.5,314.5 Z M 144.5,314.5 C 149.833,314.5 155.167,314.5 160.5,314.5C 160.5,333.833 160.5,353.167 160.5,372.5C 155.167,372.5 149.833,372.5 144.5,372.5C 144.5,353.167 144.5,333.833 144.5,314.5 Z M 213.5,314.5 C 218.833,314.5 224.167,314.5 229.5,314.5C 229.5,333.833 229.5,353.167 229.5,372.5C 224.167,372.5 218.833,372.5 213.5,372.5C 213.5,353.167 213.5,333.833 213.5,314.5 Z M 281.5,314.5 C 286.833,314.5 292.167,314.5 297.5,314.5C 297.5,333.833 297.5,353.167 297.5,372.5C 292.167,372.5 286.833,372.5 281.5,372.5C 281.5,353.167 281.5,333.833 281.5,314.5 Z M 350.5,314.5 C 355.833,314.5 361.167,314.5 366.5,314.5C 366.5,333.833 366.5,353.167 366.5,372.5C 361.167,372.5 355.833,372.5 350.5,372.5C 350.5,353.167 350.5,333.833 350.5,314.5 Z M 428.5,314.5 C 442.5,314.5 456.5,314.5 470.5,314.5C 470.5,333.833 470.5,353.167 470.5,372.5C 456.5,372.5 442.5,372.5 428.5,372.5C 428.5,353.167 428.5,333.833 428.5,314.5 Z M 11.5,384.5 C 44.8333,384.5 78.1667,384.5 111.5,384.5C 111.5,412.833 111.5,441.167 111.5,469.5C 105.167,469.5 98.8333,469.5 92.5,469.5C 92.6666,454.163 92.4999,438.83 92,423.5C 87.2128,401.515 73.7128,392.682 51.5,397C 39.841,401.655 33.0077,410.155 31,422.5C 30.5001,438.163 30.3334,453.83 30.5,469.5C 24.1667,469.5 17.8333,469.5 11.5,469.5C 11.5,441.167 11.5,412.833 11.5,384.5 Z M 123.5,384.5 C 211.5,384.5 299.5,384.5 387.5,384.5C 387.5,412.833 387.5,441.167 387.5,469.5C 384.833,469.5 382.167,469.5 379.5,469.5C 379.903,456.115 379.403,442.782 378,429.5C 370.832,415.775 359.999,411.942 345.5,418C 341.866,420.425 339.032,423.592 337,427.5C 335.553,441.427 335.053,455.427 335.5,469.5C 333.167,469.5 330.833,469.5 328.5,469.5C 328.925,456.106 328.425,442.773 327,429.5C 320.625,416.403 310.459,412.236 296.5,417C 291.95,419.883 288.45,423.716 286,428.5C 284.554,442.093 284.054,455.76 284.5,469.5C 282.167,469.5 279.833,469.5 277.5,469.5C 277.927,455.774 277.427,442.107 276,428.5C 267.907,414.894 256.74,411.728 242.5,419C 239.238,421.592 236.738,424.759 235,428.5C 233.573,442.107 233.073,455.774 233.5,469.5C 231.167,469.5 228.833,469.5 226.5,469.5C 226.946,455.76 226.446,442.093 225,428.5C 216.949,414.892 205.783,411.725 191.5,419C 186.964,422.862 184.131,427.695 183,433.5C 182.5,445.495 182.333,457.495 182.5,469.5C 180.167,469.5 177.833,469.5 175.5,469.5C 175.947,455.427 175.447,441.427 174,427.5C 166.402,415.304 155.902,412.137 142.5,418C 137.884,420.618 134.717,424.451 133,429.5C 131.597,442.782 131.097,456.115 131.5,469.5C 128.833,469.5 126.167,469.5 123.5,469.5C 123.5,441.167 123.5,412.833 123.5,384.5 Z M 399.5,384.5 C 432.833,384.5 466.167,384.5 499.5,384.5C 499.5,412.833 499.5,441.167 499.5,469.5C 493.167,469.5 486.833,469.5 480.5,469.5C 480.667,453.83 480.5,438.163 480,422.5C 474.633,401.227 461.133,392.727 439.5,397C 427.379,401.783 420.546,410.616 419,423.5C 418.5,438.83 418.333,454.163 418.5,469.5C 412.167,469.5 405.833,469.5 399.5,469.5C 399.5,441.167 399.5,412.833 399.5,384.5 Z M 178.5,401.5 C 180.484,401.484 181.484,402.484 181.5,404.5C 180.137,408.362 178.471,408.362 176.5,404.5C 177.193,403.482 177.859,402.482 178.5,401.5 Z M 229.5,401.5 C 233.267,403.326 233.433,405.326 230,407.5C 226.911,405.796 226.745,403.796 229.5,401.5 Z M 280.5,401.5 C 284.267,403.326 284.433,405.326 281,407.5C 277.911,405.796 277.745,403.796 280.5,401.5 Z M 330.5,401.5 C 335.197,402.874 335.531,404.874 331.5,407.5C 329.261,405.867 328.928,403.867 330.5,401.5 Z M 58.5,407.5 C 68.3461,407.194 75.1794,411.528 79,420.5C 79.4999,436.83 79.6666,453.163 79.5,469.5C 67.1667,469.5 54.8333,469.5 42.5,469.5C 42.0767,453.118 42.5767,436.785 44,420.5C 46.5713,413.491 51.4046,409.157 58.5,407.5 Z M 446.5,407.5 C 456.346,407.194 463.179,411.528 467,420.5C 468.423,436.785 468.923,453.118 468.5,469.5C 456.167,469.5 443.833,469.5 431.5,469.5C 431.333,453.163 431.5,436.83 432,420.5C 434.571,413.491 439.405,409.157 446.5,407.5 Z M 150.5,427.5 C 156.204,426.436 160.371,428.436 163,433.5C 163.5,445.495 163.667,457.495 163.5,469.5C 157.167,469.5 150.833,469.5 144.5,469.5C 144.333,457.495 144.5,445.495 145,433.5C 146.36,430.977 148.193,428.977 150.5,427.5 Z M 201.5,427.5 C 207.695,426.345 211.861,428.678 214,434.5C 214.5,446.162 214.667,457.829 214.5,469.5C 207.833,469.5 201.167,469.5 194.5,469.5C 194.082,457.105 194.582,444.772 196,432.5C 197.73,430.598 199.563,428.931 201.5,427.5 Z M 251.5,427.5 C 256.901,426.342 261.067,428.009 264,432.5C 265.439,444.758 265.939,457.091 265.5,469.5C 258.833,469.5 252.167,469.5 245.5,469.5C 245.333,458.162 245.5,446.828 246,435.5C 247.104,432.279 248.937,429.612 251.5,427.5 Z M 302.5,427.5 C 307.74,426.538 311.907,428.205 315,432.5C 316.418,444.772 316.918,457.105 316.5,469.5C 309.833,469.5 303.167,469.5 296.5,469.5C 296.333,457.829 296.5,446.162 297,434.5C 297.967,431.379 299.8,429.046 302.5,427.5 Z M 353.5,427.5 C 359.204,426.436 363.371,428.436 366,433.5C 366.5,445.495 366.667,457.495 366.5,469.5C 360.167,469.5 353.833,469.5 347.5,469.5C 347.333,457.495 347.5,445.495 348,433.5C 349.36,430.977 351.193,428.977 353.5,427.5 Z"/></g>
<g><path style="opacity:0.923" fill="#000000" d="M 124.5,212.5 C 211.834,212.333 299.167,212.5 386.5,213C 390.5,216.667 390.5,220.333 386.5,224C 299.167,224.667 211.833,224.667 124.5,224C 120.581,220.173 120.581,216.339 124.5,212.5 Z"/></g>
<g><path style="opacity:0.929" fill="#000000" d="M 124.5,241.5 C 211.834,241.333 299.167,241.5 386.5,242C 390.704,246.155 390.371,249.822 385.5,253C 298.833,253.667 212.167,253.667 125.5,253C 120.547,249.657 120.214,245.824 124.5,241.5 Z"/></g>
<g><path style="opacity:0.916" fill="#000000" d="M 53.5,255.5 C 74.2633,253.469 90.7633,260.802 103,277.5C 103.728,280.23 103.562,282.897 102.5,285.5C 101.975,286.192 101.308,286.692 100.5,287C 87.5,287.167 74.5,287.333 61.5,287.5C 47.7427,287.65 34.0761,287.15 20.5,286C 18.2117,283.271 18.0451,280.438 20,277.5C 28.1888,265.498 39.3554,258.164 53.5,255.5 Z M 56.5,267.5 C 50.4483,268.853 44.7816,271.353 39.5,275C 54.1667,275.667 68.8333,275.667 83.5,275C 75.4248,269.283 66.4248,266.783 56.5,267.5 Z"/></g>
<g><path style="opacity:0.916" fill="#000000" d="M 441.5,255.5 C 462.263,253.469 478.763,260.802 491,277.5C 493.021,281.435 492.187,284.602 488.5,287C 462.124,287.824 435.791,287.657 409.5,286.5C 407.564,283.792 407.064,280.792 408,277.5C 416.189,265.498 427.355,258.164 441.5,255.5 Z M 444.5,267.5 C 438.448,268.853 432.782,271.353 427.5,275C 442.167,275.667 456.833,275.667 471.5,275C 463.425,269.283 454.425,266.783 444.5,267.5 Z"/></g>
<g><path style="opacity:0.902" fill="#000000" d="M 175.5,389.5 C 188.143,388.977 194.309,394.977 194,407.5C 189.686,419.054 181.853,422.221 170.5,417C 163.989,410.749 162.823,403.582 167,395.5C 169.322,392.605 172.155,390.605 175.5,389.5 Z M 178.5,401.5 C 177.859,402.482 177.193,403.482 176.5,404.5C 178.471,408.362 180.137,408.362 181.5,404.5C 181.484,402.484 180.484,401.484 178.5,401.5 Z"/></g>
<g><path style="opacity:0.908" fill="#000000" d="M 226.5,389.5 C 240.632,389.786 246.465,396.786 244,410.5C 238.667,419.701 231.167,421.867 221.5,417C 215.829,412.47 213.996,406.637 216,399.5C 218.106,394.557 221.606,391.224 226.5,389.5 Z M 229.5,401.5 C 226.745,403.796 226.911,405.796 230,407.5C 233.433,405.326 233.267,403.326 229.5,401.5 Z"/></g>
<g><path style="opacity:0.908" fill="#000000" d="M 277.5,389.5 C 291.474,389.645 297.308,396.645 295,410.5C 288.335,420.427 280.002,422.093 270,415.5C 262.879,403.977 265.379,395.31 277.5,389.5 Z M 280.5,401.5 C 277.745,403.796 277.911,405.796 281,407.5C 284.433,405.326 284.267,403.326 280.5,401.5 Z"/></g>
<g><path style="opacity:0.901" fill="#000000" d="M 327.5,389.5 C 344.175,389.854 349.675,397.854 344,413.5C 337.779,420.046 330.613,421.213 322.5,417C 313.448,405.809 315.114,396.642 327.5,389.5 Z M 330.5,401.5 C 328.928,403.867 329.261,405.867 331.5,407.5C 335.531,404.874 335.197,402.874 330.5,401.5 Z"/></g>
</svg>
