<?xml version="1.0" encoding="UTF-8"?>
<!DOCTYPE svg PUBLIC "-//W3C//DTD SVG 1.1//EN" "http://www.w3.org/Graphics/SVG/1.1/DTD/svg11.dtd">
<svg xmlns="http://www.w3.org/2000/svg" version="1.1" width="512px" height="512px" style="shape-rendering:geometricPrecision; text-rendering:geometricPrecision; image-rendering:optimizeQuality; fill-rule:evenodd; clip-rule:evenodd" xmlns:xlink="http://www.w3.org/1999/xlink">
<g><path style="opacity:0.932" fill="#000000" d="M 511.5,101.5 C 511.5,104.167 511.5,106.833 511.5,109.5C 509.866,112.237 507.366,113.57 504,113.5C 496.673,111.335 489.506,108.668 482.5,105.5C 481.167,117.5 481.167,129.5 482.5,141.5C 489.46,144.431 496.46,147.264 503.5,150C 506.794,151.129 509.46,152.962 511.5,155.5C 511.5,217.167 511.5,278.833 511.5,340.5C 510.36,341.801 509.027,342.968 507.5,344C 498.534,344.161 489.867,345.827 481.5,349C 470.502,356.501 459.168,363.501 447.5,370C 426.59,377.023 406.257,375.689 386.5,366C 378.103,359.94 369.437,354.273 360.5,349C 346.633,343.476 332.633,343.143 318.5,348C 308.162,353.834 298.162,360.167 288.5,367C 264.326,377.787 240.659,376.787 217.5,364C 209.675,357.918 201.342,352.585 192.5,348C 178.367,343.143 164.367,343.476 150.5,349C 141.563,354.273 132.897,359.94 124.5,366C 100.662,377.587 76.9957,377.254 53.5,365C 43.5465,356.856 32.5465,350.523 20.5,346C 14.8702,345.034 9.20357,344.367 3.5,344C 1.97331,342.968 0.639972,341.801 -0.5,340.5C -0.5,278.833 -0.5,217.167 -0.5,155.5C 1.53975,152.962 4.20641,151.129 7.5,150C 14.54,147.264 21.54,144.431 28.5,141.5C 29.8333,129.5 29.8333,117.5 28.5,105.5C 21.4938,108.668 14.3272,111.335 7,113.5C 3.63354,113.57 1.13354,112.237 -0.5,109.5C -0.5,106.833 -0.5,104.167 -0.5,101.5C 8.9438,96.014 18.9438,91.6807 29.5,88.5C 29.3338,82.1579 29.5005,75.8246 30,69.5C 32.513,65.7885 36.013,64.6218 40.5,66C 41.9308,66.4652 43.0975,67.2986 44,68.5C 45.1946,72.7514 45.6946,77.0848 45.5,81.5C 68.4645,73.7583 91.7978,67.2583 115.5,62C 116.31,56.2488 116.81,50.4155 117,44.5C 120.892,38.7409 125.559,38.0742 131,42.5C 132.069,47.7553 132.903,53.0886 133.5,58.5C 156.597,53.5815 179.93,50.2481 203.5,48.5C 203.139,42.4067 203.639,36.4067 205,30.5C 208.795,27.1966 212.962,26.6966 217.5,29C 218.126,29.7504 218.626,30.5838 219,31.5C 219.499,36.8229 219.666,42.1563 219.5,47.5C 243.5,46.1667 267.5,46.1667 291.5,47.5C 291.334,42.1563 291.501,36.8229 292,31.5C 293.393,28.6339 295.726,27.3006 299,27.5C 301.814,27.4076 304.147,28.4076 306,30.5C 307.361,36.4067 307.861,42.4067 307.5,48.5C 331.254,50.2983 354.754,53.6316 378,58.5C 378.101,53.0541 378.768,47.7207 380,42.5C 385.441,38.0742 390.108,38.7409 394,44.5C 394.19,50.4155 394.69,56.2488 395.5,62C 419.202,67.2583 442.536,73.7583 465.5,81.5C 465.305,77.0848 465.805,72.7514 467,68.5C 469.995,65.7352 473.495,64.9019 477.5,66C 479.333,66.5 480.5,67.6667 481,69.5C 481.5,75.8246 481.666,82.1579 481.5,88.5C 492.056,91.6807 502.056,96.014 511.5,101.5 Z M 228.5,62.5 C 249.515,62.2781 270.515,62.6114 291.5,63.5C 291.5,75.8333 291.5,88.1667 291.5,100.5C 267.5,99.1868 243.5,99.1868 219.5,100.5C 219.5,88.1667 219.5,75.8333 219.5,63.5C 222.713,63.81 225.713,63.4767 228.5,62.5 Z M 199.5,64.5 C 200.833,64.5 202.167,64.5 203.5,64.5C 203.822,77.08 203.489,89.58 202.5,102C 178.999,104.021 155.666,107.187 132.5,111.5C 132.5,99.1667 132.5,86.8333 132.5,74.5C 154.855,70.4025 177.189,67.0691 199.5,64.5 Z M 307.5,64.5 C 331.329,66.7136 354.995,70.047 378.5,74.5C 378.5,86.8333 378.5,99.1667 378.5,111.5C 355.334,107.187 332.001,104.021 308.5,102C 307.511,89.58 307.178,77.08 307.5,64.5 Z M 113.5,78.5 C 114.5,78.5 115.5,78.5 116.5,78.5C 116.5,90.8333 116.5,103.167 116.5,115.5C 92.502,120.444 69.002,127.111 46,135.5C 45.1789,123.258 45.3456,111.091 46.5,99C 68.6036,91.018 90.9369,84.1846 113.5,78.5 Z M 394.5,78.5 C 418.324,83.6074 441.657,90.4407 464.5,99C 465.654,111.091 465.821,123.258 465,135.5C 458.545,132.123 451.712,130.623 444.5,131C 438.67,137.006 439.337,142.006 446.5,146C 462.958,151.482 479.124,157.649 495,164.5C 495.5,219.499 495.667,274.499 495.5,329.5C 480.616,330.61 467.616,336.11 456.5,346C 455.552,346.483 454.552,346.649 453.5,346.5C 443.693,269.542 403.693,214.708 333.5,182C 269.558,157.198 207.892,161.865 148.5,196C 94.1154,231.455 62.9487,281.622 55,346.5C 43.8044,336.32 30.6378,330.654 15.5,329.5C 15.1691,274.262 15.5025,219.095 16.5,164C 146.47,110.618 279.47,101.618 415.5,137C 424.667,138.5 428.5,134.667 427,125.5C 426.167,124.667 425.333,123.833 424.5,123C 414.655,119.872 404.655,117.372 394.5,115.5C 394.5,103.167 394.5,90.8333 394.5,78.5 Z M 394.5,312.5 C 384.594,305.791 374.26,299.624 363.5,294C 345,288.177 326.667,288.844 308.5,296C 299.563,301.273 290.897,306.94 282.5,313C 270.543,319.155 257.876,321.155 244.5,319C 238.868,317.789 233.534,315.789 228.5,313C 220.103,306.94 211.437,301.273 202.5,296C 179.607,286.99 157.273,288.323 135.5,300C 128.606,305.225 121.44,310.058 114,314.5C 116.444,306.595 119.778,298.928 124,291.5C 128.419,284.328 133.085,277.328 138,270.5C 137.824,260.438 133.157,257.772 124,262.5C 102.01,290.625 90.177,322.625 88.5,358.5C 82.6736,358.401 77.007,357.401 71.5,355.5C 76.5761,289.836 107.243,240.002 163.5,206C 214.85,178.804 267.85,175.138 322.5,195C 392.641,226.078 431.307,279.912 438.5,356.5C 432.58,357.817 426.58,358.483 420.5,358.5C 416.067,296.104 386.734,249.604 332.5,219C 287.637,197.364 241.637,194.697 194.5,211C 175.598,218.358 158.765,228.858 144,242.5C 142.283,251.116 145.783,254.949 154.5,254C 202.35,214.768 255.35,206.101 313.5,228C 351.949,245.28 378.949,273.447 394.5,312.5 Z M 171.5,305.5 C 178.275,305.981 184.942,307.147 191.5,309C 204.335,316.919 217.335,324.585 230.5,332C 252.029,338.329 272.696,336.329 292.5,326C 301.538,318.478 311.538,312.478 322.5,308C 337.392,304.323 351.726,305.99 365.5,313C 376.038,321.692 387.705,328.526 400.5,333.5C 402.85,340.61 404.184,347.943 404.5,355.5C 401.689,355.174 399.022,354.341 396.5,353C 386.365,345.542 375.699,338.875 364.5,333C 345.24,326.533 326.24,327.2 307.5,335C 299.156,339.837 291.156,345.17 283.5,351C 264.833,361 246.167,361 227.5,351C 218.609,343.78 208.942,337.78 198.5,333C 177.089,325.744 156.422,327.411 136.5,338C 127.094,345.704 116.761,351.87 105.5,356.5C 105.167,355.333 104.833,354.167 104.5,353C 105.362,346.466 106.362,339.966 107.5,333.5C 113.103,332.536 118.437,330.702 123.5,328C 132.494,321.501 141.827,315.501 151.5,310C 158.095,307.524 164.762,306.024 171.5,305.5 Z"/></g>
<g><path style="opacity:0.928" fill="#000000" d="M 511.5,378.5 C 511.5,381.5 511.5,384.5 511.5,387.5C 510.373,388.122 509.373,388.955 508.5,390C 498.039,390.425 488.039,392.758 478.5,397C 466.863,406.654 453.863,413.988 439.5,419C 423.926,422.314 408.593,421.314 393.5,416C 381.902,409.396 370.569,402.396 359.5,395C 345.5,390.333 331.5,390.333 317.5,395C 305.408,402.763 293.074,410.097 280.5,417C 258.17,423.917 236.837,421.583 216.5,410C 207.919,402.541 198.253,396.874 187.5,393C 172.864,389.723 158.864,391.389 145.5,398C 136.704,404.789 127.37,410.789 117.5,416C 95.1324,423.886 73.4657,422.22 52.5,411C 43.5077,403.345 33.5077,397.345 22.5,393C 15.8194,392.06 9.15278,391.06 2.5,390C 1.62656,388.955 0.626561,388.122 -0.5,387.5C -0.5,384.5 -0.5,381.5 -0.5,378.5C 2.77868,375.957 6.61202,374.957 11,375.5C 22.2372,375.601 32.7372,378.434 42.5,384C 50.8249,390.164 59.4916,395.831 68.5,401C 82.8263,406.891 97.1596,406.891 111.5,401C 119.844,396.163 127.844,390.83 135.5,385C 154.204,375.084 173.87,372.75 194.5,378C 206.452,382.311 217.119,388.644 226.5,397C 245.846,408.33 265.179,408.33 284.5,397C 296.349,386.492 310.016,379.492 325.5,376C 343.292,372.986 359.959,375.986 375.5,385C 383.156,390.83 391.156,396.163 399.5,401C 413.84,406.891 428.174,406.891 442.5,401C 451.508,395.831 460.175,390.164 468.5,384C 480.635,377.106 493.635,374.44 507.5,376C 508.984,376.662 510.317,377.496 511.5,378.5 Z"/></g>
<g><path style="opacity:0.926" fill="#000000" d="M 511.5,441.5 C 511.5,444.167 511.5,446.833 511.5,449.5C 510.684,451.144 509.35,452.31 507.5,453C 499.678,453.498 492.011,454.831 484.5,457C 474.162,462.834 464.162,469.167 454.5,476C 434.924,484.779 414.924,485.779 394.5,479C 382.001,471.918 369.668,464.585 357.5,457C 343.715,452.131 330.049,452.465 316.5,458C 307.563,463.273 298.897,468.94 290.5,475C 272.621,483.876 253.955,485.876 234.5,481C 229.601,479.551 224.935,477.551 220.5,475C 212.103,468.94 203.437,463.273 194.5,458C 176.858,451.21 159.858,452.543 143.5,462C 131.417,472.708 117.417,479.708 101.5,483C 87.3718,484.794 73.7051,483.128 60.5,478C 49.4315,470.604 38.0981,463.604 26.5,457C 18.9887,454.831 11.3221,453.498 3.5,453C 1.64977,452.31 0.316435,451.144 -0.5,449.5C -0.5,446.833 -0.5,444.167 -0.5,441.5C 1.99361,438.672 5.16028,437.339 9,437.5C 21.7377,437.976 33.571,441.476 44.5,448C 52.3245,454.082 60.6579,459.415 69.5,464C 83.1667,468.667 96.8333,468.667 110.5,464C 121.833,457 133.167,450 144.5,443C 166.447,434.829 187.781,436.163 208.5,447C 216.5,452.333 224.5,457.667 232.5,463C 245.926,468.155 259.593,468.821 273.5,465C 285.966,457.932 298.299,450.599 310.5,443C 331.6,435.036 352.267,436.036 372.5,446C 381.494,452.499 390.827,458.499 400.5,464C 414.167,468.667 427.833,468.667 441.5,464C 450.342,459.415 458.675,454.082 466.5,448C 478.832,440.584 492.165,437.25 506.5,438C 508.323,438.997 509.99,440.164 511.5,441.5 Z"/></g>
</svg>
