<svg width="14" height="14" viewBox="0 0 14 14" fill="none" xmlns="http://www.w3.org/2000/svg">
<path d="M4.2208 1.40784C4.2208 1.40784 4.42037 1.32164 4.81953 1.14923C5.21869 0.976827 5.85303 0.890625 6.72255 0.890625C7.59208 0.890625 8.42599 1.06303 9.22431 1.40784C10.0226 1.75265 10.7122 2.21552 11.2932 2.79646C11.8741 3.37739 12.337 4.06701 12.6818 4.86532C13.0266 5.66364 13.199 6.49756 13.199 7.36708C13.199 8.23661 13.0266 9.07053 12.6818 9.86884C12.337 10.6672 11.8741 11.3568 11.2932 11.9377C10.7122 12.5186 10.0226 12.9815 9.22431 13.3263C8.42599 13.6711 7.59208 13.8436 6.72255 13.8436C5.85303 13.8436 5.01911 13.6711 4.2208 13.3263C3.42248 12.9815 2.73286 12.5186 2.15193 11.9377C1.57099 11.3568 1.10812 10.6672 0.763311 9.86884C0.418499 9.07053 0.246094 8.23661 0.246094 7.36708C0.246094 6.49756 0.418499 5.66364 0.763311 4.86532C1.10812 4.06701 1.57099 3.37739 2.15193 2.79646C2.73286 2.21552 3.42248 1.75265 4.2208 1.40784ZM7.02614 1.73391C6.9137 1.82386 6.7769 1.9007 6.61574 1.96441C6.45457 2.02813 6.32152 2.0731 6.21658 2.09934C6.11164 2.12557 5.95047 2.15556 5.73309 2.18929C5.51571 2.22302 5.36954 2.24738 5.29458 2.26237C5.18214 2.28486 5.01161 2.28486 4.78299 2.26237C4.55436 2.23989 4.38383 2.24738 4.27139 2.28486C4.12147 2.33733 3.92845 2.43665 3.69233 2.58282C3.45621 2.72899 3.32691 2.8583 3.30442 2.97074C3.28193 3.05319 3.3063 3.13752 3.37751 3.22372C3.44872 3.30993 3.48057 3.37926 3.47308 3.43173C3.45059 3.68659 3.34752 4.02766 3.16387 4.45492C2.98022 4.88219 2.86966 5.17828 2.83218 5.34319C2.76472 5.59805 2.78346 5.94661 2.8884 6.38887C2.99334 6.83113 3.02332 7.1572 2.97835 7.36708C2.97835 7.43454 3.04206 7.60133 3.1695 7.86743C3.29693 8.13354 3.35689 8.35654 3.3494 8.53644C3.43935 8.53644 3.52555 8.55518 3.60801 8.59266C3.69046 8.63014 3.77854 8.68636 3.87224 8.76132C3.96593 8.83628 4.03902 8.88875 4.09149 8.91873C4.21143 8.9787 4.33511 9.03492 4.46254 9.08739C4.58997 9.13986 4.74176 9.19608 4.91791 9.25605C5.09407 9.31602 5.22337 9.36099 5.30583 9.39097C5.46324 9.45844 5.66001 9.57837 5.89613 9.75078C6.13225 9.92318 6.35713 10.0656 6.57076 10.1781C6.78439 10.2905 6.9999 10.3317 7.21728 10.3017C7.26975 10.4142 7.25851 10.5416 7.18355 10.684C7.10859 10.8264 7.02426 10.9764 6.93056 11.1338C6.83686 11.2912 6.80126 11.4336 6.82375 11.561C6.92119 11.7185 7.0074 11.8478 7.08236 11.949C7.15731 12.0502 7.26038 12.1532 7.39156 12.2582C7.52274 12.3631 7.65954 12.4306 7.80196 12.4606C7.80196 12.513 7.78884 12.573 7.76261 12.6405C7.73637 12.7079 7.72325 12.7604 7.72325 12.7979C7.72325 12.8354 7.74199 12.8991 7.77947 12.989C8.55905 13.004 9.38734 12.5842 10.2644 11.7297C10.4892 11.5123 10.6635 11.3362 10.7872 11.2012C10.9109 11.0663 11.0402 10.8827 11.1751 10.6503C11.31 10.4179 11.3888 10.1818 11.4112 9.94192C11.3138 9.88196 11.1751 9.8501 10.9952 9.84635C10.8153 9.8426 10.6804 9.81449 10.5904 9.76202C10.478 9.70955 10.2925 9.65333 10.0339 9.59336C9.77526 9.5334 9.58224 9.46219 9.45481 9.37973C9.31988 9.37973 9.16622 9.3816 8.99381 9.38535C8.8214 9.3891 8.66024 9.39472 8.51032 9.40222C8.36041 9.40971 8.20299 9.43408 8.03808 9.4753C7.87317 9.51653 7.73075 9.57837 7.61082 9.66083C7.22853 9.92318 6.98116 9.96816 6.86872 9.79575C6.83874 9.78826 6.82562 9.69268 6.82937 9.50904C6.83312 9.32539 6.83499 9.22981 6.83499 9.22232C6.79002 9.12487 6.69069 9.05928 6.53703 9.02555C6.38336 8.99182 6.29154 8.96746 6.26155 8.95246C6.26905 8.84003 6.26718 8.72571 6.25593 8.60953C6.24469 8.49334 6.21845 8.3884 6.17723 8.2947C6.136 8.201 6.06666 8.1579 5.96921 8.1654C5.87177 8.17289 5.75558 8.2516 5.62065 8.40152C5.44825 8.58891 5.29083 8.57392 5.14841 8.35654C5.00599 8.14666 4.97601 7.92927 5.05846 7.7044C5.10344 7.58446 5.18589 7.50201 5.30583 7.45703C5.3508 7.46453 5.44825 7.47015 5.59817 7.4739C5.74809 7.47765 5.87364 7.49264 5.97484 7.51887C6.07603 7.54511 6.14912 7.59571 6.19409 7.67067C6.24656 7.76062 6.31403 7.85057 6.39648 7.94052C6.47894 8.03047 6.55952 8.1073 6.63822 8.17102C6.71693 8.23473 6.79189 8.29095 6.8631 8.33967C6.93431 8.3884 6.9924 8.42775 7.03738 8.45774L7.0936 8.49147C7.10859 8.40152 7.1367 8.2872 7.17793 8.14853C7.21916 8.00986 7.24914 7.88055 7.26788 7.76062C7.28662 7.64068 7.28474 7.52075 7.26226 7.40081C7.23977 7.26589 7.25289 7.1572 7.30161 7.07474C7.35033 6.99229 7.4178 6.90796 7.504 6.82176C7.5902 6.73555 7.6483 6.64373 7.67828 6.54628C7.72325 6.44134 7.76261 6.31016 7.79634 6.15275C7.83007 5.99533 7.86005 5.87915 7.88629 5.80419C7.91253 5.72923 7.97062 5.6449 8.06057 5.5512C8.15052 5.4575 8.27795 5.37317 8.44286 5.29821C8.39789 5.16329 8.43536 5.02836 8.5553 4.89343C8.61527 4.89343 8.70522 4.89906 8.82515 4.9103C8.94509 4.92154 9.03691 4.92717 9.10063 4.92717C9.16434 4.92717 9.2393 4.9103 9.3255 4.87657C9.41171 4.84284 9.48854 4.78474 9.556 4.70229C9.48104 4.52988 9.36486 4.3706 9.20744 4.22443C9.05003 4.07826 8.90948 3.96769 8.7858 3.89273C8.66212 3.81777 8.47847 3.71658 8.23485 3.58915C7.99123 3.46172 7.8282 3.37551 7.74574 3.33054C7.74574 3.32304 7.75324 3.29306 7.76823 3.24059C7.78322 3.18812 7.79447 3.14502 7.80196 3.11128C7.80946 3.07755 7.81508 3.0382 7.81883 2.99322C7.82258 2.94825 7.81883 2.91264 7.80758 2.88641C7.79634 2.86017 7.77947 2.84331 7.75699 2.83581C7.98936 2.93326 8.20861 2.9876 8.41475 2.99885C8.62089 3.01009 8.76518 3.00072 8.84764 2.97074L8.98257 2.91452C9.02005 2.70463 8.98444 2.53223 8.87575 2.3973C8.76706 2.26237 8.63026 2.17242 8.46535 2.12745C8.30044 2.08247 8.11304 2.02625 7.90316 1.95879C7.69327 1.89133 7.53961 1.81637 7.44216 1.73391C7.30723 1.7639 7.16856 1.7639 7.02614 1.73391ZM6.86872 2.937C6.86872 3.06443 6.89871 3.22185 6.95867 3.40925C7.01864 3.59664 7.08236 3.7653 7.14982 3.91522C7.21728 4.06514 7.25101 4.15134 7.25101 4.17383C7.19105 4.16633 7.043 4.14572 6.80688 4.11199C6.57076 4.07826 6.37399 4.04078 6.21658 3.99955C6.05916 3.95832 5.92049 3.89648 5.80056 3.81402C5.82304 3.73157 5.88301 3.62101 5.98046 3.48233C6.0779 3.34366 6.13787 3.24808 6.16036 3.19561C6.23532 3.27057 6.30653 3.30805 6.37399 3.30805C6.44146 3.30805 6.49393 3.28556 6.53141 3.24059C6.56889 3.19561 6.61948 3.14127 6.6832 3.07755C6.74691 3.01384 6.80875 2.96699 6.86872 2.937Z" fill="#1C190E"/>
</svg>
