<svg width="36" height="37" viewBox="0 0 36 37" fill="none" xmlns="http://www.w3.org/2000/svg">
<mask id="mask0_4055_3105" style="mask-type:luminance" maskUnits="userSpaceOnUse" x="0" y="0" width="36" height="37">
<path d="M36 0.5H0V36.5H36V0.5Z" fill="white"/>
</mask>
<g mask="url(#mask0_4055_3105)">
<g opacity="0.7">
<path d="M26.4181 13.3242L26.4214 13.3277C26.5388 13.446 26.6923 13.5049 26.8464 13.5049C27 13.5049 27.1539 13.4462 27.2722 13.3289C27.5083 13.0946 27.5085 12.7106 27.2735 12.4738C27.0389 12.2373 26.657 12.2358 26.4206 12.4703L26.4181 13.3242ZM26.4181 13.3242L26.4172 13.3233L26.4181 13.3242ZM26.4181 13.3242L26.4172 13.3233L26.4181 13.3242ZM26.4172 13.3233C26.1826 13.0868 26.1842 12.7049 26.4206 12.4703L26.4172 13.3233Z" fill="#2B2A28"/>
<path d="M33.6957 20.6035H33.4542H21.0915C20.0107 20.6035 19.1317 19.7244 19.1317 18.6437V6.28105V6.03963L19.3024 6.21034L24.3075 11.2153C24.543 11.4508 24.9249 11.4508 25.1605 11.2153C25.396 10.9798 25.396 10.5979 25.1605 10.3623L18.8092 4.01107C18.5737 3.77562 18.1917 3.77561 17.9562 4.01107L6.74695 15.2205C6.51144 15.456 6.51142 15.8379 6.74695 16.0735L23.662 32.9884C23.7751 33.1015 23.9285 33.1651 24.0885 33.1651C24.2484 33.1651 24.4018 33.1015 24.5149 32.9884L35.7242 21.7791C35.8373 21.6659 35.9009 21.5126 35.9009 21.3526L33.6957 20.6035ZM33.6957 20.6035L33.5249 20.4328L33.6957 20.6035ZM33.6957 20.6035L33.5249 20.4328L33.6957 20.6035ZM33.5249 20.4328L28.3407 15.2486C28.1051 15.013 28.1051 14.6311 28.3407 14.3956C28.5763 14.1601 28.9582 14.1601 29.1937 14.3956L35.7241 20.9261M33.5249 20.4328L35.7241 20.9261L33.5249 20.4328ZM35.7241 20.9261C35.8371 21.0392 35.9008 21.1927 35.9009 21.3526L35.7241 20.9261ZM17.9256 5.98919V5.74776L17.7549 5.91848L8.80012 14.8732L8.62941 15.0439H8.87083H17.8256H17.9256V14.9439V5.98919ZM23.3146 30.9351L23.4853 31.1058V30.8644V21.9098V21.8098H23.3853H21.0917C19.346 21.8098 17.9256 20.3894 17.9256 18.6437V16.3501V16.2501H17.8256H8.87083H8.62941L8.80012 16.4208L23.3146 30.9351ZM24.6915 30.8645V31.1059L24.8622 30.9352L33.8169 21.9805L33.9876 21.8098H33.7462H24.7915H24.6915V21.9098V30.8645Z" fill="#2B2A28"/>
<path d="M0.704687 18.4595H4.82718C5.16028 18.4595 5.4303 18.7296 5.4303 19.0626C5.4303 19.3957 5.16028 19.6657 4.82718 19.6657H0.704687C0.371586 19.6657 0.101562 19.3956 0.101562 19.0626C0.101562 18.7296 0.371586 18.4595 0.704687 18.4595Z" fill="#2B2A28"/>
<path d="M6.91563 18.4595H6.92618C7.25928 18.4595 7.5293 18.7296 7.5293 19.0626C7.5293 19.3956 7.25928 19.6657 6.92618 19.6657H6.91563C6.58253 19.6657 6.3125 19.3956 6.3125 19.0626C6.3125 18.7296 6.58253 18.4595 6.91563 18.4595Z" fill="#2B2A28"/>
<path d="M0.704687 11.0767H2.9549C3.288 11.0767 3.55802 11.3467 3.55802 11.6798C3.55802 12.0128 3.288 12.2829 2.9549 12.2829H0.704687C0.371586 12.2829 0.101562 12.0128 0.101562 11.6798C0.101562 11.3467 0.371586 11.0767 0.704687 11.0767Z" fill="#2B2A28"/>
<path d="M5.25156 11.0767H7.91134C8.24445 11.0767 8.51447 11.3467 8.51447 11.6798C8.51447 12.0128 8.24445 12.2829 7.91134 12.2829H5.25156C4.91846 12.2829 4.64844 12.0128 4.64844 11.6798C4.64844 11.3467 4.91846 11.0767 5.25156 11.0767Z" fill="#2B2A28"/>
<path d="M5.50157 22.3267H9.439C9.77203 22.3267 10.0422 22.5968 10.0422 22.9298C10.0422 23.2628 9.7721 23.5329 9.439 23.5329H5.50157C5.16847 23.5329 4.89844 23.2628 4.89844 22.9298C4.89844 22.5967 5.16847 22.3267 5.50157 22.3267Z" fill="#2B2A28"/>
<path d="M2.60312 26.8267H12.5172C12.8503 26.8267 13.1203 27.0967 13.1203 27.4298C13.1203 27.7628 12.8503 28.0329 12.5172 28.0329H2.60312C2.27002 28.0329 2 27.7628 2 27.4298C2 27.0967 2.27002 26.8267 2.60312 26.8267Z" fill="#2B2A28"/>
</g>
</g>
</svg>
