<svg width="20" height="19" viewBox="0 0 20 19" fill="none" xmlns="http://www.w3.org/2000/svg">
<path d="M7.15385 4.44449V12.3016M13.3077 6.58734V14.4444M13.8236 17.7759L18.8235 15.455C19.2143 15.274 19.4615 14.9026 19.4615 14.4969V2.60639C19.4615 1.8102 18.5589 1.2921 17.7918 1.6483L13.8236 3.4902C13.4985 3.64163 13.1159 3.64163 12.7918 3.4902L7.66974 1.11306C7.50955 1.03871 7.33292 1 7.15385 1C6.97477 1 6.79814 1.03871 6.63795 1.11306L1.63795 3.43401C1.24615 3.61591 1 3.98734 1 4.3921V16.2826C1 17.0787 1.90257 17.5969 2.66974 17.2407L6.63795 15.3987C6.96308 15.2473 7.34565 15.2473 7.66974 15.3987L12.7918 17.7769C13.1169 17.9273 13.4995 17.9263 13.8236 17.7759Z" stroke="white" stroke-linecap="round" stroke-linejoin="round"/>
</svg>
