<svg width="36" height="33" viewBox="0 0 36 33" fill="none" xmlns="http://www.w3.org/2000/svg">
<path d="M18.1894 0.860391L18.0003 0.783112L17.8112 0.860391L17.3359 1.0546L17.3356 1.05471L2.12621 7.27944L2.11926 7.28228L2.1124 7.28533L1.32025 7.63765L1.02344 7.76966V8.0945V11.3998V11.8998H1.52344H3.55834V24.5942H1.52344H1.02344V25.0942V31.319V31.819H1.52344H34.4771H34.9771V31.319V25.0942V24.5942H34.4771H32.4422V11.8998H34.4771H34.9771V11.3998V8.09326V7.76701L34.6785 7.63561L33.8864 7.28702L33.8864 7.28687L33.8744 7.28195L18.665 1.05474L18.6647 1.0546L18.1894 0.860391ZM18.0003 4.58743L27.3407 8.40994H8.65984L18.0003 4.58743ZM7.09324 11.8998H8.62814V24.5942H7.09324V11.8998ZM12.163 11.8998H13.6979V24.5942H12.163V11.8998ZM18.7677 11.8998V24.5942H17.2328V11.8998H18.7677ZM22.3026 11.8998H23.8375V24.5942H22.3026V11.8998ZM27.3724 11.8998H28.9073V24.5942H27.3724V11.8998ZM31.4422 28.0841V28.3291H4.55834V28.0841H31.4422ZM33.685 7.74464L33.685 7.74461L33.685 7.74464Z" stroke="black"/>
</svg>
