<svg width="22" height="22" viewBox="0 0 22 22" fill="none" xmlns="http://www.w3.org/2000/svg">
<g opacity="0.7">
<path d="M18.7433 16.6392L18.8125 16.6122V16.5395V10.4632C18.8125 10.2263 19.0096 10.034 19.2525 10.034C19.4953 10.034 19.6925 10.2263 19.6925 10.4632V16.9023C19.6925 17.078 19.5827 17.2354 19.417 17.3018C19.4168 17.3019 19.4171 17.3018 19.417 17.3018L13.9272 19.4437L13.967 19.5407V19.5433L13.9223 19.4453L13.9143 19.4487C13.8107 19.489 13.6953 19.489 13.5918 19.4487L13.5838 19.4453L13.5624 19.436H13.5592L8.29337 17.3811L8.2525 17.3651L8.21164 17.3811L2.91626 19.4469C2.86323 19.4676 2.80778 19.4779 2.7525 19.4779C2.66532 19.4779 2.5802 19.453 2.50628 19.4041C2.38545 19.3241 2.3125 19.1909 2.3125 19.0486V9.39008C2.3125 9.21424 2.42238 9.05702 2.58892 8.99172C2.58892 8.99172 2.58893 8.99172 2.58892 8.99172L8.07034 6.85197L8.07386 6.85079L8.08376 6.84757L8.09014 6.84532C8.19464 6.80416 8.31146 6.80416 8.41596 6.84532L8.41849 6.84629L8.42729 6.84951L8.44357 6.85546L11.7184 8.13425C11.7183 8.13425 11.7184 8.13431 11.7184 8.13425C11.945 8.2229 12.0546 8.47284 11.9641 8.69214C11.8734 8.91289 11.6142 9.01935 11.3923 8.9321L8.84337 7.93716L8.6925 7.8783V8.03681V16.5385V16.6111L8.76164 16.6381L13.1616 18.3552L13.3125 18.414V18.2555V12.6096C13.3125 12.3726 13.5096 12.1803 13.7525 12.1803C13.9953 12.1803 14.1925 12.3726 14.1925 12.6096V18.2566V18.4151L14.3434 18.3563L18.7433 16.6392ZM7.74337 16.6381L7.8125 16.6111V16.5385V8.03573V7.87723L7.66164 7.93609L3.26165 9.65316L3.1925 9.68015V9.75281V18.2555V18.414L3.34335 18.3552L7.74337 16.6381Z" fill="#2B2A28"/>
<path d="M14.4141 6.1709C14.4141 5.34266 15.1051 4.66846 15.9541 4.66846C16.803 4.66846 17.4941 5.34266 17.4941 6.1709C17.4941 6.99912 16.803 7.67334 15.9541 7.67334C15.1051 7.67334 14.4141 6.99912 14.4141 6.1709ZM15.2941 6.1709C15.2941 6.52638 15.5897 6.8148 15.9541 6.8148C16.3184 6.8148 16.6141 6.52638 16.6141 6.1709C16.6141 5.81541 16.3184 5.52699 15.9541 5.52699C15.5897 5.52699 15.2941 5.81541 15.2941 6.1709Z" fill="#2B2A28"/>
<path d="M15.8668 10.7869L15.9509 10.8842L16.035 10.7869C16.638 10.0894 17.3288 9.20418 17.8696 8.36367C18.1399 7.94347 18.374 7.53245 18.5409 7.16027C18.7068 6.79051 18.8109 6.44892 18.8109 6.17075C18.8109 4.63265 17.5275 3.38051 15.9509 3.38051C14.3744 3.38051 13.0909 4.63265 13.0909 6.17075C13.0909 6.44919 13.1951 6.79089 13.3609 7.1607C13.5279 7.53298 13.762 7.94395 14.0323 8.3641C14.5731 9.2045 15.2639 10.0894 15.8668 10.7869ZM12.2109 6.17075C12.2109 4.1588 13.8887 2.52197 15.9509 2.52197C18.0132 2.52197 19.6909 4.1588 19.6909 6.17075C19.6909 6.62825 19.5065 7.18544 19.2137 7.77783C18.9221 8.3678 18.5286 8.98203 18.1223 9.55065C17.3102 10.6872 16.4537 11.6324 16.2784 11.8232C16.1944 11.9137 16.0755 11.9659 15.9509 11.9659C15.8264 11.9659 15.7075 11.9137 15.6235 11.8232C15.4482 11.6324 14.5917 10.6872 13.7796 9.55065C13.3733 8.98203 12.9797 8.3678 12.6882 7.77783C12.3954 7.18544 12.2109 6.62825 12.2109 6.17075Z" fill="#2B2A28"/>
</g>
</svg>
