<?xml version="1.0" standalone="no"?>
<!DOCTYPE svg PUBLIC "-//W3C//DTD SVG 20010904//EN"
 "http://www.w3.org/TR/2001/REC-SVG-20010904/DTD/svg10.dtd">
<svg version="1.0" xmlns="http://www.w3.org/2000/svg"
 width="300.000000pt" height="300.000000pt" viewBox="0 0 300.000000 300.000000"
 preserveAspectRatio="xMidYMid meet">
<metadata>
Created by potrace 1.10, written by Peter Selinger 2001-2011
</metadata>
<g transform="translate(0.000000,300.000000) scale(0.100000,-0.100000)"
fill="#000000" stroke="none">
<path d="M817 2993 c-4 -3 -7 -280 -7 -615 l0 -609 -54 6 c-73 9 -98 1 -94
-33 3 -26 5 -27 76 -30 l72 -3 0 -662 0 -663 -73 0 c-60 0 -83 -5 -131 -28
-72 -35 -103 -77 -152 -202 l-36 -94 -198 0 c-173 0 -199 -2 -204 -16 -4 -9
-1 -23 5 -30 13 -16 49 -19 49 -4 0 6 64 10 172 10 147 0 174 2 190 17 18 16
21 16 47 0 41 -24 305 -25 339 -1 20 14 24 14 44 0 20 -14 86 -16 523 -16 437
0 503 2 523 16 20 14 24 14 44 0 32 -23 250 -23 268 -1 16 19 34 19 50 0 19
-23 306 -22 332 2 18 16 21 16 47 0 23 -14 55 -17 159 -17 88 0 132 -4 134
-11 2 -7 13 -9 27 -4 15 5 21 13 19 28 -3 21 -8 22 -163 25 l-160 3 -39 101
c-24 63 -51 115 -73 139 -39 44 -106 79 -149 79 l-29 0 0 71 c0 67 -2 72 -33
100 -18 16 -39 29 -47 29 -12 0 -15 18 -15 95 l0 95 34 14 c48 20 69 65 64
134 -4 47 -10 60 -37 84 -17 15 -40 28 -51 28 -21 0 -25 11 -34 90 -3 25 -8
60 -12 78 -5 25 -3 32 9 32 8 0 27 14 41 31 21 25 26 41 26 85 0 92 -36 134
-116 134 -24 0 -36 5 -41 18 -3 9 -21 54 -40 99 l-35 83 26 31 c22 25 26 41
26 91 0 55 -3 63 -34 94 -32 32 -38 34 -99 34 l-65 0 -58 78 c-218 290 -552
529 -904 646 l-105 35 -3 148 c-3 145 -7 162 -38 163 -6 0 -14 -3 -17 -7z
m156 -444 c203 -135 407 -326 530 -497 63 -87 167 -256 167 -270 0 -5 -41 -9
-90 -8 l-90 2 -58 90 c-71 109 -186 247 -281 337 -71 67 -103 81 -115 51 -3
-9 -6 -120 -6 -247 l0 -232 -80 -1 -80 0 0 418 c0 230 2 418 5 418 3 0 47 -28
98 -61z m60 44 c26 -9 47 -21 47 -25 0 -4 31 -23 69 -43 263 -132 459 -285
648 -507 l74 -88 -108 0 -108 0 -22 38 c-32 57 -138 198 -207 276 -110 125
-314 295 -362 302 -17 3 -94 51 -94 59 0 8 13 6 63 -12z m132 -493 c111 -114
110 -98 19 -194 -44 -46 -82 -84 -86 -85 -5 0 -8 78 -8 174 0 96 2 175 4 175
2 0 34 -31 71 -70z m197 -240 c25 -36 47 -69 50 -75 4 -6 -43 -10 -133 -10
-76 0 -139 0 -139 1 0 9 167 161 171 156 3 -4 26 -36 51 -72z m699 0 c15 -8
19 -21 19 -60 0 -39 -4 -52 -19 -60 -11 -5 -82 -10 -158 -10 l-138 0 -36 70
-36 70 174 0 c101 0 182 -4 194 -10z m-946 -86 c30 -32 31 -50 6 -64 -49 -26
-82 9 -59 60 16 37 22 37 53 4z m-82 -800 l2 -739 348 -3 349 -2 -5 432 c-4
423 -5 436 -30 555 -33 151 -76 281 -132 401 l-44 92 93 0 93 0 41 -102 c77
-196 121 -378 141 -582 6 -60 11 -302 11 -538 l0 -428 -515 0 -515 0 0 825 0
824 78 3 c42 2 78 3 80 2 1 -1 3 -334 5 -740z m293 736 l131 0 41 -87 c35 -73
112 -273 112 -289 0 -2 -95 75 -210 171 -116 96 -219 181 -230 188 -27 16 -25
31 3 23 12 -3 81 -6 153 -6z m19 -240 c121 -101 221 -186 223 -189 1 -3 -106
-5 -238 -3 l-240 3 0 201 c0 191 1 200 18 186 9 -8 116 -98 237 -198z m722
105 l41 -95 -122 0 -122 0 -36 95 -35 95 116 0 116 -1 42 -94z m174 -165 c15
-8 19 -21 19 -60 0 -39 -4 -52 -19 -60 -11 -5 -87 -10 -173 -10 l-154 0 -13
58 c-7 31 -15 63 -18 70 -6 16 328 18 358 2z m-598 -139 c10 -48 9 -50 -22
-53 -37 -5 -48 23 -27 66 22 46 38 42 49 -13z m-88 -70 c-11 -10 -113 -95
-226 -189 -114 -94 -210 -175 -214 -181 -20 -33 -25 5 -25 189 l0 200 242 0
c237 0 242 0 223 -19z m635 -53 c6 -40 13 -83 16 -95 4 -23 4 -23 -124 -23
l-129 0 -7 58 c-4 31 -9 74 -13 95 l-6 37 126 0 125 0 12 -72z m-531 -83 c6
-55 11 -140 12 -190 l2 -90 -264 -2 -264 -2 30 24 c17 13 127 105 245 203 129
108 218 175 221 168 4 -6 12 -56 18 -111z m643 -112 c24 -22 24 -77 -2 -103
-18 -18 -33 -20 -180 -20 l-160 0 0 70 0 70 162 0 c136 0 164 -3 180 -17z
m-1165 -182 c7 -9 12 -22 10 -30 -3 -20 -59 -34 -69 -18 -10 15 -10 61 -1 70
10 10 46 -3 60 -22z m1078 -96 l0 -95 -127 0 -128 0 0 95 0 95 128 0 127 0 0
-95z m-540 -155 c0 -110 -2 -200 -4 -200 -3 0 -14 9 -25 19 -22 20 -432 339
-470 365 -19 13 5 15 239 15 l260 1 0 -200z m-473 88 c57 -46 172 -135 255
-198 139 -105 179 -142 137 -126 -9 3 -125 6 -259 6 l-244 0 -1 200 c0 110 2
200 4 200 3 0 51 -37 108 -82z m1102 -104 c19 -19 21 -74 4 -97 -11 -13 -39
-17 -181 -19 l-167 -3 0 68 0 67 164 0 c136 0 167 -3 180 -16z m-1494 -309 l0
-135 -164 0 -165 0 31 77 c58 145 93 174 213 184 44 3 81 7 83 7 1 1 2 -59 2
-133z m1404 -5 l1 -130 -127 0 -128 0 0 130 0 129 123 3 c67 2 124 2 126 1 2
-2 4 -61 5 -133z m241 113 c41 -23 76 -72 110 -152 19 -45 35 -84 35 -87 0 -2
-72 -4 -159 -4 l-160 0 -3 131 c-2 72 -2 132 -1 133 6 6 162 -12 178 -21z"/>
</g>
</svg>
