<?xml version="1.0" encoding="UTF-8"?>
<svg version="1.1" xmlns="http://www.w3.org/2000/svg" width="512" height="512">
<path d="M0 0 C1.10032814 -0.01065742 1.10032814 -0.01065742 2.22288513 -0.02153015 C29.84605714 -0.22817002 62.30068295 0.89424708 86.359375 16.328125 C93.54303163 24.01296697 94.75574346 31.67372576 94.57732964 41.96013832 C94.54218319 44.05063112 94.5399279 46.13902379 94.54566956 48.2297821 C94.55390474 53.41175491 94.51232747 58.59301248 94.46276855 63.77471924 C94.42157974 68.17632765 94.40404986 72.57668915 94.42012215 76.97847557 C94.41800451 79.03173463 94.38096199 81.08247144 94.34288025 83.1353302 C94.11489385 89.4410859 94.11489385 89.4410859 96.36180115 95.10243225 C98.12671461 96.63982777 98.12671461 96.63982777 101.046875 98.203125 C106.04431465 104.87726553 110.30942388 112.72863071 110.046875 121.203125 C110.72383549 121.2372732 111.40079597 121.27142139 112.09827042 121.30660439 C123.35715914 122.01619845 134.44043842 123.78798688 145.58496094 125.48193359 C147.8480517 125.82241732 150.11120136 126.16250982 152.37440491 126.50224304 C158.48837253 127.42136607 164.60141249 128.34652088 170.71423244 129.27324247 C175.82608557 130.04774429 180.93835075 130.81950742 186.05060506 131.59135592 C198.79816893 133.5161354 211.54480308 135.44699208 224.29104987 137.38047095 C235.34409921 139.0568915 246.39840192 140.7248809 257.4533107 142.3889914 C268.83052467 144.10170658 280.20679767 145.82053648 291.58218026 147.54537642 C297.95837601 148.5121082 304.33491351 149.47642438 310.71239471 150.43464279 C316.70535277 151.33533218 322.69709147 152.24373633 328.68798637 153.15804482 C330.88332206 153.49176783 333.07907277 153.82277403 335.27526283 154.15082741 C338.27882691 154.59992382 341.28072049 155.05891718 344.28240967 155.52035522 C345.57799856 155.71049904 345.57799856 155.71049904 346.89976096 155.90448415 C356.03433222 157.33175239 364.64307075 159.17750282 370.3880412 167.03821129 C374.28945937 173.39765622 374.7481906 178.63419976 374.64814758 185.9912262 C374.65241971 187.15047779 374.65669183 188.30972937 374.66109341 189.5041098 C374.66787334 192.6994031 374.65237215 195.89366693 374.62720311 199.0888387 C374.60551562 202.54269883 374.61292435 205.99651507 374.61671448 209.45042419 C374.61933027 215.42704565 374.60370572 221.40339319 374.57552528 227.37994576 C374.53480847 236.02088055 374.52185973 244.66168353 374.51558533 253.30270385 C374.50465494 267.32370373 374.47141493 281.34455777 374.42407227 295.36547852 C374.3781441 308.98168206 374.34276816 322.59784592 374.3215332 336.21411133 C374.32021959 337.05407957 374.31890597 337.89404781 374.31755254 338.75946964 C374.31102713 342.97354177 374.30470865 347.18761419 374.29849303 351.40168679 C374.24669914 386.33560346 374.15866818 421.26935075 374.046875 456.203125 C374.83312256 456.34862793 375.61937012 456.49413086 376.42944336 456.64404297 C381.71657573 457.77337168 385.10338638 461.06610025 388.484375 465.140625 C391.28056308 470.72079072 390.9393385 477.18069958 390.046875 483.203125 C387.47897925 489.62740129 383.39548006 493.46433795 377.046875 496.203125 C374.18575294 496.57525457 371.71995994 496.74625398 368.87051582 496.71207619 C368.07159965 496.71848914 367.27268348 496.7249021 366.44955772 496.73150939 C363.77362411 496.7481068 361.09858613 496.73626319 358.42263794 496.72451782 C356.48434862 496.73055938 354.54606407 496.7383376 352.60778797 496.74770296 C347.28215711 496.76829981 341.95679498 496.76389008 336.6311419 496.75534177 C330.88731483 496.75041397 325.14355303 496.76842724 319.39974976 496.78341675 C308.14732562 496.80893352 296.89499689 496.81249531 285.6425487 496.80781622 C276.49756757 496.80425215 267.35261544 496.80774425 258.20763779 496.81626511 C256.90676494 496.81745548 255.60589209 496.81864586 254.26559886 496.81987231 C251.62299117 496.82229578 248.98038349 496.82472405 246.33777581 496.82715707 C228.59087949 496.84273458 210.84399564 496.85056759 193.09709358 496.84252357 C192.40313834 496.84221082 191.70918309 496.84189807 190.9941989 496.84157584 C187.47698816 496.83996428 183.95977746 496.83827274 180.44256677 496.83654924 C179.74404228 496.83620706 179.04551779 496.83586489 178.32582589 496.83551234 C176.9132399 496.83481903 175.50065391 496.83412197 174.08806792 496.83342117 C152.10763937 496.82270648 130.12737128 496.83856848 108.14697266 496.87548828 C83.44944907 496.9169234 58.75202867 496.93831249 34.05446804 496.93033731 C20.97844535 496.9265096 7.90256886 496.93152404 -5.17342758 496.95976639 C-16.30503168 496.98356555 -27.4363996 496.98643597 -38.56800686 496.96218605 C-44.24817146 496.95038846 -49.92790376 496.94826417 -55.60803986 496.97219086 C-60.80819743 496.99384128 -66.00756004 496.9877838 -71.20767988 496.95966749 C-73.08850619 496.95435486 -74.96939413 496.95916553 -76.85016011 496.97513922 C-93.8310794 497.10934721 -93.8310794 497.10934721 -100.39781773 491.78228128 C-105.320281 486.78433718 -106.22804336 483.25527233 -106.578125 476.328125 C-106.36760259 469.50429512 -104.817386 465.03552402 -99.953125 460.203125 C-96.76164582 457.73208521 -94.09286907 456.203125 -89.953125 456.203125 C-89.95540332 455.12967628 -89.95540332 455.12967628 -89.95772767 454.03454173 C-90.04725381 411.61365145 -90.11587823 369.19277215 -90.15738632 326.7718064 C-90.1623891 321.67746062 -90.1675664 316.58311503 -90.17285156 311.48876953 C-90.1739008 310.47458361 -90.17495005 309.4603977 -90.17603108 308.41547887 C-90.19343293 291.99722756 -90.22496942 275.5790323 -90.26173618 259.16081424 C-90.2991517 242.31228456 -90.32136215 225.46378423 -90.32947898 208.61521471 C-90.33496547 198.22002064 -90.35228972 187.82498505 -90.38479087 177.42983977 C-90.40594628 170.30001219 -90.41232271 163.17026645 -90.40713051 156.04040976 C-90.40457033 151.92777108 -90.40847526 147.8154092 -90.4299469 143.70281982 C-90.4494824 139.93345523 -90.45035009 136.16455228 -90.43672058 132.39516596 C-90.43424331 130.39434814 -90.45143243 128.39353535 -90.46945024 126.39279711 C-90.40643194 116.86380619 -88.41545978 109.25586027 -83.015625 101.328125 C-82.32146484 100.28011719 -82.32146484 100.28011719 -81.61328125 99.2109375 C-79.953125 97.203125 -79.953125 97.203125 -77.3846283 95.46902466 C-74.70701115 93.41107773 -74.70701115 93.41107773 -74.35426331 90.32174683 C-74.3656987 89.2060733 -74.37713409 88.09039978 -74.38891602 86.94091797 C-74.38863907 85.67214813 -74.38836212 84.4033783 -74.38807678 83.09616089 C-74.39949266 82.42030819 -74.41090855 81.74445549 -74.42267036 81.04812241 C-74.45746229 78.91893382 -74.46010829 76.79182561 -74.45433044 74.66238403 C-74.44604053 69.37065956 -74.48730534 64.07960889 -74.53723145 58.78814697 C-74.57861875 54.32106914 -74.59583809 49.85522932 -74.57987785 45.38797379 C-74.58198295 43.30559232 -74.61896127 41.22575151 -74.65711975 39.14376831 C-74.63468095 30.71765294 -73.5025014 24.73931268 -67.953125 18.203125 C-61.54430522 12.47871905 -54.045467 10.28063651 -45.890625 8.015625 C-44.69848389 7.67394287 -43.50634277 7.33226074 -42.27807617 6.98022461 C-28.43700844 3.08962527 -14.43392116 0.09315642 0 0 Z M-24.953125 20.203125 C-25.59652832 20.35297852 -26.23993164 20.50283203 -26.90283203 20.65722656 C-43.34605276 23.7912522 -43.34605276 23.7912522 -56.953125 32.203125 C-57.89978327 35.20636603 -58.07490942 37.92504619 -58.06665039 41.06347656 C-58.06657486 42.02417053 -58.06649933 42.9848645 -58.06642151 43.97467041 C-58.06126022 45.00396667 -58.05609894 46.03326294 -58.05078125 47.09375 C-58.0493663 48.15350037 -58.04795135 49.21325073 -58.04649353 50.30511475 C-58.04089882 53.68781362 -58.02834725 57.07044615 -58.015625 60.453125 C-58.01060932 62.74739488 -58.00604653 65.04166579 -58.00195312 67.3359375 C-57.99093111 72.95835594 -57.97419821 78.58073573 -57.953125 84.203125 C-54.70994929 83.56868822 -51.56464036 82.846616 -48.3984375 81.8984375 C-9.42939992 70.39353788 34.51612302 67.90589014 72.98828125 83.38671875 C75.14256347 84.387451 75.14256347 84.387451 78.046875 84.203125 C78.09762205 77.45877295 78.1326284 70.71447023 78.15673828 63.9699707 C78.16679028 61.67600667 78.1804339 59.38205543 78.19775391 57.08813477 C78.22203709 53.78919312 78.23336623 50.49042103 78.2421875 47.19140625 C78.25251007 46.16727127 78.26283264 45.14313629 78.27346802 44.08796692 C78.27369461 42.64703926 78.27369461 42.64703926 78.27392578 41.17700195 C78.278367 40.33539017 78.28280823 39.49377838 78.28738403 38.62666321 C77.91681124 34.89251101 76.98097331 32.07214626 74.21411133 29.49804688 C71.9554419 28.1484938 69.87482172 27.28797273 67.37109375 26.484375 C66.46762207 26.19320801 65.56415039 25.90204102 64.63330078 25.60205078 C63.19833252 25.15708252 63.19833252 25.15708252 61.734375 24.703125 C60.75194824 24.39487793 59.76952148 24.08663086 58.75732422 23.76904297 C42.80938499 18.87180849 27.30512144 16.96834277 10.671875 16.953125 C9.91087494 16.95211792 9.14987488 16.95111084 8.36581421 16.95007324 C-3.00891399 16.96026417 -13.86917023 17.50422238 -24.953125 20.203125 Z M-17.953125 91.203125 C-17.953125 111.993125 -17.953125 132.783125 -17.953125 154.203125 C-11.518125 153.708125 -11.518125 153.708125 -4.953125 153.203125 C-2.41101761 153.12350105 0.13242839 153.0727978 2.67578125 153.0703125 C3.97837891 153.06902344 5.28097656 153.06773437 6.62304688 153.06640625 C7.93853516 153.07027344 9.25402344 153.07414062 10.609375 153.078125 C11.92873047 153.07425781 13.24808594 153.07039063 14.60742188 153.06640625 C15.90873047 153.06769531 17.21003906 153.06898438 18.55078125 153.0703125 C19.70392822 153.07144043 20.8570752 153.07256836 22.04516602 153.07373047 C27.38954473 153.24653998 32.71817356 153.75906655 38.046875 154.203125 C38.046875 133.413125 38.046875 112.623125 38.046875 91.203125 C27.76744072 89.51742993 27.76744072 89.51742993 17.671875 88.9375 C16.41890625 88.93492188 15.1659375 88.93234375 13.875 88.9296875 C12.61171875 88.93742187 11.3484375 88.94515625 10.046875 88.953125 C8.78359375 88.94539063 7.5203125 88.93765625 6.21875 88.9296875 C4.96578125 88.93226562 3.7128125 88.93484375 2.421875 88.9375 C1.31585938 88.93975586 0.20984375 88.94201172 -0.9296875 88.94433594 C-6.64209647 89.3117603 -12.29547467 90.33271726 -17.953125 91.203125 Z M-46.640625 98.390625 C-47.51396484 98.68259766 -48.38730469 98.97457031 -49.28710938 99.27539062 C-59.07661327 102.67503164 -67.39706123 107.26033383 -72.265625 116.765625 C-74.15982399 123.4814214 -74.0837225 130.02302179 -74.05078125 136.9453125 C-74.0493663 138.06882111 -74.04795135 139.19232971 -74.04649353 140.34988403 C-74.04091164 143.92599183 -74.02836241 147.50203623 -74.015625 151.078125 C-74.01060766 153.50781159 -74.00604516 155.93749917 -74.00195312 158.3671875 C-73.99094814 164.31252151 -73.97422801 170.25781872 -73.953125 176.203125 C-72.89673828 175.66985596 -71.84035156 175.13658691 -70.75195312 174.5871582 C-56.34261251 167.33363434 -56.34261251 167.33363434 -49.453125 164.390625 C-48.82921875 164.11798828 -48.2053125 163.84535156 -47.5625 163.56445312 C-43.06837922 161.61916737 -38.55027647 159.9270568 -33.953125 158.203125 C-33.953125 137.413125 -33.953125 116.623125 -33.953125 95.203125 C-38.49183581 95.203125 -42.38441647 96.9063299 -46.640625 98.390625 Z M54.046875 95.203125 C54.046875 115.993125 54.046875 136.783125 54.046875 158.203125 C60.976875 160.843125 67.906875 163.483125 75.046875 166.203125 C80.79447852 169.13254873 86.43648053 172.04943463 92.046875 175.203125 C93.036875 175.698125 93.036875 175.698125 94.046875 176.203125 C94.09780896 169.10476769 94.13270653 162.00645796 94.15673828 154.90795898 C94.16676254 152.49583169 94.18038545 150.08371645 94.19775391 147.67163086 C94.22215962 144.1938173 94.23339418 140.71616517 94.2421875 137.23828125 C94.25251007 136.16917007 94.26283264 135.1000589 94.27346802 133.99855042 C94.27493357 124.09916887 93.41848398 116.40489174 86.7578125 108.71484375 C81.10349992 103.10402588 73.38416564 100.84361494 66.046875 98.203125 C64.62761719 97.68685547 64.62761719 97.68685547 63.1796875 97.16015625 C60.03316658 96.06145304 57.40157884 95.203125 54.046875 95.203125 Z M110.046875 138.203125 C110.046875 243.143125 110.046875 348.083125 110.046875 456.203125 C128.526875 456.203125 147.006875 456.203125 166.046875 456.203125 C166.046875 419.243125 166.046875 382.283125 166.046875 344.203125 C162.416875 343.873125 158.786875 343.543125 155.046875 343.203125 C150.14454247 340.85552914 146.15643409 338.55692071 143.67578125 333.484375 C141.81321363 326.72822912 141.58896628 318.79129669 145.109375 312.578125 C147.54861188 308.94801489 150.98403308 306.68388932 155.046875 305.203125 C159.85209942 304.60204864 164.64925977 304.64517012 169.48413086 304.66967773 C170.95000576 304.66261301 172.41587336 304.65386566 173.88172913 304.64356995 C177.84878763 304.6211276 181.8154462 304.6240035 185.7825439 304.63289142 C189.10008163 304.63801301 192.41754499 304.63069924 195.73507506 304.62341934 C203.56425395 304.60643662 211.39323787 304.60996959 219.22241211 304.62670898 C227.28702372 304.6436293 235.351094 304.62779361 243.41564649 304.5954861 C250.35177698 304.56875662 257.28773931 304.56152322 264.22391611 304.57000118 C268.3612673 304.57492059 272.49829288 304.57276857 276.63560295 304.55221367 C280.52729133 304.53380342 284.41820355 304.53987938 288.30985069 304.56441307 C289.73360562 304.56940415 291.15742023 304.56597548 292.58112717 304.55326462 C300.5737274 304.48758091 306.93817526 304.60390057 313.046875 310.203125 C317.64718044 315.60848389 317.71469725 320.83701698 317.4921875 327.81640625 C316.63459146 334.33864984 314.01052981 337.67147425 308.921875 341.640625 C305.046875 343.203125 305.046875 343.203125 294.046875 344.203125 C294.046875 381.163125 294.046875 418.123125 294.046875 456.203125 C315.166875 456.203125 336.286875 456.203125 358.046875 456.203125 C358.09095249 421.38225068 358.12788598 386.5614034 358.14900566 351.74050959 C358.15150712 347.63112418 358.15409576 343.52173883 358.15673828 339.41235352 C358.1572629 338.59423662 358.15778752 337.77611972 358.15832804 336.93321141 C358.16703456 323.6802008 358.1828059 310.42720751 358.20118059 297.17420719 C358.21987276 283.57900494 358.23099028 269.98381177 358.23505199 256.38859719 C358.23779847 247.99722896 358.24647818 239.6059097 358.26270793 231.21455654 C358.27326638 225.4630686 358.27647821 219.71160603 358.27387775 213.96010909 C358.27259468 210.64003945 358.27567197 207.32007372 358.28528595 204.00001526 C358.29519616 200.40210689 358.29285811 196.80441018 358.28738403 193.20649719 C358.29320972 192.15494157 358.2990354 191.10338594 358.30503762 190.01996499 C358.30105552 189.05555936 358.29707342 188.09115373 358.29297066 187.09752369 C358.2937301 186.26707533 358.29448954 185.43662696 358.29527199 184.5810135 C357.92345828 181.02166469 356.9155998 178.16798532 354.51217556 175.49859142 C350.71704275 173.5043246 346.81556952 173.08572449 342.60206604 172.47566223 C341.63437426 172.32609107 340.66668248 172.17651991 339.66966671 172.02241629 C336.4201251 171.52308695 333.16831289 171.04054157 329.91625977 170.55786133 C327.58868525 170.20373732 325.26126551 169.8485948 322.93399048 169.49250793 C316.60715771 168.52753262 310.27821071 167.57714124 303.94876218 166.62949586 C298.0017206 165.73812127 292.05656041 164.83431003 286.11120331 163.93178388 C274.32970331 162.14372043 262.54657217 160.36664759 250.76245117 158.59594727 C239.32773445 156.87773506 227.89410054 155.15254898 216.46166992 153.41918945 C215.75762988 153.31244578 215.05358984 153.20570211 214.32821525 153.09572379 C212.90990972 152.88068082 211.49160432 152.66563702 210.07329905 152.45059238 C209.37365703 152.34451306 208.67401502 152.23843374 207.95317173 152.1291399 C206.90635912 151.97041857 206.90635912 151.97041857 205.83839879 151.80849074 C194.28596129 150.05713464 182.73253045 148.31234851 171.17904544 146.56791854 C168.54575824 146.17015392 165.91250336 145.77218406 163.27931333 145.37377763 C155.77228121 144.23798678 148.26478048 143.10542168 140.75638199 141.97869682 C138.479743 141.63649666 136.20329168 141.29304539 133.92704201 140.94826508 C130.82475628 140.47861166 127.72182061 140.01351995 124.6186676 139.54963684 C123.26137451 139.34259517 123.26137451 139.34259517 121.87666136 139.13137084 C121.04360816 139.0078187 120.21055496 138.88426655 119.35225773 138.75697041 C118.63637487 138.64923717 117.92049202 138.54150393 117.18291575 138.43050605 C114.81639866 138.17859085 112.42676248 138.203125 110.046875 138.203125 Z M-17.953125 171.203125 C-17.953125 191.993125 -17.953125 212.783125 -17.953125 234.203125 C-11.518125 233.708125 -11.518125 233.708125 -4.953125 233.203125 C-2.41101761 233.12350105 0.13242839 233.0727978 2.67578125 233.0703125 C3.97837891 233.06902344 5.28097656 233.06773437 6.62304688 233.06640625 C7.93853516 233.07027344 9.25402344 233.07414062 10.609375 233.078125 C11.92873047 233.07425781 13.24808594 233.07039063 14.60742188 233.06640625 C15.90873047 233.06769531 17.21003906 233.06898438 18.55078125 233.0703125 C19.70392822 233.07144043 20.8570752 233.07256836 22.04516602 233.07373047 C27.38954473 233.24653998 32.71817356 233.75906655 38.046875 234.203125 C38.046875 213.413125 38.046875 192.623125 38.046875 171.203125 C27.76744072 169.51742993 27.76744072 169.51742993 17.671875 168.9375 C16.41890625 168.93492187 15.1659375 168.93234375 13.875 168.9296875 C12.61171875 168.93742188 11.3484375 168.94515625 10.046875 168.953125 C8.78359375 168.94539062 7.5203125 168.93765625 6.21875 168.9296875 C4.96578125 168.93226563 3.7128125 168.93484375 2.421875 168.9375 C1.31585938 168.93975586 0.20984375 168.94201172 -0.9296875 168.94433594 C-6.64209647 169.3117603 -12.29547467 170.33271726 -17.953125 171.203125 Z M54.046875 176.203125 C54.046875 196.663125 54.046875 217.123125 54.046875 238.203125 C60.976875 240.843125 67.906875 243.483125 75.046875 246.203125 C80.79447852 249.13254873 86.43648053 252.04943463 92.046875 255.203125 C93.036875 255.698125 93.036875 255.698125 94.046875 256.203125 C94.25598196 248.63201993 94.41560547 241.06121622 94.51318455 233.48787594 C94.56003668 229.97044896 94.62350053 226.45500575 94.72583008 222.9387207 C94.84290982 218.88995066 94.8860953 214.84324236 94.92578125 210.79296875 C94.97223282 209.53854477 95.01868439 208.28412079 95.06654358 206.99168396 C95.16829672 200.4222894 95.16829672 200.4222894 92.08554077 194.87515259 C89.81460828 193.08780071 87.56452944 191.6148368 85.046875 190.203125 C84.0878125 189.5534375 83.12875 188.90375 82.140625 188.234375 C68.83158876 180.04556977 68.83158876 180.04556977 54.046875 176.203125 Z M-65.953125 191.203125 C-66.62617172 191.54706802 -67.29921844 191.89101105 -67.99266052 192.24537659 C-70.45282248 193.69400627 -72.13446541 194.98869008 -73.953125 197.203125 C-75.0750055 201.70470919 -74.88565353 206.08046862 -74.734375 210.6953125 C-74.72305542 211.99638947 -74.71173584 213.29746643 -74.70007324 214.63796997 C-74.66966145 218.08167561 -74.59120865 221.52264129 -74.50244141 224.965271 C-74.42030368 228.48428276 -74.38400321 232.00374155 -74.34375 235.5234375 C-74.25819204 242.41778572 -74.12182759 249.31032352 -73.953125 256.203125 C-72.89673828 255.66985596 -71.84035156 255.13658691 -70.75195312 254.5871582 C-56.34261251 247.33363434 -56.34261251 247.33363434 -49.453125 244.390625 C-48.82921875 244.11798828 -48.2053125 243.84535156 -47.5625 243.56445312 C-43.06837922 241.61916737 -38.55027647 239.9270568 -33.953125 238.203125 C-33.953125 217.743125 -33.953125 197.283125 -33.953125 176.203125 C-43.772811 176.203125 -57.93276923 186.03959872 -65.953125 191.203125 Z M-17.953125 251.203125 C-17.953125 271.993125 -17.953125 292.783125 -17.953125 314.203125 C-11.518125 313.708125 -11.518125 313.708125 -4.953125 313.203125 C-2.41101761 313.12350105 0.13242839 313.0727978 2.67578125 313.0703125 C3.97837891 313.06902344 5.28097656 313.06773437 6.62304688 313.06640625 C7.93853516 313.07027344 9.25402344 313.07414062 10.609375 313.078125 C11.92873047 313.07425781 13.24808594 313.07039063 14.60742188 313.06640625 C15.90873047 313.06769531 17.21003906 313.06898438 18.55078125 313.0703125 C19.70392822 313.07144043 20.8570752 313.07256836 22.04516602 313.07373047 C27.38954473 313.24653998 32.71817356 313.75906655 38.046875 314.203125 C38.046875 293.413125 38.046875 272.623125 38.046875 251.203125 C27.76744072 249.51742993 27.76744072 249.51742993 17.671875 248.9375 C16.41890625 248.93492187 15.1659375 248.93234375 13.875 248.9296875 C12.61171875 248.93742188 11.3484375 248.94515625 10.046875 248.953125 C8.78359375 248.94539062 7.5203125 248.93765625 6.21875 248.9296875 C4.96578125 248.93226563 3.7128125 248.93484375 2.421875 248.9375 C1.31585938 248.93975586 0.20984375 248.94201172 -0.9296875 248.94433594 C-6.64209647 249.3117603 -12.29547467 250.33271726 -17.953125 251.203125 Z M54.046875 256.203125 C54.046875 276.663125 54.046875 297.123125 54.046875 318.203125 C60.976875 320.843125 67.906875 323.483125 75.046875 326.203125 C80.79447852 329.13254873 86.43648053 332.04943463 92.046875 335.203125 C93.036875 335.698125 93.036875 335.698125 94.046875 336.203125 C94.41939075 328.55483172 94.70273815 320.90748667 94.87586975 313.25216103 C94.95903448 309.69558813 95.07148117 306.14526001 95.25390625 302.59228516 C96.68615358 287.64632057 96.68615358 287.64632057 92.54364014 273.9637146 C88.90517215 270.52490343 84.81608995 268.59791871 80.12704468 266.96586609 C76.78277397 265.73961387 73.78526699 263.98930379 70.671875 262.265625 C65.0940293 259.44902053 60.27610033 258.0718926 54.046875 256.203125 Z M-65.953125 271.203125 C-66.62617172 271.54706802 -67.29921844 271.89101105 -67.99266052 272.24537659 C-70.45282248 273.69400627 -72.13446541 274.98869008 -73.953125 277.203125 C-75.0750055 281.70470919 -74.88565353 286.08046862 -74.734375 290.6953125 C-74.72305542 291.99638947 -74.71173584 293.29746643 -74.70007324 294.63796997 C-74.66966145 298.08167561 -74.59120865 301.52264129 -74.50244141 304.965271 C-74.42030368 308.48428276 -74.38400321 312.00374155 -74.34375 315.5234375 C-74.25819204 322.41778572 -74.12182759 329.31032352 -73.953125 336.203125 C-72.89673828 335.66985596 -71.84035156 335.13658691 -70.75195312 334.5871582 C-56.34261251 327.33363434 -56.34261251 327.33363434 -49.453125 324.390625 C-48.82921875 324.11798828 -48.2053125 323.84535156 -47.5625 323.56445312 C-43.06837922 321.61916737 -38.55027647 319.9270568 -33.953125 318.203125 C-33.953125 297.743125 -33.953125 277.283125 -33.953125 256.203125 C-43.772811 256.203125 -57.93276923 266.03959872 -65.953125 271.203125 Z M159.046875 322.203125 C159.39132381 324.67579265 159.39132381 324.67579265 160.046875 327.203125 C162.64222326 328.50079913 164.52290838 328.33195164 167.43028259 328.33683777 C168.57302139 328.34110275 169.71576019 328.34536774 170.89312744 328.34976196 C172.15292419 328.34930878 173.41272095 328.34885559 174.71069336 328.34838867 C176.04600621 328.35137964 177.38131819 328.35478202 178.71662903 328.35856628 C182.3488322 328.36741665 185.98101183 328.36974483 189.61322474 328.37038207 C192.64266 328.37133038 195.67208975 328.37500777 198.70152289 328.37855417 C205.84716067 328.38670258 212.99278584 328.38913804 220.13842773 328.38842773 C227.51610786 328.38782675 234.89371492 328.39838169 242.27137655 328.4141714 C248.60007731 328.42723478 254.92875414 328.43261214 261.25746828 328.43197232 C265.03972824 328.43171699 268.82192328 328.43458753 272.60416985 328.44515038 C276.16066831 328.45481126 279.71703953 328.45492446 283.2735424 328.44763374 C285.20406584 328.44608472 287.1345892 328.45444857 289.06509399 328.46307373 C290.21065262 328.45887924 291.35621124 328.45468475 292.53648376 328.45036316 C293.53403152 328.45090793 294.53157927 328.45145269 295.55935574 328.45201397 C298.29813543 328.37441759 298.29813543 328.37441759 301.046875 326.203125 C300.70242619 323.73045735 300.70242619 323.73045735 300.046875 321.203125 C297.45152674 319.90545087 295.57084162 320.07429836 292.66346741 320.06941223 C291.52072861 320.06514725 290.37798981 320.06088226 289.20062256 320.05648804 C287.94082581 320.05694122 286.68102905 320.05739441 285.38305664 320.05786133 C284.04774379 320.05487036 282.71243181 320.05146798 281.37712097 320.04768372 C277.7449178 320.03883335 274.11273817 320.03650517 270.48052526 320.03586793 C267.45109 320.03491962 264.42166025 320.03124223 261.39222711 320.02769583 C254.24658933 320.01954742 247.10096416 320.01711196 239.95532227 320.01782227 C232.57764214 320.01842325 225.20003508 320.00786831 217.82237345 319.9920786 C211.49367269 319.97901522 205.16499586 319.97363786 198.83628172 319.97427768 C195.05402176 319.97453301 191.27182672 319.97166247 187.48958015 319.96109962 C183.93308169 319.95143874 180.37671047 319.95132554 176.8202076 319.95861626 C174.88968416 319.96016528 172.9591608 319.95180143 171.02865601 319.94317627 C169.88309738 319.94737076 168.73753876 319.95156525 167.55726624 319.95588684 C166.55971848 319.95534207 165.56217073 319.95479731 164.53439426 319.95423603 C161.79561457 320.03183241 161.79561457 320.03183241 159.046875 322.203125 Z M-17.953125 331.203125 C-17.953125 354.633125 -17.953125 378.063125 -17.953125 402.203125 C-11.518125 401.708125 -11.518125 401.708125 -4.953125 401.203125 C-2.41101761 401.12350105 0.13242839 401.0727978 2.67578125 401.0703125 C3.97837891 401.06902344 5.28097656 401.06773437 6.62304688 401.06640625 C7.93853516 401.07027344 9.25402344 401.07414062 10.609375 401.078125 C11.92873047 401.07425781 13.24808594 401.07039063 14.60742188 401.06640625 C16.55938477 401.06833984 16.55938477 401.06833984 18.55078125 401.0703125 C19.70392822 401.07144043 20.8570752 401.07256836 22.04516602 401.07373047 C27.38954473 401.24653998 32.71817356 401.75906655 38.046875 402.203125 C38.046875 378.773125 38.046875 355.343125 38.046875 331.203125 C27.76744072 329.51742993 27.76744072 329.51742993 17.671875 328.9375 C16.41890625 328.93492187 15.1659375 328.93234375 13.875 328.9296875 C12.61171875 328.93742187 11.3484375 328.94515625 10.046875 328.953125 C8.78359375 328.94539063 7.5203125 328.93765625 6.21875 328.9296875 C4.96578125 328.93226563 3.7128125 328.93484375 2.421875 328.9375 C1.31585938 328.93975586 0.20984375 328.94201172 -0.9296875 328.94433594 C-6.64209647 329.3117603 -12.29547467 330.33271726 -17.953125 331.203125 Z M54.046875 336.203125 C54.046875 359.303125 54.046875 382.403125 54.046875 406.203125 C62.296875 409.503125 70.546875 412.803125 79.046875 416.203125 C89.2421875 421.40625 89.2421875 421.40625 94.046875 424.203125 C94.25585558 415.58858656 94.41553832 406.97511491 94.51318455 398.35866451 C94.56006321 394.35709246 94.62358463 390.35726012 94.72583008 386.35668945 C94.82397631 382.49210739 94.87750274 378.62919268 94.90077019 374.76346016 C94.91733879 373.29249381 94.94969828 371.82161398 94.99844551 370.35136223 C95.45762559 362.04712584 95.45762559 362.04712584 92.08554077 354.76773071 C89.81399094 352.97805352 87.59461528 351.56115339 85.046875 350.203125 C84.0878125 349.5534375 83.12875 348.90375 82.140625 348.234375 C68.83158876 340.04556977 68.83158876 340.04556977 54.046875 336.203125 Z M-65.953125 351.203125 C-66.96269508 351.68858543 -66.96269508 351.68858543 -67.99266052 352.18385315 C-70.54331446 353.62804634 -72.13979249 354.88193264 -73.953125 357.203125 C-75.09218363 362.27723492 -74.88594117 367.28360349 -74.734375 372.4453125 C-74.71943993 373.93886273 -74.70805887 375.43245235 -74.70007324 376.92605591 C-74.66963598 380.84307503 -74.59115475 384.75769225 -74.50244141 388.67376709 C-74.42036267 392.67541002 -74.38401536 396.67744408 -74.34375 400.6796875 C-74.25814436 408.5219314 -74.12174848 416.36222882 -73.953125 424.203125 C-72.86410889 423.6568042 -71.77509277 423.1104834 -70.65307617 422.54760742 C-69.20493226 421.82206914 -67.75677051 421.09656647 -66.30859375 420.37109375 C-65.59312378 420.01204956 -64.87765381 419.65300537 -64.14050293 419.28308105 C-54.25202494 414.33176471 -44.31426157 410.18817753 -33.953125 406.203125 C-33.953125 383.103125 -33.953125 360.003125 -33.953125 336.203125 C-43.772811 336.203125 -57.93276923 346.03959872 -65.953125 351.203125 Z M182.046875 344.203125 C182.046875 381.163125 182.046875 418.123125 182.046875 456.203125 C195.246875 456.203125 208.446875 456.203125 222.046875 456.203125 C222.046875 419.243125 222.046875 382.283125 222.046875 344.203125 C208.846875 344.203125 195.646875 344.203125 182.046875 344.203125 Z M238.046875 344.203125 C238.046875 381.163125 238.046875 418.123125 238.046875 456.203125 C251.246875 456.203125 264.446875 456.203125 278.046875 456.203125 C278.046875 419.243125 278.046875 382.283125 278.046875 344.203125 C264.846875 344.203125 251.646875 344.203125 238.046875 344.203125 Z M-17.953125 419.203125 C-17.953125 431.413125 -17.953125 443.623125 -17.953125 456.203125 C0.526875 456.203125 19.006875 456.203125 38.046875 456.203125 C38.046875 443.993125 38.046875 431.783125 38.046875 419.203125 C27.76744072 417.51742993 27.76744072 417.51742993 17.671875 416.9375 C16.41890625 416.93492187 15.1659375 416.93234375 13.875 416.9296875 C12.61171875 416.93742187 11.3484375 416.94515625 10.046875 416.953125 C8.78359375 416.94539063 7.5203125 416.93765625 6.21875 416.9296875 C4.96578125 416.93226563 3.7128125 416.93484375 2.421875 416.9375 C1.31585938 416.93975586 0.20984375 416.94201172 -0.9296875 416.94433594 C-6.64209647 417.3117603 -12.29547467 418.33271726 -17.953125 419.203125 Z M54.046875 424.203125 C54.046875 434.763125 54.046875 445.323125 54.046875 456.203125 C67.246875 456.203125 80.446875 456.203125 94.046875 456.203125 C94.046875 452.573125 94.046875 448.943125 94.046875 445.203125 C90.96008919 442.11633919 88.70926651 440.358704 85.046875 438.203125 C84.16515625 437.63078125 83.2834375 437.0584375 82.375 436.46875 C69.009896 428.07376635 69.009896 428.07376635 54.046875 424.203125 Z M-65.953125 439.203125 C-66.82582031 439.68265625 -67.69851562 440.1621875 -68.59765625 440.65625 C-71.15863745 442.0919361 -71.15863745 442.0919361 -73.953125 445.203125 C-73.953125 448.833125 -73.953125 452.463125 -73.953125 456.203125 C-60.753125 456.203125 -47.553125 456.203125 -33.953125 456.203125 C-33.953125 445.643125 -33.953125 435.083125 -33.953125 424.203125 C-43.90683611 424.203125 -57.7574528 434.12411688 -65.953125 439.203125 Z M-88.953125 474.203125 C-88.60867619 476.67579265 -88.60867619 476.67579265 -87.953125 479.203125 C-84.95559155 480.70189173 -81.88103111 480.34107221 -78.59388828 480.33175945 C-77.82258098 480.33351249 -77.05127368 480.33526553 -76.25659344 480.33707169 C-73.64480476 480.34176256 -71.033071 480.33925831 -68.42127991 480.33683777 C-66.54078244 480.33870419 -64.66028537 480.34100421 -62.77978891 480.34370309 C-57.59097739 480.34984837 -52.40218192 480.34968431 -47.21336758 480.34850872 C-41.62569688 480.3483054 -36.03803144 480.35381685 -30.45036316 480.35856628 C-19.49540439 480.3668882 -8.540451 480.36962181 2.41451066 480.37017866 C11.3146109 480.37065307 20.21470936 480.37270404 29.11480904 480.37587929 C50.2167901 480.38325507 71.31877008 480.38940366 92.42075253 480.38888073 C93.09602912 480.38886515 93.77130571 480.38884957 94.46704523 480.38883352 C97.88986616 480.38875041 101.31268709 480.38865137 104.73550802 480.38854881 C105.75524134 480.3885189 105.75524134 480.3885189 106.79557534 480.38848837 C108.17034201 480.38844794 109.54510869 480.38840614 110.91987537 480.38836298 C132.31532409 480.38775005 153.71075698 480.39525915 175.10620117 480.40893555 C199.12644352 480.42428332 223.14667397 480.43288989 247.16692263 480.43197232 C259.89178058 480.43163966 272.61662066 480.43441704 285.34147453 480.44515038 C296.17393165 480.45422859 307.0063628 480.45645278 317.83882206 480.44964095 C323.37022862 480.4463622 328.90158531 480.44636755 334.43298721 480.4549942 C339.49030092 480.46280067 344.5475247 480.46148836 349.60483605 480.45271007 C351.44061871 480.45116207 353.27640788 480.45303952 355.11218285 480.45857015 C357.59549866 480.46555984 360.07849281 480.46039261 362.56179714 480.45201397 C363.28492593 480.45698215 364.00805471 480.46195033 364.75309649 480.46706906 C368.41506742 480.44070418 369.91005172 480.29434052 373.046875 478.203125 C372.70242619 475.73045735 372.70242619 475.73045735 372.046875 473.203125 C369.04934155 471.70435827 365.97478111 472.06517779 362.68763828 472.07449055 C361.91633098 472.07273751 361.14502368 472.07098447 360.35034344 472.06917831 C357.73855476 472.06448744 355.126821 472.06699169 352.51502991 472.06941223 C350.63453244 472.06754581 348.75403537 472.06524579 346.87353891 472.06254691 C341.68472739 472.05640163 336.49593192 472.05656569 331.30711758 472.05774128 C325.71944688 472.0579446 320.13178144 472.05243315 314.54411316 472.04768372 C303.58915439 472.0393618 292.634201 472.03662819 281.67923934 472.03607134 C272.7791391 472.03559693 263.87904064 472.03354596 254.97894096 472.03037071 C233.8769599 472.02299493 212.77497992 472.01684634 191.67299747 472.01736927 C190.66008259 472.01739264 190.66008259 472.01739264 189.62670477 472.01741648 C186.20388384 472.01749959 182.78106291 472.01759863 179.35824198 472.01770119 C178.67841977 472.01772113 177.99859755 472.01774108 177.29817466 472.01776163 C175.92340799 472.01780206 174.54864131 472.01784386 173.17387463 472.01788702 C151.77842591 472.01849995 130.38299302 472.01099085 108.98754883 471.99731445 C84.96730648 471.98196668 60.94707603 471.97336011 36.92682737 471.97427768 C24.20196942 471.97461034 11.47712934 471.97183296 -1.24772453 471.96109962 C-12.08018165 471.95202141 -22.9126128 471.94979722 -33.74507206 471.95660905 C-39.27647862 471.9598878 -44.80783531 471.95988245 -50.33923721 471.9512558 C-55.39655092 471.94344933 -60.4537747 471.94476164 -65.51108605 471.95353993 C-67.34686871 471.95508793 -69.18265788 471.95321048 -71.01843285 471.94767985 C-73.50174866 471.94069016 -75.98474281 471.94585739 -78.46804714 471.95423603 C-79.19117593 471.94926785 -79.91430471 471.94429967 -80.65934649 471.93918094 C-84.32131742 471.96554582 -85.81630172 472.11190948 -88.953125 474.203125 Z " fill="#000000" transform="translate(113.953125,7.796875)"/>
<path d="M0 0 C0.7115625 -0.01546875 1.423125 -0.0309375 2.15625 -0.046875 C5.3612317 -0.02295723 7.56784045 0.21462568 10.265625 1.99609375 C12.67875061 5.47990798 14.2037131 9.1304185 15.75 13.0625 C16.06582031 13.83013672 16.38164062 14.59777344 16.70703125 15.38867188 C19 21.08138866 19 21.08138866 19 24.5 C19.66 24.5 20.32 24.5 21 24.5 C21.14308594 23.53126953 21.14308594 23.53126953 21.2890625 22.54296875 C22.24511474 18.45085504 23.78176267 14.69354714 25.375 10.8125 C25.67921875 10.04099609 25.9834375 9.26949219 26.296875 8.47460938 C26.59851563 7.73662109 26.90015625 6.99863281 27.2109375 6.23828125 C27.48212402 5.56837158 27.75331055 4.89846191 28.03271484 4.20825195 C29 2.5 29 2.5 32 0.5 C34.69520404 0.25209888 37.24286697 0.12982477 39.9375 0.125 C40.65357422 0.10050781 41.36964844 0.07601562 42.10742188 0.05078125 C45.39403199 0.03250538 47.51672008 0.14757528 50.20819092 2.11029053 C52.59367869 5.29178056 52.48339658 7.24146203 52.45410156 11.19628906 C52.45468567 11.86011597 52.45526978 12.52394287 52.45587158 13.20788574 C52.45309265 15.39433738 52.42201328 17.57941262 52.390625 19.765625 C52.38316184 21.28447729 52.37746926 22.80333922 52.37347412 24.32220459 C52.35822341 28.31403325 52.31894723 32.30527697 52.2746582 36.296875 C52.23369289 40.37231534 52.21546046 44.44785048 52.1953125 48.5234375 C52.15245159 56.51592296 52.0821071 64.50782126 52 72.5 C46.72 72.5 41.44 72.5 36 72.5 C35.67 60.29 35.34 48.08 35 35.5 C32.49208769 41.65871058 32.49208769 41.65871058 30.00463867 47.82568359 C29.6872876 48.59219238 29.36993652 49.35870117 29.04296875 50.1484375 C28.72352295 50.93395996 28.40407715 51.71948242 28.07495117 52.52880859 C27 54.5 27 54.5 24 56.5 C18.36818182 57.03636364 18.36818182 57.03636364 16 56.5 C12 52.5 12 52.5 5 35.5 C4.67 47.71 4.34 59.92 4 72.5 C-1.28 72.5 -6.56 72.5 -12 72.5 C-12.09037537 63.70300079 -12.1637583 54.90630998 -12.20724869 46.10895157 C-12.22812211 42.0239563 -12.25643463 37.93929515 -12.30175781 33.85449219 C-12.3452253 29.91225655 -12.36913895 25.97034223 -12.37950897 22.02788544 C-12.38689882 20.52395316 -12.40132967 19.02003843 -12.42292023 17.51624298 C-12.45196812 15.40920541 -12.45595571 13.30349471 -12.45410156 11.19628906 C-12.46298401 9.99715881 -12.47186646 8.79802856 -12.48101807 7.56256104 C-11.34819907 0.35009323 -6.36550603 -0.13838057 0 0 Z " fill="#000000" transform="translate(244,191.5)"/>
<path d="M0 0 C1.051875 -0.00515625 2.10375 -0.0103125 3.1875 -0.015625 C4.280625 -0.00015625 5.37375 0.0153125 6.5 0.03125 C8.1396875 0.00804687 8.1396875 0.00804687 9.8125 -0.015625 C10.864375 -0.01046875 11.91625 -0.0053125 13 0 C14.43859375 0.00676758 14.43859375 0.00676758 15.90625 0.01367188 C19.3117168 0.69322662 20.29092407 1.87603452 22.5 4.53125 C23.58843994 7.3770752 23.58843994 7.3770752 24.42285156 10.70507812 C24.74288147 11.95317261 25.06291138 13.20126709 25.39263916 14.48718262 C25.72574009 15.84551417 26.05839125 17.20395608 26.390625 18.5625 C26.74254296 19.95995081 27.09556688 21.35712353 27.449646 22.75402832 C28.18756775 25.67721451 28.91626187 28.60248683 29.63769531 31.52978516 C30.56183444 35.27898378 31.50227711 39.02383648 32.44882584 42.76743317 C33.17707344 45.65057506 33.89993446 48.53504349 34.62084198 51.42002869 C34.96602776 52.80132916 35.31211562 54.18240453 35.65912628 55.56324768 C36.14262716 57.49340153 36.61883969 59.42537667 37.09472656 61.35742188 C37.36690002 62.45566284 37.63907349 63.55390381 37.91949463 64.6854248 C38.5 67.53125 38.5 67.53125 38.5 71.53125 C36.60787298 72.06539112 34.71108364 72.58303329 32.8125 73.09375 C31.22888672 73.52880859 31.22888672 73.52880859 29.61328125 73.97265625 C26.5 74.53125 26.5 74.53125 21.5 73.53125 C19.52 65.61125 17.54 57.69125 15.5 49.53125 C9.56 49.53125 3.62 49.53125 -2.5 49.53125 C-4.48 57.45125 -6.46 65.37125 -8.5 73.53125 C-13.39906839 74.51106368 -15.18710501 74.36446291 -19.8125 73.09375 C-20.88113281 72.80628906 -21.94976562 72.51882813 -23.05078125 72.22265625 C-23.85902344 71.99449219 -24.66726563 71.76632812 -25.5 71.53125 C-24.80476938 64.16488524 -23.06053997 57.15141243 -21.26171875 49.984375 C-20.93641602 48.68259953 -20.61112426 47.38082133 -20.2858429 46.07904053 C-19.60611528 43.36506528 -18.92202333 40.65222921 -18.2355957 37.93994141 C-17.3586574 34.47086164 -16.4993343 30.99766824 -15.64398479 27.52321243 C-14.97994786 24.83903847 -14.30335697 22.15814461 -13.62330055 19.4779892 C-13.14484133 17.57911138 -12.67956453 15.67692765 -12.21452332 13.77471924 C-11.91774185 12.61961853 -11.62096039 11.46451782 -11.31518555 10.27441406 C-10.93332344 8.7517392 -10.93332344 8.7517392 -10.54374695 7.19830322 C-8.43925851 1.82077117 -5.64808268 0.02657028 0 0 Z M5.5 16.53125 C3.57528683 21.86960539 2.10108576 26.88104382 1.5 32.53125 C4.8 32.53125 8.1 32.53125 11.5 32.53125 C11.21515154 30.80094709 10.92180062 29.07204286 10.625 27.34375 C10.38136719 25.89935547 10.38136719 25.89935547 10.1328125 24.42578125 C9.51960483 21.62092396 8.64333657 19.15900253 7.5 16.53125 C6.84 16.53125 6.18 16.53125 5.5 16.53125 Z " fill="#000000" transform="translate(329.5,191.46875)"/>
<path d="M0 0 C5.28 0 10.56 0 16 0 C16 18.48 16 36.96 16 56 C23.92 56 31.84 56 40 56 C40 61.28 40 66.56 40 72 C34.94537772 72.09190222 29.89365977 72.17151221 24.83886719 72.21972656 C23.12001721 72.23982628 21.40123548 72.26711089 19.68261719 72.30175781 C17.21011511 72.35035034 14.7385179 72.37298435 12.265625 72.390625 C11.11540863 72.42159271 11.11540863 72.42159271 9.94195557 72.45318604 C6.63981288 72.45457081 4.50163292 72.36598445 1.79345703 70.39013672 C-0.5939834 67.20839947 -0.48340617 65.25983345 -0.45410156 61.30371094 C-0.45468567 60.63988403 -0.45526978 59.97605713 -0.45587158 59.29211426 C-0.45309265 57.10566262 -0.42201328 54.92058738 -0.390625 52.734375 C-0.38316184 51.21552271 -0.37746926 49.69666078 -0.37347412 48.17779541 C-0.35822341 44.18596675 -0.31894723 40.19472303 -0.2746582 36.203125 C-0.23369289 32.12768466 -0.21546046 28.05214952 -0.1953125 23.9765625 C-0.15245159 15.98407704 -0.0821071 7.99217874 0 0 Z " fill="#000000" transform="translate(424,192)"/>
<path d="M0 0 C5.28 0 10.56 0 16 0 C16 18.48 16 36.96 16 56 C23.92 56 31.84 56 40 56 C40 61.28 40 66.56 40 72 C34.94537772 72.09190222 29.89365977 72.17151221 24.83886719 72.21972656 C23.12001721 72.23982628 21.40123548 72.26711089 19.68261719 72.30175781 C17.21011511 72.35035034 14.7385179 72.37298435 12.265625 72.390625 C11.11540863 72.42159271 11.11540863 72.42159271 9.94195557 72.45318604 C6.63981288 72.45457081 4.50163292 72.36598445 1.79345703 70.39013672 C-0.5939834 67.20839947 -0.48340617 65.25983345 -0.45410156 61.30371094 C-0.45468567 60.63988403 -0.45526978 59.97605713 -0.45587158 59.29211426 C-0.45309265 57.10566262 -0.42201328 54.92058738 -0.390625 52.734375 C-0.38316184 51.21552271 -0.37746926 49.69666078 -0.37347412 48.17779541 C-0.35822341 44.18596675 -0.31894723 40.19472303 -0.2746582 36.203125 C-0.23369289 32.12768466 -0.21546046 28.05214952 -0.1953125 23.9765625 C-0.15245159 15.98407704 -0.0821071 7.99217874 0 0 Z " fill="#000000" transform="translate(376,192)"/>
</svg>
