<svg width="19" height="19" viewBox="0 0 19 19" fill="none" xmlns="http://www.w3.org/2000/svg">
<path d="M14.4997 3.96809L11.6235 0L1.04771 8.31367L0.461429 8.30744V8.31634H0V19H19V8.31634H18.1296L16.3979 3.33152L14.4997 3.96809ZM16.2179 8.31634H7.14491L13.9026 6.04962L15.2796 5.61604L16.2179 8.31634ZM12.7119 4.56816L5.73619 6.90788L11.2607 2.56497L12.7119 4.56816ZM1.80952 15.5892V11.7253C2.19124 11.5922 2.53795 11.377 2.82439 11.0953C3.11083 10.8135 3.32976 10.4725 3.46524 10.0969H15.5348C15.6702 10.4726 15.8891 10.8138 16.1755 11.0957C16.462 11.3775 16.8087 11.593 17.1905 11.7262V15.5901C16.8087 15.7234 16.462 15.9388 16.1755 16.2206C15.8891 16.5025 15.6702 16.8437 15.5348 17.2194H3.46705C3.3315 16.8434 3.11235 16.5019 2.82559 16.2199C2.53883 15.9379 2.1917 15.7224 1.80952 15.5892Z" fill="#8E8E93"/>
<path d="M9.49479 10.6837C8.65494 10.6837 7.84949 11.012 7.25562 11.5964C6.66176 12.1808 6.32812 12.9734 6.32812 13.7998C6.32812 14.6262 6.66176 15.4188 7.25562 16.0032C7.84949 16.5876 8.65494 16.9159 9.49479 16.9159C10.3346 16.9159 11.1401 16.5876 11.734 16.0032C12.3278 15.4188 12.6615 14.6262 12.6615 13.7998C12.6615 12.9734 12.3278 12.1808 11.734 11.5964C11.1401 11.012 10.3346 10.6837 9.49479 10.6837ZM8.13765 13.7998C8.13765 13.4456 8.28063 13.1059 8.53515 12.8555C8.78966 12.605 9.13485 12.4643 9.49479 12.4643C9.85473 12.4643 10.1999 12.605 10.4544 12.8555C10.709 13.1059 10.8519 13.4456 10.8519 13.7998C10.8519 14.154 10.709 14.4936 10.4544 14.7441C10.1999 14.9945 9.85473 15.1352 9.49479 15.1352C9.13485 15.1352 8.78966 14.9945 8.53515 14.7441C8.28063 14.4936 8.13765 14.154 8.13765 13.7998Z" fill="#8E8E93"/>
</svg>
