<?xml version="1.0" encoding="UTF-8"?>
<!DOCTYPE svg PUBLIC "-//W3C//DTD SVG 1.1//EN" "http://www.w3.org/Graphics/SVG/1.1/DTD/svg11.dtd">
<svg xmlns="http://www.w3.org/2000/svg" version="1.1" width="512px" height="512px" style="shape-rendering:geometricPrecision; text-rendering:geometricPrecision; image-rendering:optimizeQuality; fill-rule:evenodd; clip-rule:evenodd" xmlns:xlink="http://www.w3.org/1999/xlink">
<g><path style="opacity:0.943" fill="#000000" d="M 511.5,185.5 C 511.5,202.167 511.5,218.833 511.5,235.5C 510.373,236.122 509.373,236.955 508.5,238C 501.842,238.5 495.175,238.666 488.5,238.5C 488.994,320.249 488.494,401.915 487,483.5C 486.25,484.126 485.416,484.626 484.5,485C 331.833,485.667 179.167,485.667 26.5,485C 25.5838,484.626 24.7504,484.126 24,483.5C 22.5057,401.915 22.0057,320.249 22.5,238.5C 15.825,238.666 9.15835,238.5 2.5,238C 1.62656,236.955 0.626561,236.122 -0.5,235.5C -0.5,218.833 -0.5,202.167 -0.5,185.5C 0.682751,184.496 2.01608,183.662 3.5,183C 11.5207,182.832 19.5207,182.332 27.5,181.5C 19.6045,163.911 21.1045,147.245 32,131.5C 39.3333,124.167 46.6667,116.833 54,109.5C 54.0513,99.7337 54.7179,90.0671 56,80.5C 60.6634,76.2467 64.9968,76.58 69,81.5C 69.3333,90.8333 69.6667,100.167 70,109.5C 80.443,118.937 89.7763,129.271 98,140.5C 104.001,154.363 103.501,168.03 96.5,181.5C 104.479,182.332 112.479,182.832 120.5,183C 122.667,183.833 124.167,185.333 125,187.5C 125.667,202.833 125.667,218.167 125,233.5C 124.426,235.492 123.259,236.992 121.5,238C 114.842,238.5 108.175,238.666 101.5,238.5C 101.5,253.5 101.5,268.5 101.5,283.5C 111.833,283.5 122.167,283.5 132.5,283.5C 132.191,273.114 132.524,262.781 133.5,252.5C 134.665,251.416 135.998,250.583 137.5,250C 142.533,249.829 147.533,249.329 152.5,248.5C 141.951,230.921 138.117,211.921 141,191.5C 143.731,174.708 150.731,160.041 162,147.5C 180.33,126.582 202.83,112.082 229.5,104C 223.299,89.4182 223.799,74.9182 231,60.5C 237,49.8333 243,39.1667 249,28.5C 253.333,24.5 257.667,24.5 262,28.5C 268.667,40.5 275.333,52.5 282,64.5C 286.447,77.2792 286.614,90.1125 282.5,103C 308.378,112.196 330.544,127.029 349,147.5C 370.42,172.935 376.087,201.602 366,233.5C 364.027,238.779 361.527,243.779 358.5,248.5C 363.467,249.329 368.467,249.829 373.5,250C 375.002,250.583 376.335,251.416 377.5,252.5C 378.476,262.781 378.809,273.114 378.5,283.5C 388.833,283.5 399.167,283.5 409.5,283.5C 409.5,268.5 409.5,253.5 409.5,238.5C 402.825,238.666 396.158,238.5 389.5,238C 387.741,236.992 386.574,235.492 386,233.5C 385.333,218.167 385.333,202.833 386,187.5C 386.833,185.333 388.333,183.833 390.5,183C 398.521,182.832 406.521,182.332 414.5,181.5C 406.17,164.479 407.336,148.146 418,132.5C 425.667,124.833 433.333,117.167 441,109.5C 441.333,100.167 441.667,90.8333 442,81.5C 446.003,76.58 450.337,76.2467 455,80.5C 456.282,90.0671 456.949,99.7337 457,109.5C 464.333,116.833 471.667,124.167 479,131.5C 489.861,147.247 491.361,163.914 483.5,181.5C 491.479,182.332 499.479,182.832 507.5,183C 508.984,183.662 510.317,184.496 511.5,185.5 Z M 254.5,49.5 C 261.143,57.4268 266.309,66.4268 270,76.5C 271.577,83.5821 270.91,90.5821 268,97.5C 267.439,98.0219 266.772,98.3552 266,98.5C 259,94.5 252,94.5 245,98.5C 242.697,97.2493 241.364,95.2493 241,92.5C 239.467,87.0649 239.467,81.7316 241,76.5C 244.984,67.1991 249.484,58.1991 254.5,49.5 Z M 252.5,111.5 C 280.182,116.771 304.849,128.271 326.5,146C 341.279,159.058 350.779,175.224 355,194.5C 357.829,215.028 352.662,233.194 339.5,249C 283.5,249.667 227.5,249.667 171.5,249C 156.273,230.206 151.773,209.039 158,185.5C 163.463,170.073 172.297,156.907 184.5,146C 195.691,136.567 208.024,128.901 221.5,123C 232.048,119.432 242.381,115.599 252.5,111.5 Z M 61.5,123.5 C 72.376,130.876 80.5427,140.543 86,152.5C 87.6136,163.033 85.4469,172.867 79.5,182C 67.8333,182.667 56.1667,182.667 44.5,182C 40.5747,174.986 38.2414,167.486 37.5,159.5C 37.333,153.162 39.1664,147.495 43,142.5C 49.3694,136.298 55.5361,129.965 61.5,123.5 Z M 447.5,123.5 C 457.187,130.688 465.353,139.355 472,149.5C 473.439,154.762 473.772,160.096 473,165.5C 471.42,171.243 469.253,176.743 466.5,182C 454.833,182.667 443.167,182.667 431.5,182C 427.543,174.964 424.877,167.464 423.5,159.5C 424.233,153.801 426.067,148.467 429,143.5C 435.005,136.663 441.171,129.996 447.5,123.5 Z M 13.5,197.5 C 45.8333,197.5 78.1667,197.5 110.5,197.5C 110.5,206.5 110.5,215.5 110.5,224.5C 78.1667,224.5 45.8333,224.5 13.5,224.5C 13.5,215.5 13.5,206.5 13.5,197.5 Z M 400.5,197.5 C 432.833,197.5 465.167,197.5 497.5,197.5C 497.5,206.5 497.5,215.5 497.5,224.5C 465.167,224.5 432.833,224.5 400.5,224.5C 400.5,215.5 400.5,206.5 400.5,197.5 Z M 37.5,238.5 C 54.1667,238.5 70.8333,238.5 87.5,238.5C 87.5,315.833 87.5,393.167 87.5,470.5C 70.8333,470.5 54.1667,470.5 37.5,470.5C 37.5,393.167 37.5,315.833 37.5,238.5 Z M 423.5,238.5 C 440.167,238.5 456.833,238.5 473.5,238.5C 473.5,315.833 473.5,393.167 473.5,470.5C 456.833,470.5 440.167,470.5 423.5,470.5C 423.5,393.167 423.5,315.833 423.5,238.5 Z M 146.5,264.5 C 219.167,264.5 291.833,264.5 364.5,264.5C 364.5,270.833 364.5,277.167 364.5,283.5C 291.833,283.5 219.167,283.5 146.5,283.5C 146.5,277.167 146.5,270.833 146.5,264.5 Z M 101.5,298.5 C 204.167,298.5 306.833,298.5 409.5,298.5C 409.5,355.833 409.5,413.167 409.5,470.5C 405.167,470.5 400.833,470.5 396.5,470.5C 396.667,450.164 396.5,429.831 396,409.5C 394.572,400.979 391.238,393.313 386,386.5C 380.167,380.667 374.333,374.833 368.5,369C 366.13,366.63 363.296,365.13 360,364.5C 358.373,364.625 356.873,365.125 355.5,366C 348.364,372.135 341.531,378.635 335,385.5C 329.143,393.217 325.476,401.884 324,411.5C 323.5,431.164 323.333,450.831 323.5,470.5C 317.5,470.5 311.5,470.5 305.5,470.5C 305.667,440.498 305.5,410.498 305,380.5C 303.072,367.986 298.406,356.652 291,346.5C 281.164,336.331 270.997,326.497 260.5,317C 257.167,315 253.833,315 250.5,317C 242,324.833 233.5,332.667 225,340.5C 214.653,351.847 208.32,365.18 206,380.5C 205.5,410.498 205.333,440.498 205.5,470.5C 199.5,470.5 193.5,470.5 187.5,470.5C 187.667,450.831 187.5,431.164 187,411.5C 185.524,401.884 181.857,393.217 176,385.5C 169.469,378.635 162.636,372.135 155.5,366C 154.127,365.125 152.627,364.625 151,364.5C 147.704,365.13 144.87,366.63 142.5,369C 136.667,374.833 130.833,380.667 125,386.5C 119.762,393.313 116.428,400.979 115,409.5C 114.5,429.831 114.333,450.164 114.5,470.5C 110.167,470.5 105.833,470.5 101.5,470.5C 101.5,413.167 101.5,355.833 101.5,298.5 Z M 254.5,333.5 C 265.104,340.937 274.271,349.937 282,360.5C 286.253,367.259 288.92,374.593 290,382.5C 290.5,411.831 290.667,441.165 290.5,470.5C 267.167,470.5 243.833,470.5 220.5,470.5C 220.038,439.458 220.538,408.458 222,377.5C 223.914,370.339 226.914,363.672 231,357.5C 238.366,348.968 246.199,340.968 254.5,333.5 Z M 150.5,382.5 C 159.784,389.279 166.617,397.945 171,408.5C 172.441,429.121 172.941,449.788 172.5,470.5C 158.167,470.5 143.833,470.5 129.5,470.5C 129.333,450.497 129.5,430.497 130,410.5C 131.612,404.609 134.279,399.275 138,394.5C 142.669,390.997 146.836,386.997 150.5,382.5 Z M 359.5,382.5 C 369.082,388.582 375.916,396.916 380,407.5C 381.454,428.446 381.954,449.446 381.5,470.5C 367.167,470.5 352.833,470.5 338.5,470.5C 338.333,451.164 338.5,431.83 339,412.5C 340.163,407.172 342.163,402.172 345,397.5C 350.037,392.631 354.87,387.631 359.5,382.5 Z"/></g>
<g><path style="opacity:0.902" fill="#000000" d="M 272.5,136.5 C 295.261,141.805 313.761,153.805 328,172.5C 332.417,179.466 330.75,184.132 323,186.5C 321.5,186 320,185.5 318.5,185C 306.024,168.351 290.024,156.518 270.5,149.5C 268.564,146.792 268.064,143.792 269,140.5C 269.69,138.65 270.856,137.316 272.5,136.5 Z"/></g>
</svg>
