<?xml version="1.0" encoding="UTF-8"?>
<!DOCTYPE svg PUBLIC "-//W3C//DTD SVG 1.1//EN" "http://www.w3.org/Graphics/SVG/1.1/DTD/svg11.dtd">
<svg xmlns="http://www.w3.org/2000/svg" version="1.1" width="512px" height="512px" style="shape-rendering:geometricPrecision; text-rendering:geometricPrecision; image-rendering:optimizeQuality; fill-rule:evenodd; clip-rule:evenodd" xmlns:xlink="http://www.w3.org/1999/xlink">
<g><path style="opacity:0.92" fill="#000000" d="M 210.5,-0.5 C 215.167,-0.5 219.833,-0.5 224.5,-0.5C 243.187,7.88867 248.521,21.5553 240.5,40.5C 272.9,45.9553 302.066,58.622 328,78.5C 334.073,60.877 346.24,54.377 364.5,59C 381.364,68.2574 385.864,81.7574 378,99.5C 373.234,105.795 367.068,109.962 359.5,112C 377.543,136.267 388.876,163.433 393.5,193.5C 408.239,186.095 420.739,188.761 431,201.5C 438.231,215.675 436.064,228.175 424.5,239C 414.025,245.759 403.525,245.926 393,239.5C 391.416,250.002 389.083,260.336 386,270.5C 383.447,275.626 379.614,276.793 374.5,274C 373.152,272.426 372.486,270.593 372.5,268.5C 376.714,253.765 379.381,238.765 380.5,223.5C 337.833,223.5 295.167,223.5 252.5,223.5C 252.017,227.93 250.684,232.097 248.5,236C 251.32,239.489 254.153,242.989 257,246.5C 257.962,253.785 254.795,256.618 247.5,255C 244.02,252.354 240.686,249.521 237.5,246.5C 233.639,249.4 229.305,251.233 224.5,252C 223.684,259.421 223.184,266.921 223,274.5C 218.601,278.654 214.601,278.321 211,273.5C 210.667,266.5 210.333,259.5 210,252.5C 205.127,250.468 200.294,248.635 195.5,247C 165.833,276.667 136.167,306.333 106.5,336C 123.735,351.706 143.401,363.539 165.5,371.5C 170.206,377.676 168.872,382.01 161.5,384.5C 156.278,382.639 151.111,380.639 146,378.5C 140.167,390.176 134.833,402.176 130,414.5C 127.039,417.616 123.539,418.283 119.5,416.5C 118.218,414.821 117.218,412.987 116.5,411C 121.68,398.134 127.014,385.301 132.5,372.5C 125.167,367.5 117.833,362.5 110.5,357.5C 104.639,378.264 91.3059,385.764 70.5,380C 57.361,372.888 52.5277,362.054 56,347.5C 59.7176,335.453 67.8842,328.953 80.5,328C 59.3727,302.232 46.5393,272.732 42,239.5C 28.8528,246.644 16.8528,244.977 6,234.5C 2.73988,229.858 0.573216,224.858 -0.5,219.5C -0.5,217.833 -0.5,216.167 -0.5,214.5C 3.96315,194.589 16.2965,186.755 36.5,191C 38.1667,191.833 39.8333,192.667 41.5,193.5C 46.5841,162.012 58.7508,133.678 78,108.5C 78.4828,107.552 78.6495,106.552 78.5,105.5C 65.3741,101.972 58.3741,93.3052 57.5,79.5C 58.4457,65.7367 65.4457,56.9033 78.5,53C 95.9201,50.5931 107.253,57.7598 112.5,74.5C 136.978,56.6116 164.311,45.4449 194.5,41C 187.525,28.4919 188.858,16.8253 198.5,6C 202.157,3.00783 206.157,0.841161 210.5,-0.5 Z M 215.5,12.5 C 228.769,14.7073 232.936,22.0406 228,34.5C 221.275,40.729 214.275,41.0623 207,35.5C 201.056,24.4915 203.89,16.8249 215.5,12.5 Z M 198.5,54.5 C 202.5,54.5 206.5,54.5 210.5,54.5C 210.5,96.8333 210.5,139.167 210.5,181.5C 205.209,182.505 200.209,184.005 195.5,186C 165.986,156.653 136.653,127.153 107.5,97.5C 133.335,73.7505 163.668,59.4171 198.5,54.5 Z M 224.5,54.5 C 264.051,56.2879 298.385,70.4546 327.5,97C 297.833,126.667 268.167,156.333 238.5,186C 234.24,183.728 229.573,182.228 224.5,181.5C 224.5,139.167 224.5,96.8333 224.5,54.5 Z M 83.5,65.5 C 96.7573,67.6821 100.924,75.0155 96,87.5C 88.6667,95.5 81.3333,95.5 74,87.5C 69.3374,76.6288 72.5041,69.2955 83.5,65.5 Z M 350.5,71.5 C 360.62,70.4482 366.62,74.9482 368.5,85C 365.42,96.3719 358.42,100.039 347.5,96C 341.885,91.869 340.052,86.369 342,79.5C 344.074,75.9231 346.907,73.2565 350.5,71.5 Z M 96.5,107.5 C 126.465,136.965 156.299,166.632 186,196.5C 184.741,200.391 183.408,204.391 182,208.5C 139.572,209.497 97.0723,209.83 54.5,209.5C 57.0169,170.579 71.0169,136.579 96.5,107.5 Z M 336.5,107.5 C 338.371,107.859 339.871,108.859 341,110.5C 364.82,139.102 377.986,172.102 380.5,209.5C 337.833,209.5 295.167,209.5 252.5,209.5C 252.271,204.742 250.604,200.575 247.5,197C 277.368,167.299 307.035,137.465 336.5,107.5 Z M 211.5,194.5 C 228.416,192.771 237.749,200.271 239.5,217C 237.176,233.176 227.843,240.176 211.5,238C 201.214,234.541 195.547,227.375 194.5,216.5C 195.746,205.605 201.412,198.272 211.5,194.5 Z M 22.5,203.5 C 37.9444,203.096 43.1111,210.096 38,224.5C 30.6667,232.5 23.3333,232.5 16,224.5C 11.8221,215.525 13.9888,208.525 22.5,203.5 Z M 403.5,203.5 C 416.095,202.359 421.929,208.026 421,220.5C 416.592,229.746 409.759,232.246 400.5,228C 391.917,218.585 392.917,210.418 403.5,203.5 Z M 54.5,223.5 C 96.8346,223.333 139.168,223.5 181.5,224C 182.871,227.94 184.537,231.773 186.5,235.5C 156.847,265.653 127.014,295.653 97,325.5C 71.0652,296.561 56.8985,262.561 54.5,223.5 Z M 79.5,341.5 C 93.4624,343.098 97.9624,350.431 93,363.5C 84.6168,370.679 76.9501,370.012 70,361.5C 67.0099,351.816 70.1765,345.149 79.5,341.5 Z"/></g>
<g><path style="opacity:0.917" fill="#000000" d="M 511.5,418.5 C 511.5,421.833 511.5,425.167 511.5,428.5C 510.527,428.987 509.527,429.487 508.5,430C 496.591,430.821 484.757,430.654 473,429.5C 472.667,455.167 472.333,480.833 472,506.5C 471.634,508.452 470.801,510.118 469.5,511.5C 466.833,511.5 464.167,511.5 461.5,511.5C 460.496,510.317 459.662,508.984 459,507.5C 458.667,480.833 458.333,454.167 458,427.5C 443.286,423.1 430.286,415.767 419,405.5C 418.667,439.833 418.333,474.167 418,508.5C 416.955,509.373 416.122,510.373 415.5,511.5C 413.167,511.5 410.833,511.5 408.5,511.5C 406.424,510.573 405.257,508.907 405,506.5C 404.667,467.5 404.333,428.5 404,389.5C 391.136,370.433 381.469,349.766 375,327.5C 372.667,322.833 370.333,318.167 368,313.5C 367.667,377.833 367.333,442.167 367,506.5C 366.743,508.907 365.576,510.573 363.5,511.5C 361.167,511.5 358.833,511.5 356.5,511.5C 355.878,510.373 355.045,509.373 354,508.5C 353.667,436.833 353.333,365.167 353,293.5C 342.874,282.271 330.541,274.604 316,270.5C 315.667,349.167 315.333,427.833 315,506.5C 314.743,508.907 313.576,510.573 311.5,511.5C 309.167,511.5 306.833,511.5 304.5,511.5C 303.878,510.373 303.045,509.373 302,508.5C 301.5,428.501 301.333,348.501 301.5,268.5C 287.853,268.096 274.853,270.763 262.5,276.5C 261.667,353.831 261.167,431.165 261,508.5C 259.955,509.373 259.122,510.373 258.5,511.5C 255.833,511.5 253.167,511.5 250.5,511.5C 249.199,510.118 248.366,508.452 248,506.5C 247.667,432.833 247.333,359.167 247,285.5C 230.418,298.08 218.418,314.08 211,333.5C 210.667,390.833 210.333,448.167 210,505.5C 209.576,508.025 208.41,510.025 206.5,511.5C 204.167,511.5 201.833,511.5 199.5,511.5C 198.878,510.373 198.045,509.373 197,508.5C 196.667,466.167 196.333,423.833 196,381.5C 188.866,403.466 176.533,421.799 159,436.5C 158.667,459.833 158.333,483.167 158,506.5C 157.303,508.584 156.136,510.251 154.5,511.5C 152.167,511.5 149.833,511.5 147.5,511.5C 146.878,510.373 146.045,509.373 145,508.5C 144.833,488.158 144.333,467.825 143.5,447.5C 132.171,454.056 120.171,459.056 107.5,462.5C 106.667,477.155 106.167,491.822 106,506.5C 105.743,508.907 104.576,510.573 102.5,511.5C 100.167,511.5 97.8333,511.5 95.5,511.5C 94.8783,510.373 94.045,509.373 93,508.5C 92.5001,494.171 92.3334,479.837 92.5,465.5C 79.6185,467.879 66.6185,469.213 53.5,469.5C 53.6666,482.504 53.4999,495.504 53,508.5C 52.3021,509.691 51.4687,510.691 50.5,511.5C 48.1667,511.5 45.8333,511.5 43.5,511.5C 42.8783,510.373 42.045,509.373 41,508.5C 40.5001,495.838 40.3334,483.171 40.5,470.5C 28.8286,470.667 17.1619,470.5 5.5,470C 2.32119,469.317 0.321186,467.484 -0.5,464.5C -0.5,463.5 -0.5,462.5 -0.5,461.5C 0.596413,459.897 1.92975,458.397 3.5,457C 25.1839,456.8 46.8506,456.133 68.5,455C 96.8476,453.106 122.848,444.44 146.5,429C 162.611,415.627 174.445,399.127 182,379.5C 187.738,362.288 193.071,344.954 198,327.5C 208.752,300.754 226.586,280.254 251.5,266C 304.988,242.943 347.488,255.777 379,304.5C 387.357,320.563 394.357,337.23 400,354.5C 421.707,402.283 458.874,423.616 511.5,418.5 Z"/></g>
</svg>
