<svg width="50" height="21" viewBox="0 0 50 21" fill="none" xmlns="http://www.w3.org/2000/svg">
<g clip-path="url(#clip0_1181_5564)">
<path d="M40.2247 5.40805C40.2247 5.40805 40.4243 5.32185 40.8234 5.14944C41.2226 4.97704 41.8569 4.89084 42.7265 4.89084C43.596 4.89084 44.4299 5.06324 45.2282 5.40805C46.0265 5.75286 46.7161 6.21573 47.2971 6.79667C47.878 7.3776 48.3409 8.06722 48.6857 8.86553C49.0305 9.66385 49.2029 10.4978 49.2029 11.3673C49.2029 12.2368 49.0305 13.0707 48.6857 13.8691C48.3409 14.6674 47.878 15.357 47.2971 15.9379C46.7161 16.5188 46.0265 16.9817 45.2282 17.3265C44.4299 17.6713 43.596 17.8438 42.7265 17.8438C41.8569 17.8438 41.023 17.6713 40.2247 17.3265C39.4264 16.9817 38.7368 16.5188 38.1558 15.9379C37.5749 15.357 37.112 14.6674 36.7672 13.8691C36.4224 13.0707 36.25 12.2368 36.25 11.3673C36.25 10.4978 36.4224 9.66385 36.7672 8.86553C37.112 8.06722 37.5749 7.3776 38.1558 6.79667C38.7368 6.21573 39.4264 5.75286 40.2247 5.40805ZM43.03 5.73412C42.9176 5.82407 42.7808 5.90091 42.6196 5.96462C42.4585 6.02834 42.3254 6.07331 42.2205 6.09955C42.1155 6.12578 41.9544 6.15577 41.737 6.1895C41.5196 6.22323 41.3734 6.24759 41.2985 6.26258C41.186 6.28507 41.0155 6.28507 40.7869 6.26258C40.5583 6.2401 40.3877 6.24759 40.2753 6.28507C40.1254 6.33754 39.9324 6.43686 39.6962 6.58303C39.4601 6.7292 39.3308 6.85851 39.3083 6.97095C39.2858 7.0534 39.3102 7.13773 39.3814 7.22393C39.4526 7.31014 39.4845 7.37947 39.477 7.43194C39.4545 7.6868 39.3514 8.02787 39.1678 8.45513C38.9841 8.8824 38.8736 9.17849 38.8361 9.3434C38.7686 9.59826 38.7874 9.94683 38.8923 10.3891C38.9972 10.8313 39.0272 11.1574 38.9823 11.3673C38.9823 11.4348 39.046 11.6015 39.1734 11.8676C39.3008 12.1338 39.3608 12.3568 39.3533 12.5367C39.4433 12.5367 39.5295 12.5554 39.6119 12.5929C39.6944 12.6304 39.7824 12.6866 39.8761 12.7615C39.9698 12.8365 40.0429 12.889 40.0954 12.9189C40.2153 12.9789 40.339 13.0351 40.4664 13.0876C40.5939 13.1401 40.7457 13.1963 40.9218 13.2563C41.098 13.3162 41.2273 13.3612 41.3097 13.3912C41.4671 13.4587 41.6639 13.5786 41.9 13.751C42.1362 13.9234 42.361 14.0658 42.5747 14.1783C42.7883 14.2907 43.0038 14.3319 43.2212 14.3019C43.2737 14.4144 43.2624 14.5418 43.1875 14.6842C43.1125 14.8266 43.0282 14.9766 42.9345 15.134C42.8408 15.2914 42.8052 15.4338 42.8277 15.5612C42.9251 15.7187 43.0113 15.848 43.0863 15.9492C43.1612 16.0504 43.2643 16.1534 43.3955 16.2584C43.5266 16.3633 43.6634 16.4308 43.8059 16.4608C43.8059 16.5132 43.7927 16.5732 43.7665 16.6407C43.7403 16.7081 43.7272 16.7606 43.7272 16.7981C43.7272 16.8356 43.7459 16.8993 43.7834 16.9892C44.563 17.0042 45.3912 16.5844 46.2683 15.7299C46.4931 15.5125 46.6674 15.3364 46.7911 15.2014C46.9148 15.0665 47.0441 14.8829 47.179 14.6505C47.3139 14.4181 47.3927 14.182 47.4151 13.9421C47.3177 13.8822 47.179 13.8503 46.9991 13.8466C46.8192 13.8428 46.6843 13.8147 46.5943 13.7622C46.4819 13.7098 46.2964 13.6535 46.0378 13.5936C45.7792 13.5336 45.5861 13.4624 45.4587 13.3799C45.3238 13.3799 45.1701 13.3818 44.9977 13.3856C44.8253 13.3893 44.6641 13.3949 44.5142 13.4024C44.3643 13.4099 44.2069 13.4343 44.042 13.4755C43.8771 13.5167 43.7347 13.5786 43.6147 13.661C43.2324 13.9234 42.9851 13.9684 42.8726 13.796C42.8426 13.7885 42.8295 13.6929 42.8333 13.5093C42.837 13.3256 42.8389 13.23 42.8389 13.2225C42.7939 13.1251 42.6946 13.0595 42.5409 13.0258C42.3873 12.992 42.2954 12.9677 42.2655 12.9527C42.273 12.8402 42.2711 12.7259 42.2598 12.6097C42.2486 12.4936 42.2224 12.3886 42.1811 12.2949C42.1399 12.2012 42.0706 12.1581 41.9731 12.1656C41.8757 12.1731 41.7595 12.2518 41.6246 12.4017C41.4522 12.5891 41.2947 12.5741 41.1523 12.3568C41.0099 12.1469 40.9799 11.9295 41.0624 11.7046C41.1073 11.5847 41.1898 11.5022 41.3097 11.4572C41.3547 11.4647 41.4522 11.4704 41.6021 11.4741C41.752 11.4779 41.8775 11.4929 41.9787 11.5191C42.0799 11.5453 42.153 11.5959 42.198 11.6709C42.2505 11.7608 42.3179 11.8508 42.4004 11.9407C42.4828 12.0307 42.5634 12.1075 42.6421 12.1712C42.7208 12.2349 42.7958 12.2912 42.867 12.3399C42.9382 12.3886 42.9963 12.428 43.0413 12.458L43.0975 12.4917C43.1125 12.4017 43.1406 12.2874 43.1818 12.1487C43.2231 12.0101 43.253 11.8808 43.2718 11.7608C43.2905 11.6409 43.2886 11.521 43.2662 11.401C43.2437 11.2661 43.2568 11.1574 43.3055 11.075C43.3542 10.9925 43.4217 10.9082 43.5079 10.822C43.5941 10.7358 43.6522 10.6439 43.6822 10.5465C43.7272 10.4416 43.7665 10.3104 43.8002 10.153C43.834 9.99554 43.864 9.87936 43.8902 9.8044C43.9164 9.72944 43.9745 9.64511 44.0645 9.55141C44.1544 9.45772 44.2819 9.37338 44.4468 9.29842C44.4018 9.1635 44.4393 9.02857 44.5592 8.89364C44.6192 8.89364 44.7091 8.89927 44.8291 8.91051C44.949 8.92175 45.0408 8.92738 45.1045 8.92738C45.1682 8.92738 45.2432 8.91051 45.3294 8.87678C45.4156 8.84305 45.4924 8.78495 45.5599 8.7025C45.4849 8.53009 45.3688 8.37081 45.2113 8.22464C45.0539 8.07847 44.9134 7.9679 44.7897 7.89294C44.666 7.81798 44.4824 7.71679 44.2388 7.58936C43.9951 7.46193 43.8321 7.37572 43.7496 7.33075C43.7496 7.32325 43.7571 7.29327 43.7721 7.2408C43.7871 7.18833 43.7984 7.14523 43.8059 7.11149C43.8134 7.07776 43.819 7.03841 43.8227 6.99343C43.8265 6.94846 43.8227 6.91285 43.8115 6.88662C43.8002 6.86038 43.7834 6.84352 43.7609 6.83602C43.9933 6.93347 44.2125 6.98781 44.4187 6.99906C44.6248 7.0103 44.7691 7.00093 44.8515 6.97095L44.9865 6.91473C45.024 6.70484 44.9883 6.53244 44.8797 6.39751C44.771 6.26258 44.6342 6.17263 44.4693 6.12766C44.3043 6.08268 44.1169 6.02646 43.9071 5.959C43.6972 5.89154 43.5435 5.81658 43.4461 5.73412C43.3111 5.76411 43.1725 5.76411 43.03 5.73412ZM42.8726 6.93721C42.8726 7.06464 42.9026 7.22206 42.9626 7.40946C43.0225 7.59685 43.0863 7.76551 43.1537 7.91543C43.2212 8.06535 43.2549 8.15155 43.2549 8.17404C43.195 8.16654 43.0469 8.14593 42.8108 8.1122C42.5747 8.07847 42.3779 8.04099 42.2205 7.99976C42.0631 7.95853 41.9244 7.89669 41.8045 7.81423C41.8269 7.73178 41.8869 7.62122 41.9844 7.48254C42.0818 7.34387 42.1418 7.24829 42.1643 7.19582C42.2392 7.27078 42.3104 7.30826 42.3779 7.30826C42.4454 7.30826 42.4978 7.28577 42.5353 7.2408C42.5728 7.19582 42.6234 7.14148 42.6871 7.07776C42.7508 7.01405 42.8127 6.9672 42.8726 6.93721Z" fill="#1C190E"/>
</g>
<path d="M0.42 15.014C0.42 14.79 0.438667 14.552 0.476 14.3C0.522667 14.0387 0.588 13.7633 0.672 13.474C0.765333 13.1753 0.877333 12.8627 1.008 12.536L2.016 12.928C1.92267 13.1893 1.83867 13.4367 1.764 13.67C1.69867 13.9033 1.64733 14.1227 1.61 14.328C1.582 14.5333 1.568 14.7293 1.568 14.916C1.568 15.308 1.652 15.6393 1.82 15.91C1.99733 16.19 2.24 16.4187 2.548 16.596C2.856 16.7733 3.206 16.904 3.598 16.988C3.99933 17.072 4.424 17.114 4.872 17.114C5.41333 17.114 5.91733 17.0673 6.384 16.974C6.86 16.8807 7.27533 16.7453 7.63 16.568C7.994 16.4 8.27867 16.204 8.484 15.98C8.68933 15.7653 8.792 15.532 8.792 15.28C8.792 15.1587 8.74533 15.0467 8.652 14.944C8.55867 14.8413 8.41867 14.7433 8.232 14.65C8.04533 14.5567 7.82133 14.468 7.56 14.384C7.29867 14.2907 7 14.1973 6.664 14.104L6.93 12.942C7.41533 13.1287 7.84467 13.2873 8.218 13.418C8.59133 13.5393 8.918 13.6373 9.198 13.712C9.478 13.7867 9.72067 13.8427 9.926 13.88C10.1313 13.908 10.304 13.922 10.444 13.922C10.64 13.922 10.78 13.978 10.864 14.09C10.9573 14.1927 11.004 14.3187 11.004 14.468C11.004 14.6173 10.9387 14.7573 10.808 14.888C10.6773 15.0093 10.5093 15.07 10.304 15.07C10.248 15.07 10.192 15.07 10.136 15.07C10.08 15.07 10.0193 15.07 9.954 15.07C9.898 15.07 9.842 15.07 9.786 15.07C9.80467 15.154 9.81867 15.2193 9.828 15.266C9.83733 15.322 9.842 15.392 9.842 15.476C9.842 15.8213 9.72067 16.1573 9.478 16.484C9.24467 16.8107 8.89933 17.1047 8.442 17.366C7.98467 17.6367 7.42933 17.8513 6.776 18.01C6.132 18.1687 5.39467 18.248 4.564 18.248C3.82667 18.248 3.14067 18.1267 2.506 17.884C1.88067 17.6507 1.37667 17.296 0.994 16.82C0.611333 16.344 0.42 15.742 0.42 15.014ZM5.572 20.894C5.376 20.894 5.208 20.824 5.068 20.684C4.93733 20.5533 4.872 20.3947 4.872 20.208C4.872 20.0213 4.93733 19.858 5.068 19.718C5.208 19.578 5.376 19.508 5.572 19.508C5.75867 19.508 5.91733 19.578 6.048 19.718C6.188 19.858 6.258 20.0213 6.258 20.208C6.258 20.3947 6.188 20.5533 6.048 20.684C5.91733 20.824 5.75867 20.894 5.572 20.894ZM3.654 20.894C3.458 20.894 3.29 20.824 3.15 20.684C3.01933 20.5533 2.954 20.3947 2.954 20.208C2.954 20.0213 3.01933 19.858 3.15 19.718C3.29 19.578 3.458 19.508 3.654 19.508C3.84067 19.508 3.99933 19.578 4.13 19.718C4.27 19.858 4.34 20.0213 4.34 20.208C4.34 20.3947 4.27 20.5533 4.13 20.684C3.99933 20.824 3.84067 20.894 3.654 20.894ZM10.3086 15.07L10.4486 13.922C10.9059 13.922 11.2699 13.894 11.5406 13.838C11.8113 13.782 12.0073 13.67 12.1286 13.502C12.2499 13.3247 12.3106 13.0633 12.3106 12.718C12.3106 12.4847 12.2733 12.2093 12.1986 11.892C12.1239 11.5653 12.0259 11.22 11.9046 10.856C11.7833 10.492 11.6526 10.1327 11.5126 9.778L12.6466 9.358C12.7679 9.65667 12.8799 9.99733 12.9826 10.38C13.0946 10.7627 13.1879 11.1407 13.2626 11.514C13.3373 11.8873 13.3746 12.214 13.3746 12.494C13.3746 12.8673 13.3326 13.1987 13.2486 13.488C13.1739 13.768 13.0573 14.0107 12.8986 14.216C12.7399 14.412 12.5346 14.5753 12.2826 14.706C12.0399 14.8273 11.7553 14.9207 11.4286 14.986C11.1019 15.042 10.7286 15.07 10.3086 15.07ZM11.8066 17.674C11.6106 17.674 11.4426 17.604 11.3026 17.464C11.1719 17.3333 11.1066 17.1747 11.1066 16.988C11.1066 16.8013 11.1719 16.638 11.3026 16.498C11.4426 16.358 11.6106 16.288 11.8066 16.288C11.9933 16.288 12.1519 16.358 12.2826 16.498C12.4226 16.638 12.4926 16.8013 12.4926 16.988C12.4926 17.1747 12.4226 17.3333 12.2826 17.464C12.1519 17.604 11.9933 17.674 11.8066 17.674ZM14.1244 18.248L13.7184 17.184C14.3997 16.96 14.9644 16.7033 15.4124 16.414C15.8697 16.1247 16.229 15.8167 16.4904 15.49C16.761 15.1633 16.9524 14.832 17.0644 14.496C17.1764 14.1507 17.2324 13.8193 17.2324 13.502C17.2324 13.0447 17.1297 12.5827 16.9244 12.116C16.7284 11.64 16.509 11.192 16.2664 10.772L17.2884 10.254C17.4657 10.5807 17.6197 10.9027 17.7504 11.22C17.8904 11.5373 18.0117 11.836 18.1144 12.116C18.2264 12.396 18.315 12.6527 18.3804 12.886C18.511 13.2873 18.679 13.5627 18.8844 13.712C19.099 13.852 19.3884 13.922 19.7524 13.922C19.9484 13.922 20.0884 13.978 20.1724 14.09C20.2657 14.1927 20.3124 14.3187 20.3124 14.468C20.3124 14.6173 20.247 14.7573 20.1164 14.888C19.9857 15.0093 19.8177 15.07 19.6124 15.07C19.2017 15.07 18.8657 15 18.6044 14.86C18.3524 14.7107 18.161 14.5193 18.0304 14.286C17.8997 14.0433 17.811 13.7913 17.7644 13.53L18.2124 13.782C18.2124 14.398 18.0724 14.958 17.7924 15.462C17.5217 15.9753 17.1717 16.4187 16.7424 16.792C16.313 17.1747 15.865 17.4873 15.3984 17.73C14.9317 17.9727 14.507 18.1453 14.1244 18.248ZM19.6191 15.07L19.7591 13.922C20.3471 13.922 20.7998 13.9173 21.1171 13.908C21.4438 13.8987 21.6818 13.8893 21.8311 13.88C21.9805 13.8613 22.0831 13.852 22.1391 13.852C21.9711 13.7587 21.7751 13.614 21.5511 13.418C21.3271 13.2127 21.1311 12.956 20.9631 12.648C20.7951 12.3307 20.7111 11.9573 20.7111 11.528C20.7111 10.996 20.8325 10.5293 21.0751 10.128C21.3271 9.72667 21.6678 9.414 22.0971 9.19C22.5358 8.966 23.0351 8.854 23.5951 8.854C23.8098 8.854 24.0385 8.87267 24.2811 8.91C24.5238 8.94733 24.7571 9.00333 24.9811 9.078L24.7431 10.156C24.5565 10.1093 24.3605 10.072 24.1551 10.044C23.9498 10.016 23.7631 10.002 23.5951 10.002C23.2591 10.002 22.9605 10.0673 22.6991 10.198C22.4378 10.3193 22.2325 10.492 22.0831 10.716C21.9338 10.94 21.8591 11.2107 21.8591 11.528C21.8591 11.7707 21.9105 11.9947 22.0131 12.2C22.1158 12.396 22.2511 12.5733 22.4191 12.732C22.5871 12.8907 22.7738 13.0213 22.9791 13.124C23.1845 13.2267 23.3851 13.306 23.5811 13.362C23.7865 13.418 23.9685 13.4413 24.1271 13.432C24.2391 13.3947 24.3418 13.362 24.4351 13.334C24.5285 13.306 24.6311 13.2733 24.7431 13.236C24.8645 13.1893 25.0091 13.1287 25.1771 13.054C25.3545 12.9793 25.5785 12.8813 25.8491 12.76L26.2411 13.782C25.6158 14.034 24.9765 14.258 24.3231 14.454C23.6791 14.65 22.9745 14.804 22.2091 14.916C21.4531 15.0187 20.5898 15.07 19.6191 15.07Z" fill="#1C190E"/>
<defs>
<clipPath id="clip0_1181_5564">
<rect width="14" height="14" fill="white" transform="translate(36 4)"/>
</clipPath>
</defs>
</svg>
