<svg width="18" height="18" viewBox="0 0 18 18" fill="none" xmlns="http://www.w3.org/2000/svg">
<g clip-path="url(#clip0_1181_7444)">
<mask id="mask0_1181_7444" style="mask-type:luminance" maskUnits="userSpaceOnUse" x="0" y="0" width="18" height="18">
<path d="M17.4219 0.325195H0.171875V17.6752H17.4219V0.325195Z" fill="white"/>
</mask>
<g mask="url(#mask0_1181_7444)">
<path d="M16.6376 0.325195H0.955956C0.522934 0.325195 0.171875 0.67829 0.171875 1.11382V16.8866C0.171875 17.3221 0.522934 17.6752 0.955956 17.6752H9.84222C10.2752 17.6752 10.6263 17.3221 10.6263 16.8866C10.6263 16.451 10.2752 16.0979 9.84222 16.0979H1.74004V9.26318H5.39909V12.1546C5.39909 12.5901 5.75015 12.9432 6.18317 12.9432C6.61619 12.9432 6.96725 12.5901 6.96725 12.1546V4.79408C6.96725 4.35855 6.61619 4.00545 6.18317 4.00545C5.75015 4.00545 5.39909 4.35855 5.39909 4.79408V7.68592H1.74004V1.90245H9.58086V5.84579C9.58086 6.28133 9.93192 6.63442 10.3649 6.63442H14.024C14.457 6.63442 14.8081 6.28133 14.8081 5.84579C14.8081 5.41026 14.457 5.05717 14.024 5.05717H11.149V1.90245H15.8535V11.3662H10.3649C9.93192 11.3662 9.58086 11.7193 9.58086 12.1548C9.58086 12.5903 9.93192 12.9434 10.3649 12.9434H15.8535V16.0979H14.5467C14.1137 16.0979 13.7626 16.451 13.7626 16.8866C13.7626 17.3221 14.1137 17.6752 14.5467 17.6752H16.6376C17.0706 17.6752 17.4217 17.3221 17.4217 16.8866V1.11382C17.4217 0.67829 17.0706 0.325195 16.6376 0.325195Z" fill="white"/>
</g>
</g>
<defs>
<clipPath id="clip0_1181_7444">
<rect width="18" height="18" fill="white"/>
</clipPath>
</defs>
</svg>
