<?xml version="1.0" encoding="UTF-8"?>
<!DOCTYPE svg PUBLIC "-//W3C//DTD SVG 1.1//EN" "http://www.w3.org/Graphics/SVG/1.1/DTD/svg11.dtd">
<svg xmlns="http://www.w3.org/2000/svg" version="1.1" width="512px" height="512px" style="shape-rendering:geometricPrecision; text-rendering:geometricPrecision; image-rendering:optimizeQuality; fill-rule:evenodd; clip-rule:evenodd" xmlns:xlink="http://www.w3.org/1999/xlink">
<g><path style="opacity:0.938" fill="#000000" d="M 56.5,-0.5 C 189.167,-0.5 321.833,-0.5 454.5,-0.5C 463.816,2.65054 469.983,8.98387 473,18.5C 473.333,26.8333 473.667,35.1667 474,43.5C 485.667,70.5 497.333,97.5 509,124.5C 509.865,136.543 509.532,148.543 508,160.5C 500.743,184.133 484.743,196.466 460,197.5C 443.133,196.983 429.633,189.983 419.5,176.5C 400.491,198.868 377.824,203.368 351.5,190C 346.351,186.018 341.685,181.518 337.5,176.5C 318.491,198.868 295.824,203.368 269.5,190C 264.325,185.991 259.658,181.491 255.5,176.5C 239.631,196.176 219.631,202.009 195.5,194C 186.533,190.198 179.2,184.364 173.5,176.5C 157.591,196.19 137.591,202.024 113.5,194C 104.533,190.198 97.1999,184.364 91.5,176.5C 75.5911,196.19 55.5911,202.024 31.5,194C 14.8127,185.976 4.97933,172.809 2,154.5C 1.33333,144.5 1.33333,134.5 2,124.5C 13.6667,97.5 25.3333,70.5 37,43.5C 37.3333,35.1667 37.6667,26.8333 38,18.5C 41.0174,8.98387 47.1841,2.65054 56.5,-0.5 Z M 59.5,15.5 C 190.167,15.3333 320.834,15.5 451.5,16C 454,17.1667 455.833,19 457,21.5C 457.499,26.8229 457.666,32.1563 457.5,37.5C 322.833,37.5 188.167,37.5 53.5,37.5C 53.334,32.1563 53.5006,26.8229 54,21.5C 55.3597,18.9774 57.193,16.9774 59.5,15.5 Z M 50.5,53.5 C 68.5123,53.1671 86.5123,53.5005 104.5,54.5C 98.1792,75.4489 92.0125,96.4489 86,117.5C 65.0654,119.482 43.8988,120.149 22.5,119.5C 31.2784,97.2752 40.6117,75.2752 50.5,53.5 Z M 121.5,53.5 C 139.5,53.5 157.5,53.5 175.5,53.5C 172.873,75.5539 169.873,97.5539 166.5,119.5C 145.156,119.833 123.823,119.5 102.5,118.5C 108.684,96.7589 115.017,75.0922 121.5,53.5 Z M 192.5,53.5 C 210.833,53.5 229.167,53.5 247.5,53.5C 247.5,75.5 247.5,97.5 247.5,119.5C 225.831,119.667 204.164,119.5 182.5,119C 185.97,97.2118 189.303,75.3785 192.5,53.5 Z M 263.5,53.5 C 281.845,53.1671 300.179,53.5004 318.5,54.5C 321.79,76.0347 325.124,97.5347 328.5,119C 306.836,119.5 285.169,119.667 263.5,119.5C 263.5,97.5 263.5,75.5 263.5,53.5 Z M 335.5,53.5 C 353.503,53.3334 371.503,53.5001 389.5,54C 391.859,60.7446 394.026,67.578 396,74.5C 399.719,77.9023 403.886,78.4023 408.5,76C 410.429,72.7441 410.929,69.2441 410,65.5C 408.987,61.7805 407.82,58.1138 406.5,54.5C 424.491,53.3337 442.491,53.167 460.5,54C 470.52,75.5656 479.853,97.3989 488.5,119.5C 467.489,119.833 446.489,119.5 425.5,118.5C 423.432,111.797 421.266,105.13 419,98.5C 415.581,95.1519 411.748,94.6519 407.5,97C 404.806,99.6534 403.973,102.82 405,106.5C 406.067,110.535 407.234,114.535 408.5,118.5C 387.177,119.5 365.844,119.833 344.5,119.5C 341.127,97.5539 338.127,75.5539 335.5,53.5 Z M 17.5,135.5 C 39.5,135.5 61.5,135.5 83.5,135.5C 86.6807,152.815 81.3473,166.648 67.5,177C 51.4625,184.872 37.2958,182.372 25,169.5C 18.3623,159.152 15.8623,147.818 17.5,135.5 Z M 99.5,135.5 C 121.5,135.5 143.5,135.5 165.5,135.5C 168.681,152.815 163.347,166.648 149.5,177C 133.462,184.872 119.296,182.372 107,169.5C 100.14,159.195 97.64,147.861 99.5,135.5 Z M 181.5,135.5 C 203.5,135.5 225.5,135.5 247.5,135.5C 251.087,154.969 244.421,169.469 227.5,179C 206.562,185.28 191.729,178.446 183,158.5C 181.689,150.895 181.189,143.228 181.5,135.5 Z M 263.5,135.5 C 285.5,135.5 307.5,135.5 329.5,135.5C 332.22,151.15 327.887,164.316 316.5,175C 299.23,185.398 283.73,183.231 270,168.5C 264.09,158.33 261.923,147.33 263.5,135.5 Z M 345.5,135.5 C 367.5,135.5 389.5,135.5 411.5,135.5C 413.999,151.032 409.666,164.199 398.5,175C 381.215,185.415 365.715,183.249 352,168.5C 348.91,164.318 346.91,159.651 346,154.5C 345.5,148.175 345.334,141.842 345.5,135.5 Z M 427.5,135.5 C 449.5,135.5 471.5,135.5 493.5,135.5C 496.618,154.751 489.952,169.251 473.5,179C 450.421,185.379 435.254,177.212 428,154.5C 427.5,148.175 427.334,141.842 427.5,135.5 Z"/></g>
<g><path style="opacity:0.944" fill="#000000" d="M 172.5,511.5 C 166.833,511.5 161.167,511.5 155.5,511.5C 151.261,509.07 148.428,505.404 147,500.5C 140.176,468.549 133.676,436.549 127.5,404.5C 104.258,404.173 81.0917,404.506 58,405.5C 51.3003,439.334 43.967,473.001 36,506.5C 34.0349,508.55 31.8682,510.217 29.5,511.5C 23.8333,511.5 18.1667,511.5 12.5,511.5C 7.00866,508.535 4.00866,503.869 3.5,497.5C 6.83078,466.526 9.83078,435.526 12.5,404.5C 6.223,404.203 1.88967,401.203 -0.5,395.5C -0.5,345.167 -0.5,294.833 -0.5,244.5C 5.954,228.606 17.6207,222.773 34.5,227C 44.8394,231.675 50.506,239.675 51.5,251C 48.5289,286.092 45.8623,321.258 43.5,356.5C 81.8348,356.333 120.168,356.5 158.5,357C 172.519,361.02 181.019,370.187 184,384.5C 186.053,394.744 182.22,401.41 172.5,404.5C 175.499,435.159 178.499,465.825 181.5,496.5C 181.797,503.585 178.797,508.585 172.5,511.5 Z M 22.5,241.5 C 32.318,241.664 36.318,246.664 34.5,256.5C 32.4951,289.897 29.8284,323.231 26.5,356.5C 22.8294,357.42 19.3294,358.753 16,360.5C 15.3333,322.833 15.3333,285.167 16,247.5C 17.4936,244.686 19.6603,242.686 22.5,241.5 Z M 27.5,372.5 C 70.168,372.333 112.835,372.5 155.5,373C 163.354,375.691 167.687,381.191 168.5,389.5C 117.5,389.5 66.5,389.5 15.5,389.5C 16.3206,381.506 20.3206,375.839 27.5,372.5 Z M 28.5,404.5 C 32.8333,404.5 37.1667,404.5 41.5,404.5C 35.5282,434.526 29.3615,464.526 23,494.5C 21.9505,495.517 20.7839,495.684 19.5,495C 23.1226,464.941 26.1226,434.774 28.5,404.5 Z M 143.5,404.5 C 147.833,404.5 152.167,404.5 156.5,404.5C 159.302,434.857 162.302,465.19 165.5,495.5C 163.876,495.64 162.71,494.973 162,493.5C 155.986,463.781 149.819,434.114 143.5,404.5 Z"/></g>
<g><path style="opacity:0.947" fill="#000000" d="M 511.5,244.5 C 511.5,295.167 511.5,345.833 511.5,396.5C 508.984,401.933 504.65,404.6 498.5,404.5C 501.169,435.525 504.169,466.525 507.5,497.5C 506.991,503.869 503.991,508.535 498.5,511.5C 492.833,511.5 487.167,511.5 481.5,511.5C 477.095,509.588 474.261,506.255 473,501.5C 466.176,469.549 459.676,437.549 453.5,405.5C 430.167,405.5 406.833,405.5 383.5,405.5C 377.163,437.185 370.663,468.852 364,500.5C 362.584,505.364 359.751,509.03 355.5,511.5C 349.5,511.5 343.5,511.5 337.5,511.5C 331.968,508.107 329.302,503.107 329.5,496.5C 332.501,465.825 335.501,435.159 338.5,404.5C 328.78,401.41 324.947,394.744 327,384.5C 329.981,370.187 338.481,361.02 352.5,357C 390.832,356.5 429.165,356.333 467.5,356.5C 465.212,321.253 462.545,286.086 459.5,251C 461.482,235.351 470.315,226.851 486,225.5C 498.832,226.153 507.332,232.486 511.5,244.5 Z M 483.5,241.5 C 490.679,241.163 494.846,244.496 496,251.5C 496.667,296.833 496.667,342.167 496,387.5C 490.357,383.554 486.69,378.22 485,371.5C 481.384,330.207 478.717,288.874 477,247.5C 478.436,244.558 480.603,242.558 483.5,241.5 Z M 355.5,372.5 C 393.168,372.333 430.835,372.5 468.5,373C 469.661,378.463 471.661,383.629 474.5,388.5C 430.505,389.5 386.505,389.833 342.5,389.5C 343.512,381.17 347.845,375.503 355.5,372.5 Z M 354.5,404.5 C 358.884,404.174 363.217,404.508 367.5,405.5C 360.91,435.448 354.577,465.448 348.5,495.5C 347.5,495.5 346.5,495.5 345.5,495.5C 348.698,465.19 351.698,434.857 354.5,404.5 Z M 469.5,404.5 C 473.833,404.5 478.167,404.5 482.5,404.5C 484.877,434.774 487.877,464.941 491.5,495C 490.216,495.684 489.049,495.517 488,494.5C 481.639,464.526 475.472,434.526 469.5,404.5 Z"/></g>
<g><path style="opacity:0.938" fill="#000000" d="M 312.5,511.5 C 274.5,511.5 236.5,511.5 198.5,511.5C 193.466,508.939 191.133,504.772 191.5,499C 193.828,480.174 204.495,470.007 223.5,468.5C 224.205,444.318 226.705,420.318 231,396.5C 231.5,378.17 231.667,359.836 231.5,341.5C 215.497,341.667 199.497,341.5 183.5,341C 178.094,339.02 176.261,335.186 178,329.5C 179.167,328.333 180.333,327.167 181.5,326C 249.499,325.5 317.499,325.333 385.5,325.5C 385.5,318.833 385.5,312.167 385.5,305.5C 298.833,305.5 212.167,305.5 125.5,305.5C 125.5,312.167 125.5,318.833 125.5,325.5C 135.172,325.334 144.839,325.5 154.5,326C 160.194,331.862 159.527,336.862 152.5,341C 142.833,341.667 133.167,341.667 123.5,341C 115.249,339.669 110.749,334.836 110,326.5C 109.333,318.833 109.333,311.167 110,303.5C 110.884,296.951 114.384,292.451 120.5,290C 210.5,289.333 300.5,289.333 390.5,290C 395,291.833 398.167,295 400,299.5C 401.972,310.158 401.972,320.825 400,331.5C 398.5,335.667 395.667,338.5 391.5,340C 354.215,341.475 316.882,341.975 279.5,341.5C 279.333,359.836 279.5,378.17 280,396.5C 284.295,420.318 286.795,444.318 287.5,468.5C 310.34,471.24 320.507,483.906 318,506.5C 316.27,508.402 314.437,510.069 312.5,511.5 Z M 247.5,341.5 C 252.833,341.5 258.167,341.5 263.5,341.5C 261.861,375.096 264.028,408.429 270,441.5C 270.88,450.482 271.38,459.482 271.5,468.5C 260.833,468.5 250.167,468.5 239.5,468.5C 239.62,459.482 240.12,450.482 241,441.5C 246.972,408.429 249.139,375.096 247.5,341.5 Z M 220.5,484.5 C 243.836,484.333 267.169,484.5 290.5,485C 296.33,486.166 300.33,489.499 302.5,495C 271.167,495.667 239.833,495.667 208.5,495C 210.841,489.486 214.841,485.986 220.5,484.5 Z"/></g>
</svg>
