<?xml version="1.0" encoding="UTF-8"?>
<!DOCTYPE svg PUBLIC "-//W3C//DTD SVG 1.1//EN" "http://www.w3.org/Graphics/SVG/1.1/DTD/svg11.dtd">
<svg xmlns="http://www.w3.org/2000/svg" version="1.1" width="512px" height="512px" style="shape-rendering:geometricPrecision; text-rendering:geometricPrecision; image-rendering:optimizeQuality; fill-rule:evenodd; clip-rule:evenodd" xmlns:xlink="http://www.w3.org/1999/xlink">
<g><path style="opacity:0.896" fill="#000000" d="M 225.5,37.5 C 227.991,37.8288 230.157,38.8288 232,40.5C 232.667,48.1667 232.667,55.8333 232,63.5C 228.412,67.3927 224.746,67.3927 221,63.5C 220.333,56.1667 220.333,48.8333 221,41.5C 221.907,39.3909 223.407,38.0576 225.5,37.5 Z"/></g>
<g><path style="opacity:0.864" fill="#000000" d="M 191.5,46.5 C 193.655,46.372 195.655,46.872 197.5,48C 201.371,54.0773 204.705,60.4107 207.5,67C 206.206,72.657 202.873,74.3237 197.5,72C 194.292,67.7529 191.458,63.2529 189,58.5C 186.383,53.5777 187.217,49.5777 191.5,46.5 Z"/></g>
<g><path style="opacity:0.863" fill="#000000" d="M 258.5,46.5 C 264.849,47.0274 267.016,50.3608 265,56.5C 262.333,61.1667 259.667,65.8333 257,70.5C 253.981,74.0632 250.648,74.3965 247,71.5C 245.627,69.3046 245.294,66.9712 246,64.5C 249,59.1667 252,53.8333 255,48.5C 256.302,47.9152 257.469,47.2485 258.5,46.5 Z"/></g>
<g><path style="opacity:0.866" fill="#000000" d="M 165.5,71.5 C 167.857,71.3367 170.19,71.5034 172.5,72C 177.167,74.6667 181.833,77.3333 186.5,80C 189.36,82.855 189.86,86.0217 188,89.5C 185.757,91.282 183.257,91.782 180.5,91C 175.167,88 169.833,85 164.5,82C 161.811,78.2411 162.145,74.7411 165.5,71.5 Z"/></g>
<g><path style="opacity:0.874" fill="#000000" d="M 280.5,71.5 C 288.686,70.5096 291.519,73.8429 289,81.5C 283.758,85.0662 278.258,88.2329 272.5,91C 265.429,91.746 262.929,88.5793 265,81.5C 270.341,78.3036 275.508,74.9703 280.5,71.5 Z"/></g>
<g><path style="opacity:0.913" fill="#000000" d="M 81.5,77.5 C 89.1428,77.1429 91.6428,80.4762 89,87.5C 85.5,91 82,94.5 78.5,98C 86.8024,97.5031 95.1358,97.5031 103.5,98C 107.032,101.39 107.366,105.057 104.5,109C 98.3272,109.044 92.3272,109.711 86.5,111C 93.5727,114.738 99.4061,119.904 104,126.5C 105.601,134.564 102.434,137.397 94.5,135C 90.0296,128.765 84.3629,123.931 77.5,120.5C 77.1667,121.333 76.8333,122.167 76.5,123C 80.1958,142.676 81.3624,162.509 80,182.5C 79.2598,189.538 77.7598,196.371 75.5,203C 131.102,194.138 184.602,201.305 236,224.5C 275.249,196.556 319.082,182.889 367.5,183.5C 405.079,183.182 440.912,190.849 475,206.5C 477.867,212.055 476.367,215.721 470.5,217.5C 420.921,195.584 369.588,190.084 316.5,201C 293.003,206.835 271.17,216.335 251,229.5C 250.312,230.332 250.479,230.998 251.5,231.5C 262.733,236.362 273.233,242.362 283,249.5C 284.806,254.713 283.139,258.047 278,259.5C 246.193,240.851 212.36,227.018 176.5,218C 141.891,209.809 107.224,209.476 72.5,217C 63.6195,219.405 54.9528,222.405 46.5,226C 40.984,227.925 37.6507,226.091 36.5,220.5C 36.8481,218.303 37.8481,216.47 39.5,215C 46.6078,211.797 53.9411,209.297 61.5,207.5C 69.9584,180.143 70.7918,152.477 64,124.5C 61.8328,126.83 60.1662,129.497 59,132.5C 57.6647,137.183 56.3314,141.85 55,146.5C 52.5027,148.478 49.6693,148.978 46.5,148C 44.8481,146.53 43.8481,144.697 43.5,142.5C 44.45,135.031 46.7833,128.031 50.5,121.5C 50.1667,121.167 49.8333,120.833 49.5,120.5C 44.7152,122.976 39.8819,125.309 35,127.5C 29.072,126.311 27.4054,122.977 30,117.5C 36.5777,111.961 44.0777,108.127 52.5,106C 46.9698,103.728 41.3031,101.895 35.5,100.5C 32.6092,96.6815 32.9425,93.1815 36.5,90C 46.6374,89.6599 55.8041,92.4932 64,98.5C 68.1936,90.1392 74.0269,83.1392 81.5,77.5 Z"/></g>
<g><path style="opacity:0.903" fill="#000000" d="M 220.5,77.5 C 247.482,77.3138 260.315,90.6471 259,117.5C 252.988,136.93 239.822,145.43 219.5,143C 198.826,136.161 190.659,121.994 195,100.5C 199.615,88.3788 208.115,80.7121 220.5,77.5 Z M 224.5,89.5 C 237.835,90.3286 245.502,97.3286 247.5,110.5C 243.509,128.661 232.842,134.494 215.5,128C 202.169,115.292 202.836,103.292 217.5,92C 220.004,91.3024 222.337,90.4691 224.5,89.5 Z"/></g>
<g><path style="opacity:0.895" fill="#000000" d="M 157.5,104.5 C 164.841,104.334 172.174,104.5 179.5,105C 183.5,108.667 183.5,112.333 179.5,116C 171.833,116.667 164.167,116.667 156.5,116C 152.376,111.695 152.709,107.862 157.5,104.5 Z"/></g>
<g><path style="opacity:0.893" fill="#000000" d="M 273.5,104.5 C 281.174,104.334 288.841,104.5 296.5,105C 300.5,108.667 300.5,112.333 296.5,116C 288.833,116.667 281.167,116.667 273.5,116C 269.581,112.173 269.581,108.339 273.5,104.5 Z"/></g>
<g><path style="opacity:0.866" fill="#000000" d="M 180.5,129.5 C 187.502,129.652 190.002,132.985 188,139.5C 181.962,143.686 175.628,147.352 169,150.5C 163.236,148.641 161.569,144.975 164,139.5C 169.647,136.267 175.147,132.933 180.5,129.5 Z"/></g>
<g><path style="opacity:0.871" fill="#000000" d="M 267.5,129.5 C 269.199,129.34 270.866,129.506 272.5,130C 277.833,133 283.167,136 288.5,139C 292.075,144.772 290.575,148.605 284,150.5C 278.118,147.475 272.285,144.308 266.5,141C 263.681,136.899 264.014,133.065 267.5,129.5 Z"/></g>
<g><path style="opacity:0.874" fill="#000000" d="M 197.5,148.5 C 204.587,146.923 207.753,149.59 207,156.5C 204,161.833 201,167.167 198,172.5C 190.063,175.91 186.73,173.243 188,164.5C 191.393,159.28 194.56,153.947 197.5,148.5 Z"/></g>
<g><path style="opacity:0.871" fill="#000000" d="M 248.5,148.5 C 250.857,148.337 253.19,148.503 255.5,149C 259.905,154.811 263.238,161.144 265.5,168C 264.623,174.387 261.289,176.054 255.5,173C 251.629,166.923 248.295,160.589 245.5,154C 245.863,151.808 246.863,149.974 248.5,148.5 Z"/></g>
<g><path style="opacity:0.893" fill="#000000" d="M 224.5,154.5 C 227.505,154.253 230.005,155.253 232,157.5C 232.667,165.167 232.667,172.833 232,180.5C 228.333,184.5 224.667,184.5 221,180.5C 220.333,173.167 220.333,165.833 221,158.5C 221.69,156.65 222.856,155.316 224.5,154.5 Z"/></g>
<g><path style="opacity:0.899" fill="#000000" d="M 120.5,226.5 C 148.706,225.374 175.373,231.208 200.5,244C 205.866,246.844 206.866,250.844 203.5,256C 200.833,256.667 198.167,256.667 195.5,256C 161.087,237.717 125.42,234.384 88.5,246C 86.1854,244.704 85.1854,242.704 85.5,240C 85.3536,237.966 86.0203,236.299 87.5,235C 98.2832,230.817 109.283,227.984 120.5,226.5 Z"/></g>
<g><path style="opacity:0.914" fill="#000000" d="M 453.5,235.5 C 460.282,234.125 463.448,236.791 463,243.5C 456.815,249.02 451.315,255.187 446.5,262C 455.919,259.449 465.586,258.449 475.5,259C 483.927,260.28 485.594,264.28 480.5,271C 472.106,271.129 463.772,271.796 455.5,273C 466.648,277.986 474.982,285.819 480.5,296.5C 479.359,302.267 476.026,303.934 470.5,301.5C 464.072,292.645 455.738,286.812 445.5,284C 454.228,317.796 454.395,351.629 446,385.5C 444.598,389.207 443.098,392.874 441.5,396.5C 453.147,404.98 463.314,414.98 472,426.5C 472.997,433.833 469.83,436.666 462.5,435C 449.394,417.229 432.728,403.896 412.5,395C 404.474,391.436 396.307,388.27 388,385.5C 387.667,390.833 387.333,396.167 387,401.5C 383.309,408.592 377.476,411.259 369.5,409.5C 369.884,416.589 369.384,423.589 368,430.5C 367.5,431 367,431.5 366.5,432C 361.167,432.667 355.833,432.667 350.5,432C 340.427,406.963 322.427,397.963 296.5,405C 290.441,408.059 285.274,412.226 281,417.5C 278.264,422.483 275.431,427.317 272.5,432C 229.833,432.667 187.167,432.667 144.5,432C 138.141,413.639 125.308,403.473 106,401.5C 86.7168,403.443 73.8834,413.61 67.5,432C 57.8333,432.667 48.1667,432.667 38.5,432C 35.8461,428.673 34.8461,424.839 35.5,420.5C 32.0217,420.816 28.6883,420.316 25.5,419C 22.5749,415.304 22.9083,411.971 26.5,409C 29.3508,407.711 32.3508,407.211 35.5,407.5C 35.5,399.167 35.5,390.833 35.5,382.5C 18.6268,384.156 8.12679,376.823 4,360.5C 3.33333,347.5 3.33333,334.5 4,321.5C 7.98523,305.035 18.4852,297.701 35.5,299.5C 35.3335,289.828 35.5002,280.161 36,270.5C 36.5,268.667 37.6667,267.5 39.5,267C 105.833,266.333 172.167,266.333 238.5,267C 240.333,267.5 241.5,268.667 242,270.5C 243.145,273.432 243.978,276.432 244.5,279.5C 293.482,282.771 339.482,296.271 382.5,320C 385.967,325.493 384.634,329.327 378.5,331.5C 347.459,315.208 314.792,303.375 280.5,296C 270.262,293.929 259.929,292.762 249.5,292.5C 254.136,310.542 259.469,328.376 265.5,346C 294.167,346.333 322.833,346.667 351.5,347C 360.947,350.276 366.614,356.776 368.5,366.5C 375.371,365.625 381.371,367.458 386.5,372C 401.061,376.298 415.061,381.964 428.5,389C 429.635,389.749 430.635,389.583 431.5,388.5C 437.514,372.729 440.18,356.395 439.5,339.5C 439.513,322.298 437.68,305.298 434,288.5C 432.853,287.542 431.853,287.875 431,289.5C 425.89,297.829 422.557,306.829 421,316.5C 415.507,319.967 411.673,318.634 409.5,312.5C 411.101,301.861 414.767,292.027 420.5,283C 413.341,284.078 407.008,287.078 401.5,292C 395.992,293.924 392.659,292.091 391.5,286.5C 392.034,284.386 393.034,282.552 394.5,281C 402.966,274.934 412.299,270.768 422.5,268.5C 415.646,264.715 408.313,262.215 400.5,261C 396.5,257.333 396.5,253.667 400.5,250C 412.258,249.919 423.092,253.085 433,259.5C 438.668,250.49 445.502,242.49 453.5,235.5 Z M 48.5,279.5 C 79.8333,279.5 111.167,279.5 142.5,279.5C 142.5,305.167 142.5,330.833 142.5,356.5C 111.167,356.5 79.8333,356.5 48.5,356.5C 48.5,330.833 48.5,305.167 48.5,279.5 Z M 154.5,279.5 C 157.5,279.5 160.5,279.5 163.5,279.5C 163.5,326.5 163.5,373.5 163.5,420.5C 159.818,420.665 156.152,420.499 152.5,420C 138.945,394.249 117.945,384.916 89.5,392C 75.8422,397.157 65.8422,406.324 59.5,419.5C 55.8927,420.489 52.226,420.823 48.5,420.5C 48.5,403.167 48.5,385.833 48.5,368.5C 83.1683,368.667 117.835,368.5 152.5,368C 153.126,367.25 153.626,366.416 154,365.5C 154.5,336.835 154.667,308.169 154.5,279.5 Z M 176.5,279.5 C 194.836,279.333 213.17,279.5 231.5,280C 238.345,302.047 245.345,324.047 252.5,346C 227.169,346.5 201.836,346.667 176.5,346.5C 176.5,324.167 176.5,301.833 176.5,279.5 Z M 26.5,311.5 C 29.5,311.5 32.5,311.5 35.5,311.5C 35.5,330.833 35.5,350.167 35.5,369.5C 24.0951,371.589 17.5951,366.922 16,355.5C 15.1167,344.117 15.4501,332.783 17,321.5C 18.3499,316.319 21.5166,312.986 26.5,311.5 Z M 176.5,358.5 C 202.5,358.5 228.5,358.5 254.5,358.5C 254.5,379.167 254.5,399.833 254.5,420.5C 228.5,420.5 202.5,420.5 176.5,420.5C 176.5,399.833 176.5,379.167 176.5,358.5 Z M 266.5,358.5 C 294.564,358.025 322.564,358.525 350.5,360C 352.709,361.873 354.542,364.04 356,366.5C 356.667,382.833 356.667,399.167 356,415.5C 341.62,393.145 321.453,385.312 295.5,392C 282.925,396.574 273.425,404.741 267,416.5C 266.5,397.17 266.333,377.836 266.5,358.5 Z M 369.5,378.5 C 371.467,378.261 373.301,378.594 375,379.5C 375.499,385.491 375.666,391.491 375.5,397.5C 373.5,397.5 371.5,397.5 369.5,397.5C 369.5,391.167 369.5,384.833 369.5,378.5 Z"/></g>
<g><path style="opacity:0.895" fill="#000000" d="M 183.5,366.5 C 189.842,366.334 196.175,366.5 202.5,367C 205.203,368.82 206.036,371.32 205,374.5C 204.5,376.333 203.333,377.5 201.5,378C 195.833,378.667 190.167,378.667 184.5,378C 180.92,374.442 180.587,370.609 183.5,366.5 Z"/></g>
<g><path style="opacity:0.891" fill="#000000" d="M 100.5,406.5 C 123.599,405.601 136.599,416.601 139.5,439.5C 185.833,439.5 232.167,439.5 278.5,439.5C 280.557,419.276 291.724,408.276 312,406.5C 332.466,408.132 343.299,419.132 344.5,439.5C 397.168,439.333 449.834,439.5 502.5,440C 507.524,442.057 508.69,445.557 506,450.5C 505.25,451.126 504.416,451.626 503.5,452C 449.833,452.333 396.167,452.667 342.5,453C 332.908,470.295 318.575,476.295 299.5,471C 290.554,467.556 284.554,461.389 281.5,452.5C 233.162,452.167 184.829,452.5 136.5,453.5C 125.401,472.144 109.734,477.311 89.5,469C 83.5957,464.93 78.929,459.763 75.5,453.5C 53.1741,452.667 30.8408,452.167 8.5,452C 2.98348,447.54 3.31681,443.54 9.5,440C 30.4974,439.5 51.4974,439.333 72.5,439.5C 73.9747,421.701 83.308,410.701 100.5,406.5 Z M 100.5,419.5 C 122.208,419.37 130.041,429.703 124,450.5C 116.625,460.698 107.125,463.198 95.5,458C 85.3023,450.625 82.8023,441.125 88,429.5C 91.1908,424.837 95.3575,421.503 100.5,419.5 Z M 305.5,419.5 C 323.756,418.021 332.59,426.354 332,444.5C 325.539,459.979 314.706,464.146 299.5,457C 287.5,445.667 287.5,434.333 299.5,423C 301.727,422.059 303.727,420.892 305.5,419.5 Z"/></g>
<g><path style="opacity:0.901" fill="#000000" d="M 103.5,428.5 C 115.688,429.216 119.522,435.216 115,446.5C 111.257,450.259 106.757,451.426 101.5,450C 95.8912,446.723 94.0578,441.89 96,435.5C 97.7668,432.228 100.267,429.895 103.5,428.5 Z"/></g>
<g><path style="opacity:0.893" fill="#000000" d="M 309.5,428.5 C 319.804,428.975 323.97,434.309 322,444.5C 318.723,450.109 313.89,451.942 307.5,450C 300.304,445.672 298.804,439.838 303,432.5C 305.013,430.752 307.18,429.418 309.5,428.5 Z"/></g>
</svg>
