<?xml version="1.0" encoding="UTF-8"?>
<!DOCTYPE svg PUBLIC "-//W3C//DTD SVG 1.1//EN" "http://www.w3.org/Graphics/SVG/1.1/DTD/svg11.dtd">
<svg xmlns="http://www.w3.org/2000/svg" version="1.1" width="512px" height="512px" style="shape-rendering:geometricPrecision; text-rendering:geometricPrecision; image-rendering:optimizeQuality; fill-rule:evenodd; clip-rule:evenodd" xmlns:xlink="http://www.w3.org/1999/xlink">
<g><path style="opacity:0.941" fill="#000000" d="M 511.5,302.5 C 511.5,327.833 511.5,353.167 511.5,378.5C 508.21,395.243 500.544,409.743 488.5,422C 493.824,424.705 499.49,426.038 505.5,426C 508.146,426.804 510.146,428.304 511.5,430.5C 511.5,433.5 511.5,436.5 511.5,439.5C 509.99,440.836 508.323,442.003 506.5,443C 495.899,444.08 485.899,442.08 476.5,437C 470.877,433.045 465.543,428.712 460.5,424C 441.823,414.267 425.49,417.267 411.5,433C 391.301,446.187 370.634,446.853 349.5,435C 344.457,430.288 339.123,425.955 333.5,422C 323.642,417.772 313.642,417.439 303.5,421C 296.55,425.615 289.884,430.615 283.5,436C 263.432,446.533 243.765,445.866 224.5,434C 209.032,416.505 191.365,413.838 171.5,426C 155.614,442.383 136.614,447.383 114.5,441C 104.988,437.077 96.6548,431.41 89.5,424C 70.8235,414.267 54.4901,417.267 40.5,433C 29.82,441.004 17.82,444.337 4.5,443C 2.67694,442.003 1.01027,440.836 -0.5,439.5C -0.5,436.5 -0.5,433.5 -0.5,430.5C 3.40357,426.194 8.40357,424.361 14.5,425C 17.376,424.562 20.0427,423.562 22.5,422C 10.4596,409.75 2.79297,395.25 -0.5,378.5C -0.5,353.167 -0.5,327.833 -0.5,302.5C 11.2356,284.363 21.4023,265.363 30,245.5C 32.2954,242.203 34.962,239.203 38,236.5C 47.3207,219.865 55.4874,202.699 62.5,185C 54.0744,158.946 60.5744,137.446 82,120.5C 89.2917,88.5838 92.9584,56.2505 93,23.5C 95.2077,16.8903 99.7077,14.7236 106.5,17C 116.833,22.1667 127.167,27.3333 137.5,32.5C 216.167,11.1667 294.834,11.1667 373.5,32.5C 383.833,27.3333 394.167,22.1667 404.5,17C 411.292,14.7236 415.792,16.8903 418,23.5C 418.344,99.2096 436.677,170.21 473,236.5C 476.37,239.535 479.37,242.868 482,246.5C 484.061,253.412 486.728,260.079 490,266.5C 496.941,278.729 504.108,290.729 511.5,302.5 Z M 231.5,34.5 C 276.866,32.7032 321.533,37.3698 365.5,48.5C 365.333,66.5031 365.5,84.5031 366,102.5C 367.56,110.03 372.06,112.53 379.5,110C 380.667,108.833 381.833,107.667 383,106.5C 383.167,86.8249 383.667,67.1582 384.5,47.5C 389.745,44.961 394.912,42.2943 400,39.5C 402.57,99.0386 415.57,156.039 439,210.5C 424.773,198.639 410.273,187.139 395.5,176C 381.796,167.341 368.129,167.341 354.5,176C 328.667,203.833 302.833,231.667 277,259.5C 259.132,242.631 240.966,226.131 222.5,210C 229.365,203.469 235.865,196.636 242,189.5C 244.66,185.186 246.327,180.519 247,175.5C 247.667,152.167 247.667,128.833 247,105.5C 242.762,87.2786 231.262,77.2786 212.5,75.5C 195.216,76.9544 184.049,85.9544 179,102.5C 178.667,119.5 178.333,136.5 178,153.5C 176.459,157.05 174.126,160.05 171,162.5C 166.185,129.851 147.352,112.184 114.5,109.5C 110.605,110.06 106.772,110.726 103,111.5C 107.11,87.7478 109.776,63.7478 111,39.5C 116.088,42.2943 121.255,44.961 126.5,47.5C 127.333,61.4881 127.833,75.4881 128,89.5C 133.333,94.8333 138.667,94.8333 144,89.5C 145.427,75.8931 145.927,62.2264 145.5,48.5C 173.918,41.4905 202.585,36.8238 231.5,34.5 Z M 210.5,93.5 C 219.91,93.9484 226.077,98.615 229,107.5C 229.667,129.5 229.667,151.5 229,173.5C 228.194,176.446 226.861,179.112 225,181.5C 217,189.5 209,197.5 201,205.5C 199.04,211.294 200.54,216.127 205.5,220C 221.798,233.963 237.798,248.296 253.5,263C 225.161,263.833 196.827,263.667 168.5,262.5C 170.682,255.198 168.015,250.865 160.5,249.5C 158.701,249.577 157.034,250.077 155.5,251C 147.167,259.333 138.833,267.667 130.5,276C 128.33,277.586 125.996,278.92 123.5,280C 100.833,280.667 78.1667,280.667 55.5,280C 40.8244,272.945 38.8244,263.278 49.5,251C 51.7173,249.725 54.0506,248.725 56.5,248C 73.1667,247.667 89.8333,247.333 106.5,247C 110.049,246.226 113.382,244.893 116.5,243C 141.667,217.833 166.833,192.667 192,167.5C 193.927,164.052 195.261,160.385 196,156.5C 196.333,139.5 196.667,122.5 197,105.5C 199.858,99.466 204.358,95.466 210.5,93.5 Z M 114.5,127.5 C 137.721,129.888 150.388,142.721 152.5,166C 151.504,183.987 142.504,195.987 125.5,202C 97.1683,206.334 80.835,194.334 76.5,166C 79.3723,143.295 92.039,130.462 114.5,127.5 Z M 372.5,187.5 C 378.114,187.649 383.114,189.482 387.5,193C 411.5,211.667 435.5,230.333 459.5,249C 471.727,259.495 471.394,269.495 458.5,279C 454.928,280.405 451.261,280.738 447.5,280C 426.115,265.305 405.449,249.638 385.5,233C 381.063,230.101 376.397,229.768 371.5,232C 362.537,242.632 353.203,252.965 343.5,263C 328.5,263.667 313.5,263.667 298.5,263C 320.466,238.699 342.8,214.699 365.5,191C 367.925,189.787 370.259,188.621 372.5,187.5 Z M 73.5,204.5 C 83.9553,214.891 96.622,220.724 111.5,222C 109.129,224.706 106.463,227.039 103.5,229C 89.8333,229.667 76.1667,229.667 62.5,229C 66.5817,221.005 70.2484,212.838 73.5,204.5 Z M 378.5,251.5 C 395.831,264.174 412.831,277.341 429.5,291C 447.73,302.459 464.397,300.626 479.5,285.5C 484.251,292.666 488.751,300 493,307.5C 493.667,330.5 493.667,353.5 493,376.5C 490.342,389.653 484.175,400.82 474.5,410C 473.5,410.667 472.5,410.667 471.5,410C 459.198,401.177 445.532,398.177 430.5,401C 424.868,402.211 419.534,404.211 414.5,407C 407.727,413.107 400.393,418.44 392.5,423C 381.341,427.039 370.674,426.039 360.5,420C 341.082,399.814 318.416,395.147 292.5,406C 286.953,409.279 281.953,413.279 277.5,418C 258.593,429.775 241.593,427.442 226.5,411C 210.077,399.823 192.411,397.49 173.5,404C 169.673,405.746 166.007,407.746 162.5,410C 157.789,414.38 152.789,418.38 147.5,422C 137.977,426.219 128.311,426.553 118.5,423C 111.476,418.487 104.809,413.487 98.5,408C 82.767,399.615 66.4337,398.282 49.5,404C 45.8351,405.497 42.5017,407.497 39.5,410C 38.5,410.667 37.5,410.667 36.5,410C 26.827,400.825 20.6603,389.658 18,376.5C 17.3333,353.5 17.3333,330.5 18,307.5C 22.2491,300 26.7491,292.666 31.5,285.5C 36.9183,292.214 43.9183,296.38 52.5,298C 74.8408,298.167 97.1741,298.667 119.5,299.5C 117.28,325.206 128.613,341.706 153.5,349C 221.5,349.667 289.5,349.667 357.5,349C 379.229,343.105 390.896,328.939 392.5,306.5C 391.435,287.775 382.435,274.442 365.5,266.5C 370.077,261.655 374.411,256.655 378.5,251.5 Z M 158.5,281.5 C 223.501,281.333 288.501,281.5 353.5,282C 368.574,286.078 375.407,295.912 374,311.5C 371.491,322.009 364.991,328.509 354.5,331C 288.5,331.667 222.5,331.667 156.5,331C 137.86,323.557 132.693,310.724 141,292.5C 145.745,286.887 151.578,283.221 158.5,281.5 Z"/></g>
<g><path style="opacity:0.943" fill="#000000" d="M 39.5,314.5 C 45.2641,313.798 49.0974,316.131 51,321.5C 51.3333,329.833 51.6667,338.167 52,346.5C 54.7392,355.573 60.5725,361.74 69.5,365C 193.5,365.667 317.5,365.667 441.5,365C 450.427,361.74 456.261,355.573 459,346.5C 459.333,338.167 459.667,329.833 460,321.5C 463.037,314.765 467.871,313.098 474.5,316.5C 475.333,317.5 476.167,318.5 477,319.5C 477.667,329.5 477.667,339.5 477,349.5C 472.582,366.918 461.749,378.084 444.5,383C 318.5,383.667 192.5,383.667 66.5,383C 49.2513,378.084 38.418,366.918 34,349.5C 33.3333,339.5 33.3333,329.5 34,319.5C 35.4055,317.256 37.2389,315.59 39.5,314.5 Z"/></g>
<g><path style="opacity:0.934" fill="#000000" d="M 511.5,481.5 C 511.5,484.5 511.5,487.5 511.5,490.5C 510.038,491.458 508.705,492.624 507.5,494C 489.108,495.804 473.775,489.804 461.5,476C 450.057,468.632 438.057,467.632 425.5,473C 420.211,476.62 415.211,480.62 410.5,485C 395.294,494.848 378.961,497.181 361.5,492C 351.988,488.077 343.655,482.41 336.5,475C 322.396,467.137 308.73,467.803 295.5,477C 278.545,494.237 258.545,498.904 235.5,491C 226.995,486.911 219.328,481.577 212.5,475C 199.861,467.714 187.194,467.714 174.5,475C 157.012,493.9 136.012,499.234 111.5,491C 102.667,486.499 94.6671,480.832 87.5,474C 77.4633,468.895 67.13,468.228 56.5,472C 49.5505,476.615 42.8838,481.615 36.5,487C 26.3289,493.293 15.3289,495.626 3.5,494C 2.29493,492.624 0.961599,491.458 -0.5,490.5C -0.5,487.5 -0.5,484.5 -0.5,481.5C 3.88986,477.267 9.22319,475.434 15.5,476C 24.3982,473.764 31.7315,469.097 37.5,462C 64.8316,445.53 89.8316,448.53 112.5,471C 123.028,477.035 134.028,478.035 145.5,474C 152.833,468.667 160.167,463.333 167.5,458C 186.501,448.833 205.168,449.5 223.5,460C 230.418,467.621 238.751,472.954 248.5,476C 255.668,476.988 262.668,476.322 269.5,474C 276.45,469.385 283.116,464.385 289.5,459C 309.568,448.467 329.235,449.134 348.5,461C 369.741,481.898 390.741,481.565 411.5,460C 438.277,445.69 462.277,449.357 483.5,471C 490.976,475.159 498.976,477.492 507.5,478C 508.705,479.376 510.038,480.542 511.5,481.5 Z"/></g>
</svg>
