<?xml version="1.0" encoding="UTF-8"?>
<svg version="1.1" xmlns="http://www.w3.org/2000/svg" width="512" height="512">
<path d="M0 0 C2.7953022 2.16591878 3.88298363 3.35227456 4.51898193 6.8727417 C4.52786438 7.98304749 4.53674683 9.09335327 4.54589844 10.23730469 C4.56561707 11.49830994 4.58533569 12.75931519 4.60565186 14.05853271 C4.60731488 15.42964636 4.60854582 16.80076059 4.609375 18.171875 C4.62435931 19.57865299 4.64108699 20.98541339 4.65948486 22.39215088 C4.70314355 26.08779719 4.72315381 29.78320621 4.73822021 33.47906494 C4.75779694 37.25311302 4.7997662 41.02690504 4.83984375 44.80078125 C4.91512954 52.20045197 4.96543045 59.60001516 5 67 C5.47354416 66.45154922 5.94708832 65.90309845 6.4349823 65.33802795 C7.37245049 64.25816872 7.37245049 64.25816872 8.32885742 63.15649414 C8.94677658 62.44304337 9.56469574 61.72959259 10.20133972 60.99452209 C13.99783331 56.78461629 18.51973808 53.44443535 23 50 C23.78117187 49.3915625 24.56234375 48.783125 25.3671875 48.15625 C40.84279839 36.69283452 58.52786619 29.4526786 78 32 C81.80040943 33.15525112 84.7909972 34.68088874 88 37 C88.86625 37.5775 89.7325 38.155 90.625 38.75 C92.45510875 41.7447234 92.72202698 43.92268621 92.65258789 47.41134644 C91.22223148 53.08521394 86.26619545 56.81049842 82.15625 60.72265625 C81.14538228 61.71671847 80.13649772 62.71280104 79.1295166 63.71080017 C76.48567006 66.32043481 73.81593003 68.90190319 71.13970947 71.47827148 C68.40888197 74.11669913 65.70364761 76.78109061 62.99609375 79.44335938 C57.68866186 84.65453696 52.35358371 89.83620169 47 95 C47.82154572 95.02145584 48.64309143 95.04291168 49.48953247 95.0650177 C52.5907922 95.14934573 55.69179309 95.23994643 58.79275513 95.33454895 C60.77356824 95.39314839 62.75458398 95.44476659 64.7355957 95.49621582 C87.22151312 96.19690005 110.49327654 101.07529419 126.52734375 118.1328125 C131.25923375 124.13239717 132.44436297 129.99294258 132.53125 137.51953125 C131.80815641 140.89574028 130.748907 141.91142405 128 144 C125.20434998 144.3741618 122.80919187 144.50744226 120.01855469 144.45410156 C119.2181778 144.45468567 118.4178009 144.45526978 117.59317017 144.45587158 C114.95229455 144.45308875 112.31255299 144.42198834 109.671875 144.390625 C107.83913795 144.3831633 106.00639291 144.37747003 104.17364502 144.37347412 C99.35329098 144.35821221 94.53342015 144.31892562 89.71325684 144.2746582 C84.79327939 144.23371751 79.87322375 144.21546567 74.953125 144.1953125 C65.3018712 144.15243189 55.6509758 144.08417381 46 144 C46.25267136 144.63095078 46.50534271 145.26190155 46.76567078 145.91197205 C56.0599086 169.19114517 56.0599086 169.19114517 58.8125 179.5625 C59.09182373 180.58931885 59.37114746 181.6161377 59.65893555 182.67407227 C66.06091747 206.86036972 68.21935209 231.07638734 69 256 C69.70382812 256.31710937 70.40765625 256.63421875 71.1328125 256.9609375 C98.9421052 270.10318809 118.22685599 293.47405661 131 321 C132.20901009 324.62703026 132.78660475 328.24017363 132 332 C129.74239156 334.97027303 128.55170685 335.90985986 124.82354736 336.51898193 C123.57112244 336.52786438 122.31869751 336.53674683 121.02832031 336.54589844 C120.3352327 336.55623611 119.64214508 336.56657379 118.92805481 336.57722473 C116.64450757 336.60664696 114.36184687 336.60815168 112.078125 336.609375 C110.4919872 336.62435717 108.90586501 336.6410844 107.31976318 336.65948486 C103.15064781 336.70316707 98.98174288 336.72315921 94.81243896 336.73822021 C90.55582227 336.7577883 86.29943294 336.79975859 82.04296875 336.83984375 C73.69537198 336.9151552 65.34786448 336.96544078 57 337 C57.55429687 337.61270752 58.10859375 338.22541504 58.6796875 338.85668945 C59.40414063 339.66323975 60.12859375 340.46979004 60.875 341.30078125 C61.59429687 342.09911377 62.31359375 342.89744629 63.0546875 343.7199707 C68.22289178 349.77743302 68.60243947 355.78748236 68.40625 363.49609375 C67.3438005 372.6597207 62.05159548 379.35872362 55 385 C39.37342831 396.03052119 20.10775063 400.14250128 1.25 400.4375 C0.39188721 400.45981689 -0.46622559 400.48213379 -1.3503418 400.50512695 C-5.20546778 400.49089288 -7.32707594 400.46960191 -10.546875 398.22265625 C-12.79443103 394.78486222 -12.80651133 391.96738404 -12 388 C-10.18839213 385.38323308 -9.02532019 384.27289891 -5.9453125 383.453125 C-2.68690152 382.951831 0.55509357 382.67163965 3.83984375 382.40527344 C19.72894105 381.07321754 35.6232548 377.83229665 48 367 C50.47548781 363.28676829 50.6439625 360.30438091 50 356 C45.54289816 347.4909874 33.95865498 343.89789682 25.44140625 341.03125 C11.53602391 336.86437039 -3.06918822 336.85287417 -17.47738647 336.84178162 C-18.87952836 336.83720181 -20.28166893 336.83219978 -21.68380797 336.82681805 C-25.49450455 336.81338877 -29.30519235 336.80586341 -33.11590624 336.79939139 C-37.24113509 336.7913196 -41.36634604 336.77764564 -45.49156189 336.76467896 C-52.62478442 336.74301145 -59.75800885 336.72483187 -66.8912468 336.70907402 C-77.20449841 336.68628616 -87.51773013 336.65815611 -97.83096476 336.62875474 C-114.56666299 336.58118758 -131.30236941 336.53789422 -148.03808594 336.49731445 C-164.28776688 336.45790399 -180.53744059 336.41646462 -196.78710938 336.37231445 C-197.79004876 336.36959018 -198.79298814 336.36686591 -199.82631962 336.36405908 C-204.85816284 336.35037869 -209.89000595 336.3366586 -214.92184901 336.32291877 C-256.6145509 336.20912501 -298.30726856 336.10234981 -340 336 C-340 330.72 -340 325.44 -340 320 C-337.58367249 320.01633987 -335.16734497 320.03267975 -332.67779541 320.04951477 C-309.90090635 320.19732349 -287.12459045 320.27295134 -264.34721756 320.28240681 C-252.63712807 320.28899697 -240.9280444 320.31976021 -229.21826172 320.40795898 C-219.00874596 320.48479576 -208.80028389 320.51573883 -198.5904882 320.49218339 C-193.1867876 320.48130296 -187.78531176 320.49298675 -182.38196564 320.55968666 C-177.28868014 320.62183261 -172.19899939 320.62229631 -167.10557365 320.5768013 C-165.24320717 320.5707912 -163.38061074 320.58672778 -161.51867104 320.62704659 C-150.63104589 321.00456368 -150.63104589 321.00456368 -141.28993988 316.14607811 C-138.18794548 313.00021731 -135.6168398 309.55290861 -133 306 C-112.18615694 284.06880749 -78.75257651 273.57783948 -49.375 272.25 C-38.80204257 271.71680252 -32.82243153 268.75028945 -24.67382812 262.25878906 C-17.5188008 256.87790795 -8.86651124 253.71735583 -0.375 251.125 C0.28097168 250.92156982 0.93694336 250.71813965 1.61279297 250.50854492 C7.65584438 248.79711359 13.74974463 248.38630323 20 248 C17.85757673 223.0699838 14.23653475 199.48578283 5.56323242 175.88745117 C5 174 5 174 5 171 C4.44054687 171.3609375 3.88109375 171.721875 3.3046875 172.09375 C-4.05830812 176.35529087 -10.5913583 177.08369129 -19 176 C-24.67066669 174.30780105 -28.53965299 170.73369095 -33 167 C-33.49366562 167.51365112 -33.98733124 168.02730225 -34.49595642 168.55651855 C-39.16471704 173.40601902 -43.85519557 178.23331907 -48.57089901 183.03720856 C-50.99430053 185.50747414 -53.40867018 187.98534753 -55.80395508 190.48291016 C-58.56149519 193.35743615 -61.35560842 196.19482341 -64.15234375 199.03125 C-65.00271713 199.92807495 -65.85309052 200.8248999 -66.72923279 201.74890137 C-73.51452901 208.53982141 -73.51452901 208.53982141 -78.98510742 208.64086914 C-81.59204985 208.40257568 -82.83585503 208.10113051 -85.0859375 206.71484375 C-85.51132812 206.12832031 -85.93671875 205.54179687 -86.375 204.9375 C-86.81585938 204.36902344 -87.25671875 203.80054688 -87.7109375 203.21484375 C-93.45117025 193.35208021 -93.76923934 182.04133542 -91.19140625 170.98828125 C-89.04412013 163.99659876 -85.93871469 157.85573421 -82.30859375 151.54296875 C-81.68543274 150.44776917 -81.68543274 150.44776917 -81.04968262 149.33044434 C-80.03680082 147.55152972 -79.01892226 145.77546168 -78 144 C-78.71774597 144.00888245 -79.43549194 144.01776489 -80.17498779 144.0269165 C-86.94307594 144.1071049 -93.71109297 144.16798592 -100.47953415 144.20724869 C-103.9592187 144.22811308 -107.43851033 144.25640821 -110.91796875 144.30175781 C-114.91930893 144.35358227 -118.92023719 144.37295453 -122.921875 144.390625 C-124.16990906 144.41127014 -125.41794312 144.43191528 -126.70379639 144.45318604 C-128.44514862 144.45363922 -128.44514862 144.45363922 -130.22167969 144.45410156 C-131.75390167 144.46742523 -131.75390167 144.46742523 -133.31707764 144.48101807 C-136.7187884 143.87112925 -137.88779633 142.68016016 -140 140 C-141.54935991 133.31103928 -139.92021439 127.19293313 -136.59765625 121.34375 C-127.97340404 108.69203527 -114.31787355 102.92699854 -100 99 C-98.88238281 98.67902344 -97.76476562 98.35804688 -96.61328125 98.02734375 C-87.03143113 95.76100956 -77.42254784 95.71258744 -67.625 95.6875 C-66.92931915 95.68382416 -66.23363831 95.68014832 -65.51687622 95.67636108 C-57.49017032 95.65424634 -49.80679167 95.96744187 -42 98 C-42.14002441 97.45649902 -42.28004883 96.91299805 -42.42431641 96.35302734 C-44.24514496 88.46599014 -44.39835375 80.68971157 -44.375 72.625 C-44.37418427 71.56685593 -44.37418427 71.56685593 -44.37335205 70.48733521 C-44.29066965 47.11103652 -39.84915127 24.8853873 -23.625 7.125 C-17.154703 1.04292082 -8.86465785 -1.89857239 0 0 Z M-13 21 C-24.5772518 35.17846976 -27.58108222 54.05425047 -27.4375 71.8125 C-27.43065186 73.11606445 -27.42380371 74.41962891 -27.41674805 75.76269531 C-27.2957571 83.05477903 -26.9221259 90.12392781 -25.3125 97.25 C-25.16417725 97.92780518 -25.01585449 98.60561035 -24.86303711 99.30395508 C-24.36119406 101.36369978 -24.36119406 101.36369978 -23 104 C-20.47631677 105.20259273 -20.47631677 105.20259273 -18 106 C-12.44277225 95.38189199 -11.16150086 86.93281948 -11.4140625 75.1015625 C-11.4252878 73.52975098 -11.43381216 71.95791812 -11.43978882 70.38607788 C-11.46242614 66.29870064 -11.52112201 62.21265391 -11.5880127 58.12579346 C-11.6499865 53.93560778 -11.67691994 49.74520182 -11.70703125 45.5546875 C-11.77089867 37.36918892 -11.87296082 29.18476109 -12 21 C-12.33 21 -12.66 21 -13 21 Z M17.36474609 78.42822266 C8.50196639 88.63548129 -0.16596611 100.28550212 -2 114 C-0.29113021 112.91751309 1.41706871 111.83396706 3.125 110.75 C4.07632812 110.14671875 5.02765625 109.5434375 6.0078125 108.921875 C6.99523437 108.28765625 7.98265625 107.6534375 9 107 C9.93731964 106.40974533 10.87463928 105.81949066 11.84036255 105.21134949 C15.09233834 102.93537476 17.74346967 100.50375335 20.54638672 97.6965332 C21.06420212 97.18061615 21.58201752 96.6646991 22.11552429 96.13314819 C23.80848986 94.44385742 25.49419894 92.74752959 27.1796875 91.05078125 C28.35901991 89.87025572 29.53872334 88.69010073 30.71878052 87.51029968 C33.18119439 85.04632699 35.64022701 82.57904633 38.09667969 80.10913086 C41.25255137 76.93618604 44.4150505 73.76994841 47.57984734 70.60590839 C50.01126175 68.1742229 52.44006799 65.73994681 54.86798477 63.30476952 C56.0340456 62.13551853 57.20072014 60.96687927 58.36800766 59.79885292 C59.99120472 58.17350072 61.6110741 56.54490761 63.22998047 54.9152832 C64.61514359 53.52440239 64.61514359 53.52440239 66.02828979 52.10542297 C68.11392486 50.35910234 68.11392486 50.35910234 68 49 C49.59825907 47.0106226 28.84778102 65.76873337 17.36474609 78.42822266 Z M-117 125 C-117.66 125.99 -118.32 126.98 -119 128 C-85.34 128 -51.68 128 -17 128 C-29.5121155 115.4878845 -49.58619769 112.02682398 -66.83398438 111.95654297 C-84.6544148 112.3140764 -101.62260178 115.63890024 -117 125 Z M11 125 C10.34 125.99 9.68 126.98 9 128 C42.66 128 76.32 128 111 128 C98.4878845 115.4878845 78.41380231 112.02682398 61.16601562 111.95654297 C43.3455852 112.3140764 26.37739822 115.63890024 11 125 Z M-61.3125 149.0625 C-62.27515529 150.73427173 -63.23591733 152.41033943 -64.08496094 154.14257812 C-65.0545668 156.1107642 -66.12503775 157.99339729 -67.2265625 159.890625 C-71.60772335 167.59549076 -75.44524187 174.87254158 -75 184 C-69.78066785 179.63437815 -64.90062363 175.04761468 -60.09765625 170.23046875 C-59.3750914 169.50886063 -58.65252655 168.7872525 -57.9080658 168.04377747 C-56.39508309 166.53147082 -54.88334464 165.01791842 -53.37280273 163.50317383 C-51.04850267 161.17347013 -48.718852 158.84921149 -46.38867188 156.52539062 C-44.9163455 155.05240429 -43.4443289 153.57910823 -41.97265625 152.10546875 C-41.27278091 151.40761765 -40.57290558 150.70976654 -39.8518219 149.99076843 C-39.21373093 149.3495253 -38.57563995 148.70828217 -37.91821289 148.04760742 C-37.35308487 147.48168381 -36.78795685 146.91576019 -36.20570374 146.33268738 C-34.88818423 145.17593423 -34.88818423 145.17593423 -35 144 C-49.67923129 141.89367718 -49.67923129 141.89367718 -61.3125 149.0625 Z M-17.375 146.625 C-19.48706506 149.71186432 -19.61195145 151.3282913 -19 155 C-17.5 157.5 -17.5 157.5 -15 159 C-11.3282913 159.61195145 -9.71186432 159.48706506 -6.625 157.375 C-4.51293494 154.28813568 -4.38804855 152.6717087 -5 149 C-6.5 146.5 -6.5 146.5 -9 145 C-12.6717087 144.38804855 -14.28813568 144.51293494 -17.375 146.625 Z M14.625 146.625 C12.51293494 149.71186432 12.38804855 151.3282913 13 155 C14.5 157.5 14.5 157.5 17 159 C20.6717087 159.61195145 22.28813568 159.48706506 25.375 157.375 C27.48706506 154.28813568 27.61195145 152.6717087 27 149 C25.5 146.5 25.5 146.5 23 145 C19.3282913 144.38804855 17.71186432 144.51293494 14.625 146.625 Z M36 170 C35.113125 170.61875 34.22625 171.2375 33.3125 171.875 C30.53938816 173.65397741 28.0859646 174.91083602 25 176 C26.07321945 180.92448544 27.19433165 185.82943237 28.40234375 190.72265625 C33.02598525 209.67315845 35.78362829 228.53805261 37 248 C41.62 248.66 46.24 249.32 51 250 C51.69742697 223.96272639 48.09554341 195.22930419 38 171 C37.34 170.67 36.68 170.34 36 170 Z M-39.6015625 296.81640625 C-49.18759376 307.2825735 -49.18759376 307.2825735 -54 320 C0.45 320 54.9 320 111 320 C106.52323343 311.79259463 102.87404595 305.84038622 97 299 C96.33355469 298.18789063 95.66710937 297.37578125 94.98046875 296.5390625 C80.80385177 279.8637839 61.58344642 268.84112182 40 265 C8.04678881 262.75282975 -17.74318007 273.15290215 -39.6015625 296.81640625 Z M-64.23828125 290.78515625 C-65.05111572 290.98294678 -65.8639502 291.1807373 -66.70141602 291.38452148 C-67.99390259 291.72012085 -67.99390259 291.72012085 -69.3125 292.0625 C-70.20316162 292.29074463 -71.09382324 292.51898926 -72.01147461 292.75415039 C-90.81762475 297.74360599 -108.13434448 306.13434448 -122 320 C-106.16 320 -90.32 320 -74 320 C-70.7 314.06 -67.4 308.12 -64 302 C-58.796875 294.546875 -58.796875 294.546875 -56 291 C-59.08860889 290.02261413 -61.10308773 290.0180754 -64.23828125 290.78515625 Z " fill="#000000" transform="translate(364,96)"/>
<path d="M0 0 C8.80288754 6.34043826 15.4186507 14.72648904 17.58203125 25.4921875 C18.92007691 37.90936834 17.85729499 48.88109459 10.39453125 59.2421875 C3.58210875 67.3274193 -4.72289951 73.55522767 -15.48876953 74.71533203 C-28.40007937 75.61089799 -39.16843729 74.04490094 -49.3515625 65.46484375 C-57.86959925 57.33325857 -62.42046403 48.68416257 -62.88867188 36.85693359 C-63.04371176 24.34263074 -60.22647828 14.71931927 -51.41796875 5.4921875 C-37.63784493 -7.66275112 -16.31305228 -10.17259803 0 0 Z M-41.97265625 21.39453125 C-46.0977477 27.38148831 -46.13405017 33.44153962 -45.41796875 40.4921875 C-43.64454442 47.13691664 -38.97130405 51.66586709 -33.41796875 55.4921875 C-27.41909871 58.43281007 -20.53513345 58.59102538 -14.10546875 56.875 C-7.97664014 54.16969675 -3.17844083 49.08355055 -0.24609375 43.1015625 C1.66008982 37.09528598 1.64641812 29.98927192 -0.91796875 24.1796875 C-4.40259013 18.23971013 -9.85252705 13.57583067 -16.41796875 11.4921875 C-27.85241972 10.13582504 -34.59614364 12.76572696 -41.97265625 21.39453125 Z " fill="#000000" transform="translate(166.41796875,69.5078125)"/>
<path d="M0 0 C1.0094165 -0.0112793 2.01883301 -0.02255859 3.05883789 -0.03417969 C4.16026123 -0.02608276 5.26168457 -0.01798584 6.39648438 -0.00964355 C7.56107178 -0.01665283 8.72565918 -0.02366211 9.92553711 -0.03088379 C13.78067771 -0.04850975 17.63508612 -0.03682384 21.49023438 -0.02331543 C24.1653739 -0.026009 26.84049107 -0.02988396 29.515625 -0.03491211 C35.12442987 -0.0421874 40.733024 -0.03260414 46.34179688 -0.0135498 C52.82441344 0.008219 59.30652679 0.00116752 65.78913116 -0.02085543 C71.35700027 -0.03901302 76.92471797 -0.04156609 82.49260712 -0.03110075 C85.81719107 -0.02486765 89.14148689 -0.02559741 92.46606445 -0.0372467 C96.17238595 -0.04738291 99.87773545 -0.03195028 103.58398438 -0.00964355 C104.68540771 -0.01774048 105.78683105 -0.0258374 106.92163086 -0.03417969 C108.43575562 -0.01726074 108.43575562 -0.01726074 109.98046875 0 C110.85650757 0.0015081 111.73254639 0.0030162 112.63513184 0.00457001 C115.76922829 0.67443175 116.98468568 2.06729702 118.99023438 4.50793457 C119.52148438 6.50793457 119.52148438 6.50793457 119.49023438 8.50793457 C119.50570312 9.49793457 119.50570312 9.49793457 119.52148438 10.50793457 C118.75060311 13.41007581 117.27232168 14.5993654 114.99023438 16.50793457 C112.63513184 17.01129913 112.63513184 17.01129913 109.98046875 17.01586914 C108.97105225 17.02714844 107.96163574 17.03842773 106.92163086 17.05004883 C105.82020752 17.0419519 104.71878418 17.03385498 103.58398438 17.0255127 C102.41939697 17.03252197 101.25480957 17.03953125 100.05493164 17.04675293 C96.19979104 17.06437889 92.34538263 17.05269298 88.49023438 17.03918457 C85.81509485 17.04187814 83.13997768 17.0457531 80.46484375 17.05078125 C74.85603888 17.05805654 69.24744475 17.04847328 63.63867188 17.02941895 C57.15605531 17.00765014 50.67394196 17.01470162 44.19133759 17.03672457 C38.62346848 17.05488216 33.05575078 17.05743523 27.48786163 17.04696989 C24.16327768 17.04073679 20.83898186 17.04146655 17.5144043 17.05311584 C13.8080828 17.06325205 10.1027333 17.04781942 6.39648438 17.0255127 C5.29506104 17.03360962 4.1936377 17.04170654 3.05883789 17.05004883 C1.54471313 17.03312988 1.54471313 17.03312988 0 17.01586914 C-0.87603882 17.01436104 -1.75207764 17.01285294 -2.65466309 17.01129913 C-5.78875954 16.34143739 -7.00421693 14.94857212 -9.00976562 12.50793457 C-9.54101562 10.50793457 -9.54101562 10.50793457 -9.50976562 8.50793457 C-9.52523437 7.51793457 -9.52523437 7.51793457 -9.54101562 6.50793457 C-8.23625145 1.59588121 -4.74608273 0.00817039 0 0 Z " fill="#000000" transform="translate(65.009765625,479.4920654296875)"/>
<path d="M0 0 C0.67546875 0.3815625 1.3509375 0.763125 2.046875 1.15625 C5.2524526 3.39928276 5.2524526 3.39928276 8.171875 2.40625 C8.935 1.9525 9.698125 1.49875 10.484375 1.03125 C17.02807334 -2.10235202 24.94404308 -2.11471237 31.9296875 -0.3515625 C37.97833418 2.32881819 42.78120201 7.53406813 45.65625 13.4375 C47.09447491 17.94212897 47.04467045 22.36212123 46.484375 27.03125 C44.984375 29.71875 44.984375 29.71875 42.484375 31.03125 C38.56374898 31.77841848 35.59814513 31.72359359 32.171875 29.59375 C30.14145992 26.5105271 29.18055909 23.49812342 28.1953125 19.95703125 C27.66132438 17.83464309 27.66132438 17.83464309 25.484375 17.03125 C21.41422691 16.57002347 21.41422691 16.57002347 17.88671875 18.26171875 C15.78955237 20.9080039 15.2147825 23.75852282 14.328125 26.97265625 C13.484375 29.03125 13.484375 29.03125 10.484375 31.03125 C3.54721162 31.69193223 3.54721162 31.69193223 0.171875 29.59375 C-1.85854008 26.5105271 -2.81944091 23.49812342 -3.8046875 19.95703125 C-4.33867562 17.83464309 -4.33867562 17.83464309 -6.515625 17.03125 C-10.58577309 16.57002347 -10.58577309 16.57002347 -14.11328125 18.26171875 C-16.21044763 20.9080039 -16.7852175 23.75852282 -17.671875 26.97265625 C-18.515625 29.03125 -18.515625 29.03125 -21.515625 31.03125 C-28.28721809 31.67616363 -28.28721809 31.67616363 -32.015625 29.71875 C-34.77635893 24.77243503 -34.38364398 19.15611832 -32.890625 13.78125 C-30.19350611 7.61640683 -25.16281427 2.86708352 -19.1875 -0.140625 C-13.29725319 -1.96625705 -5.78974564 -2.22959149 0 0 Z " fill="#000000" transform="translate(65.515625,304.96875)"/>
<path d="M0 0 C0.67546875 0.3815625 1.3509375 0.763125 2.046875 1.15625 C5.2524526 3.39928276 5.2524526 3.39928276 8.171875 2.40625 C8.935 1.9525 9.698125 1.49875 10.484375 1.03125 C17.02807334 -2.10235202 24.94404308 -2.11471237 31.9296875 -0.3515625 C37.97833418 2.32881819 42.78120201 7.53406813 45.65625 13.4375 C47.09447491 17.94212897 47.04467045 22.36212123 46.484375 27.03125 C44.984375 29.71875 44.984375 29.71875 42.484375 31.03125 C38.56374898 31.77841848 35.59814513 31.72359359 32.171875 29.59375 C30.14145992 26.5105271 29.18055909 23.49812342 28.1953125 19.95703125 C27.66132438 17.83464309 27.66132438 17.83464309 25.484375 17.03125 C21.41422691 16.57002347 21.41422691 16.57002347 17.88671875 18.26171875 C15.78955237 20.9080039 15.2147825 23.75852282 14.328125 26.97265625 C13.484375 29.03125 13.484375 29.03125 10.484375 31.03125 C3.54721162 31.69193223 3.54721162 31.69193223 0.171875 29.59375 C-1.85854008 26.5105271 -2.81944091 23.49812342 -3.8046875 19.95703125 C-4.33867562 17.83464309 -4.33867562 17.83464309 -6.515625 17.03125 C-10.58577309 16.57002347 -10.58577309 16.57002347 -14.11328125 18.26171875 C-16.21044763 20.9080039 -16.7852175 23.75852282 -17.671875 26.97265625 C-18.515625 29.03125 -18.515625 29.03125 -21.515625 31.03125 C-28.28721809 31.67616363 -28.28721809 31.67616363 -32.015625 29.71875 C-34.77635893 24.77243503 -34.38364398 19.15611832 -32.890625 13.78125 C-30.19350611 7.61640683 -25.16281427 2.86708352 -19.1875 -0.140625 C-13.29725319 -1.96625705 -5.78974564 -2.22959149 0 0 Z " fill="#000000" transform="translate(129.515625,256.96875)"/>
<path d="M0 0 C0.85247314 -0.00700928 1.70494629 -0.01401855 2.58325195 -0.02124023 C5.3995832 -0.03883756 8.21490864 -0.02719147 11.03125 -0.01367188 C12.98893425 -0.01636629 14.9466172 -0.02024829 16.90429688 -0.02526855 C21.00664007 -0.03116595 25.10863482 -0.02259281 29.2109375 -0.00390625 C34.47045628 0.01888337 39.72915864 0.00576159 44.98864746 -0.01819611 C49.0309871 -0.03264751 53.07313305 -0.0280511 57.11547852 -0.01768494 C59.05476986 -0.01501583 60.99407877 -0.01829385 62.93334961 -0.02760315 C65.6435405 -0.03775789 68.35240775 -0.02228315 71.0625 0 C71.86469971 -0.00809692 72.66689941 -0.01619385 73.4934082 -0.02453613 C77.09387563 0.03033112 79.1245547 0.20680866 82.02734375 2.42492676 C83.65685192 4.69235034 84.0743805 5.75722605 84.03125 8.51757812 C84.04671875 9.50757813 84.04671875 9.50757813 84.0625 10.51757812 C83.25733917 13.54877184 82.02578717 14.61141893 79.53125 16.51757812 C76.5833973 16.912136 74.00947717 17.06490127 71.0625 17.03515625 C69.78379028 17.04567017 69.78379028 17.04567017 68.47924805 17.05639648 C65.6629168 17.07399381 62.84759136 17.06234772 60.03125 17.04882812 C58.07356575 17.05152254 56.1158828 17.05540454 54.15820312 17.0604248 C50.05585993 17.0663222 45.95386518 17.05774906 41.8515625 17.0390625 C36.59204372 17.01627288 31.33334136 17.02939466 26.07385254 17.05335236 C22.0315129 17.06780376 17.98936695 17.06320735 13.94702148 17.05284119 C12.00773014 17.05017208 10.06842123 17.0534501 8.12915039 17.0627594 C5.4189595 17.07291414 2.71009225 17.0574394 0 17.03515625 C-0.80219971 17.04325317 -1.60439941 17.0513501 -2.4309082 17.05969238 C-6.03137563 17.00482513 -8.0620547 16.82834759 -10.96484375 14.61022949 C-12.59435192 12.34280591 -13.0118805 11.2779302 -12.96875 8.51757812 C-12.98421875 7.52757812 -12.98421875 7.52757812 -13 6.51757812 C-11.24883612 -0.07503884 -5.81974348 -0.05874101 0 0 Z " fill="#000000" transform="translate(140.46875,447.482421875)"/>
<path d="M0 0 C0.69641602 -0.00700928 1.39283203 -0.01401855 2.11035156 -0.02124023 C4.40730932 -0.03881383 6.70303021 -0.02720107 9 -0.01367188 C10.59896073 -0.01636701 12.19791987 -0.0202496 13.796875 -0.02526855 C17.14599226 -0.03116269 20.49468243 -0.0226038 23.84375 -0.00390625 C28.13478591 0.01888377 32.42482111 0.00576017 36.71582031 -0.01819611 C40.01700366 -0.03265667 43.31795011 -0.02804703 46.61914062 -0.01768494 C48.20117308 -0.01501834 49.78322711 -0.0182851 51.36523438 -0.02760315 C53.57740163 -0.03777366 55.787953 -0.02226378 58 0 C59.8871875 0.00477356 59.8871875 0.00477356 61.8125 0.00964355 C65.55520109 0.60605054 66.73159929 1.54273163 69 4.51757812 C69.53125 6.51757812 69.53125 6.51757812 69.5 8.51757812 C69.51546875 9.50757813 69.51546875 9.50757813 69.53125 10.51757812 C68.74176632 13.48975197 67.39936627 14.61414098 65 16.51757812 C61.8125 17.0255127 61.8125 17.0255127 58 17.03515625 C57.30358398 17.04216553 56.60716797 17.0491748 55.88964844 17.05639648 C53.59269068 17.07397008 51.29696979 17.06235732 49 17.04882812 C47.40103927 17.05152326 45.80208013 17.05540585 44.203125 17.0604248 C40.85400774 17.06631894 37.50531757 17.05776005 34.15625 17.0390625 C29.86521409 17.01627248 25.57517889 17.02939608 21.28417969 17.05335236 C17.98299634 17.06781292 14.68204989 17.06320328 11.38085938 17.05284119 C9.79882692 17.05017459 8.21677289 17.05344135 6.63476562 17.0627594 C4.42259837 17.07292991 2.212047 17.05742003 0 17.03515625 C-1.258125 17.03197388 -2.51625 17.0287915 -3.8125 17.0255127 C-7.55520109 16.42910571 -8.73159929 15.49242462 -11 12.51757812 C-11.53125 10.51757812 -11.53125 10.51757812 -11.5 8.51757812 C-11.51546875 7.52757812 -11.51546875 7.52757812 -11.53125 6.51757812 C-9.93997703 0.52690342 -5.4948528 0.01389899 0 0 Z " fill="#000000" transform="translate(267,447.482421875)"/>
<path d="M0 0 C0.69641602 -0.00700928 1.39283203 -0.01401855 2.11035156 -0.02124023 C4.40730932 -0.03881383 6.70303021 -0.02720107 9 -0.01367188 C10.59896073 -0.01636701 12.19791987 -0.0202496 13.796875 -0.02526855 C17.14599226 -0.03116269 20.49468243 -0.0226038 23.84375 -0.00390625 C28.13478591 0.01888377 32.42482111 0.00576017 36.71582031 -0.01819611 C40.01700366 -0.03265667 43.31795011 -0.02804703 46.61914062 -0.01768494 C48.20117308 -0.01501834 49.78322711 -0.0182851 51.36523438 -0.02760315 C53.57740163 -0.03777366 55.787953 -0.02226378 58 0 C59.8871875 0.00477356 59.8871875 0.00477356 61.8125 0.00964355 C65.55520109 0.60605054 66.73159929 1.54273163 69 4.51757812 C69.53125 6.51757812 69.53125 6.51757812 69.5 8.51757812 C69.51546875 9.50757813 69.51546875 9.50757813 69.53125 10.51757812 C68.74176632 13.48975197 67.39936627 14.61414098 65 16.51757812 C61.8125 17.0255127 61.8125 17.0255127 58 17.03515625 C57.30358398 17.04216553 56.60716797 17.0491748 55.88964844 17.05639648 C53.59269068 17.07397008 51.29696979 17.06235732 49 17.04882812 C47.40103927 17.05152326 45.80208013 17.05540585 44.203125 17.0604248 C40.85400774 17.06631894 37.50531757 17.05776005 34.15625 17.0390625 C29.86521409 17.01627248 25.57517889 17.02939608 21.28417969 17.05335236 C17.98299634 17.06781292 14.68204989 17.06320328 11.38085938 17.05284119 C9.79882692 17.05017459 8.21677289 17.05344135 6.63476562 17.0627594 C4.42259837 17.07292991 2.212047 17.05742003 0 17.03515625 C-1.258125 17.03197388 -2.51625 17.0287915 -3.8125 17.0255127 C-7.55520109 16.42910571 -8.73159929 15.49242462 -11 12.51757812 C-11.53125 10.51757812 -11.53125 10.51757812 -11.5 8.51757812 C-11.51546875 7.52757812 -11.51546875 7.52757812 -11.53125 6.51757812 C-9.93997703 0.52690342 -5.4948528 0.01389899 0 0 Z " fill="#000000" transform="translate(27,447.482421875)"/>
<path d="M0 0 C0.87269531 -0.0038269 1.74539062 -0.00765381 2.64453125 -0.01159668 C4.48699092 -0.0143149 6.32948924 -0.00695994 8.171875 0.00976562 C10.99045934 0.03117752 13.80649485 0.00996199 16.625 -0.015625 C18.41667229 -0.01298171 20.20834299 -0.00785669 22 0 C22.84175781 -0.00809692 23.68351562 -0.01619385 24.55078125 -0.02453613 C30.38715618 0.06889601 30.38715618 0.06889601 33.52929688 2.43945312 C35.12144695 4.7039853 35.542797 5.7922417 35.5 8.53125 C35.5103125 9.19125 35.520625 9.85125 35.53125 10.53125 C34.72011424 13.58493756 33.53019712 14.62236769 31 16.53125 C28.00263779 17.13239553 25.04890723 17.09182764 22 17.0625 C21.12730469 17.0663269 20.25460938 17.07015381 19.35546875 17.07409668 C17.51300908 17.0768149 15.67051076 17.06945994 13.828125 17.05273438 C11.00954066 17.03132248 8.19350515 17.05253801 5.375 17.078125 C3.58332771 17.07548171 1.79165701 17.07035669 0 17.0625 C-0.84175781 17.07059692 -1.68351563 17.07869385 -2.55078125 17.08703613 C-8.38715618 16.99360399 -8.38715618 16.99360399 -11.52929688 14.62304688 C-13.12144695 12.3585147 -13.542797 11.2702583 -13.5 8.53125 C-13.51546875 7.54125 -13.51546875 7.54125 -13.53125 6.53125 C-11.69061453 -0.39820116 -5.94975317 -0.05723107 0 0 Z " fill="#000000" transform="translate(229,479.46875)"/>
<path d="M0 0 C4.32314223 1.16543725 7.10138906 4.45011431 10.14453125 7.578125 C10.81226563 8.22265625 11.48 8.8671875 12.16796875 9.53125 C17.98667238 15.18370495 17.98667238 15.18370495 18.51953125 19.890625 C18.14453125 23.578125 18.14453125 23.578125 16.08203125 26.515625 C13.14453125 28.578125 13.14453125 28.578125 9.83203125 29.328125 C4.52504807 28.24873859 1.87774305 25.34786529 -1.85546875 21.578125 C-2.52449219 20.93359375 -3.19351563 20.2890625 -3.8828125 19.625 C-9.7475624 13.91616369 -9.7475624 13.91616369 -10.16796875 8.703125 C-10.10887502 5.74843847 -9.92111839 4.68754107 -8.35546875 2.078125 C-5.54298177 0.39063281 -3.29122435 -0.17097269 0 0 Z " fill="#000000" transform="translate(190.85546875,140.421875)"/>
<path d="M0 0 C2.5 1.5 2.5 1.5 4 4 C4.76636559 8.18017597 4.99987848 10.45607 2.671875 14.05078125 C0.86851601 16.14251522 -1.02066433 18.07436724 -3 20 C-3.64453125 20.66773438 -4.2890625 21.33546875 -4.953125 22.0234375 C-10.60557995 27.84214113 -10.60557995 27.84214113 -15.3125 28.375 C-19 28 -19 28 -21.9375 25.9375 C-24 23 -24 23 -24.75 19.6875 C-23.67061359 14.38051682 -20.76974029 11.7332118 -17 8 C-16.35546875 7.33097656 -15.7109375 6.66195312 -15.046875 5.97265625 C-10.23892496 1.03339665 -7.2293741 -0.98582374 0 0 Z " fill="#000000" transform="translate(103,141)"/>
<path d="M0 0 C5.30698318 1.07938641 7.9542882 3.98025971 11.6875 7.75 C12.35652344 8.39453125 13.02554688 9.0390625 13.71484375 9.703125 C19.57959365 15.41196131 19.57959365 15.41196131 20 20.625 C19.94090627 23.57968653 19.75314964 24.64058393 18.1875 27.25 C15.37501302 28.93749219 13.1232556 29.49909769 9.83203125 29.328125 C5.50888902 28.16268775 2.73064219 24.87801069 -0.3125 21.75 C-0.98023437 21.10546875 -1.64796875 20.4609375 -2.3359375 19.796875 C-8.15464113 14.14442005 -8.15464113 14.14442005 -8.6875 9.4375 C-8.3125 5.75 -8.3125 5.75 -6.25 2.8125 C-3.3125 0.75 -3.3125 0.75 0 0 Z " fill="#000000" transform="translate(87.3125,38.25)"/>
<path d="M0 0 C3.57632467 2.51103647 4.78325846 4.04272488 5.75 8.3125 C4.67061359 13.61948318 1.76974029 16.2667882 -2 20 C-2.64453125 20.66902344 -3.2890625 21.33804688 -3.953125 22.02734375 C-9.61429741 27.84312801 -9.61429741 27.84312801 -14.3125 28.375 C-18 28 -18 28 -20.9375 25.9375 C-23 23 -23 23 -23.75 19.6875 C-22.67061359 14.38051682 -19.76974029 11.7332118 -16 8 C-15.35546875 7.33097656 -14.7109375 6.66195312 -14.046875 5.97265625 C-9.36340275 1.16127404 -7.08542287 -0.72055148 0 0 Z " fill="#000000" transform="translate(204,39)"/>
<path d="M0 0 C0.66 -0.0103125 1.32 -0.020625 2 -0.03125 C4.91796104 0.7438334 6.0931088 2.19104167 8 4.5 C8.51757812 7.09375 8.51757812 7.09375 8.53125 10 C8.53640625 11.051875 8.5415625 12.10375 8.546875 13.1875 C8.53140625 14.280625 8.5159375 15.37375 8.5 16.5 C8.51546875 17.593125 8.5309375 18.68625 8.546875 19.8125 C8.54171875 20.864375 8.5365625 21.91625 8.53125 23 C8.52673828 23.9590625 8.52222656 24.918125 8.51757812 25.90625 C7.857725 29.21298564 6.58886445 30.40908706 4 32.5 C2 33.03125 2 33.03125 0 33 C-0.99 33.01546875 -0.99 33.01546875 -2 33.03125 C-4.91796104 32.2561666 -6.0931088 30.80895833 -8 28.5 C-8.51757812 25.90625 -8.51757812 25.90625 -8.53125 23 C-8.53640625 21.948125 -8.5415625 20.89625 -8.546875 19.8125 C-8.53140625 18.719375 -8.5159375 17.62625 -8.5 16.5 C-8.51546875 15.406875 -8.5309375 14.31375 -8.546875 13.1875 C-8.53914062 11.6096875 -8.53914062 11.6096875 -8.53125 10 C-8.52673828 9.0409375 -8.52222656 8.081875 -8.51757812 7.09375 C-7.60329874 2.51200272 -4.67433964 -0.07303656 0 0 Z " fill="#000000" transform="translate(144,159.5)"/>
<path d="M0 0 C1.051875 -0.00515625 2.10375 -0.0103125 3.1875 -0.015625 C4.280625 -0.00015625 5.37375 0.0153125 6.5 0.03125 C8.1396875 0.00804688 8.1396875 0.00804688 9.8125 -0.015625 C10.864375 -0.01046875 11.91625 -0.0053125 13 0 C14.43859375 0.00676758 14.43859375 0.00676758 15.90625 0.01367188 C19.21298564 0.673525 20.40908706 1.94238555 22.5 4.53125 C23.03125 6.53125 23.03125 6.53125 23 8.53125 C23.0103125 9.19125 23.020625 9.85125 23.03125 10.53125 C22.2561666 13.44921104 20.80895833 14.6243588 18.5 16.53125 C15.90625 17.04882812 15.90625 17.04882812 13 17.0625 C11.948125 17.06765625 10.89625 17.0728125 9.8125 17.078125 C8.719375 17.06265625 7.62625 17.0471875 6.5 17.03125 C4.8603125 17.05445313 4.8603125 17.05445313 3.1875 17.078125 C2.135625 17.07296875 1.08375 17.0678125 0 17.0625 C-0.9590625 17.05798828 -1.918125 17.05347656 -2.90625 17.04882812 C-6.21298564 16.388975 -7.40908706 15.12011445 -9.5 12.53125 C-10.03125 10.53125 -10.03125 10.53125 -10 8.53125 C-10.01546875 7.54125 -10.01546875 7.54125 -10.03125 6.53125 C-8.65240655 1.34030994 -4.94094259 0.02324368 0 0 Z " fill="#000000" transform="translate(209.5,95.46875)"/>
<path d="M0 0 C1.051875 -0.00515625 2.10375 -0.0103125 3.1875 -0.015625 C4.280625 -0.00015625 5.37375 0.0153125 6.5 0.03125 C8.1396875 0.00804688 8.1396875 0.00804688 9.8125 -0.015625 C10.864375 -0.01046875 11.91625 -0.0053125 13 0 C14.43859375 0.00676758 14.43859375 0.00676758 15.90625 0.01367188 C19.21298564 0.673525 20.40908706 1.94238555 22.5 4.53125 C23.03125 6.53125 23.03125 6.53125 23 8.53125 C23.0103125 9.19125 23.020625 9.85125 23.03125 10.53125 C22.2561666 13.44921104 20.80895833 14.6243588 18.5 16.53125 C15.90625 17.04882812 15.90625 17.04882812 13 17.0625 C11.948125 17.06765625 10.89625 17.0728125 9.8125 17.078125 C8.719375 17.06265625 7.62625 17.0471875 6.5 17.03125 C4.8603125 17.05445313 4.8603125 17.05445313 3.1875 17.078125 C2.135625 17.07296875 1.08375 17.0678125 0 17.0625 C-0.9590625 17.05798828 -1.918125 17.05347656 -2.90625 17.04882812 C-6.21298564 16.388975 -7.40908706 15.12011445 -9.5 12.53125 C-10.03125 10.53125 -10.03125 10.53125 -10 8.53125 C-10.01546875 7.54125 -10.01546875 7.54125 -10.03125 6.53125 C-8.65240655 1.34030994 -4.94094259 0.02324368 0 0 Z " fill="#000000" transform="translate(65.5,95.46875)"/>
<path d="M0 0 C0.66 -0.0103125 1.32 -0.020625 2 -0.03125 C4.91796104 0.7438334 6.0931088 2.19104167 8 4.5 C8.51757812 7.09375 8.51757812 7.09375 8.53125 10 C8.53640625 11.051875 8.5415625 12.10375 8.546875 13.1875 C8.53140625 14.280625 8.5159375 15.37375 8.5 16.5 C8.51546875 17.593125 8.5309375 18.68625 8.546875 19.8125 C8.54171875 20.864375 8.5365625 21.91625 8.53125 23 C8.52673828 23.9590625 8.52222656 24.918125 8.51757812 25.90625 C7.857725 29.21298564 6.58886445 30.40908706 4 32.5 C2 33.03125 2 33.03125 0 33 C-0.99 33.01546875 -0.99 33.01546875 -2 33.03125 C-4.91796104 32.2561666 -6.0931088 30.80895833 -8 28.5 C-8.51757812 25.90625 -8.51757812 25.90625 -8.53125 23 C-8.53640625 21.948125 -8.5415625 20.89625 -8.546875 19.8125 C-8.53140625 18.719375 -8.5159375 17.62625 -8.5 16.5 C-8.51546875 15.406875 -8.5309375 14.31375 -8.546875 13.1875 C-8.53914062 11.6096875 -8.53914062 11.6096875 -8.53125 10 C-8.52673828 9.0409375 -8.52222656 8.081875 -8.51757812 7.09375 C-7.60329874 2.51200272 -4.67433964 -0.07303656 0 0 Z " fill="#000000" transform="translate(144,15.5)"/>
</svg>
