<?xml version="1.0" standalone="no"?>
<!DOCTYPE svg PUBLIC "-//W3C//DTD SVG 20010904//EN"
 "http://www.w3.org/TR/2001/REC-SVG-20010904/DTD/svg10.dtd">
<svg version="1.0" xmlns="http://www.w3.org/2000/svg"
 width="300.000000pt" height="300.000000pt" viewBox="0 0 300.000000 300.000000"
 preserveAspectRatio="xMidYMid meet">
<metadata>
Created by potrace 1.10, written by Peter Selinger 2001-2011
</metadata>
<g transform="translate(0.000000,300.000000) scale(0.100000,-0.100000)"
fill="#000000" stroke="none">
<path d="M1226 2974 c-371 -67 -724 -303 -942 -630 -252 -378 -310 -883 -150
-1307 90 -241 279 -499 468 -640 80 -60 164 -58 225 5 85 89 68 180 -54 281
-185 154 -320 377 -375 621 -25 108 -29 334 -9 436 31 155 97 315 183 444 55
81 217 242 298 295 391 254 874 254 1260 -1 82 -54 207 -173 271 -257 105
-140 187 -338 214 -515 14 -94 28 -118 66 -109 28 8 33 44 19 131 -50 314
-221 597 -478 792 -92 70 -286 164 -402 195 -292 77 -586 48 -855 -85 -135
-66 -206 -117 -313 -221 -166 -163 -269 -341 -329 -568 -20 -75 -27 -129 -30
-248 -6 -178 6 -277 49 -413 73 -230 204 -420 411 -597 28 -24 37 -39 37 -63
0 -38 -39 -80 -73 -80 -34 0 -99 49 -199 152 -183 188 -308 426 -364 693 -27
133 -25 393 4 532 60 278 177 492 381 693 204 202 412 315 692 376 132 29 419
27 559 -4 270 -60 499 -190 696 -394 183 -190 300 -410 356 -671 29 -139 31
-399 4 -532 -22 -107 -76 -265 -118 -349 -73 -146 -201 -313 -311 -409 -112
-97 -139 -106 -182 -62 -38 37 -34 79 12 118 270 230 427 512 459 821 7 64 6
65 -20 77 -42 20 -60 -8 -75 -116 -15 -110 -48 -211 -106 -330 -67 -135 -154
-243 -302 -375 -96 -86 -109 -171 -36 -251 63 -70 148 -74 231 -12 188 141
378 401 468 640 91 243 115 567 58 813 -100 439 -376 794 -771 994 -172 87
-394 146 -542 146 -57 -1 -64 -2 -48 -14 9 -7 17 -16 17 -19 0 -3 -36 -5 -80
-5 -44 0 -80 2 -80 5 0 3 8 12 18 19 15 11 6 13 -58 13 -41 -1 -111 -7 -154
-15z"/>
<path d="M1428 2499 c-42 -22 -78 -81 -78 -127 l0 -29 -82 27 c-46 15 -117 34
-159 41 -71 12 -79 11 -115 -8 -81 -41 -109 -136 -62 -211 21 -35 84 -71 124
-72 66 0 294 -93 294 -119 0 -14 -18 -16 -139 -16 -149 -1 -171 -7 -171 -51 0
-12 5 -26 12 -30 6 -4 92 -7 191 -7 139 1 181 4 188 14 5 8 9 42 9 76 0 45 -5
66 -17 79 -32 31 -196 102 -288 125 -50 11 -95 23 -102 25 -6 1 -19 14 -28 27
-21 33 -6 74 31 83 37 9 157 -18 263 -61 49 -19 96 -35 104 -35 25 0 37 33 37
103 0 71 16 97 62 97 42 0 58 -28 58 -103 0 -96 25 -115 98 -78 52 26 191 69
251 77 60 8 91 -11 91 -56 0 -36 -25 -56 -80 -65 -114 -19 -340 -115 -354
-150 -9 -25 -7 -128 4 -145 7 -12 34 -14 147 -12 92 2 163 -2 214 -12 165 -32
319 -114 423 -227 61 -66 69 -96 36 -129 -33 -33 -58 -25 -114 37 -112 123
-280 200 -457 210 -117 7 -224 -4 -244 -24 -21 -20 -21 -156 0 -173 8 -7 51
-18 94 -26 227 -39 429 -162 545 -331 63 -92 89 -161 72 -194 -9 -19 -19 -24
-51 -24 -39 0 -40 1 -75 71 -39 79 -119 179 -151 189 -23 7 -59 -19 -59 -42 0
-8 20 -36 46 -63 25 -26 64 -83 87 -126 27 -50 54 -87 76 -101 92 -62 221 10
221 123 0 105 -147 314 -296 420 -110 78 -322 164 -406 164 -23 0 -28 4 -28
25 0 23 4 25 48 27 229 7 374 -44 506 -178 78 -79 116 -99 174 -88 51 10 108
70 117 122 10 62 -20 116 -120 210 -67 63 -105 90 -187 131 -148 73 -242 95
-405 95 -115 1 -133 3 -133 17 0 28 192 104 312 124 43 7 92 44 114 88 34 65
-1 158 -73 192 -33 16 -46 17 -112 6 -41 -6 -112 -24 -158 -40 l-83 -29 0 30
c0 45 -39 107 -82 129 -47 24 -93 24 -140 -2z m-38 -189 c0 -31 -13 -38 -40
-20 -13 9 -11 13 10 30 32 25 30 25 30 -10z m248 14 c18 -13 21 -19 11 -30
-23 -27 -49 -10 -49 32 0 18 10 18 38 -2z m-248 -359 c0 -18 -5 -25 -20 -25
-25 0 -25 8 -2 31 22 23 22 23 22 -6z m250 -5 c9 -17 8 -20 -10 -20 -11 0 -20
2 -20 4 0 2 -3 11 -6 20 -9 24 23 20 36 -4z"/>
<path d="M803 1886 c-190 -99 -317 -244 -299 -341 9 -48 59 -102 106 -115 65
-18 96 -4 182 81 138 138 271 186 506 180 49 -1 52 -3 52 -26 0 -21 -5 -25
-28 -25 -84 0 -296 -86 -406 -164 -149 -106 -296 -315 -296 -420 0 -79 67
-146 146 -146 63 0 102 32 154 130 84 155 197 239 408 304 21 7 22 4 22 -38 0
-45 0 -45 -42 -57 -159 -42 -315 -175 -386 -327 -57 -124 5 -242 126 -242 58
0 101 34 139 109 18 35 40 72 50 83 19 21 97 78 107 78 3 0 6 -27 6 -60 l0
-60 -78 -78 c-89 -87 -146 -186 -135 -235 8 -38 57 -77 98 -77 l33 0 4 -138
c3 -134 4 -140 33 -188 18 -29 49 -60 77 -77 84 -52 219 -36 285 35 49 52 63
104 63 241 l0 127 34 0 c42 0 91 38 99 77 11 50 -46 148 -134 234 l-79 77 0
61 c0 33 3 61 6 61 3 0 25 -14 49 -30 49 -34 78 -71 115 -145 30 -61 78 -95
132 -95 121 0 183 118 126 242 -71 152 -227 285 -386 327 -41 12 -42 12 -42
56 0 25 2 45 4 45 2 0 37 -12 78 -26 100 -35 116 -38 133 -24 41 34 0 75 -115
111 -101 32 -160 36 -176 14 -15 -21 -20 -201 -6 -223 5 -7 42 -22 83 -33 152
-42 272 -137 336 -266 35 -71 36 -77 22 -101 -12 -22 -22 -27 -54 -27 -37 0
-39 2 -71 64 -40 79 -103 144 -169 176 -79 39 -110 45 -134 28 -19 -13 -21
-24 -21 -116 1 -126 15 -163 85 -215 43 -32 135 -151 135 -174 0 -4 -24 -8
-54 -8 -84 0 -86 -4 -86 -187 0 -138 -2 -159 -20 -188 -48 -77 -152 -87 -219
-21 l-36 36 -5 171 c-6 193 -4 189 -87 189 -29 0 -53 4 -53 9 0 24 90 140 134
173 71 53 80 74 84 204 4 106 3 112 -18 127 -16 11 -30 13 -53 6 -109 -31
-204 -111 -254 -214 -37 -75 -91 -89 -123 -32 -14 26 -13 31 23 102 27 51 58
92 101 132 75 70 137 105 235 132 41 11 78 26 83 33 11 19 10 196 -2 219 -14
25 -55 25 -148 -1 -206 -57 -353 -172 -440 -342 -37 -72 -38 -73 -77 -73 -82
0 -74 78 21 218 116 169 318 292 545 331 43 8 86 19 94 26 21 17 21 153 0 173
-20 20 -127 31 -244 24 -176 -9 -317 -72 -439 -194 -40 -40 -81 -73 -90 -73
-32 0 -62 29 -62 60 0 58 157 199 285 255 64 29 80 59 45 87 -12 10 -25 18
-29 18 -3 0 -43 -20 -88 -44z m834 -517 c-13 -21 -23 -24 -32 -9 -9 15 14 40
30 34 11 -5 12 -10 2 -25z m11 -372 c9 -10 6 -18 -9 -30 -11 -10 -24 -15 -29
-12 -14 9 -12 42 3 48 20 9 24 8 35 -6z m-258 -22 c0 -25 -1 -25 -25 -9 -27
18 -25 34 6 34 14 0 19 -7 19 -25z m140 -940 c-7 -8 -20 -15 -30 -15 -10 0
-23 7 -30 15 -11 13 -7 15 30 15 37 0 41 -2 30 -15z"/>
<path d="M1464 726 c-10 -25 0 -69 19 -80 28 -18 52 4 52 50 0 37 -2 39 -33
42 -21 2 -34 -2 -38 -12z"/>
<path d="M1471 576 c-7 -8 -11 -30 -9 -48 3 -30 6 -33 38 -33 32 0 35 3 38 33
4 37 -12 62 -38 62 -10 0 -23 -6 -29 -14z"/>
<path d="M1464 416 c-10 -25 0 -69 19 -80 28 -18 52 4 52 50 0 37 -2 39 -33
42 -21 2 -34 -2 -38 -12z"/>
<path d="M1471 266 c-7 -8 -11 -30 -9 -48 3 -30 6 -33 38 -33 32 0 35 3 38 33
4 37 -12 62 -38 62 -10 0 -23 -6 -29 -14z"/>
</g>
</svg>
