<?xml version="1.0" encoding="UTF-8"?>
<!DOCTYPE svg PUBLIC "-//W3C//DTD SVG 1.1//EN" "http://www.w3.org/Graphics/SVG/1.1/DTD/svg11.dtd">
<svg xmlns="http://www.w3.org/2000/svg" version="1.1" width="512px" height="512px" style="shape-rendering:geometricPrecision; text-rendering:geometricPrecision; image-rendering:optimizeQuality; fill-rule:evenodd; clip-rule:evenodd" xmlns:xlink="http://www.w3.org/1999/xlink">
<g><path style="opacity:0.925" fill="#000000" d="M 138.5,-0.5 C 141.167,-0.5 143.833,-0.5 146.5,-0.5C 146.987,0.473444 147.487,1.47344 148,2.5C 148.5,19.1633 148.667,35.83 148.5,52.5C 224.578,73.5155 285.245,116.182 330.5,180.5C 337.142,181.331 343.809,181.831 350.5,182C 358.228,183.395 363.062,187.895 365,195.5C 365.667,201.5 365.667,207.5 365,213.5C 363.168,218.173 360.334,222.173 356.5,225.5C 361.827,235.821 366.327,246.487 370,257.5C 393.186,258.138 401.519,269.805 395,292.5C 392.737,298.268 388.57,301.601 382.5,302.5C 384.49,313.085 385.99,323.752 387,334.5C 395.544,335.386 401.544,339.719 405,347.5C 405.896,355.246 405.563,362.913 404,370.5C 400.468,375.686 395.635,379.019 389.5,380.5C 388.501,390.812 388.168,401.145 388.5,411.5C 401.383,413.9 407.383,421.733 406.5,435C 406.151,438.244 405.485,441.41 404.5,444.5C 422.722,446.239 435.888,455.239 444,471.5C 447.806,481.087 451.306,490.754 454.5,500.5C 472.17,500.333 489.836,500.5 507.5,501C 511.146,504.093 511.479,507.593 508.5,511.5C 340.167,511.5 171.833,511.5 3.5,511.5C 0.880474,507.998 0.880474,504.498 3.5,501C 25.8333,500.667 48.1667,500.333 70.5,500C 74.5247,490.262 78.358,480.429 82,470.5C 88.6808,457.493 99.1808,449.326 113.5,446C 121.159,445.5 128.826,445.334 136.5,445.5C 136.5,370.167 136.5,294.833 136.5,219.5C 128.826,219.666 121.159,219.5 113.5,219C 110.833,215.667 110.833,212.333 113.5,209C 121.159,208.5 128.826,208.334 136.5,208.5C 136.333,139.833 136.5,71.1659 137,2.5C 137.513,1.47344 138.013,0.473444 138.5,-0.5 Z M 148.5,66.5 C 206.865,101.034 252.199,148.201 284.5,208C 274.151,208.832 263.817,208.666 253.5,207.5C 235.494,176.311 212.827,148.811 185.5,125C 181.802,122.675 178.635,123.175 176,126.5C 175.5,153.831 175.333,181.165 175.5,208.5C 166.5,208.5 157.5,208.5 148.5,208.5C 148.5,161.167 148.5,113.833 148.5,66.5 Z M 193.5,81.5 C 243.22,103.718 284.22,136.885 316.5,181C 305.152,181.832 293.819,181.666 282.5,180.5C 258.82,142.152 229.153,109.152 193.5,81.5 Z M 186.5,142.5 C 196.697,151.53 206.031,161.364 214.5,172C 205.333,181.167 196.167,190.333 187,199.5C 186.5,180.503 186.333,161.503 186.5,142.5 Z M 221.5,181.5 C 228.425,189.825 234.758,198.659 240.5,208C 225.5,208.667 210.5,208.667 195.5,208C 204.369,199.298 213.036,190.465 221.5,181.5 Z M 290.5,193.5 C 310.169,193.333 329.836,193.5 349.5,194C 351.815,195.109 353.315,196.943 354,199.5C 354.852,203.996 354.352,208.33 352.5,212.5C 351.335,213.584 350.002,214.417 348.5,215C 332.49,215.833 316.49,215.666 300.5,214.5C 297.412,207.326 294.079,200.326 290.5,193.5 Z M 148.5,219.5 C 157.5,219.5 166.5,219.5 175.5,219.5C 175.333,303.167 175.5,386.834 176,470.5C 176.833,471.333 177.667,472.167 178.5,473C 216.5,473.667 254.5,473.667 292.5,473C 293.416,472.626 294.25,472.126 295,471.5C 296.778,429.497 296.778,387.497 295,345.5C 292.231,301.533 280.731,260.033 260.5,221C 270.517,220.168 280.517,220.334 290.5,221.5C 311.86,267.795 322.693,316.462 323,367.5C 323.5,411.832 323.667,456.165 323.5,500.5C 265.167,500.5 206.833,500.5 148.5,500.5C 148.5,406.833 148.5,313.167 148.5,219.5 Z M 271.5,280.5 C 246.998,260.168 222.331,240.001 197.5,220C 214.177,219.167 230.843,219.334 247.5,220.5C 257.743,239.646 265.743,259.646 271.5,280.5 Z M 186.5,226.5 C 212.802,248.325 239.136,270.159 265.5,292C 239.169,292.5 212.835,292.667 186.5,292.5C 186.5,270.5 186.5,248.5 186.5,226.5 Z M 306.5,227.5 C 319.171,227.333 331.838,227.5 344.5,228C 349.315,237.609 353.648,247.442 357.5,257.5C 344.183,258.499 330.85,258.833 317.5,258.5C 314.428,247.951 310.762,237.618 306.5,227.5 Z M 321.5,269.5 C 340.17,269.333 358.836,269.5 377.5,270C 380.494,270.406 382.661,271.906 384,274.5C 384.667,278.833 384.667,283.167 384,287.5C 383.535,288.931 382.701,290.097 381.5,291C 363.17,291.5 344.836,291.667 326.5,291.5C 325.088,284.104 323.421,276.771 321.5,269.5 Z M 329.5,303.5 C 343.167,303.5 356.833,303.5 370.5,303.5C 372.539,314.108 374.206,324.775 375.5,335.5C 361.5,335.5 347.5,335.5 333.5,335.5C 332.074,324.85 330.741,314.184 329.5,303.5 Z M 186.5,304.5 C 212.835,304.333 239.169,304.5 265.5,305C 239.241,326.714 213.074,348.548 187,370.5C 186.5,348.503 186.333,326.503 186.5,304.5 Z M 278.5,309.5 C 283.136,331.789 285.136,354.456 284.5,377.5C 255.498,377.667 226.498,377.5 197.5,377C 224.69,354.636 251.69,332.136 278.5,309.5 Z M 334.5,346.5 C 352.503,346.333 370.503,346.5 388.5,347C 392.936,349.032 394.936,352.532 394.5,357.5C 395.014,362.161 393.347,365.661 389.5,368C 371.17,368.5 352.836,368.667 334.5,368.5C 334.5,361.167 334.5,353.833 334.5,346.5 Z M 334.5,380.5 C 348.5,380.5 362.5,380.5 376.5,380.5C 376.5,390.833 376.5,401.167 376.5,411.5C 362.5,411.5 348.5,411.5 334.5,411.5C 334.5,401.167 334.5,390.833 334.5,380.5 Z M 198.5,389.5 C 226.995,388.502 255.662,388.169 284.5,388.5C 284.667,410.836 284.5,433.169 284,455.5C 255.909,432.902 227.409,410.902 198.5,389.5 Z M 186.5,395.5 C 215.134,416.832 243.467,438.665 271.5,461C 243.169,461.5 214.835,461.667 186.5,461.5C 186.5,439.5 186.5,417.5 186.5,395.5 Z M 334.5,423.5 C 352.836,423.333 371.17,423.5 389.5,424C 393.347,426.339 395.014,429.839 394.5,434.5C 394.953,439.429 392.953,442.929 388.5,445C 370.503,445.5 352.503,445.667 334.5,445.5C 334.5,438.167 334.5,430.833 334.5,423.5 Z M 119.5,456.5 C 125.167,456.5 130.833,456.5 136.5,456.5C 136.5,471.167 136.5,485.833 136.5,500.5C 118.833,500.5 101.167,500.5 83.5,500.5C 86.927,489.387 91.427,478.72 97,468.5C 103.257,461.958 110.757,457.958 119.5,456.5 Z M 334.5,456.5 C 348.5,456.5 362.5,456.5 376.5,456.5C 376.5,471.167 376.5,485.833 376.5,500.5C 362.5,500.5 348.5,500.5 334.5,500.5C 334.5,485.833 334.5,471.167 334.5,456.5 Z M 388.5,456.5 C 400.624,454.96 411.957,457.126 422.5,463C 425.704,465.869 428.537,469.035 431,472.5C 434.98,481.624 438.814,490.791 442.5,500C 424.503,500.5 406.503,500.667 388.5,500.5C 388.5,485.833 388.5,471.167 388.5,456.5 Z"/></g>
</svg>
