<?xml version="1.0" encoding="UTF-8"?>
<!DOCTYPE svg PUBLIC "-//W3C//DTD SVG 1.1//EN" "http://www.w3.org/Graphics/SVG/1.1/DTD/svg11.dtd">
<svg xmlns="http://www.w3.org/2000/svg" version="1.1" width="512px" height="512px" style="shape-rendering:geometricPrecision; text-rendering:geometricPrecision; image-rendering:optimizeQuality; fill-rule:evenodd; clip-rule:evenodd" xmlns:xlink="http://www.w3.org/1999/xlink">
<g><path style="opacity:0.959" fill="#000000" d="M 69.5,-0.5 C 193.5,-0.5 317.5,-0.5 441.5,-0.5C 448.52,3.02603 452.686,8.6927 454,16.5C 454.5,96.8326 454.667,177.166 454.5,257.5C 461.508,257.334 468.508,257.5 475.5,258C 480,259.833 483.167,263 485,267.5C 485.5,302.165 485.667,336.832 485.5,371.5C 492.841,371.334 500.174,371.5 507.5,372C 509.35,372.69 510.684,373.856 511.5,375.5C 511.5,378.167 511.5,380.833 511.5,383.5C 509.99,384.836 508.323,386.003 506.5,387C 496.167,387.667 485.833,387.667 475.5,387C 473.714,386.215 472.214,385.049 471,383.5C 469.519,346.561 469.019,309.561 469.5,272.5C 464.5,272.5 459.5,272.5 454.5,272.5C 454.667,346.501 454.5,420.501 454,494.5C 452.686,502.307 448.52,507.974 441.5,511.5C 317.5,511.5 193.5,511.5 69.5,511.5C 62.4805,507.974 58.3138,502.307 57,494.5C 56.5,456.168 56.3333,417.835 56.5,379.5C 48.8261,379.334 41.1594,379.5 33.5,380C 26.1667,387.333 18.8333,394.667 11.5,402C 6.93305,403.98 2.93305,403.146 -0.5,399.5C -0.5,396.833 -0.5,394.167 -0.5,391.5C 7.96813,382.199 16.9681,373.366 26.5,365C 36.4203,363.577 46.4203,363.077 56.5,363.5C 56.3333,316.165 56.5,268.832 57,221.5C 58.4651,215.347 62.2984,213.18 68.5,215C 69.6667,216.167 70.8333,217.333 72,218.5C 72.3333,310.167 72.6667,401.833 73,493.5C 73.5,494 74,494.5 74.5,495C 194.419,496.663 314.419,496.996 434.5,496C 435.931,495.535 437.097,494.701 438,493.5C 438.667,334.833 438.667,176.167 438,17.5C 437.097,16.2986 435.931,15.4652 434.5,15C 315.167,14.3333 195.833,14.3333 76.5,15C 75.0692,15.4652 73.9025,16.2986 73,17.5C 72.6667,76.1667 72.3333,134.833 72,193.5C 65.6667,199.167 60.6667,198.167 57,190.5C 56.3333,132.5 56.3333,74.5 57,16.5C 58.3138,8.6927 62.4805,3.02603 69.5,-0.5 Z M 129.5,452.5 C 213.501,452.333 297.501,452.5 381.5,453C 386.467,456.966 391.134,461.299 395.5,466C 302.167,466.667 208.833,466.667 115.5,466C 120.062,461.269 124.729,456.769 129.5,452.5 Z"/></g>
<g><path style="opacity:0.947" fill="#000000" d="M 90.5,29.5 C 200.501,29.3333 310.501,29.5 420.5,30C 421.333,30.8333 422.167,31.6667 423,32.5C 424.663,180.42 424.997,328.42 424,476.5C 423.215,478.286 422.049,479.786 420.5,481C 310.5,481.667 200.5,481.667 90.5,481C 89.6667,480.167 88.8333,479.333 88,478.5C 86.3365,330.58 86.0032,182.58 87,34.5C 87.9973,32.6769 89.1639,31.0103 90.5,29.5 Z M 115.5,45.5 C 208.666,44.3342 301.999,44.1676 395.5,45C 391.134,49.7007 386.467,54.034 381.5,58C 331.167,58.3333 280.833,58.6667 230.5,59C 226.139,61.2258 224.639,64.7258 226,69.5C 226.833,71.6667 228.333,73.1667 230.5,74C 279.166,74.5 327.832,74.6667 376.5,74.5C 376.333,163.501 376.5,252.501 377,341.5C 381.661,349.027 386.661,349.361 392,342.5C 392.333,251.5 392.667,160.5 393,69.5C 398.301,65.2002 403.301,60.5336 408,55.5C 408.667,188.833 408.667,322.167 408,455.5C 403.301,450.466 398.301,445.8 393,441.5C 392.667,417.167 392.333,392.833 392,368.5C 387.7,363.554 383.033,363.221 378,367.5C 376.649,373.072 376.149,378.738 376.5,384.5C 368.167,384.5 359.833,384.5 351.5,384.5C 351.667,302.166 351.5,219.833 351,137.5C 345.932,126.255 337.766,123.421 326.5,129C 314.667,140.833 302.833,152.667 291,164.5C 290.138,166.087 289.471,167.754 289,169.5C 288.5,175.825 288.334,182.158 288.5,188.5C 282.491,188.334 276.491,188.501 270.5,189C 268.754,189.471 267.087,190.138 265.5,191C 257.928,197.901 251.095,205.401 245,213.5C 244.5,273.832 244.333,334.166 244.5,394.5C 235.5,394.5 226.5,394.5 217.5,394.5C 217.667,360.832 217.5,327.165 217,293.5C 213.295,282.508 205.628,278.175 194,280.5C 187.454,279.88 181.287,281.047 175.5,284C 167.333,292.167 159.167,300.333 151,308.5C 149.526,326.74 149.026,345.073 149.5,363.5C 144.5,363.5 139.5,363.5 134.5,363.5C 134.5,267.167 134.5,170.833 134.5,74.5C 157.169,74.6666 179.836,74.5 202.5,74C 209.955,69.4392 210.288,64.4392 203.5,59C 178.833,58.6667 154.167,58.3333 129.5,58C 124.665,53.9965 119.998,49.8298 115.5,45.5 Z M 102.5,55.5 C 107.497,60.3295 112.664,64.9961 118,69.5C 118.667,193.5 118.667,317.5 118,441.5C 112.699,445.8 107.699,450.466 103,455.5C 102.5,322.167 102.333,188.834 102.5,55.5 Z M 334.5,143.5 C 335.333,227.332 335.833,311.332 336,395.5C 336.785,397.286 337.951,398.786 339.5,400C 351.829,400.5 364.162,400.667 376.5,400.5C 376.5,412.5 376.5,424.5 376.5,436.5C 295.833,436.5 215.167,436.5 134.5,436.5C 134.5,417.5 134.5,398.5 134.5,379.5C 143.173,379.666 151.84,379.5 160.5,379C 161.931,378.535 163.097,377.701 164,376.5C 165.31,356.589 165.977,336.589 166,316.5C 172.5,310 179,303.5 185.5,297C 190.823,296.501 196.156,296.334 201.5,296.5C 201.013,333.919 201.513,371.253 203,408.5C 203.75,409.126 204.584,409.626 205.5,410C 222.5,410.667 239.5,410.667 256.5,410C 257.333,409.167 258.167,408.333 259,407.5C 260.323,344.558 260.989,281.558 261,218.5C 265.5,214 270,209.5 274.5,205C 283.167,204.667 291.833,204.333 300.5,204C 301.667,202.833 302.833,201.667 304,200.5C 304.333,191.5 304.667,182.5 305,173.5C 315.036,163.632 324.869,153.632 334.5,143.5 Z M 129.5,452.5 C 124.729,456.769 120.062,461.269 115.5,466C 208.833,466.667 302.167,466.667 395.5,466C 391.134,461.299 386.467,456.966 381.5,453C 297.501,452.5 213.501,452.333 129.5,452.5 Z"/></g>
</svg>
