<?xml version="1.0" encoding="UTF-8"?>
<!DOCTYPE svg PUBLIC "-//W3C//DTD SVG 1.1//EN" "http://www.w3.org/Graphics/SVG/1.1/DTD/svg11.dtd">
<svg xmlns="http://www.w3.org/2000/svg" version="1.1" width="512px" height="512px" style="shape-rendering:geometricPrecision; text-rendering:geometricPrecision; image-rendering:optimizeQuality; fill-rule:evenodd; clip-rule:evenodd" xmlns:xlink="http://www.w3.org/1999/xlink">
<g><path style="opacity:0.938" fill="#000000" d="M 511.5,348.5 C 511.5,369.167 511.5,389.833 511.5,410.5C 510.146,412.696 508.146,414.196 505.5,415C 338.833,415.667 172.167,415.667 5.5,415C 2.85408,414.196 0.854084,412.696 -0.5,410.5C -0.5,389.833 -0.5,369.167 -0.5,348.5C 2.98391,344.868 7.31724,343.535 12.5,344.5C 12.1959,338.423 12.6959,332.423 14,326.5C 16.2132,321.055 20.2132,317.722 26,316.5C 31.0643,239.883 64.5643,179.383 126.5,135C 131.131,132.017 135.965,129.517 141,127.5C 149.987,131.596 150.821,137.096 143.5,144C 81.2041,184.385 47.5374,241.885 42.5,316.5C 55.5,316.5 68.5,316.5 81.5,316.5C 81.5,311.5 81.5,306.5 81.5,301.5C 70.1539,300.994 62.6539,295.327 59,284.5C 56.8123,257.038 68.979,239.872 95.5,233C 111.738,227.437 127.405,228.77 142.5,237C 148.237,237.789 153.903,237.456 159.5,236C 169.599,230.595 180.265,228.762 191.5,230.5C 195.685,226.485 200.185,222.818 205,219.5C 213.936,189.277 234.103,175.943 265.5,179.5C 280.271,182.45 291.605,190.283 299.5,203C 313.615,206.276 320.948,215.109 321.5,229.5C 332.089,228.987 342.089,231.153 351.5,236C 358.5,238 365.5,238 372.5,236C 386.735,228.703 401.402,227.703 416.5,233C 431.099,236.033 441.599,244.2 448,257.5C 452.319,267.437 454.319,277.77 454,288.5C 450.626,300.944 442.46,307.277 429.5,307.5C 429.5,310.5 429.5,313.5 429.5,316.5C 439.01,316.198 442.177,320.531 439,329.5C 438.097,330.701 436.931,331.535 435.5,332C 299.834,332.5 164.167,332.667 28.5,332.5C 28.5,336.5 28.5,340.5 28.5,344.5C 32.9671,344.133 37.3004,344.633 41.5,346C 44.207,349.29 44.707,352.79 43,356.5C 41.6811,358.487 39.8477,359.654 37.5,360C 29.8406,360.5 22.1739,360.666 14.5,360.5C 14.5,373.5 14.5,386.5 14.5,399.5C 175.167,399.5 335.833,399.5 496.5,399.5C 496.5,386.5 496.5,373.5 496.5,360.5C 354.166,360.667 211.833,360.5 69.5,360C 63.8418,358.171 62.0084,354.337 64,348.5C 64.5,346.667 65.6667,345.5 67.5,345C 205.833,344.5 344.166,344.333 482.5,344.5C 482.5,340.5 482.5,336.5 482.5,332.5C 476.491,332.666 470.491,332.499 464.5,332C 459.776,329.565 458.276,325.731 460,320.5C 462.141,317.679 464.975,316.346 468.5,316.5C 462.776,239.171 427.109,180.337 361.5,140C 300.603,106.98 237.77,102.813 173,127.5C 164.988,126.143 162.822,121.81 166.5,114.5C 190.896,103.318 216.563,97.1517 243.5,96C 336.277,94.459 406.777,132.959 455,211.5C 472.906,244.221 482.906,279.221 485,316.5C 490.787,317.722 494.787,321.055 497,326.5C 498.304,332.423 498.804,338.423 498.5,344.5C 503.683,343.535 508.016,344.868 511.5,348.5 Z M 249.5,194.5 C 260.345,193.498 270.011,196.331 278.5,203C 282.167,207.333 285.833,211.667 289.5,216C 293.281,218.225 297.281,219.891 301.5,221C 303.049,222.214 304.215,223.714 305,225.5C 305.333,229.833 305.667,234.167 306,238.5C 311.3,246.181 310.467,253.014 303.5,259C 292.765,261.07 286.932,267.57 286,278.5C 284,281.833 281.333,284.5 278,286.5C 277.168,278.147 277.335,269.813 278.5,261.5C 288.551,256.401 292.384,248.401 290,237.5C 285.333,232.167 280.667,232.167 276,237.5C 275.5,244.667 271.667,248.5 264.5,249C 262.603,253.251 260.27,257.251 257.5,261C 254.692,261.92 252.525,261.087 251,258.5C 249.999,249.134 245.166,245.968 236.5,249C 235.107,250.171 234.273,251.671 234,253.5C 233.667,263.5 233.333,273.5 233,283.5C 230.333,282.167 228.333,280.167 227,277.5C 225.667,273.5 224.333,269.5 223,265.5C 221.786,263.951 220.286,262.785 218.5,262C 205.675,261.205 200.508,254.705 203,242.5C 208,238.167 213,233.833 218,229.5C 220.427,225.46 222.094,221.126 223,216.5C 228.479,205.025 237.313,197.692 249.5,194.5 Z M 110.5,245.5 C 119.424,245.306 127.757,247.473 135.5,252C 149.459,255.189 162.792,253.522 175.5,247C 178.757,245.957 182.09,245.457 185.5,245.5C 185.524,262.186 193.524,272.853 209.5,277.5C 210.847,281.696 212.847,285.529 215.5,289C 209.385,290.658 203.218,291.825 197,292.5C 184.858,289.347 172.525,287.013 160,285.5C 149.287,286.409 138.787,288.409 128.5,291.5C 128.5,288.5 128.5,285.5 128.5,282.5C 134.509,281.109 140.509,279.609 146.5,278C 153.167,273 153.167,268 146.5,263C 145.333,262.833 144.167,262.667 143,262.5C 135.963,264.551 128.797,265.884 121.5,266.5C 115.731,266.134 110.065,265.134 104.5,263.5C 98.0414,264.408 95.5414,268.074 97,274.5C 97.4652,275.931 98.2986,277.097 99.5,278C 103.659,279.579 107.826,281.079 112,282.5C 112.667,285.5 112.667,288.5 112,291.5C 101.532,287.615 90.699,285.449 79.5,285C 74.8451,282.103 73.3451,277.937 75,272.5C 76.2173,265.562 79.384,259.729 84.5,255C 93.0349,251.103 101.702,247.937 110.5,245.5 Z M 325.5,245.5 C 328.91,245.457 332.243,245.957 335.5,247C 353.167,255.667 370.833,255.667 388.5,247C 394.823,245.065 401.157,245.065 407.5,247C 412.833,249 418.167,251 423.5,253C 427.719,255.552 430.886,259.052 433,263.5C 435.378,269.846 437.212,276.346 438.5,283C 435.991,292.431 431.324,293.764 424.5,287C 420.013,285.622 416.513,286.788 414,290.5C 409.029,288.472 403.862,287.138 398.5,286.5C 398.5,283.5 398.5,280.5 398.5,277.5C 408.15,279.633 412.317,275.966 411,266.5C 410.065,263.898 408.232,262.398 405.5,262C 392.093,260.29 378.76,260.957 365.5,264C 357.948,268.535 357.615,273.535 364.5,279C 370.516,278.966 376.516,278.466 382.5,277.5C 382.5,280.5 382.5,283.5 382.5,286.5C 375.346,287.205 368.346,288.705 361.5,291C 354.5,291.667 347.5,291.667 340.5,291C 338.899,290.727 337.399,290.227 336,289.5C 335.502,286.518 335.335,283.518 335.5,280.5C 343.807,282.362 347.64,279.028 347,270.5C 346.215,268.714 345.049,267.214 343.5,266C 336.681,263.586 329.681,261.919 322.5,261C 324.985,256.162 325.985,250.995 325.5,245.5 Z M 249.5,276.5 C 253.169,277.751 256.836,277.751 260.5,276.5C 261.499,289.817 261.833,303.15 261.5,316.5C 257.5,316.5 253.5,316.5 249.5,316.5C 249.5,303.167 249.5,289.833 249.5,276.5 Z M 309.5,276.5 C 312.881,276.46 316.214,276.793 319.5,277.5C 319.5,280.5 319.5,283.5 319.5,286.5C 313.221,286.334 306.888,286.001 300.5,285.5C 301.792,283.333 302.625,281 303,278.5C 305.277,277.883 307.444,277.216 309.5,276.5 Z M 159.5,301.5 C 164.532,302.088 169.532,302.921 174.5,304C 175.464,308.066 175.797,312.233 175.5,316.5C 170.167,316.5 164.833,316.5 159.5,316.5C 159.5,311.5 159.5,306.5 159.5,301.5 Z M 310.5,301.5 C 313.518,301.704 316.518,302.037 319.5,302.5C 319.5,307.167 319.5,311.833 319.5,316.5C 314.5,316.5 309.5,316.5 304.5,316.5C 304.5,311.833 304.5,307.167 304.5,302.5C 306.735,302.795 308.735,302.461 310.5,301.5 Z M 225.5,302.5 C 228.167,302.5 230.833,302.5 233.5,302.5C 233.5,307.167 233.5,311.833 233.5,316.5C 229.833,316.5 226.167,316.5 222.5,316.5C 222.5,312.167 222.5,307.833 222.5,303.5C 223.791,303.737 224.791,303.404 225.5,302.5 Z M 378.5,302.5 C 379.833,302.5 381.167,302.5 382.5,302.5C 382.5,307.167 382.5,311.833 382.5,316.5C 377.5,316.5 372.5,316.5 367.5,316.5C 367.5,312.833 367.5,309.167 367.5,305.5C 371.427,305.074 375.093,304.074 378.5,302.5 Z M 398.5,302.5 C 403.441,303.986 408.441,305.319 413.5,306.5C 413.5,309.833 413.5,313.167 413.5,316.5C 408.5,316.5 403.5,316.5 398.5,316.5C 398.5,311.833 398.5,307.167 398.5,302.5 Z M 97.5,304.5 C 102.466,305.627 107.466,306.627 112.5,307.5C 112.5,310.5 112.5,313.5 112.5,316.5C 107.5,316.5 102.5,316.5 97.5,316.5C 97.5,312.5 97.5,308.5 97.5,304.5 Z M 142.5,304.5 C 143.483,308.298 143.817,312.298 143.5,316.5C 138.5,316.5 133.5,316.5 128.5,316.5C 128.5,313.5 128.5,310.5 128.5,307.5C 133.444,307.246 138.111,306.246 142.5,304.5 Z M 286.5,306.5 C 288.402,309.337 289.069,312.671 288.5,316.5C 284.833,316.5 281.167,316.5 277.5,316.5C 277.5,313.5 277.5,310.5 277.5,307.5C 280.713,307.81 283.713,307.477 286.5,306.5 Z M 335.5,306.5 C 340.787,307.342 346.12,307.676 351.5,307.5C 351.5,310.5 351.5,313.5 351.5,316.5C 346.167,316.5 340.833,316.5 335.5,316.5C 335.5,313.167 335.5,309.833 335.5,306.5 Z M 191.5,307.5 C 196.5,307.5 201.5,307.5 206.5,307.5C 206.5,310.5 206.5,313.5 206.5,316.5C 201.5,316.5 196.5,316.5 191.5,316.5C 191.5,313.5 191.5,310.5 191.5,307.5 Z"/></g>
<g><path style="opacity:0.908" fill="#000000" d="M 170.5,138.5 C 177.244,137.198 181.244,139.864 182.5,146.5C 182.03,148.774 181.03,150.774 179.5,152.5C 160.144,161.842 142.477,173.676 126.5,188C 119.528,190.681 115.528,188.348 114.5,181C 114.408,178.186 115.408,175.853 117.5,174C 133.709,159.952 151.376,148.118 170.5,138.5 Z"/></g>
<g><path style="opacity:0.891" fill="#000000" d="M 102.5,191.5 C 110.201,191.362 113.367,195.029 112,202.5C 106.289,210.755 100.456,218.921 94.5,227C 87.8626,229.507 83.5293,227.34 81.5,220.5C 86.3311,209.134 93.3311,199.467 102.5,191.5 Z"/></g>
</svg>
