<?xml version="1.0" encoding="UTF-8"?>
<!DOCTYPE svg PUBLIC "-//W3C//DTD SVG 1.1//EN" "http://www.w3.org/Graphics/SVG/1.1/DTD/svg11.dtd">
<svg xmlns="http://www.w3.org/2000/svg" version="1.1" width="512px" height="512px" style="shape-rendering:geometricPrecision; text-rendering:geometricPrecision; image-rendering:optimizeQuality; fill-rule:evenodd; clip-rule:evenodd" xmlns:xlink="http://www.w3.org/1999/xlink">
<g><path style="opacity:0.95" fill="#000000" d="M 511.5,289.5 C 511.5,295.5 511.5,301.5 511.5,307.5C 471.833,307.5 432.167,307.5 392.5,307.5C 392.5,318.5 392.5,329.5 392.5,340.5C 432.167,340.5 471.833,340.5 511.5,340.5C 511.5,346.5 511.5,352.5 511.5,358.5C 471.833,358.5 432.167,358.5 392.5,358.5C 392.5,380.833 392.5,403.167 392.5,425.5C 432.167,425.5 471.833,425.5 511.5,425.5C 511.5,431.5 511.5,437.5 511.5,443.5C 340.833,443.5 170.167,443.5 -0.5,443.5C -0.5,437.5 -0.5,431.5 -0.5,425.5C 39.1667,425.5 78.8333,425.5 118.5,425.5C 118.5,403.167 118.5,380.833 118.5,358.5C 78.8333,358.5 39.1667,358.5 -0.5,358.5C -0.5,352.5 -0.5,346.5 -0.5,340.5C 39.1667,340.5 78.8333,340.5 118.5,340.5C 118.5,329.5 118.5,318.5 118.5,307.5C 78.8333,307.5 39.1667,307.5 -0.5,307.5C -0.5,301.5 -0.5,295.5 -0.5,289.5C 5.16667,289.5 10.8333,289.5 16.5,289.5C 16.5,283.833 16.5,278.167 16.5,272.5C 22.5,272.5 28.5,272.5 34.5,272.5C 34.5,278.167 34.5,283.833 34.5,289.5C 39.8333,289.5 45.1667,289.5 50.5,289.5C 50.5,283.833 50.5,278.167 50.5,272.5C 56.5,272.5 62.5,272.5 68.5,272.5C 68.5,278.167 68.5,283.833 68.5,289.5C 73.8333,289.5 79.1667,289.5 84.5,289.5C 84.5,283.833 84.5,278.167 84.5,272.5C 90.5,272.5 96.5,272.5 102.5,272.5C 102.5,278.167 102.5,283.833 102.5,289.5C 107.833,289.5 113.167,289.5 118.5,289.5C 118.5,243.833 118.5,198.167 118.5,152.5C 141.5,152.5 164.5,152.5 187.5,152.5C 187.5,163.833 187.5,175.167 187.5,186.5C 198.5,186.5 209.5,186.5 220.5,186.5C 220.5,175.167 220.5,163.833 220.5,152.5C 243.833,152.5 267.167,152.5 290.5,152.5C 290.5,163.833 290.5,175.167 290.5,186.5C 301.5,186.5 312.5,186.5 323.5,186.5C 323.5,175.167 323.5,163.833 323.5,152.5C 346.5,152.5 369.5,152.5 392.5,152.5C 392.5,198.167 392.5,243.833 392.5,289.5C 397.833,289.5 403.167,289.5 408.5,289.5C 408.5,283.833 408.5,278.167 408.5,272.5C 414.5,272.5 420.5,272.5 426.5,272.5C 426.5,278.167 426.5,283.833 426.5,289.5C 431.833,289.5 437.167,289.5 442.5,289.5C 442.5,283.833 442.5,278.167 442.5,272.5C 448.5,272.5 454.5,272.5 460.5,272.5C 460.5,278.167 460.5,283.833 460.5,289.5C 465.833,289.5 471.167,289.5 476.5,289.5C 476.5,283.833 476.5,278.167 476.5,272.5C 482.5,272.5 488.5,272.5 494.5,272.5C 494.5,278.167 494.5,283.833 494.5,289.5C 500.167,289.5 505.833,289.5 511.5,289.5 Z M 136.5,170.5 C 147.5,170.5 158.5,170.5 169.5,170.5C 169.5,181.833 169.5,193.167 169.5,204.5C 192.5,204.5 215.5,204.5 238.5,204.5C 238.5,193.167 238.5,181.833 238.5,170.5C 249.833,170.5 261.167,170.5 272.5,170.5C 272.5,181.833 272.5,193.167 272.5,204.5C 295.5,204.5 318.5,204.5 341.5,204.5C 341.5,193.167 341.5,181.833 341.5,170.5C 352.5,170.5 363.5,170.5 374.5,170.5C 374.5,187.167 374.5,203.833 374.5,220.5C 295.167,220.5 215.833,220.5 136.5,220.5C 136.5,203.833 136.5,187.167 136.5,170.5 Z M 136.5,238.5 C 215.833,238.5 295.167,238.5 374.5,238.5C 374.5,289.5 374.5,340.5 374.5,391.5C 363.167,391.5 351.833,391.5 340.5,391.5C 340.5,397.5 340.5,403.5 340.5,409.5C 351.833,409.5 363.167,409.5 374.5,409.5C 374.5,414.833 374.5,420.167 374.5,425.5C 295.167,425.5 215.833,425.5 136.5,425.5C 136.5,363.167 136.5,300.833 136.5,238.5 Z"/></g>
<g><path style="opacity:0.951" fill="#000000" d="M 169.5,272.5 C 181.167,272.5 192.833,272.5 204.5,272.5C 204.5,284.167 204.5,295.833 204.5,307.5C 192.833,307.5 181.167,307.5 169.5,307.5C 169.5,295.833 169.5,284.167 169.5,272.5 Z"/></g>
<g><path style="opacity:0.925" fill="#000000" d="M 237.5,272.5 C 249.5,272.5 261.5,272.5 273.5,272.5C 273.5,284.167 273.5,295.833 273.5,307.5C 261.5,307.5 249.5,307.5 237.5,307.5C 237.5,295.833 237.5,284.167 237.5,272.5 Z"/></g>
<g><path style="opacity:0.951" fill="#000000" d="M 306.5,272.5 C 318.167,272.5 329.833,272.5 341.5,272.5C 341.5,284.167 341.5,295.833 341.5,307.5C 329.833,307.5 318.167,307.5 306.5,307.5C 306.5,295.833 306.5,284.167 306.5,272.5 Z"/></g>
<g><path style="opacity:0.925" fill="#000000" d="M 186.5,340.5 C 198.167,340.5 209.833,340.5 221.5,340.5C 221.5,346.5 221.5,352.5 221.5,358.5C 209.833,358.5 198.167,358.5 186.5,358.5C 186.5,352.5 186.5,346.5 186.5,340.5 Z"/></g>
<g><path style="opacity:0.925" fill="#000000" d="M 33.5,374.5 C 45.1667,374.5 56.8333,374.5 68.5,374.5C 68.5,380.5 68.5,386.5 68.5,392.5C 56.8333,392.5 45.1667,392.5 33.5,392.5C 33.5,386.5 33.5,380.5 33.5,374.5 Z"/></g>
<g><path style="opacity:0.925" fill="#000000" d="M 459.5,374.5 C 471.167,374.5 482.833,374.5 494.5,374.5C 494.5,380.5 494.5,386.5 494.5,392.5C 482.833,392.5 471.167,392.5 459.5,392.5C 459.5,386.5 459.5,380.5 459.5,374.5 Z"/></g>
<g><path style="opacity:0.899" fill="#000000" d="M 237.5,391.5 C 249.5,391.5 261.5,391.5 273.5,391.5C 273.5,397.5 273.5,403.5 273.5,409.5C 261.5,409.5 249.5,409.5 237.5,409.5C 237.5,403.5 237.5,397.5 237.5,391.5 Z"/></g>
</svg>
