<svg width="31" height="32" viewBox="0 0 31 32" fill="none" xmlns="http://www.w3.org/2000/svg">
<path d="M15.4968 1C10.9057 1 7.92938 4.0285 4.40972 5.1325C2.97805 5.5825 2.26221 5.806 1.97221 6.1225C1.68221 6.4375 1.59827 6.901 1.42885 7.825C-0.387456 17.719 3.58094 26.866 13.044 30.427C14.059 30.8095 14.5673 31 15.5014 31C16.4355 31 16.9453 30.808 17.9618 30.4255C27.4233 26.866 31.3871 17.719 29.5708 7.825C29.4014 6.901 29.3159 6.4375 29.026 6.121C28.736 5.8045 28.0216 5.581 26.59 5.1325C23.0688 4.0285 20.0879 1 15.4968 1Z" stroke="black" stroke-linecap="round" stroke-linejoin="round"/>
<path d="M12.4492 16.749C12.4492 16.749 13.2124 16.749 13.9755 18.249C13.9755 18.249 16.3993 14.499 18.5544 13.749" stroke="black" stroke-linecap="round" stroke-linejoin="round"/>
<path d="M23.1302 16.0005C23.1302 17.9896 22.3262 19.8973 20.895 21.3038C19.4638 22.7103 17.5227 23.5005 15.4987 23.5005C13.4747 23.5005 11.5336 22.7103 10.1024 21.3038C8.67122 19.8973 7.86719 17.9896 7.86719 16.0005C7.86719 14.0114 8.67122 12.1037 10.1024 10.6972C11.5336 9.29066 13.4747 8.50049 15.4987 8.50049C17.5227 8.50049 19.4638 9.29066 20.895 10.6972C22.3262 12.1037 23.1302 14.0114 23.1302 16.0005Z" stroke="black" stroke-linecap="round" stroke-linejoin="round"/>
</svg>
