<svg width="32" height="28" viewBox="0 0 32 28" fill="none" xmlns="http://www.w3.org/2000/svg">
<path d="M12.7948 5.43311C12.7361 5.43467 12.6775 5.43624 12.6188 5.43937C12.6172 5.43937 12.6148 5.43937 12.6133 5.44015C12.6258 5.43937 12.6391 5.43937 12.6516 5.43858C12.6994 5.43624 12.7471 5.43467 12.7948 5.43389C12.8778 5.43545 12.9607 5.43937 13.0421 5.44406C12.9607 5.43858 12.8778 5.43467 12.7948 5.43311Z" fill="white"/>
<path d="M28.6098 11.6471C29.2445 11.6471 29.8808 11.6205 30.5131 11.6542C31.2323 11.6925 31.7433 11.4452 32 10.7487V1.41714C31.7684 0.708117 31.2706 0.462385 30.542 0.467863C27.7506 0.489775 24.9591 0.476471 22.1676 0.477254C21.2825 0.477254 20.8419 0.913937 20.838 1.80217C20.8341 2.79371 20.8364 3.78525 20.8388 4.77678C20.8388 4.88009 20.8192 5.01156 20.8724 5.08121C20.9757 5.2166 21.1174 5.39738 21.2567 5.4099C21.3983 5.42242 21.5814 5.2792 21.6957 5.15712C21.7646 5.08434 21.7489 4.92078 21.7497 4.79713C21.7536 3.81655 21.7512 2.83519 21.752 1.85382C21.752 1.42262 21.7802 1.39366 22.213 1.39288C25.0154 1.39288 27.8171 1.39288 30.6187 1.39366C31.0539 1.39366 31.0742 1.41557 31.0742 1.85539C31.075 4.65235 31.075 7.4501 31.0742 10.2471C31.0742 10.7276 31.0601 10.7417 30.5843 10.7417C27.8132 10.7417 25.0428 10.7417 22.2724 10.7417C21.7622 10.7417 21.752 10.7315 21.752 10.2111C21.7512 9.48013 21.7559 8.74998 21.7489 8.01904C21.7458 7.71148 21.5666 7.5174 21.3091 7.50801C21.0602 7.4994 20.8724 7.69348 20.8419 7.994C20.8364 8.04565 20.8372 8.09808 20.8372 8.15051C20.8372 8.88067 20.8333 9.6116 20.8388 10.3425C20.845 11.212 21.2801 11.644 22.1535 11.6463C23.1325 11.6502 24.1115 11.6463 25.0905 11.6479C25.2001 11.6487 25.3097 11.6588 25.4208 11.6651V17.1385C24.7063 17.0501 24.0341 16.8607 23.444 16.4835C22.1981 15.6876 20.9679 14.8659 19.7447 14.0356C18.5098 13.1974 17.1543 12.7686 15.6659 12.7662C13.8847 12.7631 12.1035 12.7584 10.3224 12.7662C8.47701 12.7756 6.84297 13.3641 5.50162 14.6522C4.46156 15.6508 3.25325 16.2698 1.8352 16.5234C0.673845 16.7316 0.00629879 17.5721 0.00316845 18.7475C-0.000744483 20.1257 0.00708138 21.5038 3.81031e-05 22.8811C-0.00387483 23.5729 0.293508 24.055 0.928186 24.3313C1.40478 24.5387 1.87512 24.7617 2.35562 24.9613C2.5364 25.0356 2.63188 25.1405 2.68431 25.3314C3.03178 26.6016 4.1274 27.4554 5.48362 27.5281C6.70837 27.5939 7.92686 26.8058 8.37137 25.6288C8.46293 25.3885 8.57719 25.3275 8.81979 25.3275C13.6429 25.3345 18.4652 25.3345 23.2875 25.3275C23.5262 25.3275 23.6428 25.3839 23.7414 25.6225C24.2367 26.8175 25.1618 27.4694 26.4374 27.5164C27.6621 27.5618 28.6427 27.0187 29.1811 25.9074C29.4206 25.4128 29.6828 25.2876 30.1797 25.322C30.7972 25.3651 31.3262 25.1217 31.6862 24.5989C31.8184 24.4064 31.8967 24.1763 32 23.9635V20.8323C31.8004 20.1343 31.4741 19.5051 30.9779 18.9713C30.3088 18.2506 29.4519 17.9148 28.5034 17.7646C28.2788 17.7294 28.0573 17.6762 27.8249 17.6292V11.6471H28.6098ZM26.3403 11.6635H26.8717V17.421C26.5175 17.3809 26.3403 17.1923 26.3403 16.8552V11.6635ZM5.56658 26.6117C4.4013 26.6031 3.45594 25.6507 3.47003 24.5003C3.4849 23.3069 4.42322 22.3818 5.6057 22.3959C6.76863 22.4092 7.69521 23.357 7.68504 24.5238C7.67565 25.6851 6.72637 26.6211 5.56658 26.6117ZM26.536 26.6133C25.3715 26.6133 24.4371 25.6805 24.4347 24.5136C24.4324 23.3272 25.3707 22.3873 26.5501 22.3952C27.7036 22.403 28.6333 23.3327 28.6357 24.4807C28.638 25.675 27.7146 26.6125 26.536 26.6133ZM29.1952 18.8915C30.1421 19.1279 31.1705 20.3761 31.093 21.456C31.0437 22.1416 31.0875 22.8334 31.082 23.5221C31.0773 24.1043 30.7737 24.4033 30.1961 24.4087C29.9997 24.4111 29.8025 24.4095 29.5716 24.4095C29.4769 23.3984 29.0661 22.5697 28.2162 21.9929C27.6997 21.6423 27.1276 21.4662 26.5094 21.4772C25.1093 21.503 23.6756 22.4805 23.4933 24.3892H8.62571C8.1405 22.4288 7.21001 21.5061 5.63388 21.4834C4.41461 21.4654 2.99343 22.1572 2.56927 24.0644C2.06528 23.8312 1.56443 23.6168 1.08314 23.3632C0.988445 23.3131 0.927403 23.1143 0.926621 22.9844C0.916447 21.5234 0.912534 20.0623 0.926621 18.6012C0.932099 18.0041 1.29365 17.5752 1.88372 17.4508C2.82361 17.2528 3.75802 17.0337 4.57739 16.5078C5.0305 16.2174 5.48284 15.9044 5.86865 15.5311C7.18027 14.2609 8.72509 13.6474 10.5517 13.6803C12.228 13.7108 13.905 13.6983 15.5813 13.6834C16.9383 13.6709 18.1623 14.0504 19.2759 14.8221C20.046 15.3558 20.8466 15.8473 21.5986 16.4052C22.915 17.3843 24.3737 17.9649 25.9936 18.2122C27.0705 18.3774 28.1372 18.627 29.1952 18.8915Z" fill="black"/>
<path d="M18.3212 5.69202C18.1342 5.88923 17.8603 5.8814 17.6036 5.63802C16.652 4.7357 15.5501 4.10963 14.2627 3.84824C12.0316 3.39669 10.0344 3.90459 8.28612 5.37194C8.17421 5.46585 8.07325 5.57228 7.96213 5.66619C7.70935 5.87671 7.4464 5.88297 7.26641 5.68654C7.07859 5.4815 7.08563 5.20603 7.34779 5.00178C7.93708 4.54162 8.51541 4.0525 9.16026 3.6839C10.2715 3.04766 11.4994 2.77375 12.7836 2.77688C14.8864 2.7941 16.7044 3.52269 18.2273 4.97986C18.4793 5.2209 18.5122 5.48933 18.3212 5.69202Z" fill="black"/>
<path d="M28.4943 4.60785C28.4497 3.72901 27.887 3.14989 27.0105 3.10528C26.4298 3.07555 25.846 3.08181 25.2638 3.0865C24.8952 3.08885 24.8099 3.18667 24.8091 3.56075C24.8083 5.13453 24.8083 6.70831 24.8099 8.28288C24.8099 8.63035 24.9492 8.76026 25.3076 8.76104C25.6668 8.7626 25.8124 8.62956 25.8147 8.28914C25.8171 7.75854 25.8155 7.22873 25.8155 6.62066C26.2381 6.62066 26.6224 6.64179 27.0043 6.61597C27.7978 6.56432 28.3245 6.0979 28.4677 5.32392C28.5107 5.09071 28.506 4.84576 28.4943 4.60785ZM27.4441 5.30435C27.3963 5.59469 27.2015 5.78799 26.8916 5.81303C26.5511 5.84042 26.2099 5.85216 25.8413 5.87251V3.98726C26.1794 3.98726 26.5011 3.97474 26.8219 3.99039C27.1631 4.00761 27.3987 4.19856 27.4503 4.53585C27.4895 4.78628 27.4856 5.05392 27.4441 5.30435Z" fill="black"/>
<path d="M16.4564 7.55626C16.2577 7.79182 15.9924 7.76756 15.6707 7.48348C14.1862 6.17343 12.2117 5.97857 10.5628 6.9928C10.3084 7.14932 10.0831 7.35592 9.84906 7.54531C9.57829 7.766 9.31612 7.77382 9.13299 7.55626C8.95848 7.34888 8.99213 7.10001 9.2363 6.86915C9.89132 6.25013 10.6301 5.8377 11.4463 5.61936C11.5637 5.58806 11.6819 5.56067 11.8016 5.53719C11.8814 5.52154 11.962 5.50745 12.0434 5.49571C12.2868 5.45893 12.5372 5.43858 12.7932 5.43311C12.8761 5.43467 12.9591 5.43858 13.0404 5.44406C13.0819 5.44641 13.1226 5.44954 13.1633 5.45267C13.2447 5.45893 13.3253 5.46754 13.4051 5.47771C13.485 5.4871 13.564 5.49884 13.643 5.51215C13.7612 5.53171 13.8778 5.55519 13.9929 5.58258C14.4538 5.69136 14.8905 5.85962 15.3029 6.09204C15.6465 6.28534 15.9728 6.52247 16.2811 6.80576C16.5895 7.08984 16.6443 7.33244 16.4564 7.55626Z" fill="black"/>
<path d="M14.6139 9.39868C14.4331 9.63424 14.1592 9.62171 13.8274 9.3525C13.3508 8.96669 12.8155 8.88217 12.2473 9.07703C12.047 9.1459 11.867 9.28598 11.6917 9.41198C11.4068 9.61702 11.1501 9.62015 10.9756 9.40024C10.8003 9.17955 10.8567 8.93773 11.1243 8.69983C11.6142 8.26549 12.1918 8.07219 12.8108 8.05811C13.4126 8.09097 13.9354 8.26158 14.3854 8.63565C14.7125 8.90799 14.7939 9.16468 14.6139 9.39868Z" fill="black"/>
<path d="M12.7714 21.1421C12.7041 21.1421 12.6368 21.1437 12.5703 21.1444C12.6368 21.1437 12.7041 21.1429 12.7714 21.1429C12.8254 21.1429 12.8794 21.1429 12.9342 21.1437C12.8794 21.1429 12.8254 21.1421 12.7714 21.1421ZM13.0696 21.1452C13.1643 21.1468 13.2598 21.1476 13.3552 21.1452C13.2598 21.1476 13.1651 21.1476 13.0696 21.1452Z" fill="white"/>
<path d="M23.1062 18.7139C23.0475 18.2568 22.7971 17.9352 22.4206 17.6855C21.2562 16.9163 20.0987 16.1384 18.9366 15.366C18.0335 14.7665 17.0537 14.3815 15.9588 14.3752C13.9491 14.3642 11.9395 14.3525 9.92979 14.3783C8.70113 14.394 7.6055 14.8463 6.68284 15.6516C5.9832 16.2628 5.28983 16.8685 4.47516 17.3295C3.96335 17.6198 3.78022 18.1496 3.92891 18.6685C4.08152 19.1975 4.50255 19.516 5.09419 19.5262C5.67721 19.5371 6.26102 19.5332 6.84405 19.5278C7.2056 19.5246 7.39264 19.3611 7.38951 19.0715C7.38638 18.7827 7.20169 18.6309 6.83231 18.6278C6.28059 18.6231 5.72808 18.6395 5.17636 18.616C5.05114 18.6113 4.92984 18.4814 4.80698 18.4094C4.87506 18.2936 4.91419 18.1246 5.01514 18.0698C5.84703 17.6159 6.54353 16.9937 7.24551 16.3685C8.4507 15.2947 9.91022 15.1656 11.4378 15.2893V18.6262H10.9972C10.6435 18.6278 10.289 18.62 9.93526 18.634C9.66762 18.6442 9.50641 18.7984 9.50171 19.0692C9.49702 19.3399 9.65275 19.4918 9.91961 19.5215C10.0221 19.5332 10.127 19.5293 10.2311 19.5293C14.2098 19.5293 18.1876 19.5293 22.1663 19.5293C22.2704 19.5293 22.3753 19.5309 22.4778 19.5207C22.9051 19.4777 23.1618 19.1443 23.1062 18.7139ZM22.0442 18.609H12.3863V15.3065C12.4161 15.2885 12.4333 15.2697 12.4505 15.2697C13.6784 15.2775 14.907 15.2713 16.1349 15.3018C16.9347 15.3214 17.6578 15.6195 18.3199 16.0554C19.5376 16.856 20.7483 17.6675 21.9628 18.4728C22.0059 18.501 22.0622 18.5073 22.1131 18.5229C22.0896 18.5519 22.0669 18.58 22.0442 18.609Z" fill="black"/>
<path d="M13.9418 20.7171C13.9175 20.991 13.7438 21.1225 13.4871 21.1373C13.4495 21.1397 13.412 21.1413 13.3744 21.142C13.3681 21.1428 13.3619 21.1428 13.3556 21.1428C13.2601 21.1459 13.1647 21.1452 13.07 21.1428C13.0246 21.1428 12.9792 21.1428 12.9346 21.1413C12.8798 21.1405 12.8258 21.1405 12.7718 21.1405C12.7045 21.1405 12.6372 21.1413 12.5707 21.142C12.5159 21.1436 12.4611 21.1444 12.4071 21.1436C12.3531 21.1444 12.2991 21.1436 12.2451 21.1428C12.2029 21.1428 12.1606 21.1405 12.1183 21.1381C11.8335 21.1233 11.6504 20.9472 11.641 20.6999C11.6316 20.4635 11.8131 20.246 12.0894 20.235C12.5652 20.2162 13.0434 20.2155 13.5184 20.2397C13.8064 20.2546 13.9637 20.4588 13.9418 20.7163V20.7171Z" fill="black"/>
<path d="M5.57745 23.1245C4.82303 23.1245 4.20401 23.7365 4.1954 24.4893C4.18679 25.2492 4.82069 25.891 5.57979 25.8917C6.32951 25.8917 6.94541 25.2751 6.95167 24.5191C6.95871 23.7428 6.34908 23.1237 5.57745 23.1245ZM5.60875 24.9659C5.34502 24.9816 5.12668 24.782 5.11885 24.5175C5.11259 24.2663 5.30276 24.0534 5.55006 24.0354C5.79422 24.0174 6.03917 24.2405 6.04778 24.4893C6.05717 24.7343 5.85761 24.9503 5.60875 24.9659Z" fill="black"/>
<path d="M26.5282 23.1245C25.7737 23.1292 25.161 23.742 25.1563 24.4972C25.1508 25.2602 25.7855 25.8988 26.5438 25.8925C27.2912 25.8855 27.9133 25.2633 27.9204 24.5128C27.9282 23.7561 27.2912 23.1206 26.5282 23.1245ZM26.9985 24.5473C26.975 24.8071 26.7395 24.9957 26.4773 24.9636C26.2331 24.9347 26.0445 24.7014 26.0703 24.4612C26.0962 24.2194 26.327 24.0198 26.5634 24.0362C26.8224 24.0542 27.022 24.289 26.9985 24.5473Z" fill="black"/>
</svg>
