<svg width="29" height="32" viewBox="0 0 29 32" fill="none" xmlns="http://www.w3.org/2000/svg">
<path d="M27.2699 11.3327H24.7433C24.7198 11.2106 24.6963 11.1158 24.6822 11.0209C24.2278 7.84742 23.7743 4.67484 23.3189 1.50226C23.2645 1.122 23.0936 0.963322 22.7209 0.963322C17.2442 0.961445 11.7685 0.961445 6.2918 0.963322C5.91248 0.963322 5.7369 1.1173 5.68339 1.49005C5.31439 4.05422 4.94822 6.61744 4.58017 9.18161C4.47782 9.89424 4.37267 10.6069 4.26657 11.3327C3.36052 11.3327 2.48733 11.3298 1.61321 11.3336C0.934376 11.3373 0.505294 11.7702 0.502477 12.4518C0.498721 13.4245 0.49966 14.3973 0.502477 15.369C0.503416 16.0948 0.924048 16.5154 1.64795 16.5183C2.262 16.5201 2.87698 16.5183 3.53516 16.5183C3.29949 18.1604 3.06852 19.7622 2.83943 21.364C2.4141 24.3347 1.99253 27.3045 1.56532 30.2742C1.48927 30.8019 1.6733 31.0376 2.19721 31.0376C10.3958 31.0385 18.5934 31.0385 26.792 31.0376C27.3225 31.0376 27.514 30.8047 27.437 30.2855C27.2905 29.2931 27.1506 28.2988 27.0089 27.3054C26.6295 24.6558 26.2493 22.0062 25.8709 19.3566C25.7366 18.4205 25.6052 17.4844 25.469 16.5183C26.1131 16.5183 26.7272 16.5201 27.3412 16.5183C28.0858 16.5154 28.497 16.1004 28.4989 15.3484C28.5008 14.4189 28.4999 13.4903 28.4989 12.5607C28.4989 11.7261 28.1055 11.3336 27.2699 11.3327ZM3.06946 15.4601H1.55781V14.4602H3.06946V15.4601ZM3.07321 13.3898H1.56439V12.3814H3.07321V13.3898ZM24.8541 12.3889V13.3823H22.8091V12.3889H24.8541ZM24.8503 14.4564V15.4648H22.8213V14.4564H24.8503ZM22.3519 2.01396C22.7932 5.10486 23.2344 8.19575 23.6795 11.3111H21.8974C21.5838 8.2258 21.2702 5.1396 20.952 2.01396H22.3519ZM9.29444 13.3889H7.257V12.3936H9.29444V13.3889ZM9.30101 14.4667V15.4648H7.26733V14.4667H9.30101ZM7.62411 16.537H21.3763C21.5848 18.597 21.7913 20.6466 22.0007 22.7188H6.99504C7.20536 20.6532 7.4138 18.6036 7.62411 16.537ZM12.4097 13.3823H10.3751V12.3842H12.4097V13.3823ZM12.4126 14.4677V15.4639H10.3789V14.4677H12.4126ZM15.5175 14.4667V15.4648H13.4782V14.4667H15.5175ZM13.4782 13.3832V12.3861H15.511V13.3832H13.4782ZM18.6225 13.3954H16.5935V12.3861H18.6225V13.3954ZM18.63 14.4649V15.4667H16.5982V14.4649H18.63ZM21.7341 13.3954H19.7051V12.3861H21.7341V13.3954ZM21.7444 14.4667V15.4648H19.7107V14.4667H21.7444ZM9.09727 2.00833H19.9079C20.1182 4.07018 20.3276 6.12639 20.5388 8.20326H8.47289C8.68039 6.13672 8.88789 4.08144 9.09727 2.00833ZM8.3621 9.27832H20.6421C20.7125 9.94776 20.7829 10.6191 20.8562 11.312H8.15554C8.22502 10.6219 8.29262 9.95903 8.3621 9.27832ZM6.65328 2.0196H8.05226C7.7396 5.11706 7.42788 8.20326 7.11429 11.3101H5.3266C5.76977 8.20514 6.21012 5.12176 6.65328 2.0196ZM4.14827 12.3842H6.18195V13.3879H4.14827V12.3842ZM6.18946 14.462V15.4686H4.15202V14.462H6.18946ZM2.66103 29.9841C3.30231 25.4905 3.93983 21.0175 4.58017 16.5342H6.58662C6.13031 21.025 5.67681 25.4971 5.2205 29.9841H2.66103ZM6.26363 29.9785C6.47395 27.9101 6.68239 25.8604 6.8927 23.7958H22.1181C22.3265 25.8585 22.5331 27.9072 22.7415 29.9785H6.26363ZM26.3451 29.9822H23.7846C23.3302 25.4895 22.8786 21.0241 22.4251 16.538H24.4269C25.0653 21.0156 25.7038 25.4886 26.3451 29.9822ZM27.4445 15.4667H25.931V14.4649H27.4445V15.4667ZM27.4473 13.3907H25.9319V12.3917H27.4473V13.3907Z" fill="black"/>
</svg>
