<svg width="32" height="36" viewBox="0 0 32 36" fill="none" xmlns="http://www.w3.org/2000/svg">
<mask id="path-1-inside-1_686_2266" fill="white">
<path d="M30.9939 12.3349C30.7086 12.2869 30.618 12.4816 30.5673 12.738C30.4903 13.1302 30.1162 13.2479 29.7865 13.0269C29.426 12.786 29.0492 12.5686 28.628 12.3086C28.6316 12.3503 28.6234 12.3068 28.6243 12.2624C28.6606 10.9889 28.1542 10.469 26.8762 10.469H5.96229C5.34092 10.469 4.71954 10.4626 4.09817 10.4717C3.24763 10.4834 2.63712 11.1229 2.6498 11.9735C2.65162 12.1184 2.6498 12.2633 2.6498 12.3621C2.31013 12.5478 1.97499 12.6909 1.68423 12.8965C1.11358 13.2996 0.923362 13.2461 0.686044 12.6048C0.64166 12.4853 0.436951 12.3421 0.321915 12.3548C0.206879 12.3675 0.0827857 12.5478 0.0175686 12.6809C-0.0240979 12.766 0.0175686 12.9028 0.0474597 13.0097C0.273908 13.8204 1.24401 14.1293 1.9306 13.622C2.18423 13.4345 2.4614 13.2778 2.76665 13.0813C3.60361 17.2398 5.83005 20.2905 9.43873 22.3385C9.09724 23.3059 8.75666 24.2488 8.43511 25.1972C8.36174 25.4136 8.26663 25.4961 8.03022 25.4915C7.35359 25.4761 6.67424 25.4671 5.99762 25.4979C5.1507 25.5368 4.57009 26.3321 4.74762 27.1609C4.89074 27.8267 5.4324 28.2461 6.17968 28.2605C6.55559 28.2678 6.93149 28.2624 7.34272 28.2624C7.28837 28.4182 7.25576 28.5133 7.22225 28.6084C6.68511 30.1392 6.1507 31.6718 5.60903 33.2017C5.41429 33.7533 5.48766 34.2596 5.89436 34.6745C6.08276 34.8674 6.3545 34.9788 6.5891 35.1274H7.13167C7.7775 34.9435 8.1208 34.4978 8.33094 33.8728C8.92514 32.112 9.56101 30.3656 10.1652 28.6084C10.2512 28.3593 10.35 28.256 10.6326 28.2605C11.8173 28.2787 13.0021 28.2678 14.2421 28.2678V28.6781C14.2431 30.3593 14.2367 32.0404 14.2476 33.7216C14.2521 34.3973 14.7639 34.9562 15.4206 35.0513C16.0682 35.1455 16.7132 34.7732 16.9224 34.1545C16.993 33.9453 17.0166 33.7125 17.0175 33.4906C17.0257 31.8892 17.022 30.2868 17.022 28.6845V28.2968C17.1298 28.2859 17.2159 28.2696 17.3019 28.2696C18.4305 28.2678 19.5601 28.275 20.6887 28.2624C20.9142 28.2605 20.9976 28.3484 21.0664 28.5468C21.6814 30.3239 22.3209 32.093 22.9215 33.8747C23.128 34.4852 23.4523 34.9335 24.0818 35.1274H24.6923C25.7439 34.5794 25.9459 34.0594 25.5474 32.9299C25.0863 31.6219 24.6253 30.3149 24.1651 29.0078C24.0836 28.7769 24.0084 28.5441 23.9151 28.2678C24.3562 28.2678 24.7503 28.2778 25.1434 28.2651C25.9532 28.2397 26.5401 27.6428 26.5347 26.8629C26.5301 26.0948 25.9532 25.5205 25.1515 25.4943C24.8354 25.4843 24.5193 25.4943 24.2032 25.4897C23.7974 25.4843 23.2838 25.622 23.0157 25.4263C22.734 25.2198 22.6796 24.6963 22.5392 24.3068C22.3046 23.6528 22.08 22.9952 21.8526 22.343C25.4858 20.2778 27.6959 17.2162 28.5238 13.0722C28.8463 13.2851 29.1225 13.4508 29.3816 13.641C30.1017 14.1673 31.1542 13.7552 31.272 12.8938C31.3055 12.6465 31.3091 12.3874 30.9939 12.3349ZM10.0909 22.6582C10.5184 22.833 10.9016 22.9897 11.3273 23.1646C11.1326 23.7171 10.9369 24.2714 10.7413 24.8258C10.5873 25.2606 10.2817 25.478 9.82459 25.478H9.09905C9.43782 24.5151 9.75938 23.6002 10.0909 22.6582ZM12.0094 23.3982C12.7784 23.5459 13.4949 23.6827 14.2322 23.824V25.4517H11.292C11.5374 24.7506 11.772 24.0785 12.0094 23.3982ZM8.70594 30.6183C8.32098 31.7125 7.93783 32.8067 7.55105 33.9009C7.44236 34.2071 7.23131 34.3882 6.89526 34.3882C6.60359 34.3873 6.38349 34.2451 6.30196 33.9734C6.25396 33.8131 6.25305 33.6093 6.3074 33.4517C6.87714 31.7895 7.46047 30.1328 8.05105 28.4779C8.08275 28.3883 8.20866 28.2778 8.29562 28.2732C8.68782 28.2506 9.08184 28.2633 9.53655 28.2633C9.24398 29.0921 8.97496 29.8547 8.70594 30.6183ZM16.3055 33.5594C16.3046 33.9915 16.1135 34.2551 15.7784 34.3185C15.3472 34.4 14.9921 34.1265 14.9813 33.6699C14.965 33.016 14.974 32.3602 14.974 31.7062C14.9731 30.5776 14.974 29.4499 14.974 28.2805H16.2757C16.2874 28.3638 16.3055 28.439 16.3055 28.5142C16.3074 30.1962 16.3092 31.8774 16.3055 33.5594ZM25.0093 33.5142C25.1316 33.8683 24.9441 34.2243 24.6216 34.3493C24.2919 34.477 23.8888 34.3167 23.7602 33.9562C23.089 32.0812 22.4332 30.2017 21.7512 28.2633C22.2077 28.2633 22.6017 28.2533 22.9948 28.2714C23.0764 28.275 23.1977 28.3692 23.2258 28.448C23.8282 30.1337 24.4242 31.8212 25.0093 33.5142ZM24.9269 26.1935C25.0392 26.1935 25.1542 26.1881 25.2648 26.2053C25.6189 26.2606 25.8544 26.5423 25.8463 26.8856C25.8372 27.227 25.5836 27.4979 25.2294 27.5341C25.118 27.5459 25.0039 27.5395 24.8916 27.5395H6.39526C6.27117 27.5395 6.14526 27.5468 6.02298 27.5305C5.69055 27.4852 5.4478 27.2089 5.43874 26.8846C5.43059 26.5703 5.63892 26.295 5.95867 26.2225C6.0891 26.1935 6.22769 26.1944 6.36265 26.1944C12.5501 26.1935 18.7385 26.1935 24.9269 26.1935ZM14.9994 25.4607V23.8747H16.2766V25.4607H14.9994ZM17.0474 25.4589V23.8249C17.7766 23.6854 18.503 23.5468 19.2702 23.401C19.503 24.064 19.7403 24.737 19.9939 25.4589H17.0474ZM22.1896 25.4834C21.7267 25.4834 21.3137 25.4915 20.9015 25.4743C20.8336 25.4716 20.7376 25.3665 20.7095 25.2895C20.455 24.5939 20.2131 23.8928 19.9577 23.1646C20.3843 22.9934 20.7784 22.8358 21.1968 22.6673C21.5265 23.603 21.849 24.5187 22.1896 25.4834ZM27.8906 12.2063C27.3254 17.3566 23.6542 21.5477 18.6217 22.7887C11.9478 24.4354 5.27932 20.4019 3.65524 13.7271C3.51937 13.17 3.44419 12.5967 3.36991 12.0278C3.30922 11.5613 3.619 11.2126 4.09092 11.1981C4.60994 11.1827 5.12987 11.1918 5.64979 11.1918H15.647C19.4197 11.1918 23.1923 11.1909 26.9649 11.1918C27.7195 11.1918 27.9713 11.4708 27.8906 12.2063Z"/>
</mask>
<path d="M30.9939 12.3349C30.7086 12.2869 30.618 12.4816 30.5673 12.738C30.4903 13.1302 30.1162 13.2479 29.7865 13.0269C29.426 12.786 29.0492 12.5686 28.628 12.3086C28.6316 12.3503 28.6234 12.3068 28.6243 12.2624C28.6606 10.9889 28.1542 10.469 26.8762 10.469H5.96229C5.34092 10.469 4.71954 10.4626 4.09817 10.4717C3.24763 10.4834 2.63712 11.1229 2.6498 11.9735C2.65162 12.1184 2.6498 12.2633 2.6498 12.3621C2.31013 12.5478 1.97499 12.6909 1.68423 12.8965C1.11358 13.2996 0.923362 13.2461 0.686044 12.6048C0.64166 12.4853 0.436951 12.3421 0.321915 12.3548C0.206879 12.3675 0.0827857 12.5478 0.0175686 12.6809C-0.0240979 12.766 0.0175686 12.9028 0.0474597 13.0097C0.273908 13.8204 1.24401 14.1293 1.9306 13.622C2.18423 13.4345 2.4614 13.2778 2.76665 13.0813C3.60361 17.2398 5.83005 20.2905 9.43873 22.3385C9.09724 23.3059 8.75666 24.2488 8.43511 25.1972C8.36174 25.4136 8.26663 25.4961 8.03022 25.4915C7.35359 25.4761 6.67424 25.4671 5.99762 25.4979C5.1507 25.5368 4.57009 26.3321 4.74762 27.1609C4.89074 27.8267 5.4324 28.2461 6.17968 28.2605C6.55559 28.2678 6.93149 28.2624 7.34272 28.2624C7.28837 28.4182 7.25576 28.5133 7.22225 28.6084C6.68511 30.1392 6.1507 31.6718 5.60903 33.2017C5.41429 33.7533 5.48766 34.2596 5.89436 34.6745C6.08276 34.8674 6.3545 34.9788 6.5891 35.1274H7.13167C7.7775 34.9435 8.1208 34.4978 8.33094 33.8728C8.92514 32.112 9.56101 30.3656 10.1652 28.6084C10.2512 28.3593 10.35 28.256 10.6326 28.2605C11.8173 28.2787 13.0021 28.2678 14.2421 28.2678V28.6781C14.2431 30.3593 14.2367 32.0404 14.2476 33.7216C14.2521 34.3973 14.7639 34.9562 15.4206 35.0513C16.0682 35.1455 16.7132 34.7732 16.9224 34.1545C16.993 33.9453 17.0166 33.7125 17.0175 33.4906C17.0257 31.8892 17.022 30.2868 17.022 28.6845V28.2968C17.1298 28.2859 17.2159 28.2696 17.3019 28.2696C18.4305 28.2678 19.5601 28.275 20.6887 28.2624C20.9142 28.2605 20.9976 28.3484 21.0664 28.5468C21.6814 30.3239 22.3209 32.093 22.9215 33.8747C23.128 34.4852 23.4523 34.9335 24.0818 35.1274H24.6923C25.7439 34.5794 25.9459 34.0594 25.5474 32.9299C25.0863 31.6219 24.6253 30.3149 24.1651 29.0078C24.0836 28.7769 24.0084 28.5441 23.9151 28.2678C24.3562 28.2678 24.7503 28.2778 25.1434 28.2651C25.9532 28.2397 26.5401 27.6428 26.5347 26.8629C26.5301 26.0948 25.9532 25.5205 25.1515 25.4943C24.8354 25.4843 24.5193 25.4943 24.2032 25.4897C23.7974 25.4843 23.2838 25.622 23.0157 25.4263C22.734 25.2198 22.6796 24.6963 22.5392 24.3068C22.3046 23.6528 22.08 22.9952 21.8526 22.343C25.4858 20.2778 27.6959 17.2162 28.5238 13.0722C28.8463 13.2851 29.1225 13.4508 29.3816 13.641C30.1017 14.1673 31.1542 13.7552 31.272 12.8938C31.3055 12.6465 31.3091 12.3874 30.9939 12.3349ZM10.0909 22.6582C10.5184 22.833 10.9016 22.9897 11.3273 23.1646C11.1326 23.7171 10.9369 24.2714 10.7413 24.8258C10.5873 25.2606 10.2817 25.478 9.82459 25.478H9.09905C9.43782 24.5151 9.75938 23.6002 10.0909 22.6582ZM12.0094 23.3982C12.7784 23.5459 13.4949 23.6827 14.2322 23.824V25.4517H11.292C11.5374 24.7506 11.772 24.0785 12.0094 23.3982ZM8.70594 30.6183C8.32098 31.7125 7.93783 32.8067 7.55105 33.9009C7.44236 34.2071 7.23131 34.3882 6.89526 34.3882C6.60359 34.3873 6.38349 34.2451 6.30196 33.9734C6.25396 33.8131 6.25305 33.6093 6.3074 33.4517C6.87714 31.7895 7.46047 30.1328 8.05105 28.4779C8.08275 28.3883 8.20866 28.2778 8.29562 28.2732C8.68782 28.2506 9.08184 28.2633 9.53655 28.2633C9.24398 29.0921 8.97496 29.8547 8.70594 30.6183ZM16.3055 33.5594C16.3046 33.9915 16.1135 34.2551 15.7784 34.3185C15.3472 34.4 14.9921 34.1265 14.9813 33.6699C14.965 33.016 14.974 32.3602 14.974 31.7062C14.9731 30.5776 14.974 29.4499 14.974 28.2805H16.2757C16.2874 28.3638 16.3055 28.439 16.3055 28.5142C16.3074 30.1962 16.3092 31.8774 16.3055 33.5594ZM25.0093 33.5142C25.1316 33.8683 24.9441 34.2243 24.6216 34.3493C24.2919 34.477 23.8888 34.3167 23.7602 33.9562C23.089 32.0812 22.4332 30.2017 21.7512 28.2633C22.2077 28.2633 22.6017 28.2533 22.9948 28.2714C23.0764 28.275 23.1977 28.3692 23.2258 28.448C23.8282 30.1337 24.4242 31.8212 25.0093 33.5142ZM24.9269 26.1935C25.0392 26.1935 25.1542 26.1881 25.2648 26.2053C25.6189 26.2606 25.8544 26.5423 25.8463 26.8856C25.8372 27.227 25.5836 27.4979 25.2294 27.5341C25.118 27.5459 25.0039 27.5395 24.8916 27.5395H6.39526C6.27117 27.5395 6.14526 27.5468 6.02298 27.5305C5.69055 27.4852 5.4478 27.2089 5.43874 26.8846C5.43059 26.5703 5.63892 26.295 5.95867 26.2225C6.0891 26.1935 6.22769 26.1944 6.36265 26.1944C12.5501 26.1935 18.7385 26.1935 24.9269 26.1935ZM14.9994 25.4607V23.8747H16.2766V25.4607H14.9994ZM17.0474 25.4589V23.8249C17.7766 23.6854 18.503 23.5468 19.2702 23.401C19.503 24.064 19.7403 24.737 19.9939 25.4589H17.0474ZM22.1896 25.4834C21.7267 25.4834 21.3137 25.4915 20.9015 25.4743C20.8336 25.4716 20.7376 25.3665 20.7095 25.2895C20.455 24.5939 20.2131 23.8928 19.9577 23.1646C20.3843 22.9934 20.7784 22.8358 21.1968 22.6673C21.5265 23.603 21.849 24.5187 22.1896 25.4834ZM27.8906 12.2063C27.3254 17.3566 23.6542 21.5477 18.6217 22.7887C11.9478 24.4354 5.27932 20.4019 3.65524 13.7271C3.51937 13.17 3.44419 12.5967 3.36991 12.0278C3.30922 11.5613 3.619 11.2126 4.09092 11.1981C4.60994 11.1827 5.12987 11.1918 5.64979 11.1918H15.647C19.4197 11.1918 23.1923 11.1909 26.9649 11.1918C27.7195 11.1918 27.9713 11.4708 27.8906 12.2063Z" fill="black" stroke="black" stroke-width="3" mask="url(#path-1-inside-1_686_2266)"/>
<mask id="path-2-inside-2_686_2266" fill="white">
<path d="M31.7353 7.37837C31.6673 7.32945 31.5387 7.35844 31.4373 7.35844C29.5849 7.35753 27.7317 7.35844 25.8793 7.35844H24.998C24.9717 7.2896 24.9509 7.23887 24.9328 7.18724C24.6157 6.31134 23.9962 5.86297 23.0677 5.84757C22.6493 5.84033 22.2317 5.84305 21.8132 5.84667C20.8141 5.85392 20.2435 6.24794 19.8685 7.17275C19.8377 7.24793 19.7435 7.34485 19.6746 7.34938C19.3404 7.3675 19.0043 7.35753 18.6746 7.35753C18.4735 5.91098 16.9092 5.32765 15.8377 6.40373C15.4998 6.06678 15.1103 5.84757 14.6122 5.84757C14.1176 5.84848 13.7326 6.07402 13.3857 6.41098C12.8893 5.89921 12.3114 5.71171 11.6466 5.93544C10.9808 6.15917 10.6629 6.6809 10.5651 7.33489H9.54876C9.54876 7.17637 9.55329 7.04141 9.54786 6.90645C9.51978 6.25337 9.12666 5.86207 8.47359 5.84848C8.10131 5.84033 7.72721 5.83761 7.35493 5.8521C6.78247 5.87565 6.39479 6.27692 6.37215 6.8521C6.36671 7.00699 6.37124 7.16188 6.37124 7.35844C6.05874 7.35844 5.77976 7.36116 5.50077 7.35753C5.23809 7.35391 4.98175 7.36478 4.95458 7.70898C4.93465 7.9626 5.11943 8.07945 5.51617 8.08126C5.78429 8.08217 6.05331 8.08126 6.36309 8.08126C6.36309 8.23796 6.36128 8.35934 6.36309 8.48072C6.37577 9.19539 6.76707 9.58578 7.47993 9.59303C7.8187 9.59575 8.15837 9.59937 8.49714 9.59122C9.09134 9.57673 9.48989 9.19448 9.53337 8.60209C9.54514 8.43814 9.54786 8.27329 9.55601 8.10028H10.5551C10.7299 9.41097 12.1955 10.1619 13.402 9.03235C13.7308 9.38198 14.1312 9.58669 14.6221 9.5876C15.1131 9.58941 15.4953 9.34213 15.8368 9.03144C17.0188 10.0414 18.0786 9.68905 18.6982 8.08126C18.9699 8.08126 19.2516 8.09123 19.5324 8.07764C19.729 8.06858 19.8232 8.12746 19.8929 8.32854C20.1683 9.11205 20.844 9.57673 21.6792 9.5876C22.0514 9.59213 22.4246 9.5885 22.7969 9.5885C24.0188 9.5885 24.5315 9.24249 24.9953 8.08126H25.4174C27.4164 8.08126 29.4164 8.08126 31.4164 8.08126C31.5287 8.08126 31.6682 8.10662 31.7461 8.05228C31.8603 7.97166 32.0016 7.82764 31.9989 7.71351C31.9961 7.59757 31.8503 7.4626 31.7353 7.37927V7.37837ZM8.47449 8.87655C8.12486 8.88289 7.77522 8.88198 7.42558 8.87655C7.2091 8.87293 7.09044 8.75336 7.08863 8.53688C7.08501 7.99521 7.08501 7.45445 7.08863 6.91369C7.08863 6.67819 7.22087 6.56496 7.45185 6.56406C7.79062 6.56406 8.12939 6.55953 8.46725 6.56496C8.69641 6.56859 8.82232 6.68634 8.82141 6.92366V7.73525C8.82141 7.99431 8.8196 8.25336 8.82141 8.51242C8.82322 8.74883 8.70366 8.87293 8.47359 8.87655H8.47449ZM12.9745 8.25427C12.8658 8.6501 12.5216 8.8847 12.114 8.86658C11.7245 8.85028 11.3875 8.59575 11.3259 8.20626C11.2797 7.91097 11.2743 7.59938 11.3105 7.30228C11.3649 6.85572 11.7507 6.55591 12.181 6.5704C12.614 6.58489 12.9627 6.90645 13.0161 7.35119C13.0306 7.47257 13.0189 7.59757 13.0189 7.72166C13.027 7.72166 13.0352 7.72257 13.0442 7.72347C13.0225 7.90101 13.0216 8.08398 12.9745 8.25427ZM15.4717 7.71079H15.4672C15.4672 7.84576 15.4799 7.98162 15.4645 8.11478C15.4156 8.54956 15.0506 8.86749 14.6122 8.8684C14.1819 8.8693 13.8187 8.57764 13.7689 8.15191C13.7372 7.88561 13.7372 7.61206 13.7607 7.34576C13.8015 6.88471 14.1783 6.56134 14.6248 6.56949C15.0859 6.57855 15.4437 6.9309 15.4708 7.40735C15.4772 7.50789 15.4717 7.60934 15.4717 7.71079ZM17.921 8.04775C17.8884 8.52782 17.5324 8.8684 17.065 8.8693C16.594 8.87021 16.2399 8.53416 16.2073 8.05228C16.2 7.93996 16.2063 7.82764 16.2063 7.71532C16.2018 6.96532 16.5134 6.55862 17.0795 6.56949C17.6348 6.58036 17.9264 6.97257 17.9255 7.71079C17.9255 7.82311 17.9283 7.93543 17.921 8.04775ZM23.2534 8.85571C22.6801 8.89285 22.1013 8.89285 21.5279 8.853C20.9282 8.81133 20.4989 8.28688 20.5152 7.69992C20.5315 7.10482 20.9781 6.62927 21.5786 6.5867C21.8485 6.56859 22.1203 6.58398 22.3911 6.58398V6.58217C22.6628 6.58217 22.9346 6.56859 23.2045 6.58489C23.8078 6.62293 24.2625 7.09304 24.2833 7.68271C24.3041 8.28507 23.8694 8.81405 23.2534 8.85571Z"/>
</mask>
<path d="M31.7353 7.37837C31.6673 7.32945 31.5387 7.35844 31.4373 7.35844C29.5849 7.35753 27.7317 7.35844 25.8793 7.35844H24.998C24.9717 7.2896 24.9509 7.23887 24.9328 7.18724C24.6157 6.31134 23.9962 5.86297 23.0677 5.84757C22.6493 5.84033 22.2317 5.84305 21.8132 5.84667C20.8141 5.85392 20.2435 6.24794 19.8685 7.17275C19.8377 7.24793 19.7435 7.34485 19.6746 7.34938C19.3404 7.3675 19.0043 7.35753 18.6746 7.35753C18.4735 5.91098 16.9092 5.32765 15.8377 6.40373C15.4998 6.06678 15.1103 5.84757 14.6122 5.84757C14.1176 5.84848 13.7326 6.07402 13.3857 6.41098C12.8893 5.89921 12.3114 5.71171 11.6466 5.93544C10.9808 6.15917 10.6629 6.6809 10.5651 7.33489H9.54876C9.54876 7.17637 9.55329 7.04141 9.54786 6.90645C9.51978 6.25337 9.12666 5.86207 8.47359 5.84848C8.10131 5.84033 7.72721 5.83761 7.35493 5.8521C6.78247 5.87565 6.39479 6.27692 6.37215 6.8521C6.36671 7.00699 6.37124 7.16188 6.37124 7.35844C6.05874 7.35844 5.77976 7.36116 5.50077 7.35753C5.23809 7.35391 4.98175 7.36478 4.95458 7.70898C4.93465 7.9626 5.11943 8.07945 5.51617 8.08126C5.78429 8.08217 6.05331 8.08126 6.36309 8.08126C6.36309 8.23796 6.36128 8.35934 6.36309 8.48072C6.37577 9.19539 6.76707 9.58578 7.47993 9.59303C7.8187 9.59575 8.15837 9.59937 8.49714 9.59122C9.09134 9.57673 9.48989 9.19448 9.53337 8.60209C9.54514 8.43814 9.54786 8.27329 9.55601 8.10028H10.5551C10.7299 9.41097 12.1955 10.1619 13.402 9.03235C13.7308 9.38198 14.1312 9.58669 14.6221 9.5876C15.1131 9.58941 15.4953 9.34213 15.8368 9.03144C17.0188 10.0414 18.0786 9.68905 18.6982 8.08126C18.9699 8.08126 19.2516 8.09123 19.5324 8.07764C19.729 8.06858 19.8232 8.12746 19.8929 8.32854C20.1683 9.11205 20.844 9.57673 21.6792 9.5876C22.0514 9.59213 22.4246 9.5885 22.7969 9.5885C24.0188 9.5885 24.5315 9.24249 24.9953 8.08126H25.4174C27.4164 8.08126 29.4164 8.08126 31.4164 8.08126C31.5287 8.08126 31.6682 8.10662 31.7461 8.05228C31.8603 7.97166 32.0016 7.82764 31.9989 7.71351C31.9961 7.59757 31.8503 7.4626 31.7353 7.37927V7.37837ZM8.47449 8.87655C8.12486 8.88289 7.77522 8.88198 7.42558 8.87655C7.2091 8.87293 7.09044 8.75336 7.08863 8.53688C7.08501 7.99521 7.08501 7.45445 7.08863 6.91369C7.08863 6.67819 7.22087 6.56496 7.45185 6.56406C7.79062 6.56406 8.12939 6.55953 8.46725 6.56496C8.69641 6.56859 8.82232 6.68634 8.82141 6.92366V7.73525C8.82141 7.99431 8.8196 8.25336 8.82141 8.51242C8.82322 8.74883 8.70366 8.87293 8.47359 8.87655H8.47449ZM12.9745 8.25427C12.8658 8.6501 12.5216 8.8847 12.114 8.86658C11.7245 8.85028 11.3875 8.59575 11.3259 8.20626C11.2797 7.91097 11.2743 7.59938 11.3105 7.30228C11.3649 6.85572 11.7507 6.55591 12.181 6.5704C12.614 6.58489 12.9627 6.90645 13.0161 7.35119C13.0306 7.47257 13.0189 7.59757 13.0189 7.72166C13.027 7.72166 13.0352 7.72257 13.0442 7.72347C13.0225 7.90101 13.0216 8.08398 12.9745 8.25427ZM15.4717 7.71079H15.4672C15.4672 7.84576 15.4799 7.98162 15.4645 8.11478C15.4156 8.54956 15.0506 8.86749 14.6122 8.8684C14.1819 8.8693 13.8187 8.57764 13.7689 8.15191C13.7372 7.88561 13.7372 7.61206 13.7607 7.34576C13.8015 6.88471 14.1783 6.56134 14.6248 6.56949C15.0859 6.57855 15.4437 6.9309 15.4708 7.40735C15.4772 7.50789 15.4717 7.60934 15.4717 7.71079ZM17.921 8.04775C17.8884 8.52782 17.5324 8.8684 17.065 8.8693C16.594 8.87021 16.2399 8.53416 16.2073 8.05228C16.2 7.93996 16.2063 7.82764 16.2063 7.71532C16.2018 6.96532 16.5134 6.55862 17.0795 6.56949C17.6348 6.58036 17.9264 6.97257 17.9255 7.71079C17.9255 7.82311 17.9283 7.93543 17.921 8.04775ZM23.2534 8.85571C22.6801 8.89285 22.1013 8.89285 21.5279 8.853C20.9282 8.81133 20.4989 8.28688 20.5152 7.69992C20.5315 7.10482 20.9781 6.62927 21.5786 6.5867C21.8485 6.56859 22.1203 6.58398 22.3911 6.58398V6.58217C22.6628 6.58217 22.9346 6.56859 23.2045 6.58489C23.8078 6.62293 24.2625 7.09304 24.2833 7.68271C24.3041 8.28507 23.8694 8.81405 23.2534 8.85571Z" fill="black"/>
<path d="M31.7353 7.37837H33.2353V6.61002L32.6117 6.16106L31.7353 7.37837ZM31.4373 7.35844L31.4365 8.85844H31.4373V7.35844ZM24.998 7.35844L23.5965 7.8932L23.9649 8.85844H24.998V7.35844ZM24.9328 7.18724L26.3482 6.69061L26.3457 6.68366L26.3432 6.67674L24.9328 7.18724ZM23.0677 5.84757L23.0418 7.34735L23.0429 7.34737L23.0677 5.84757ZM21.8132 5.84667L21.8241 7.34663L21.8262 7.34661L21.8132 5.84667ZM19.8685 7.17275L21.2565 7.74135L21.2585 7.7364L19.8685 7.17275ZM19.6746 7.34938L19.7558 8.84718L19.7645 8.84671L19.7731 8.84614L19.6746 7.34938ZM18.6746 7.35753L17.1889 7.56406L17.3687 8.85753H18.6746V7.35753ZM15.8377 6.40373L14.7785 7.46581L15.8414 8.52586L16.9006 7.46215L15.8377 6.40373ZM14.6122 5.84757V4.34757L14.6094 4.34758L14.6122 5.84757ZM13.3857 6.41098L12.309 7.45532L13.354 8.53281L14.4308 7.48698L13.3857 6.41098ZM11.6466 5.93544L12.1244 7.3573L12.125 7.3571L11.6466 5.93544ZM10.5651 7.33489V8.83489H11.8574L12.0486 7.5568L10.5651 7.33489ZM9.54876 7.33489H8.04876V8.83489H9.54876V7.33489ZM9.54786 6.90645L11.0466 6.84609L11.0465 6.84201L9.54786 6.90645ZM8.47359 5.84848L8.44075 7.34812L8.44239 7.34816L8.47359 5.84848ZM7.35493 5.8521L7.29658 4.35324L7.29327 4.35337L7.35493 5.8521ZM6.37215 6.8521L4.87329 6.79309L4.87307 6.7995L6.37215 6.8521ZM6.37124 7.35844V8.85844H7.87124V7.35844H6.37124ZM5.50077 7.35753L5.48008 8.85739L5.48129 8.85741L5.50077 7.35753ZM4.95458 7.70898L3.45923 7.59093L3.45919 7.59149L4.95458 7.70898ZM5.51617 8.08126L5.50932 9.58125L5.5111 9.58125L5.51617 8.08126ZM6.36309 8.08126H7.86309V6.58126H6.36309V8.08126ZM6.36309 8.48072L4.86325 8.5031L4.86332 8.50733L6.36309 8.48072ZM7.47993 9.59303L7.46468 11.093L7.4679 11.093L7.47993 9.59303ZM8.49714 9.59122L8.53322 11.0908L8.53371 11.0908L8.49714 9.59122ZM9.53337 8.60209L11.0293 8.71189L11.0295 8.70955L9.53337 8.60209ZM9.55601 8.10028V6.60028H8.12503L8.05767 8.02968L9.55601 8.10028ZM10.5551 8.10028L12.0419 7.90197L11.8683 6.60028H10.5551V8.10028ZM13.402 9.03235L14.4947 8.00474L13.4694 6.91448L12.3769 7.93732L13.402 9.03235ZM14.6221 9.5876L14.6276 8.0876L14.6249 8.0876L14.6221 9.5876ZM15.8368 9.03144L16.8112 7.89101L15.8056 7.03187L14.8273 7.92193L15.8368 9.03144ZM18.6982 8.08126V6.58126H17.6687L17.2985 7.5419L18.6982 8.08126ZM19.5324 8.07764L19.4634 6.57922L19.4599 6.57939L19.5324 8.07764ZM19.8929 8.32854L18.4757 8.82009L18.4778 8.82589L19.8929 8.32854ZM21.6792 9.5876L21.6596 11.0875L21.6609 11.0875L21.6792 9.5876ZM24.9953 8.08126V6.58126H23.9791L23.6022 7.52493L24.9953 8.08126ZM31.7461 8.05228L32.6044 9.28249L32.6115 9.27746L31.7461 8.05228ZM31.9989 7.71351L30.4993 7.74866L30.4993 7.74921L31.9989 7.71351ZM31.7353 7.37927H30.2353V8.14488L30.8553 8.59403L31.7353 7.37927ZM8.47449 8.87655L8.50169 10.3763L8.47449 7.37655V8.87655ZM7.42558 8.87655L7.40048 10.3763L7.40227 10.3764L7.42558 8.87655ZM7.08863 8.53688L5.58866 8.54691L5.58868 8.54943L7.08863 8.53688ZM7.08863 6.91369L8.58863 6.92374V6.91369H7.08863ZM7.45185 6.56406V5.06405L7.44597 5.06407L7.45185 6.56406ZM8.46725 6.56496L8.44312 8.06477L8.44353 8.06478L8.46725 6.56496ZM8.82141 6.92366L7.32141 6.91793V6.92366H8.82141ZM8.82141 8.51242L7.32145 8.52291L7.32146 8.52391L8.82141 8.51242ZM8.47359 8.87655L8.44997 7.37673L8.47359 10.3765V8.87655ZM12.9745 8.25427L11.5288 7.85439L11.528 7.85707L12.9745 8.25427ZM12.114 8.86658L12.1806 7.36806L12.1767 7.3679L12.114 8.86658ZM11.3259 8.20626L9.84395 8.4381L9.84434 8.44056L11.3259 8.20626ZM11.3105 7.30228L12.7995 7.48386L12.7995 7.4835L11.3105 7.30228ZM12.181 6.5704L12.1305 8.06955L12.1308 8.06956L12.181 6.5704ZM13.0161 7.35119L14.5056 7.17335L14.5054 7.17223L13.0161 7.35119ZM13.0189 7.72166H11.5189V9.22166H13.0189V7.72166ZM13.0442 7.72347L14.5331 7.90578L14.7195 6.38352L13.1935 6.23092L13.0442 7.72347ZM15.4717 7.71079V9.21079H16.9717V7.71079H15.4717ZM15.4672 7.71079V6.21079H13.9672V7.71079H15.4672ZM15.4645 8.11478L13.9744 7.94245L13.9739 7.94708L15.4645 8.11478ZM14.6122 8.8684L14.6091 7.3684L14.609 7.3684L14.6122 8.8684ZM13.7689 8.15191L15.2587 7.97757L15.2583 7.97459L13.7689 8.15191ZM13.7607 7.34576L15.2549 7.47789L15.2549 7.47786L13.7607 7.34576ZM14.6248 6.56949L14.6543 5.06978L14.6522 5.06974L14.6248 6.56949ZM15.4708 7.40735L13.9732 7.49277L13.9738 7.50176L15.4708 7.40735ZM17.921 8.04775L19.4176 8.1494L19.4179 8.14432L17.921 8.04775ZM17.065 8.8693L17.0679 10.3693H17.0679L17.065 8.8693ZM16.2073 8.05228L14.7104 8.14885L14.7107 8.15355L16.2073 8.05228ZM16.2063 7.71532H17.7064L17.7063 7.70626L16.2063 7.71532ZM17.0795 6.56949L17.1089 5.06978L17.1083 5.06977L17.0795 6.56949ZM17.9255 7.71079L16.4255 7.70895V7.71079H17.9255ZM23.2534 8.85571L23.3504 10.3526L23.3547 10.3523L23.2534 8.85571ZM21.5279 8.853L21.6319 7.35661L21.6319 7.35661L21.5279 8.853ZM20.5152 7.69992L22.0146 7.74157L22.0146 7.741L20.5152 7.69992ZM21.5786 6.5867L21.4782 5.09006L21.4725 5.09046L21.5786 6.5867ZM22.3911 6.58398V8.08398H23.8911V6.58398H22.3911ZM22.3911 6.58217V5.08217H20.8911V6.58217H22.3911ZM23.2045 6.58489L23.2989 5.08786L23.2949 5.08762L23.2045 6.58489ZM24.2833 7.68271L25.7824 7.63086L25.7824 7.62975L24.2833 7.68271ZM32.6117 6.16106C32.3561 5.97704 32.1021 5.90741 31.9392 5.87818C31.7769 5.84908 31.6401 5.84885 31.567 5.8504C31.4944 5.85194 31.4238 5.85752 31.4104 5.85847C31.3778 5.86079 31.4016 5.85844 31.4373 5.85844V8.85844C31.5236 8.85844 31.6015 8.85246 31.6238 8.85087C31.6651 8.84792 31.65 8.84931 31.6307 8.84972C31.6109 8.85014 31.5253 8.85183 31.4095 8.83105C31.2929 8.81015 31.0804 8.75523 30.8588 8.59567L32.6117 6.16106ZM31.438 5.85844C29.5852 5.85753 27.7306 5.85844 25.8793 5.85844V8.85844C27.7327 8.85844 29.5846 8.85753 31.4365 8.85844L31.438 5.85844ZM25.8793 5.85844H24.998V8.85844H25.8793V5.85844ZM26.3994 6.82368C26.3551 6.70744 26.358 6.71872 26.3482 6.69061L23.5174 7.68387C23.5437 7.75903 23.5884 7.87176 23.5965 7.8932L26.3994 6.82368ZM26.3432 6.67674C26.105 6.0186 25.7114 5.41312 25.1057 4.97722C24.4987 4.54042 23.7977 4.35947 23.0926 4.34778L23.0429 7.34737C23.2662 7.35107 23.3392 7.40201 23.3533 7.41222C23.3688 7.42333 23.4435 7.47999 23.5223 7.69775L26.3432 6.67674ZM23.0937 4.3478C22.6537 4.34018 22.2186 4.3431 21.8002 4.34673L21.8262 7.34661C22.2448 7.34299 22.6448 7.34048 23.0418 7.34735L23.0937 4.3478ZM21.8023 4.34671C21.1103 4.35173 20.3958 4.49271 19.7601 4.92744C19.1259 5.36114 18.736 5.9738 18.4784 6.6091L21.2585 7.7364C21.3173 7.59142 21.368 7.50694 21.4021 7.46015C21.4334 7.4172 21.4509 7.40555 21.4535 7.4038C21.4559 7.40215 21.4721 7.39067 21.5211 7.37782C21.5747 7.36374 21.6696 7.34775 21.8241 7.34663L21.8023 4.34671ZM18.4804 6.60415C18.5637 6.4008 18.6746 6.27422 18.7529 6.19989C18.8004 6.15476 18.8759 6.09089 18.9831 6.0294C19.0776 5.9752 19.2844 5.87181 19.5762 5.85262L19.7731 8.84614C20.3522 8.80805 20.7202 8.46881 20.8188 8.37523C20.969 8.23251 21.1424 8.01988 21.2565 7.74135L18.4804 6.60415ZM19.5934 5.85158C19.3132 5.86677 19.064 5.85753 18.6746 5.85753V8.85753C18.9447 8.85753 19.3676 8.86823 19.7558 8.84718L19.5934 5.85158ZM20.1603 7.151C19.9873 5.90623 19.1915 4.90771 18.0772 4.51853C16.9474 4.12396 15.691 4.42523 14.7748 5.34531L16.9006 7.46215C16.9888 7.3736 17.0486 7.35552 17.0636 7.35181C17.0804 7.34767 17.0862 7.35014 17.088 7.35076C17.0909 7.35177 17.1045 7.35699 17.1227 7.37991C17.1396 7.4012 17.1738 7.45508 17.1889 7.56406L20.1603 7.151ZM16.8969 5.34165C16.3687 4.81484 15.6196 4.34757 14.6122 4.34757V7.34757C14.6193 7.34757 14.6237 7.34796 14.6259 7.3482C14.6281 7.34845 14.629 7.34866 14.629 7.34867C14.629 7.34867 14.6292 7.34871 14.6298 7.34893C14.6305 7.34917 14.6324 7.34989 14.6358 7.35153C14.6493 7.35801 14.6966 7.38414 14.7785 7.46581L16.8969 5.34165ZM14.6094 4.34758C13.5895 4.34945 12.8511 4.8392 12.3406 5.33498L14.4308 7.48698C14.5286 7.39203 14.5843 7.3597 14.6032 7.35046C14.6111 7.34655 14.6125 7.34676 14.6093 7.34753C14.6058 7.34837 14.6064 7.34759 14.6149 7.34757L14.6094 4.34758ZM14.4624 5.36664C14.077 4.96927 13.5902 4.62645 12.992 4.45528C12.3808 4.28038 11.7584 4.31516 11.1682 4.51377L12.125 7.3571C12.1469 7.34973 12.1624 7.34607 12.172 7.34425C12.1768 7.34334 12.1803 7.34286 12.1824 7.34261C12.1846 7.34236 12.1857 7.34231 12.1858 7.34231C12.1859 7.34231 12.1851 7.34234 12.1838 7.34228C12.1824 7.34222 12.1805 7.34209 12.1784 7.34183C12.1739 7.34129 12.1697 7.34039 12.1666 7.33951C12.1477 7.3341 12.198 7.34091 12.309 7.45532L14.4624 5.36664ZM11.1688 4.51358C9.82647 4.96466 9.23785 6.0682 9.08157 7.11298L12.0486 7.5568C12.0719 7.40102 12.1082 7.35299 12.1053 7.35699C12.103 7.36011 12.0972 7.36638 12.0909 7.37094C12.085 7.37521 12.0923 7.36807 12.1244 7.3573L11.1688 4.51358ZM10.5651 5.83489H9.54876V8.83489H10.5651V5.83489ZM11.0488 7.33489C11.0488 7.24441 11.0536 7.01922 11.0466 6.84609L8.04907 6.9668C8.05297 7.0636 8.04876 7.10834 8.04876 7.33489H11.0488ZM11.0465 6.84201C11.02 6.2274 10.8101 5.57511 10.2991 5.07043C9.7863 4.56391 9.12777 4.36177 8.50479 4.3488L8.44239 7.34816C8.47248 7.34878 8.33705 7.34909 8.19104 7.20488C8.0469 7.06252 8.04759 6.93241 8.04924 6.97088L11.0465 6.84201ZM8.50643 4.34884C8.12161 4.34041 7.71299 4.33703 7.29658 4.35324L7.41328 7.35097C7.74144 7.33819 8.08101 7.34024 8.44075 7.34812L8.50643 4.34884ZM7.29327 4.35337C6.66058 4.3794 6.04739 4.62363 5.58498 5.09643C5.12516 5.56658 4.89755 6.17721 4.87331 6.79309L7.87098 6.91111C7.86938 6.95181 7.84694 7.07421 7.72974 7.19405C7.60995 7.31653 7.47682 7.34836 7.41659 7.35084L7.29327 4.35337ZM4.87307 6.7995C4.86646 6.98774 4.87124 7.22058 4.87124 7.35844H7.87124C7.87124 7.10318 7.86696 7.02624 7.87122 6.9047L4.87307 6.7995ZM6.37124 5.85844C6.03907 5.85844 5.78663 5.86112 5.52025 5.85766L5.48129 8.85741C5.77288 8.86119 6.07841 8.85844 6.37124 8.85844V5.85844ZM5.52146 5.85768C5.44947 5.85668 4.97664 5.8305 4.52214 6.03569C4.24464 6.16097 3.96352 6.37151 3.75526 6.6932C3.55533 7.00204 3.4803 7.32406 3.45923 7.59093L6.44993 7.82703C6.44245 7.9218 6.40964 8.11338 6.27363 8.32349C6.12929 8.54645 5.93376 8.68996 5.75658 8.76995C5.60048 8.84042 5.47867 8.85307 5.45162 8.85566C5.42402 8.85831 5.41742 8.85653 5.48008 8.85739L5.52146 5.85768ZM3.45919 7.59149C3.43945 7.84275 3.4631 8.15819 3.60728 8.48279C3.75636 8.81844 3.99361 9.07158 4.25694 9.24415C4.72176 9.54876 5.22875 9.57997 5.50932 9.58125L5.52302 6.58128C5.40685 6.58075 5.62309 6.55262 5.90131 6.73495C6.07134 6.84638 6.24134 7.02264 6.34898 7.26499C6.45172 7.49629 6.45975 7.70202 6.44997 7.82648L3.45919 7.59149ZM5.5111 9.58125C5.78221 9.58217 6.06032 9.58126 6.36309 9.58126V6.58126C6.04629 6.58126 5.78637 6.58217 5.52124 6.58127L5.5111 9.58125ZM4.86309 8.08126C4.86309 8.20751 4.86124 8.36842 4.86326 8.5031L7.86292 8.45833C7.86131 8.35026 7.86309 8.26842 7.86309 8.08126H4.86309ZM4.86332 8.50733C4.8743 9.12611 5.05667 9.82316 5.6002 10.3647C6.14464 10.9072 6.84358 11.0866 7.46468 11.093L7.49518 8.09311C7.40342 8.09218 7.55028 8.07278 7.71769 8.23958C7.88418 8.40548 7.86455 8.54999 7.86285 8.4541L4.86332 8.50733ZM7.4679 11.093C7.79854 11.0956 8.16517 11.0996 8.53322 11.0908L8.46105 8.09165C8.15157 8.0991 7.83886 8.09586 7.49196 8.09308L7.4679 11.093ZM8.53371 11.0908C9.15146 11.0757 9.77305 10.8614 10.2582 10.3977C10.7428 9.93455 10.9844 9.32478 11.0293 8.71189L8.03739 8.4923C8.03889 8.4718 8.05946 8.34934 8.18534 8.22902C8.3118 8.10814 8.43702 8.09224 8.46056 8.09167L8.53371 11.0908ZM11.0295 8.70955C11.0426 8.5277 11.0494 8.27644 11.0543 8.17089L8.05767 8.02968C8.04634 8.27014 8.04771 8.34859 8.03722 8.49464L11.0295 8.70955ZM9.55601 9.60028H10.5551V6.60028H9.55601V9.60028ZM9.06827 8.2986C9.22352 9.46256 9.96864 10.4582 11.0463 10.8788C12.179 11.3208 13.4476 11.0444 14.4272 10.1274L12.3769 7.93732C12.2488 8.05717 12.1679 8.07875 12.1513 8.08239C12.1456 8.08365 12.1418 8.08404 12.14 8.08417C12.139 8.08423 12.1383 8.08424 12.1379 8.08424C12.1375 8.08424 12.1373 8.08422 12.1373 8.08422C12.1373 8.08422 12.1373 8.08422 12.1374 8.08424C12.1376 8.08426 12.1377 8.08428 12.1377 8.0843C12.1379 8.08434 12.1377 8.08431 12.137 8.08403C12.1366 8.08387 12.0615 8.04869 12.0419 7.90197L9.06827 8.2986ZM12.3093 10.06C12.8753 10.6618 13.6534 11.0858 14.6193 11.0876L14.6249 8.0876C14.6068 8.08757 14.5979 8.08577 14.5955 8.08523C14.5931 8.0847 14.5913 8.08414 14.5882 8.08267C14.5831 8.08032 14.5507 8.06431 14.4947 8.00474L12.3093 10.06ZM14.6166 11.0876C15.6677 11.0915 16.4038 10.5435 16.8462 10.1409L14.8273 7.92193C14.7102 8.02851 14.643 8.07079 14.6113 8.08674C14.5985 8.09318 14.5969 8.09254 14.6043 8.09065C14.6127 8.08855 14.6217 8.08758 14.6276 8.08761L14.6166 11.0876ZM14.8624 10.1719C15.6579 10.8515 16.7595 11.3574 17.9513 10.9615C19.0689 10.5903 19.7233 9.59252 20.0979 8.62063L17.2985 7.5419C17.1857 7.83463 17.0786 8.00071 17.0086 8.08376C16.9428 8.16197 16.9356 8.13773 17.0056 8.11449C17.0856 8.08789 17.1427 8.10336 17.1326 8.10027C17.106 8.09217 16.9964 8.0493 16.8112 7.89101L14.8624 10.1719ZM18.6982 9.58126C18.8975 9.58126 19.2772 9.59175 19.6049 9.57589L19.4599 6.57939C19.2261 6.59071 19.0423 6.58126 18.6982 6.58126V9.58126ZM19.6015 9.57605C19.5684 9.57757 19.2522 9.59322 18.9157 9.36394C18.5834 9.13759 18.4843 8.84467 18.4758 8.82009L21.3101 7.837C21.2318 7.61133 21.0507 7.18843 20.6048 6.88463C20.1546 6.57791 19.693 6.56865 19.4634 6.57923L19.6015 9.57605ZM18.4778 8.82589C18.9716 10.2309 20.2248 11.0688 21.6596 11.0875L21.6987 8.08772C21.5576 8.08589 21.4781 8.0482 21.4364 8.01905C21.3971 7.99149 21.3466 7.94072 21.3081 7.8312L18.4778 8.82589ZM21.6609 11.0875C22.0448 11.0922 22.4446 11.0885 22.7969 11.0885V8.0885C22.4046 8.0885 22.0581 8.09209 21.6974 8.08771L21.6609 11.0875ZM22.7969 11.0885C23.5192 11.0885 24.3175 10.9936 25.0269 10.5087C25.7326 10.0263 26.117 9.3169 26.3883 8.6376L23.6022 7.52493C23.4098 8.00685 23.306 8.05112 23.3339 8.03203C23.3655 8.01041 23.2966 8.0885 22.7969 8.0885V11.0885ZM24.9953 9.58126H25.4174V6.58126H24.9953V9.58126ZM25.4174 9.58126C25.4213 9.58126 25.4252 9.58126 25.4291 9.58126C25.433 9.58126 25.4369 9.58126 25.4408 9.58126C25.4447 9.58126 25.4486 9.58126 25.4525 9.58126C25.4564 9.58126 25.4603 9.58126 25.4642 9.58126C25.4681 9.58126 25.472 9.58126 25.4759 9.58126C25.4798 9.58126 25.4837 9.58126 25.4876 9.58126C25.4915 9.58126 25.4954 9.58126 25.4994 9.58126C25.5033 9.58126 25.5072 9.58126 25.5111 9.58126C25.515 9.58126 25.5189 9.58126 25.5228 9.58126C25.5267 9.58126 25.5306 9.58126 25.5345 9.58126C25.5384 9.58126 25.5423 9.58126 25.5462 9.58126C25.5501 9.58126 25.554 9.58126 25.5579 9.58126C25.5618 9.58126 25.5657 9.58126 25.5696 9.58126C25.5735 9.58126 25.5774 9.58126 25.5813 9.58126C25.5853 9.58126 25.5892 9.58126 25.5931 9.58126C25.597 9.58126 25.6009 9.58126 25.6048 9.58126C25.6087 9.58126 25.6126 9.58126 25.6165 9.58126C25.6204 9.58126 25.6243 9.58126 25.6282 9.58126C25.6321 9.58126 25.636 9.58126 25.6399 9.58126C25.6438 9.58126 25.6477 9.58126 25.6516 9.58126C25.6555 9.58126 25.6594 9.58126 25.6633 9.58126C25.6672 9.58126 25.6712 9.58126 25.6751 9.58126C25.679 9.58126 25.6829 9.58126 25.6868 9.58126C25.6907 9.58126 25.6946 9.58126 25.6985 9.58126C25.7024 9.58126 25.7063 9.58126 25.7102 9.58126C25.7141 9.58126 25.718 9.58126 25.7219 9.58126C25.7258 9.58126 25.7297 9.58126 25.7336 9.58126C25.7375 9.58126 25.7414 9.58126 25.7453 9.58126C25.7492 9.58126 25.7532 9.58126 25.7571 9.58126C25.761 9.58126 25.7649 9.58126 25.7688 9.58126C25.7727 9.58126 25.7766 9.58126 25.7805 9.58126C25.7844 9.58126 25.7883 9.58126 25.7922 9.58126C25.7961 9.58126 25.8 9.58126 25.8039 9.58126C25.8078 9.58126 25.8117 9.58126 25.8156 9.58126C25.8195 9.58126 25.8234 9.58126 25.8273 9.58126C25.8312 9.58126 25.8351 9.58126 25.8391 9.58126C25.843 9.58126 25.8469 9.58126 25.8508 9.58126C25.8547 9.58126 25.8586 9.58126 25.8625 9.58126C25.8664 9.58126 25.8703 9.58126 25.8742 9.58126C25.8781 9.58126 25.882 9.58126 25.8859 9.58126C25.8898 9.58126 25.8937 9.58126 25.8976 9.58126C25.9015 9.58126 25.9054 9.58126 25.9093 9.58126C25.9132 9.58126 25.9172 9.58126 25.9211 9.58126C25.925 9.58126 25.9289 9.58126 25.9328 9.58126C25.9367 9.58126 25.9406 9.58126 25.9445 9.58126C25.9484 9.58126 25.9523 9.58126 25.9562 9.58126C25.9601 9.58126 25.964 9.58126 25.9679 9.58126C25.9718 9.58126 25.9757 9.58126 25.9796 9.58126C25.9835 9.58126 25.9874 9.58126 25.9913 9.58126C25.9952 9.58126 25.9991 9.58126 26.0031 9.58126C26.007 9.58126 26.0109 9.58126 26.0148 9.58126C26.0187 9.58126 26.0226 9.58126 26.0265 9.58126C26.0304 9.58126 26.0343 9.58126 26.0382 9.58126C26.0421 9.58126 26.046 9.58126 26.0499 9.58126C26.0538 9.58126 26.0577 9.58126 26.0616 9.58126C26.0655 9.58126 26.0694 9.58126 26.0733 9.58126C26.0772 9.58126 26.0812 9.58126 26.0851 9.58126C26.089 9.58126 26.0929 9.58126 26.0968 9.58126C26.1007 9.58126 26.1046 9.58126 26.1085 9.58126C26.1124 9.58126 26.1163 9.58126 26.1202 9.58126C26.1241 9.58126 26.128 9.58126 26.1319 9.58126C26.1358 9.58126 26.1397 9.58126 26.1436 9.58126C26.1475 9.58126 26.1514 9.58126 26.1553 9.58126C26.1592 9.58126 26.1632 9.58126 26.1671 9.58126C26.171 9.58126 26.1749 9.58126 26.1788 9.58126C26.1827 9.58126 26.1866 9.58126 26.1905 9.58126C26.1944 9.58126 26.1983 9.58126 26.2022 9.58126C26.2061 9.58126 26.21 9.58126 26.2139 9.58126C26.2178 9.58126 26.2217 9.58126 26.2256 9.58126C26.2295 9.58126 26.2334 9.58126 26.2373 9.58126C26.2413 9.58126 26.2452 9.58126 26.2491 9.58126C26.253 9.58126 26.2569 9.58126 26.2608 9.58126C26.2647 9.58126 26.2686 9.58126 26.2725 9.58126C26.2764 9.58126 26.2803 9.58126 26.2842 9.58126C26.2881 9.58126 26.292 9.58126 26.2959 9.58126C26.2998 9.58126 26.3037 9.58126 26.3076 9.58126C26.3115 9.58126 26.3154 9.58126 26.3193 9.58126C26.3233 9.58126 26.3272 9.58126 26.3311 9.58126C26.335 9.58126 26.3389 9.58126 26.3428 9.58126C26.3467 9.58126 26.3506 9.58126 26.3545 9.58126C26.3584 9.58126 26.3623 9.58126 26.3662 9.58126C26.3701 9.58126 26.374 9.58126 26.3779 9.58126C26.3818 9.58126 26.3857 9.58126 26.3896 9.58126C26.3935 9.58126 26.3974 9.58126 26.4014 9.58126C26.4053 9.58126 26.4092 9.58126 26.4131 9.58126C26.417 9.58126 26.4209 9.58126 26.4248 9.58126C26.4287 9.58126 26.4326 9.58126 26.4365 9.58126C26.4404 9.58126 26.4443 9.58126 26.4482 9.58126C26.4521 9.58126 26.456 9.58126 26.4599 9.58126C26.4638 9.58126 26.4677 9.58126 26.4716 9.58126C26.4755 9.58126 26.4795 9.58126 26.4834 9.58126C26.4873 9.58126 26.4912 9.58126 26.4951 9.58126C26.499 9.58126 26.5029 9.58126 26.5068 9.58126C26.5107 9.58126 26.5146 9.58126 26.5185 9.58126C26.5224 9.58126 26.5263 9.58126 26.5302 9.58126C26.5341 9.58126 26.538 9.58126 26.5419 9.58126C26.5458 9.58126 26.5497 9.58126 26.5536 9.58126C26.5576 9.58126 26.5615 9.58126 26.5654 9.58126C26.5693 9.58126 26.5732 9.58126 26.5771 9.58126C26.581 9.58126 26.5849 9.58126 26.5888 9.58126C26.5927 9.58126 26.5966 9.58126 26.6005 9.58126C26.6044 9.58126 26.6083 9.58126 26.6122 9.58126C26.6161 9.58126 26.62 9.58126 26.6239 9.58126C26.6278 9.58126 26.6318 9.58126 26.6357 9.58126C26.6396 9.58126 26.6435 9.58126 26.6474 9.58126C26.6513 9.58126 26.6552 9.58126 26.6591 9.58126C26.663 9.58126 26.6669 9.58126 26.6708 9.58126C26.6747 9.58126 26.6786 9.58126 26.6825 9.58126C26.6864 9.58126 26.6903 9.58126 26.6942 9.58126C26.6981 9.58126 26.702 9.58126 26.7059 9.58126C26.7099 9.58126 26.7138 9.58126 26.7177 9.58126C26.7216 9.58126 26.7255 9.58126 26.7294 9.58126C26.7333 9.58126 26.7372 9.58126 26.7411 9.58126C26.745 9.58126 26.7489 9.58126 26.7528 9.58126C26.7567 9.58126 26.7606 9.58126 26.7645 9.58126C26.7684 9.58126 26.7723 9.58126 26.7762 9.58126C26.7801 9.58126 26.7841 9.58126 26.788 9.58126C26.7919 9.58126 26.7958 9.58126 26.7997 9.58126C26.8036 9.58126 26.8075 9.58126 26.8114 9.58126C26.8153 9.58126 26.8192 9.58126 26.8231 9.58126C26.827 9.58126 26.8309 9.58126 26.8348 9.58126C26.8387 9.58126 26.8426 9.58126 26.8465 9.58126C26.8504 9.58126 26.8543 9.58126 26.8583 9.58126C26.8622 9.58126 26.8661 9.58126 26.87 9.58126C26.8739 9.58126 26.8778 9.58126 26.8817 9.58126C26.8856 9.58126 26.8895 9.58126 26.8934 9.58126C26.8973 9.58126 26.9012 9.58126 26.9051 9.58126C26.909 9.58126 26.9129 9.58126 26.9168 9.58126C26.9207 9.58126 26.9246 9.58126 26.9285 9.58126C26.9325 9.58126 26.9364 9.58126 26.9403 9.58126C26.9442 9.58126 26.9481 9.58126 26.952 9.58126C26.9559 9.58126 26.9598 9.58126 26.9637 9.58126C26.9676 9.58126 26.9715 9.58126 26.9754 9.58126C26.9793 9.58126 26.9832 9.58126 26.9871 9.58126C26.991 9.58126 26.9949 9.58126 26.9988 9.58126C27.0027 9.58126 27.0067 9.58126 27.0106 9.58126C27.0145 9.58126 27.0184 9.58126 27.0223 9.58126C27.0262 9.58126 27.0301 9.58126 27.034 9.58126C27.0379 9.58126 27.0418 9.58126 27.0457 9.58126C27.0496 9.58126 27.0535 9.58126 27.0574 9.58126C27.0613 9.58126 27.0652 9.58126 27.0691 9.58126C27.073 9.58126 27.0769 9.58126 27.0809 9.58126C27.0848 9.58126 27.0887 9.58126 27.0926 9.58126C27.0965 9.58126 27.1004 9.58126 27.1043 9.58126C27.1082 9.58126 27.1121 9.58126 27.116 9.58126C27.1199 9.58126 27.1238 9.58126 27.1277 9.58126C27.1316 9.58126 27.1355 9.58126 27.1394 9.58126C27.1433 9.58126 27.1472 9.58126 27.1511 9.58126C27.1551 9.58126 27.159 9.58126 27.1629 9.58126C27.1668 9.58126 27.1707 9.58126 27.1746 9.58126C27.1785 9.58126 27.1824 9.58126 27.1863 9.58126C27.1902 9.58126 27.1941 9.58126 27.198 9.58126C27.2019 9.58126 27.2058 9.58126 27.2097 9.58126C27.2136 9.58126 27.2175 9.58126 27.2214 9.58126C27.2253 9.58126 27.2293 9.58126 27.2332 9.58126C27.2371 9.58126 27.241 9.58126 27.2449 9.58126C27.2488 9.58126 27.2527 9.58126 27.2566 9.58126C27.2605 9.58126 27.2644 9.58126 27.2683 9.58126C27.2722 9.58126 27.2761 9.58126 27.28 9.58126C27.2839 9.58126 27.2878 9.58126 27.2917 9.58126C27.2956 9.58126 27.2996 9.58126 27.3035 9.58126C27.3074 9.58126 27.3113 9.58126 27.3152 9.58126C27.3191 9.58126 27.323 9.58126 27.3269 9.58126C27.3308 9.58126 27.3347 9.58126 27.3386 9.58126C27.3425 9.58126 27.3464 9.58126 27.3503 9.58126C27.3542 9.58126 27.3581 9.58126 27.362 9.58126C27.3659 9.58126 27.3698 9.58126 27.3738 9.58126C27.3777 9.58126 27.3816 9.58126 27.3855 9.58126C27.3894 9.58126 27.3933 9.58126 27.3972 9.58126C27.4011 9.58126 27.405 9.58126 27.4089 9.58126C27.4128 9.58126 27.4167 9.58126 27.4206 9.58126C27.4245 9.58126 27.4284 9.58126 27.4323 9.58126C27.4362 9.58126 27.4401 9.58126 27.4441 9.58126C27.448 9.58126 27.4519 9.58126 27.4558 9.58126C27.4597 9.58126 27.4636 9.58126 27.4675 9.58126C27.4714 9.58126 27.4753 9.58126 27.4792 9.58126C27.4831 9.58126 27.487 9.58126 27.4909 9.58126C27.4948 9.58126 27.4987 9.58126 27.5026 9.58126C27.5065 9.58126 27.5104 9.58126 27.5144 9.58126C27.5183 9.58126 27.5222 9.58126 27.5261 9.58126C27.53 9.58126 27.5339 9.58126 27.5378 9.58126C27.5417 9.58126 27.5456 9.58126 27.5495 9.58126C27.5534 9.58126 27.5573 9.58126 27.5612 9.58126C27.5651 9.58126 27.569 9.58126 27.5729 9.58126C27.5768 9.58126 27.5807 9.58126 27.5847 9.58126C27.5886 9.58126 27.5925 9.58126 27.5964 9.58126C27.6003 9.58126 27.6042 9.58126 27.6081 9.58126C27.612 9.58126 27.6159 9.58126 27.6198 9.58126C27.6237 9.58126 27.6276 9.58126 27.6315 9.58126C27.6354 9.58126 27.6393 9.58126 27.6432 9.58126C27.6471 9.58126 27.651 9.58126 27.6549 9.58126C27.6589 9.58126 27.6628 9.58126 27.6667 9.58126C27.6706 9.58126 27.6745 9.58126 27.6784 9.58126C27.6823 9.58126 27.6862 9.58126 27.6901 9.58126C27.694 9.58126 27.6979 9.58126 27.7018 9.58126C27.7057 9.58126 27.7096 9.58126 27.7135 9.58126C27.7174 9.58126 27.7213 9.58126 27.7253 9.58126C27.7292 9.58126 27.7331 9.58126 27.737 9.58126C27.7409 9.58126 27.7448 9.58126 27.7487 9.58126C27.7526 9.58126 27.7565 9.58126 27.7604 9.58126C27.7643 9.58126 27.7682 9.58126 27.7721 9.58126C27.776 9.58126 27.7799 9.58126 27.7838 9.58126C27.7877 9.58126 27.7916 9.58126 27.7955 9.58126C27.7995 9.58126 27.8034 9.58126 27.8073 9.58126C27.8112 9.58126 27.8151 9.58126 27.819 9.58126C27.8229 9.58126 27.8268 9.58126 27.8307 9.58126C27.8346 9.58126 27.8385 9.58126 27.8424 9.58126C27.8463 9.58126 27.8502 9.58126 27.8541 9.58126C27.858 9.58126 27.8619 9.58126 27.8659 9.58126C27.8698 9.58126 27.8737 9.58126 27.8776 9.58126C27.8815 9.58126 27.8854 9.58126 27.8893 9.58126C27.8932 9.58126 27.8971 9.58126 27.901 9.58126C27.9049 9.58126 27.9088 9.58126 27.9127 9.58126C27.9166 9.58126 27.9205 9.58126 27.9244 9.58126C27.9283 9.58126 27.9322 9.58126 27.9362 9.58126C27.9401 9.58126 27.944 9.58126 27.9479 9.58126C27.9518 9.58126 27.9557 9.58126 27.9596 9.58126C27.9635 9.58126 27.9674 9.58126 27.9713 9.58126C27.9752 9.58126 27.9791 9.58126 27.983 9.58126C27.9869 9.58126 27.9908 9.58126 27.9947 9.58126C27.9986 9.58126 28.0025 9.58126 28.0065 9.58126C28.0104 9.58126 28.0143 9.58126 28.0182 9.58126C28.0221 9.58126 28.026 9.58126 28.0299 9.58126C28.0338 9.58126 28.0377 9.58126 28.0416 9.58126C28.0455 9.58126 28.0494 9.58126 28.0533 9.58126C28.0572 9.58126 28.0611 9.58126 28.065 9.58126C28.0689 9.58126 28.0728 9.58126 28.0768 9.58126C28.0807 9.58126 28.0846 9.58126 28.0885 9.58126C28.0924 9.58126 28.0963 9.58126 28.1002 9.58126C28.1041 9.58126 28.108 9.58126 28.1119 9.58126C28.1158 9.58126 28.1197 9.58126 28.1236 9.58126C28.1275 9.58126 28.1314 9.58126 28.1353 9.58126C28.1392 9.58126 28.1432 9.58126 28.1471 9.58126C28.151 9.58126 28.1549 9.58126 28.1588 9.58126C28.1627 9.58126 28.1666 9.58126 28.1705 9.58126C28.1744 9.58126 28.1783 9.58126 28.1822 9.58126C28.1861 9.58126 28.19 9.58126 28.1939 9.58126C28.1978 9.58126 28.2017 9.58126 28.2056 9.58126C28.2095 9.58126 28.2135 9.58126 28.2174 9.58126C28.2213 9.58126 28.2252 9.58126 28.2291 9.58126C28.233 9.58126 28.2369 9.58126 28.2408 9.58126C28.2447 9.58126 28.2486 9.58126 28.2525 9.58126C28.2564 9.58126 28.2603 9.58126 28.2642 9.58126C28.2681 9.58126 28.272 9.58126 28.2759 9.58126C28.2799 9.58126 28.2838 9.58126 28.2877 9.58126C28.2916 9.58126 28.2955 9.58126 28.2994 9.58126C28.3033 9.58126 28.3072 9.58126 28.3111 9.58126C28.315 9.58126 28.3189 9.58126 28.3228 9.58126C28.3267 9.58126 28.3306 9.58126 28.3345 9.58126C28.3384 9.58126 28.3423 9.58126 28.3463 9.58126C28.3502 9.58126 28.3541 9.58126 28.358 9.58126C28.3619 9.58126 28.3658 9.58126 28.3697 9.58126C28.3736 9.58126 28.3775 9.58126 28.3814 9.58126C28.3853 9.58126 28.3892 9.58126 28.3931 9.58126C28.397 9.58126 28.4009 9.58126 28.4048 9.58126C28.4087 9.58126 28.4126 9.58126 28.4166 9.58126C28.4205 9.58126 28.4244 9.58126 28.4283 9.58126C28.4322 9.58126 28.4361 9.58126 28.44 9.58126C28.4439 9.58126 28.4478 9.58126 28.4517 9.58126C28.4556 9.58126 28.4595 9.58126 28.4634 9.58126C28.4673 9.58126 28.4712 9.58126 28.4751 9.58126C28.479 9.58126 28.483 9.58126 28.4869 9.58126C28.4908 9.58126 28.4947 9.58126 28.4986 9.58126C28.5025 9.58126 28.5064 9.58126 28.5103 9.58126C28.5142 9.58126 28.5181 9.58126 28.522 9.58126C28.5259 9.58126 28.5298 9.58126 28.5337 9.58126C28.5376 9.58126 28.5415 9.58126 28.5454 9.58126C28.5494 9.58126 28.5533 9.58126 28.5572 9.58126C28.5611 9.58126 28.565 9.58126 28.5689 9.58126C28.5728 9.58126 28.5767 9.58126 28.5806 9.58126C28.5845 9.58126 28.5884 9.58126 28.5923 9.58126C28.5962 9.58126 28.6001 9.58126 28.604 9.58126C28.6079 9.58126 28.6118 9.58126 28.6158 9.58126C28.6197 9.58126 28.6236 9.58126 28.6275 9.58126C28.6314 9.58126 28.6353 9.58126 28.6392 9.58126C28.6431 9.58126 28.647 9.58126 28.6509 9.58126C28.6548 9.58126 28.6587 9.58126 28.6626 9.58126C28.6665 9.58126 28.6704 9.58126 28.6743 9.58126C28.6782 9.58126 28.6822 9.58126 28.6861 9.58126C28.69 9.58126 28.6939 9.58126 28.6978 9.58126C28.7017 9.58126 28.7056 9.58126 28.7095 9.58126C28.7134 9.58126 28.7173 9.58126 28.7212 9.58126C28.7251 9.58126 28.729 9.58126 28.7329 9.58126C28.7368 9.58126 28.7407 9.58126 28.7446 9.58126C28.7486 9.58126 28.7525 9.58126 28.7564 9.58126C28.7603 9.58126 28.7642 9.58126 28.7681 9.58126C28.772 9.58126 28.7759 9.58126 28.7798 9.58126C28.7837 9.58126 28.7876 9.58126 28.7915 9.58126C28.7954 9.58126 28.7993 9.58126 28.8032 9.58126C28.8071 9.58126 28.811 9.58126 28.815 9.58126C28.8189 9.58126 28.8228 9.58126 28.8267 9.58126C28.8306 9.58126 28.8345 9.58126 28.8384 9.58126C28.8423 9.58126 28.8462 9.58126 28.8501 9.58126C28.854 9.58126 28.8579 9.58126 28.8618 9.58126C28.8657 9.58126 28.8696 9.58126 28.8735 9.58126C28.8774 9.58126 28.8814 9.58126 28.8853 9.58126C28.8892 9.58126 28.8931 9.58126 28.897 9.58126C28.9009 9.58126 28.9048 9.58126 28.9087 9.58126C28.9126 9.58126 28.9165 9.58126 28.9204 9.58126C28.9243 9.58126 28.9282 9.58126 28.9321 9.58126C28.936 9.58126 28.9399 9.58126 28.9438 9.58126C28.9478 9.58126 28.9517 9.58126 28.9556 9.58126C28.9595 9.58126 28.9634 9.58126 28.9673 9.58126C28.9712 9.58126 28.9751 9.58126 28.979 9.58126C28.9829 9.58126 28.9868 9.58126 28.9907 9.58126C28.9946 9.58126 28.9985 9.58126 29.0024 9.58126C29.0063 9.58126 29.0102 9.58126 29.0142 9.58126C29.0181 9.58126 29.022 9.58126 29.0259 9.58126C29.0298 9.58126 29.0337 9.58126 29.0376 9.58126C29.0415 9.58126 29.0454 9.58126 29.0493 9.58126C29.0532 9.58126 29.0571 9.58126 29.061 9.58126C29.0649 9.58126 29.0688 9.58126 29.0727 9.58126C29.0766 9.58126 29.0806 9.58126 29.0845 9.58126C29.0884 9.58126 29.0923 9.58126 29.0962 9.58126C29.1001 9.58126 29.104 9.58126 29.1079 9.58126C29.1118 9.58126 29.1157 9.58126 29.1196 9.58126C29.1235 9.58126 29.1274 9.58126 29.1313 9.58126C29.1352 9.58126 29.1391 9.58126 29.1431 9.58126C29.147 9.58126 29.1509 9.58126 29.1548 9.58126C29.1587 9.58126 29.1626 9.58126 29.1665 9.58126C29.1704 9.58126 29.1743 9.58126 29.1782 9.58126C29.1821 9.58126 29.186 9.58126 29.1899 9.58126C29.1938 9.58126 29.1977 9.58126 29.2016 9.58126C29.2055 9.58126 29.2095 9.58126 29.2134 9.58126C29.2173 9.58126 29.2212 9.58126 29.2251 9.58126C29.229 9.58126 29.2329 9.58126 29.2368 9.58126C29.2407 9.58126 29.2446 9.58126 29.2485 9.58126C29.2524 9.58126 29.2563 9.58126 29.2602 9.58126C29.2641 9.58126 29.268 9.58126 29.2719 9.58126C29.2759 9.58126 29.2798 9.58126 29.2837 9.58126C29.2876 9.58126 29.2915 9.58126 29.2954 9.58126C29.2993 9.58126 29.3032 9.58126 29.3071 9.58126C29.311 9.58126 29.3149 9.58126 29.3188 9.58126C29.3227 9.58126 29.3266 9.58126 29.3305 9.58126C29.3344 9.58126 29.3384 9.58126 29.3423 9.58126C29.3462 9.58126 29.3501 9.58126 29.354 9.58126C29.3579 9.58126 29.3618 9.58126 29.3657 9.58126C29.3696 9.58126 29.3735 9.58126 29.3774 9.58126C29.3813 9.58126 29.3852 9.58126 29.3891 9.58126C29.393 9.58126 29.3969 9.58126 29.4008 9.58126C29.4048 9.58126 29.4087 9.58126 29.4126 9.58126C29.4165 9.58126 29.4204 9.58126 29.4243 9.58126C29.4282 9.58126 29.4321 9.58126 29.436 9.58126C29.4399 9.58126 29.4438 9.58126 29.4477 9.58126C29.4516 9.58126 29.4555 9.58126 29.4594 9.58126C29.4633 9.58126 29.4673 9.58126 29.4712 9.58126C29.4751 9.58126 29.479 9.58126 29.4829 9.58126C29.4868 9.58126 29.4907 9.58126 29.4946 9.58126C29.4985 9.58126 29.5024 9.58126 29.5063 9.58126C29.5102 9.58126 29.5141 9.58126 29.518 9.58126C29.5219 9.58126 29.5258 9.58126 29.5297 9.58126C29.5337 9.58126 29.5376 9.58126 29.5415 9.58126C29.5454 9.58126 29.5493 9.58126 29.5532 9.58126C29.5571 9.58126 29.561 9.58126 29.5649 9.58126C29.5688 9.58126 29.5727 9.58126 29.5766 9.58126C29.5805 9.58126 29.5844 9.58126 29.5883 9.58126C29.5922 9.58126 29.5961 9.58126 29.6001 9.58126C29.604 9.58126 29.6079 9.58126 29.6118 9.58126C29.6157 9.58126 29.6196 9.58126 29.6235 9.58126C29.6274 9.58126 29.6313 9.58126 29.6352 9.58126C29.6391 9.58126 29.643 9.58126 29.6469 9.58126C29.6508 9.58126 29.6547 9.58126 29.6586 9.58126C29.6626 9.58126 29.6665 9.58126 29.6704 9.58126C29.6743 9.58126 29.6782 9.58126 29.6821 9.58126C29.686 9.58126 29.6899 9.58126 29.6938 9.58126C29.6977 9.58126 29.7016 9.58126 29.7055 9.58126C29.7094 9.58126 29.7133 9.58126 29.7172 9.58126C29.7211 9.58126 29.725 9.58126 29.729 9.58126C29.7329 9.58126 29.7368 9.58126 29.7407 9.58126C29.7446 9.58126 29.7485 9.58126 29.7524 9.58126C29.7563 9.58126 29.7602 9.58126 29.7641 9.58126C29.768 9.58126 29.7719 9.58126 29.7758 9.58126C29.7797 9.58126 29.7836 9.58126 29.7875 9.58126C29.7915 9.58126 29.7954 9.58126 29.7993 9.58126C29.8032 9.58126 29.8071 9.58126 29.811 9.58126C29.8149 9.58126 29.8188 9.58126 29.8227 9.58126C29.8266 9.58126 29.8305 9.58126 29.8344 9.58126C29.8383 9.58126 29.8422 9.58126 29.8461 9.58126C29.85 9.58126 29.854 9.58126 29.8579 9.58126C29.8618 9.58126 29.8657 9.58126 29.8696 9.58126C29.8735 9.58126 29.8774 9.58126 29.8813 9.58126C29.8852 9.58126 29.8891 9.58126 29.893 9.58126C29.8969 9.58126 29.9008 9.58126 29.9047 9.58126C29.9086 9.58126 29.9125 9.58126 29.9165 9.58126C29.9204 9.58126 29.9243 9.58126 29.9282 9.58126C29.9321 9.58126 29.936 9.58126 29.9399 9.58126C29.9438 9.58126 29.9477 9.58126 29.9516 9.58126C29.9555 9.58126 29.9594 9.58126 29.9633 9.58126C29.9672 9.58126 29.9711 9.58126 29.975 9.58126C29.9789 9.58126 29.9829 9.58126 29.9868 9.58126C29.9907 9.58126 29.9946 9.58126 29.9985 9.58126C30.0024 9.58126 30.0063 9.58126 30.0102 9.58126C30.0141 9.58126 30.018 9.58126 30.0219 9.58126C30.0258 9.58126 30.0297 9.58126 30.0336 9.58126C30.0375 9.58126 30.0414 9.58126 30.0454 9.58126C30.0493 9.58126 30.0532 9.58126 30.0571 9.58126C30.061 9.58126 30.0649 9.58126 30.0688 9.58126C30.0727 9.58126 30.0766 9.58126 30.0805 9.58126C30.0844 9.58126 30.0883 9.58126 30.0922 9.58126C30.0961 9.58126 30.1 9.58126 30.1039 9.58126C30.1079 9.58126 30.1118 9.58126 30.1157 9.58126C30.1196 9.58126 30.1235 9.58126 30.1274 9.58126C30.1313 9.58126 30.1352 9.58126 30.1391 9.58126C30.143 9.58126 30.1469 9.58126 30.1508 9.58126C30.1547 9.58126 30.1586 9.58126 30.1625 9.58126C30.1664 9.58126 30.1703 9.58126 30.1743 9.58126C30.1782 9.58126 30.1821 9.58126 30.186 9.58126C30.1899 9.58126 30.1938 9.58126 30.1977 9.58126C30.2016 9.58126 30.2055 9.58126 30.2094 9.58126C30.2133 9.58126 30.2172 9.58126 30.2211 9.58126C30.225 9.58126 30.2289 9.58126 30.2328 9.58126C30.2368 9.58126 30.2407 9.58126 30.2446 9.58126C30.2485 9.58126 30.2524 9.58126 30.2563 9.58126C30.2602 9.58126 30.2641 9.58126 30.268 9.58126C30.2719 9.58126 30.2758 9.58126 30.2797 9.58126C30.2836 9.58126 30.2875 9.58126 30.2914 9.58126C30.2953 9.58126 30.2993 9.58126 30.3032 9.58126C30.3071 9.58126 30.311 9.58126 30.3149 9.58126C30.3188 9.58126 30.3227 9.58126 30.3266 9.58126C30.3305 9.58126 30.3344 9.58126 30.3383 9.58126C30.3422 9.58126 30.3461 9.58126 30.35 9.58126C30.3539 9.58126 30.3578 9.58126 30.3618 9.58126C30.3657 9.58126 30.3696 9.58126 30.3735 9.58126C30.3774 9.58126 30.3813 9.58126 30.3852 9.58126C30.3891 9.58126 30.393 9.58126 30.3969 9.58126C30.4008 9.58126 30.4047 9.58126 30.4086 9.58126C30.4125 9.58126 30.4164 9.58126 30.4203 9.58126C30.4242 9.58126 30.4282 9.58126 30.4321 9.58126C30.436 9.58126 30.4399 9.58126 30.4438 9.58126C30.4477 9.58126 30.4516 9.58126 30.4555 9.58126C30.4594 9.58126 30.4633 9.58126 30.4672 9.58126C30.4711 9.58126 30.475 9.58126 30.4789 9.58126C30.4828 9.58126 30.4867 9.58126 30.4907 9.58126C30.4946 9.58126 30.4985 9.58126 30.5024 9.58126C30.5063 9.58126 30.5102 9.58126 30.5141 9.58126C30.518 9.58126 30.5219 9.58126 30.5258 9.58126C30.5297 9.58126 30.5336 9.58126 30.5375 9.58126C30.5414 9.58126 30.5453 9.58126 30.5492 9.58126C30.5532 9.58126 30.5571 9.58126 30.561 9.58126C30.5649 9.58126 30.5688 9.58126 30.5727 9.58126C30.5766 9.58126 30.5805 9.58126 30.5844 9.58126C30.5883 9.58126 30.5922 9.58126 30.5961 9.58126C30.6 9.58126 30.6039 9.58126 30.6078 9.58126C30.6117 9.58126 30.6157 9.58126 30.6196 9.58126C30.6235 9.58126 30.6274 9.58126 30.6313 9.58126C30.6352 9.58126 30.6391 9.58126 30.643 9.58126C30.6469 9.58126 30.6508 9.58126 30.6547 9.58126C30.6586 9.58126 30.6625 9.58126 30.6664 9.58126C30.6703 9.58126 30.6742 9.58126 30.6782 9.58126C30.6821 9.58126 30.686 9.58126 30.6899 9.58126C30.6938 9.58126 30.6977 9.58126 30.7016 9.58126C30.7055 9.58126 30.7094 9.58126 30.7133 9.58126C30.7172 9.58126 30.7211 9.58126 30.725 9.58126C30.7289 9.58126 30.7328 9.58126 30.7367 9.58126C30.7407 9.58126 30.7446 9.58126 30.7485 9.58126C30.7524 9.58126 30.7563 9.58126 30.7602 9.58126C30.7641 9.58126 30.768 9.58126 30.7719 9.58126C30.7758 9.58126 30.7797 9.58126 30.7836 9.58126C30.7875 9.58126 30.7914 9.58126 30.7953 9.58126C30.7992 9.58126 30.8032 9.58126 30.8071 9.58126C30.811 9.58126 30.8149 9.58126 30.8188 9.58126C30.8227 9.58126 30.8266 9.58126 30.8305 9.58126C30.8344 9.58126 30.8383 9.58126 30.8422 9.58126C30.8461 9.58126 30.85 9.58126 30.8539 9.58126C30.8578 9.58126 30.8617 9.58126 30.8657 9.58126C30.8696 9.58126 30.8735 9.58126 30.8774 9.58126C30.8813 9.58126 30.8852 9.58126 30.8891 9.58126C30.893 9.58126 30.8969 9.58126 30.9008 9.58126C30.9047 9.58126 30.9086 9.58126 30.9125 9.58126C30.9164 9.58126 30.9203 9.58126 30.9242 9.58126C30.9282 9.58126 30.9321 9.58126 30.936 9.58126C30.9399 9.58126 30.9438 9.58126 30.9477 9.58126C30.9516 9.58126 30.9555 9.58126 30.9594 9.58126C30.9633 9.58126 30.9672 9.58126 30.9711 9.58126C30.975 9.58126 30.9789 9.58126 30.9828 9.58126C30.9867 9.58126 30.9907 9.58126 30.9946 9.58126C30.9985 9.58126 31.0024 9.58126 31.0063 9.58126C31.0102 9.58126 31.0141 9.58126 31.018 9.58126C31.0219 9.58126 31.0258 9.58126 31.0297 9.58126C31.0336 9.58126 31.0375 9.58126 31.0414 9.58126C31.0453 9.58126 31.0492 9.58126 31.0532 9.58126C31.0571 9.58126 31.061 9.58126 31.0649 9.58126C31.0688 9.58126 31.0727 9.58126 31.0766 9.58126C31.0805 9.58126 31.0844 9.58126 31.0883 9.58126C31.0922 9.58126 31.0961 9.58126 31.1 9.58126C31.1039 9.58126 31.1078 9.58126 31.1117 9.58126C31.1157 9.58126 31.1196 9.58126 31.1235 9.58126C31.1274 9.58126 31.1313 9.58126 31.1352 9.58126C31.1391 9.58126 31.143 9.58126 31.1469 9.58126C31.1508 9.58126 31.1547 9.58126 31.1586 9.58126C31.1625 9.58126 31.1664 9.58126 31.1703 9.58126C31.1742 9.58126 31.1782 9.58126 31.1821 9.58126C31.186 9.58126 31.1899 9.58126 31.1938 9.58126C31.1977 9.58126 31.2016 9.58126 31.2055 9.58126C31.2094 9.58126 31.2133 9.58126 31.2172 9.58126C31.2211 9.58126 31.225 9.58126 31.2289 9.58126C31.2328 9.58126 31.2367 9.58126 31.2407 9.58126C31.2446 9.58126 31.2485 9.58126 31.2524 9.58126C31.2563 9.58126 31.2602 9.58126 31.2641 9.58126C31.268 9.58126 31.2719 9.58126 31.2758 9.58126C31.2797 9.58126 31.2836 9.58126 31.2875 9.58126C31.2914 9.58126 31.2953 9.58126 31.2992 9.58126C31.3031 9.58126 31.3071 9.58126 31.311 9.58126C31.3149 9.58126 31.3188 9.58126 31.3227 9.58126C31.3266 9.58126 31.3305 9.58126 31.3344 9.58126C31.3383 9.58126 31.3422 9.58126 31.3461 9.58126C31.35 9.58126 31.3539 9.58126 31.3578 9.58126C31.3617 9.58126 31.3656 9.58126 31.3696 9.58126C31.3735 9.58126 31.3774 9.58126 31.3813 9.58126C31.3852 9.58126 31.3891 9.58126 31.393 9.58126C31.3969 9.58126 31.4008 9.58126 31.4047 9.58126C31.4086 9.58126 31.4125 9.58126 31.4164 9.58126V6.58126C31.4125 6.58126 31.4086 6.58126 31.4047 6.58126C31.4008 6.58126 31.3969 6.58126 31.393 6.58126C31.3891 6.58126 31.3852 6.58126 31.3813 6.58126C31.3774 6.58126 31.3735 6.58126 31.3696 6.58126C31.3656 6.58126 31.3617 6.58126 31.3578 6.58126C31.3539 6.58126 31.35 6.58126 31.3461 6.58126C31.3422 6.58126 31.3383 6.58126 31.3344 6.58126C31.3305 6.58126 31.3266 6.58126 31.3227 6.58126C31.3188 6.58126 31.3149 6.58126 31.311 6.58126C31.3071 6.58126 31.3031 6.58126 31.2992 6.58126C31.2953 6.58126 31.2914 6.58126 31.2875 6.58126C31.2836 6.58126 31.2797 6.58126 31.2758 6.58126C31.2719 6.58126 31.268 6.58126 31.2641 6.58126C31.2602 6.58126 31.2563 6.58126 31.2524 6.58126C31.2485 6.58126 31.2446 6.58126 31.2407 6.58126C31.2367 6.58126 31.2328 6.58126 31.2289 6.58126C31.225 6.58126 31.2211 6.58126 31.2172 6.58126C31.2133 6.58126 31.2094 6.58126 31.2055 6.58126C31.2016 6.58126 31.1977 6.58126 31.1938 6.58126C31.1899 6.58126 31.186 6.58126 31.1821 6.58126C31.1782 6.58126 31.1742 6.58126 31.1703 6.58126C31.1664 6.58126 31.1625 6.58126 31.1586 6.58126C31.1547 6.58126 31.1508 6.58126 31.1469 6.58126C31.143 6.58126 31.1391 6.58126 31.1352 6.58126C31.1313 6.58126 31.1274 6.58126 31.1235 6.58126C31.1196 6.58126 31.1157 6.58126 31.1117 6.58126C31.1078 6.58126 31.1039 6.58126 31.1 6.58126C31.0961 6.58126 31.0922 6.58126 31.0883 6.58126C31.0844 6.58126 31.0805 6.58126 31.0766 6.58126C31.0727 6.58126 31.0688 6.58126 31.0649 6.58126C31.061 6.58126 31.0571 6.58126 31.0532 6.58126C31.0492 6.58126 31.0453 6.58126 31.0414 6.58126C31.0375 6.58126 31.0336 6.58126 31.0297 6.58126C31.0258 6.58126 31.0219 6.58126 31.018 6.58126C31.0141 6.58126 31.0102 6.58126 31.0063 6.58126C31.0024 6.58126 30.9985 6.58126 30.9946 6.58126C30.9907 6.58126 30.9867 6.58126 30.9828 6.58126C30.9789 6.58126 30.975 6.58126 30.9711 6.58126C30.9672 6.58126 30.9633 6.58126 30.9594 6.58126C30.9555 6.58126 30.9516 6.58126 30.9477 6.58126C30.9438 6.58126 30.9399 6.58126 30.936 6.58126C30.9321 6.58126 30.9282 6.58126 30.9242 6.58126C30.9203 6.58126 30.9164 6.58126 30.9125 6.58126C30.9086 6.58126 30.9047 6.58126 30.9008 6.58126C30.8969 6.58126 30.893 6.58126 30.8891 6.58126C30.8852 6.58126 30.8813 6.58126 30.8774 6.58126C30.8735 6.58126 30.8696 6.58126 30.8657 6.58126C30.8617 6.58126 30.8578 6.58126 30.8539 6.58126C30.85 6.58126 30.8461 6.58126 30.8422 6.58126C30.8383 6.58126 30.8344 6.58126 30.8305 6.58126C30.8266 6.58126 30.8227 6.58126 30.8188 6.58126C30.8149 6.58126 30.811 6.58126 30.8071 6.58126C30.8032 6.58126 30.7992 6.58126 30.7953 6.58126C30.7914 6.58126 30.7875 6.58126 30.7836 6.58126C30.7797 6.58126 30.7758 6.58126 30.7719 6.58126C30.768 6.58126 30.7641 6.58126 30.7602 6.58126C30.7563 6.58126 30.7524 6.58126 30.7485 6.58126C30.7446 6.58126 30.7407 6.58126 30.7367 6.58126C30.7328 6.58126 30.7289 6.58126 30.725 6.58126C30.7211 6.58126 30.7172 6.58126 30.7133 6.58126C30.7094 6.58126 30.7055 6.58126 30.7016 6.58126C30.6977 6.58126 30.6938 6.58126 30.6899 6.58126C30.686 6.58126 30.6821 6.58126 30.6782 6.58126C30.6742 6.58126 30.6703 6.58126 30.6664 6.58126C30.6625 6.58126 30.6586 6.58126 30.6547 6.58126C30.6508 6.58126 30.6469 6.58126 30.643 6.58126C30.6391 6.58126 30.6352 6.58126 30.6313 6.58126C30.6274 6.58126 30.6235 6.58126 30.6196 6.58126C30.6157 6.58126 30.6117 6.58126 30.6078 6.58126C30.6039 6.58126 30.6 6.58126 30.5961 6.58126C30.5922 6.58126 30.5883 6.58126 30.5844 6.58126C30.5805 6.58126 30.5766 6.58126 30.5727 6.58126C30.5688 6.58126 30.5649 6.58126 30.561 6.58126C30.5571 6.58126 30.5532 6.58126 30.5492 6.58126C30.5453 6.58126 30.5414 6.58126 30.5375 6.58126C30.5336 6.58126 30.5297 6.58126 30.5258 6.58126C30.5219 6.58126 30.518 6.58126 30.5141 6.58126C30.5102 6.58126 30.5063 6.58126 30.5024 6.58126C30.4985 6.58126 30.4946 6.58126 30.4907 6.58126C30.4867 6.58126 30.4828 6.58126 30.4789 6.58126C30.475 6.58126 30.4711 6.58126 30.4672 6.58126C30.4633 6.58126 30.4594 6.58126 30.4555 6.58126C30.4516 6.58126 30.4477 6.58126 30.4438 6.58126C30.4399 6.58126 30.436 6.58126 30.4321 6.58126C30.4282 6.58126 30.4242 6.58126 30.4203 6.58126C30.4164 6.58126 30.4125 6.58126 30.4086 6.58126C30.4047 6.58126 30.4008 6.58126 30.3969 6.58126C30.393 6.58126 30.3891 6.58126 30.3852 6.58126C30.3813 6.58126 30.3774 6.58126 30.3735 6.58126C30.3696 6.58126 30.3657 6.58126 30.3618 6.58126C30.3578 6.58126 30.3539 6.58126 30.35 6.58126C30.3461 6.58126 30.3422 6.58126 30.3383 6.58126C30.3344 6.58126 30.3305 6.58126 30.3266 6.58126C30.3227 6.58126 30.3188 6.58126 30.3149 6.58126C30.311 6.58126 30.3071 6.58126 30.3032 6.58126C30.2993 6.58126 30.2953 6.58126 30.2914 6.58126C30.2875 6.58126 30.2836 6.58126 30.2797 6.58126C30.2758 6.58126 30.2719 6.58126 30.268 6.58126C30.2641 6.58126 30.2602 6.58126 30.2563 6.58126C30.2524 6.58126 30.2485 6.58126 30.2446 6.58126C30.2407 6.58126 30.2368 6.58126 30.2328 6.58126C30.2289 6.58126 30.225 6.58126 30.2211 6.58126C30.2172 6.58126 30.2133 6.58126 30.2094 6.58126C30.2055 6.58126 30.2016 6.58126 30.1977 6.58126C30.1938 6.58126 30.1899 6.58126 30.186 6.58126C30.1821 6.58126 30.1782 6.58126 30.1743 6.58126C30.1703 6.58126 30.1664 6.58126 30.1625 6.58126C30.1586 6.58126 30.1547 6.58126 30.1508 6.58126C30.1469 6.58126 30.143 6.58126 30.1391 6.58126C30.1352 6.58126 30.1313 6.58126 30.1274 6.58126C30.1235 6.58126 30.1196 6.58126 30.1157 6.58126C30.1118 6.58126 30.1079 6.58126 30.1039 6.58126C30.1 6.58126 30.0961 6.58126 30.0922 6.58126C30.0883 6.58126 30.0844 6.58126 30.0805 6.58126C30.0766 6.58126 30.0727 6.58126 30.0688 6.58126C30.0649 6.58126 30.061 6.58126 30.0571 6.58126C30.0532 6.58126 30.0493 6.58126 30.0454 6.58126C30.0414 6.58126 30.0375 6.58126 30.0336 6.58126C30.0297 6.58126 30.0258 6.58126 30.0219 6.58126C30.018 6.58126 30.0141 6.58126 30.0102 6.58126C30.0063 6.58126 30.0024 6.58126 29.9985 6.58126C29.9946 6.58126 29.9907 6.58126 29.9868 6.58126C29.9829 6.58126 29.9789 6.58126 29.975 6.58126C29.9711 6.58126 29.9672 6.58126 29.9633 6.58126C29.9594 6.58126 29.9555 6.58126 29.9516 6.58126C29.9477 6.58126 29.9438 6.58126 29.9399 6.58126C29.936 6.58126 29.9321 6.58126 29.9282 6.58126C29.9243 6.58126 29.9204 6.58126 29.9165 6.58126C29.9125 6.58126 29.9086 6.58126 29.9047 6.58126C29.9008 6.58126 29.8969 6.58126 29.893 6.58126C29.8891 6.58126 29.8852 6.58126 29.8813 6.58126C29.8774 6.58126 29.8735 6.58126 29.8696 6.58126C29.8657 6.58126 29.8618 6.58126 29.8579 6.58126C29.854 6.58126 29.85 6.58126 29.8461 6.58126C29.8422 6.58126 29.8383 6.58126 29.8344 6.58126C29.8305 6.58126 29.8266 6.58126 29.8227 6.58126C29.8188 6.58126 29.8149 6.58126 29.811 6.58126C29.8071 6.58126 29.8032 6.58126 29.7993 6.58126C29.7954 6.58126 29.7915 6.58126 29.7875 6.58126C29.7836 6.58126 29.7797 6.58126 29.7758 6.58126C29.7719 6.58126 29.768 6.58126 29.7641 6.58126C29.7602 6.58126 29.7563 6.58126 29.7524 6.58126C29.7485 6.58126 29.7446 6.58126 29.7407 6.58126C29.7368 6.58126 29.7329 6.58126 29.729 6.58126C29.725 6.58126 29.7211 6.58126 29.7172 6.58126C29.7133 6.58126 29.7094 6.58126 29.7055 6.58126C29.7016 6.58126 29.6977 6.58126 29.6938 6.58126C29.6899 6.58126 29.686 6.58126 29.6821 6.58126C29.6782 6.58126 29.6743 6.58126 29.6704 6.58126C29.6665 6.58126 29.6626 6.58126 29.6586 6.58126C29.6547 6.58126 29.6508 6.58126 29.6469 6.58126C29.643 6.58126 29.6391 6.58126 29.6352 6.58126C29.6313 6.58126 29.6274 6.58126 29.6235 6.58126C29.6196 6.58126 29.6157 6.58126 29.6118 6.58126C29.6079 6.58126 29.604 6.58126 29.6001 6.58126C29.5961 6.58126 29.5922 6.58126 29.5883 6.58126C29.5844 6.58126 29.5805 6.58126 29.5766 6.58126C29.5727 6.58126 29.5688 6.58126 29.5649 6.58126C29.561 6.58126 29.5571 6.58126 29.5532 6.58126C29.5493 6.58126 29.5454 6.58126 29.5415 6.58126C29.5376 6.58126 29.5337 6.58126 29.5297 6.58126C29.5258 6.58126 29.5219 6.58126 29.518 6.58126C29.5141 6.58126 29.5102 6.58126 29.5063 6.58126C29.5024 6.58126 29.4985 6.58126 29.4946 6.58126C29.4907 6.58126 29.4868 6.58126 29.4829 6.58126C29.479 6.58126 29.4751 6.58126 29.4712 6.58126C29.4673 6.58126 29.4633 6.58126 29.4594 6.58126C29.4555 6.58126 29.4516 6.58126 29.4477 6.58126C29.4438 6.58126 29.4399 6.58126 29.436 6.58126C29.4321 6.58126 29.4282 6.58126 29.4243 6.58126C29.4204 6.58126 29.4165 6.58126 29.4126 6.58126C29.4087 6.58126 29.4048 6.58126 29.4008 6.58126C29.3969 6.58126 29.393 6.58126 29.3891 6.58126C29.3852 6.58126 29.3813 6.58126 29.3774 6.58126C29.3735 6.58126 29.3696 6.58126 29.3657 6.58126C29.3618 6.58126 29.3579 6.58126 29.354 6.58126C29.3501 6.58126 29.3462 6.58126 29.3423 6.58126C29.3384 6.58126 29.3344 6.58126 29.3305 6.58126C29.3266 6.58126 29.3227 6.58126 29.3188 6.58126C29.3149 6.58126 29.311 6.58126 29.3071 6.58126C29.3032 6.58126 29.2993 6.58126 29.2954 6.58126C29.2915 6.58126 29.2876 6.58126 29.2837 6.58126C29.2798 6.58126 29.2759 6.58126 29.2719 6.58126C29.268 6.58126 29.2641 6.58126 29.2602 6.58126C29.2563 6.58126 29.2524 6.58126 29.2485 6.58126C29.2446 6.58126 29.2407 6.58126 29.2368 6.58126C29.2329 6.58126 29.229 6.58126 29.2251 6.58126C29.2212 6.58126 29.2173 6.58126 29.2134 6.58126C29.2095 6.58126 29.2055 6.58126 29.2016 6.58126C29.1977 6.58126 29.1938 6.58126 29.1899 6.58126C29.186 6.58126 29.1821 6.58126 29.1782 6.58126C29.1743 6.58126 29.1704 6.58126 29.1665 6.58126C29.1626 6.58126 29.1587 6.58126 29.1548 6.58126C29.1509 6.58126 29.147 6.58126 29.1431 6.58126C29.1391 6.58126 29.1352 6.58126 29.1313 6.58126C29.1274 6.58126 29.1235 6.58126 29.1196 6.58126C29.1157 6.58126 29.1118 6.58126 29.1079 6.58126C29.104 6.58126 29.1001 6.58126 29.0962 6.58126C29.0923 6.58126 29.0884 6.58126 29.0845 6.58126C29.0806 6.58126 29.0766 6.58126 29.0727 6.58126C29.0688 6.58126 29.0649 6.58126 29.061 6.58126C29.0571 6.58126 29.0532 6.58126 29.0493 6.58126C29.0454 6.58126 29.0415 6.58126 29.0376 6.58126C29.0337 6.58126 29.0298 6.58126 29.0259 6.58126C29.022 6.58126 29.0181 6.58126 29.0142 6.58126C29.0102 6.58126 29.0063 6.58126 29.0024 6.58126C28.9985 6.58126 28.9946 6.58126 28.9907 6.58126C28.9868 6.58126 28.9829 6.58126 28.979 6.58126C28.9751 6.58126 28.9712 6.58126 28.9673 6.58126C28.9634 6.58126 28.9595 6.58126 28.9556 6.58126C28.9517 6.58126 28.9478 6.58126 28.9438 6.58126C28.9399 6.58126 28.936 6.58126 28.9321 6.58126C28.9282 6.58126 28.9243 6.58126 28.9204 6.58126C28.9165 6.58126 28.9126 6.58126 28.9087 6.58126C28.9048 6.58126 28.9009 6.58126 28.897 6.58126C28.8931 6.58126 28.8892 6.58126 28.8853 6.58126C28.8814 6.58126 28.8774 6.58126 28.8735 6.58126C28.8696 6.58126 28.8657 6.58126 28.8618 6.58126C28.8579 6.58126 28.854 6.58126 28.8501 6.58126C28.8462 6.58126 28.8423 6.58126 28.8384 6.58126C28.8345 6.58126 28.8306 6.58126 28.8267 6.58126C28.8228 6.58126 28.8189 6.58126 28.815 6.58126C28.811 6.58126 28.8071 6.58126 28.8032 6.58126C28.7993 6.58126 28.7954 6.58126 28.7915 6.58126C28.7876 6.58126 28.7837 6.58126 28.7798 6.58126C28.7759 6.58126 28.772 6.58126 28.7681 6.58126C28.7642 6.58126 28.7603 6.58126 28.7564 6.58126C28.7525 6.58126 28.7486 6.58126 28.7446 6.58126C28.7407 6.58126 28.7368 6.58126 28.7329 6.58126C28.729 6.58126 28.7251 6.58126 28.7212 6.58126C28.7173 6.58126 28.7134 6.58126 28.7095 6.58126C28.7056 6.58126 28.7017 6.58126 28.6978 6.58126C28.6939 6.58126 28.69 6.58126 28.6861 6.58126C28.6822 6.58126 28.6782 6.58126 28.6743 6.58126C28.6704 6.58126 28.6665 6.58126 28.6626 6.58126C28.6587 6.58126 28.6548 6.58126 28.6509 6.58126C28.647 6.58126 28.6431 6.58126 28.6392 6.58126C28.6353 6.58126 28.6314 6.58126 28.6275 6.58126C28.6236 6.58126 28.6197 6.58126 28.6158 6.58126C28.6118 6.58126 28.6079 6.58126 28.604 6.58126C28.6001 6.58126 28.5962 6.58126 28.5923 6.58126C28.5884 6.58126 28.5845 6.58126 28.5806 6.58126C28.5767 6.58126 28.5728 6.58126 28.5689 6.58126C28.565 6.58126 28.5611 6.58126 28.5572 6.58126C28.5533 6.58126 28.5494 6.58126 28.5454 6.58126C28.5415 6.58126 28.5376 6.58126 28.5337 6.58126C28.5298 6.58126 28.5259 6.58126 28.522 6.58126C28.5181 6.58126 28.5142 6.58126 28.5103 6.58126C28.5064 6.58126 28.5025 6.58126 28.4986 6.58126C28.4947 6.58126 28.4908 6.58126 28.4869 6.58126C28.483 6.58126 28.479 6.58126 28.4751 6.58126C28.4712 6.58126 28.4673 6.58126 28.4634 6.58126C28.4595 6.58126 28.4556 6.58126 28.4517 6.58126C28.4478 6.58126 28.4439 6.58126 28.44 6.58126C28.4361 6.58126 28.4322 6.58126 28.4283 6.58126C28.4244 6.58126 28.4205 6.58126 28.4166 6.58126C28.4126 6.58126 28.4087 6.58126 28.4048 6.58126C28.4009 6.58126 28.397 6.58126 28.3931 6.58126C28.3892 6.58126 28.3853 6.58126 28.3814 6.58126C28.3775 6.58126 28.3736 6.58126 28.3697 6.58126C28.3658 6.58126 28.3619 6.58126 28.358 6.58126C28.3541 6.58126 28.3502 6.58126 28.3463 6.58126C28.3423 6.58126 28.3384 6.58126 28.3345 6.58126C28.3306 6.58126 28.3267 6.58126 28.3228 6.58126C28.3189 6.58126 28.315 6.58126 28.3111 6.58126C28.3072 6.58126 28.3033 6.58126 28.2994 6.58126C28.2955 6.58126 28.2916 6.58126 28.2877 6.58126C28.2838 6.58126 28.2799 6.58126 28.2759 6.58126C28.272 6.58126 28.2681 6.58126 28.2642 6.58126C28.2603 6.58126 28.2564 6.58126 28.2525 6.58126C28.2486 6.58126 28.2447 6.58126 28.2408 6.58126C28.2369 6.58126 28.233 6.58126 28.2291 6.58126C28.2252 6.58126 28.2213 6.58126 28.2174 6.58126C28.2135 6.58126 28.2095 6.58126 28.2056 6.58126C28.2017 6.58126 28.1978 6.58126 28.1939 6.58126C28.19 6.58126 28.1861 6.58126 28.1822 6.58126C28.1783 6.58126 28.1744 6.58126 28.1705 6.58126C28.1666 6.58126 28.1627 6.58126 28.1588 6.58126C28.1549 6.58126 28.151 6.58126 28.1471 6.58126C28.1432 6.58126 28.1392 6.58126 28.1353 6.58126C28.1314 6.58126 28.1275 6.58126 28.1236 6.58126C28.1197 6.58126 28.1158 6.58126 28.1119 6.58126C28.108 6.58126 28.1041 6.58126 28.1002 6.58126C28.0963 6.58126 28.0924 6.58126 28.0885 6.58126C28.0846 6.58126 28.0807 6.58126 28.0768 6.58126C28.0728 6.58126 28.0689 6.58126 28.065 6.58126C28.0611 6.58126 28.0572 6.58126 28.0533 6.58126C28.0494 6.58126 28.0455 6.58126 28.0416 6.58126C28.0377 6.58126 28.0338 6.58126 28.0299 6.58126C28.026 6.58126 28.0221 6.58126 28.0182 6.58126C28.0143 6.58126 28.0104 6.58126 28.0065 6.58126C28.0025 6.58126 27.9986 6.58126 27.9947 6.58126C27.9908 6.58126 27.9869 6.58126 27.983 6.58126C27.9791 6.58126 27.9752 6.58126 27.9713 6.58126C27.9674 6.58126 27.9635 6.58126 27.9596 6.58126C27.9557 6.58126 27.9518 6.58126 27.9479 6.58126C27.944 6.58126 27.9401 6.58126 27.9362 6.58126C27.9322 6.58126 27.9283 6.58126 27.9244 6.58126C27.9205 6.58126 27.9166 6.58126 27.9127 6.58126C27.9088 6.58126 27.9049 6.58126 27.901 6.58126C27.8971 6.58126 27.8932 6.58126 27.8893 6.58126C27.8854 6.58126 27.8815 6.58126 27.8776 6.58126C27.8737 6.58126 27.8698 6.58126 27.8659 6.58126C27.8619 6.58126 27.858 6.58126 27.8541 6.58126C27.8502 6.58126 27.8463 6.58126 27.8424 6.58126C27.8385 6.58126 27.8346 6.58126 27.8307 6.58126C27.8268 6.58126 27.8229 6.58126 27.819 6.58126C27.8151 6.58126 27.8112 6.58126 27.8073 6.58126C27.8034 6.58126 27.7995 6.58126 27.7955 6.58126C27.7916 6.58126 27.7877 6.58126 27.7838 6.58126C27.7799 6.58126 27.776 6.58126 27.7721 6.58126C27.7682 6.58126 27.7643 6.58126 27.7604 6.58126C27.7565 6.58126 27.7526 6.58126 27.7487 6.58126C27.7448 6.58126 27.7409 6.58126 27.737 6.58126C27.7331 6.58126 27.7292 6.58126 27.7253 6.58126C27.7213 6.58126 27.7174 6.58126 27.7135 6.58126C27.7096 6.58126 27.7057 6.58126 27.7018 6.58126C27.6979 6.58126 27.694 6.58126 27.6901 6.58126C27.6862 6.58126 27.6823 6.58126 27.6784 6.58126C27.6745 6.58126 27.6706 6.58126 27.6667 6.58126C27.6628 6.58126 27.6589 6.58126 27.6549 6.58126C27.651 6.58126 27.6471 6.58126 27.6432 6.58126C27.6393 6.58126 27.6354 6.58126 27.6315 6.58126C27.6276 6.58126 27.6237 6.58126 27.6198 6.58126C27.6159 6.58126 27.612 6.58126 27.6081 6.58126C27.6042 6.58126 27.6003 6.58126 27.5964 6.58126C27.5925 6.58126 27.5886 6.58126 27.5847 6.58126C27.5807 6.58126 27.5768 6.58126 27.5729 6.58126C27.569 6.58126 27.5651 6.58126 27.5612 6.58126C27.5573 6.58126 27.5534 6.58126 27.5495 6.58126C27.5456 6.58126 27.5417 6.58126 27.5378 6.58126C27.5339 6.58126 27.53 6.58126 27.5261 6.58126C27.5222 6.58126 27.5183 6.58126 27.5144 6.58126C27.5104 6.58126 27.5065 6.58126 27.5026 6.58126C27.4987 6.58126 27.4948 6.58126 27.4909 6.58126C27.487 6.58126 27.4831 6.58126 27.4792 6.58126C27.4753 6.58126 27.4714 6.58126 27.4675 6.58126C27.4636 6.58126 27.4597 6.58126 27.4558 6.58126C27.4519 6.58126 27.448 6.58126 27.4441 6.58126C27.4401 6.58126 27.4362 6.58126 27.4323 6.58126C27.4284 6.58126 27.4245 6.58126 27.4206 6.58126C27.4167 6.58126 27.4128 6.58126 27.4089 6.58126C27.405 6.58126 27.4011 6.58126 27.3972 6.58126C27.3933 6.58126 27.3894 6.58126 27.3855 6.58126C27.3816 6.58126 27.3777 6.58126 27.3738 6.58126C27.3698 6.58126 27.3659 6.58126 27.362 6.58126C27.3581 6.58126 27.3542 6.58126 27.3503 6.58126C27.3464 6.58126 27.3425 6.58126 27.3386 6.58126C27.3347 6.58126 27.3308 6.58126 27.3269 6.58126C27.323 6.58126 27.3191 6.58126 27.3152 6.58126C27.3113 6.58126 27.3074 6.58126 27.3035 6.58126C27.2996 6.58126 27.2956 6.58126 27.2917 6.58126C27.2878 6.58126 27.2839 6.58126 27.28 6.58126C27.2761 6.58126 27.2722 6.58126 27.2683 6.58126C27.2644 6.58126 27.2605 6.58126 27.2566 6.58126C27.2527 6.58126 27.2488 6.58126 27.2449 6.58126C27.241 6.58126 27.2371 6.58126 27.2332 6.58126C27.2293 6.58126 27.2253 6.58126 27.2214 6.58126C27.2175 6.58126 27.2136 6.58126 27.2097 6.58126C27.2058 6.58126 27.2019 6.58126 27.198 6.58126C27.1941 6.58126 27.1902 6.58126 27.1863 6.58126C27.1824 6.58126 27.1785 6.58126 27.1746 6.58126C27.1707 6.58126 27.1668 6.58126 27.1629 6.58126C27.159 6.58126 27.1551 6.58126 27.1511 6.58126C27.1472 6.58126 27.1433 6.58126 27.1394 6.58126C27.1355 6.58126 27.1316 6.58126 27.1277 6.58126C27.1238 6.58126 27.1199 6.58126 27.116 6.58126C27.1121 6.58126 27.1082 6.58126 27.1043 6.58126C27.1004 6.58126 27.0965 6.58126 27.0926 6.58126C27.0887 6.58126 27.0848 6.58126 27.0809 6.58126C27.0769 6.58126 27.073 6.58126 27.0691 6.58126C27.0652 6.58126 27.0613 6.58126 27.0574 6.58126C27.0535 6.58126 27.0496 6.58126 27.0457 6.58126C27.0418 6.58126 27.0379 6.58126 27.034 6.58126C27.0301 6.58126 27.0262 6.58126 27.0223 6.58126C27.0184 6.58126 27.0145 6.58126 27.0106 6.58126C27.0067 6.58126 27.0027 6.58126 26.9988 6.58126C26.9949 6.58126 26.991 6.58126 26.9871 6.58126C26.9832 6.58126 26.9793 6.58126 26.9754 6.58126C26.9715 6.58126 26.9676 6.58126 26.9637 6.58126C26.9598 6.58126 26.9559 6.58126 26.952 6.58126C26.9481 6.58126 26.9442 6.58126 26.9403 6.58126C26.9364 6.58126 26.9325 6.58126 26.9285 6.58126C26.9246 6.58126 26.9207 6.58126 26.9168 6.58126C26.9129 6.58126 26.909 6.58126 26.9051 6.58126C26.9012 6.58126 26.8973 6.58126 26.8934 6.58126C26.8895 6.58126 26.8856 6.58126 26.8817 6.58126C26.8778 6.58126 26.8739 6.58126 26.87 6.58126C26.8661 6.58126 26.8622 6.58126 26.8583 6.58126C26.8543 6.58126 26.8504 6.58126 26.8465 6.58126C26.8426 6.58126 26.8387 6.58126 26.8348 6.58126C26.8309 6.58126 26.827 6.58126 26.8231 6.58126C26.8192 6.58126 26.8153 6.58126 26.8114 6.58126C26.8075 6.58126 26.8036 6.58126 26.7997 6.58126C26.7958 6.58126 26.7919 6.58126 26.788 6.58126C26.7841 6.58126 26.7801 6.58126 26.7762 6.58126C26.7723 6.58126 26.7684 6.58126 26.7645 6.58126C26.7606 6.58126 26.7567 6.58126 26.7528 6.58126C26.7489 6.58126 26.745 6.58126 26.7411 6.58126C26.7372 6.58126 26.7333 6.58126 26.7294 6.58126C26.7255 6.58126 26.7216 6.58126 26.7177 6.58126C26.7138 6.58126 26.7099 6.58126 26.7059 6.58126C26.702 6.58126 26.6981 6.58126 26.6942 6.58126C26.6903 6.58126 26.6864 6.58126 26.6825 6.58126C26.6786 6.58126 26.6747 6.58126 26.6708 6.58126C26.6669 6.58126 26.663 6.58126 26.6591 6.58126C26.6552 6.58126 26.6513 6.58126 26.6474 6.58126C26.6435 6.58126 26.6396 6.58126 26.6357 6.58126C26.6318 6.58126 26.6278 6.58126 26.6239 6.58126C26.62 6.58126 26.6161 6.58126 26.6122 6.58126C26.6083 6.58126 26.6044 6.58126 26.6005 6.58126C26.5966 6.58126 26.5927 6.58126 26.5888 6.58126C26.5849 6.58126 26.581 6.58126 26.5771 6.58126C26.5732 6.58126 26.5693 6.58126 26.5654 6.58126C26.5615 6.58126 26.5576 6.58126 26.5536 6.58126C26.5497 6.58126 26.5458 6.58126 26.5419 6.58126C26.538 6.58126 26.5341 6.58126 26.5302 6.58126C26.5263 6.58126 26.5224 6.58126 26.5185 6.58126C26.5146 6.58126 26.5107 6.58126 26.5068 6.58126C26.5029 6.58126 26.499 6.58126 26.4951 6.58126C26.4912 6.58126 26.4873 6.58126 26.4834 6.58126C26.4795 6.58126 26.4755 6.58126 26.4716 6.58126C26.4677 6.58126 26.4638 6.58126 26.4599 6.58126C26.456 6.58126 26.4521 6.58126 26.4482 6.58126C26.4443 6.58126 26.4404 6.58126 26.4365 6.58126C26.4326 6.58126 26.4287 6.58126 26.4248 6.58126C26.4209 6.58126 26.417 6.58126 26.4131 6.58126C26.4092 6.58126 26.4053 6.58126 26.4014 6.58126C26.3974 6.58126 26.3935 6.58126 26.3896 6.58126C26.3857 6.58126 26.3818 6.58126 26.3779 6.58126C26.374 6.58126 26.3701 6.58126 26.3662 6.58126C26.3623 6.58126 26.3584 6.58126 26.3545 6.58126C26.3506 6.58126 26.3467 6.58126 26.3428 6.58126C26.3389 6.58126 26.335 6.58126 26.3311 6.58126C26.3272 6.58126 26.3233 6.58126 26.3193 6.58126C26.3154 6.58126 26.3115 6.58126 26.3076 6.58126C26.3037 6.58126 26.2998 6.58126 26.2959 6.58126C26.292 6.58126 26.2881 6.58126 26.2842 6.58126C26.2803 6.58126 26.2764 6.58126 26.2725 6.58126C26.2686 6.58126 26.2647 6.58126 26.2608 6.58126C26.2569 6.58126 26.253 6.58126 26.2491 6.58126C26.2452 6.58126 26.2413 6.58126 26.2373 6.58126C26.2334 6.58126 26.2295 6.58126 26.2256 6.58126C26.2217 6.58126 26.2178 6.58126 26.2139 6.58126C26.21 6.58126 26.2061 6.58126 26.2022 6.58126C26.1983 6.58126 26.1944 6.58126 26.1905 6.58126C26.1866 6.58126 26.1827 6.58126 26.1788 6.58126C26.1749 6.58126 26.171 6.58126 26.1671 6.58126C26.1632 6.58126 26.1592 6.58126 26.1553 6.58126C26.1514 6.58126 26.1475 6.58126 26.1436 6.58126C26.1397 6.58126 26.1358 6.58126 26.1319 6.58126C26.128 6.58126 26.1241 6.58126 26.1202 6.58126C26.1163 6.58126 26.1124 6.58126 26.1085 6.58126C26.1046 6.58126 26.1007 6.58126 26.0968 6.58126C26.0929 6.58126 26.089 6.58126 26.0851 6.58126C26.0812 6.58126 26.0772 6.58126 26.0733 6.58126C26.0694 6.58126 26.0655 6.58126 26.0616 6.58126C26.0577 6.58126 26.0538 6.58126 26.0499 6.58126C26.046 6.58126 26.0421 6.58126 26.0382 6.58126C26.0343 6.58126 26.0304 6.58126 26.0265 6.58126C26.0226 6.58126 26.0187 6.58126 26.0148 6.58126C26.0109 6.58126 26.007 6.58126 26.0031 6.58126C25.9991 6.58126 25.9952 6.58126 25.9913 6.58126C25.9874 6.58126 25.9835 6.58126 25.9796 6.58126C25.9757 6.58126 25.9718 6.58126 25.9679 6.58126C25.964 6.58126 25.9601 6.58126 25.9562 6.58126C25.9523 6.58126 25.9484 6.58126 25.9445 6.58126C25.9406 6.58126 25.9367 6.58126 25.9328 6.58126C25.9289 6.58126 25.925 6.58126 25.9211 6.58126C25.9172 6.58126 25.9132 6.58126 25.9093 6.58126C25.9054 6.58126 25.9015 6.58126 25.8976 6.58126C25.8937 6.58126 25.8898 6.58126 25.8859 6.58126C25.882 6.58126 25.8781 6.58126 25.8742 6.58126C25.8703 6.58126 25.8664 6.58126 25.8625 6.58126C25.8586 6.58126 25.8547 6.58126 25.8508 6.58126C25.8469 6.58126 25.843 6.58126 25.8391 6.58126C25.8351 6.58126 25.8312 6.58126 25.8273 6.58126C25.8234 6.58126 25.8195 6.58126 25.8156 6.58126C25.8117 6.58126 25.8078 6.58126 25.8039 6.58126C25.8 6.58126 25.7961 6.58126 25.7922 6.58126C25.7883 6.58126 25.7844 6.58126 25.7805 6.58126C25.7766 6.58126 25.7727 6.58126 25.7688 6.58126C25.7649 6.58126 25.761 6.58126 25.7571 6.58126C25.7532 6.58126 25.7492 6.58126 25.7453 6.58126C25.7414 6.58126 25.7375 6.58126 25.7336 6.58126C25.7297 6.58126 25.7258 6.58126 25.7219 6.58126C25.718 6.58126 25.7141 6.58126 25.7102 6.58126C25.7063 6.58126 25.7024 6.58126 25.6985 6.58126C25.6946 6.58126 25.6907 6.58126 25.6868 6.58126C25.6829 6.58126 25.679 6.58126 25.6751 6.58126C25.6712 6.58126 25.6672 6.58126 25.6633 6.58126C25.6594 6.58126 25.6555 6.58126 25.6516 6.58126C25.6477 6.58126 25.6438 6.58126 25.6399 6.58126C25.636 6.58126 25.6321 6.58126 25.6282 6.58126C25.6243 6.58126 25.6204 6.58126 25.6165 6.58126C25.6126 6.58126 25.6087 6.58126 25.6048 6.58126C25.6009 6.58126 25.597 6.58126 25.5931 6.58126C25.5892 6.58126 25.5853 6.58126 25.5813 6.58126C25.5774 6.58126 25.5735 6.58126 25.5696 6.58126C25.5657 6.58126 25.5618 6.58126 25.5579 6.58126C25.554 6.58126 25.5501 6.58126 25.5462 6.58126C25.5423 6.58126 25.5384 6.58126 25.5345 6.58126C25.5306 6.58126 25.5267 6.58126 25.5228 6.58126C25.5189 6.58126 25.515 6.58126 25.5111 6.58126C25.5072 6.58126 25.5033 6.58126 25.4994 6.58126C25.4954 6.58126 25.4915 6.58126 25.4876 6.58126C25.4837 6.58126 25.4798 6.58126 25.4759 6.58126C25.472 6.58126 25.4681 6.58126 25.4642 6.58126C25.4603 6.58126 25.4564 6.58126 25.4525 6.58126C25.4486 6.58126 25.4447 6.58126 25.4408 6.58126C25.4369 6.58126 25.433 6.58126 25.4291 6.58126C25.4252 6.58126 25.4213 6.58126 25.4174 6.58126V9.58126ZM31.4164 9.58126C31.3984 9.58126 31.3862 9.58031 31.4283 9.58244C31.4535 9.58373 31.5261 9.58772 31.6058 9.5871C31.6851 9.58649 31.8199 9.58161 31.9776 9.54941C32.1363 9.51701 32.3686 9.447 32.6044 9.28247L30.8879 6.82209C31.0847 6.68473 31.2704 6.63192 31.3775 6.61005C31.4836 6.58838 31.5619 6.58735 31.5826 6.58719C31.6036 6.58703 31.6154 6.58808 31.5805 6.58631C31.5623 6.58539 31.4906 6.58126 31.4164 6.58126V9.58126ZM32.6115 9.27746C32.7584 9.17375 32.9283 9.02789 33.0784 8.84389C33.1779 8.72199 33.5132 8.29692 33.4984 7.67781L30.4993 7.74921C30.4926 7.46852 30.5734 7.26112 30.6219 7.15921C30.6733 7.05107 30.7271 6.98025 30.7542 6.94703C30.8059 6.88373 30.848 6.85019 30.8807 6.82709L32.6115 9.27746ZM33.4984 7.67836C33.4842 7.069 33.1404 6.66365 33.0394 6.54795C32.8887 6.3753 32.7276 6.24591 32.6152 6.16452L30.8553 8.59403C30.8514 8.59122 30.8453 8.58664 30.8362 8.57869C30.8283 8.57169 30.8072 8.5527 30.779 8.52038C30.7537 8.49142 30.6986 8.42451 30.644 8.32015C30.5917 8.22028 30.5057 8.02134 30.4993 7.74866L33.4984 7.67836ZM33.2353 7.37927V7.37837H30.2353V7.37927H33.2353ZM8.44729 7.3768C8.11816 7.38276 7.78581 7.38197 7.4489 7.37673L7.40227 10.3764C7.76463 10.382 8.13156 10.383 8.50169 10.3763L8.44729 7.3768ZM7.45069 7.37676C7.60738 7.37938 7.94522 7.43149 8.24146 7.73008C8.53779 8.02878 8.58726 8.36724 8.58858 8.52432L5.58868 8.54943C5.59181 8.92299 5.70151 9.42948 6.11175 9.84299C6.52189 10.2564 7.0273 10.3701 7.40048 10.3763L7.45069 7.37676ZM8.5886 8.52684C8.58502 7.99186 8.58502 7.4578 8.58859 6.92374L5.58866 6.90364C5.58499 7.45111 5.58499 7.99856 5.58866 8.54691L8.5886 8.52684ZM8.58863 6.91369C8.58863 7.07432 8.5368 7.43948 8.2076 7.74702C7.89744 8.03676 7.56495 8.06363 7.45773 8.06405L7.44597 5.06407C7.10777 5.0654 6.59367 5.14932 6.15965 5.55478C5.70658 5.97803 5.58863 6.51756 5.58863 6.91369H8.58863ZM7.45185 8.06406C7.8183 8.06406 8.12045 8.05958 8.44312 8.06477L8.49137 5.06516C8.13832 5.05948 7.76294 5.06406 7.45185 5.06406V8.06406ZM8.44353 8.06478C8.32197 8.06285 7.98055 8.02561 7.67397 7.72134C7.36028 7.41002 7.32089 7.05632 7.32142 6.91793L10.3214 6.92938C10.3228 6.55368 10.2209 6.02244 9.78724 5.592C9.36065 5.16863 8.84169 5.0707 8.49096 5.06515L8.44353 8.06478ZM7.32141 6.92366V7.73525H10.3214V6.92366H7.32141ZM7.32141 7.73525C7.32141 7.97944 7.31959 8.25773 7.32145 8.52291L10.3214 8.50193C10.3196 8.24899 10.3214 8.00917 10.3214 7.73525H7.32141ZM7.32146 8.52391C7.32053 8.40268 7.35033 8.05849 7.65093 7.74449C7.95649 7.42531 8.30975 7.37894 8.44997 7.37673L8.49721 10.3764C8.8675 10.3705 9.39557 10.2603 9.81798 9.81907C10.2354 9.38302 10.3241 8.85857 10.3214 8.50093L7.32146 8.52391ZM8.47359 10.3765H8.47449V7.37655H8.47359V10.3765ZM11.528 7.85707C11.5635 7.72796 11.6516 7.58842 11.7936 7.48855C11.9321 7.39123 12.0755 7.36339 12.1806 7.36806L12.0474 10.3651C13.1121 10.4124 14.1158 9.76277 14.4209 8.65146L11.528 7.85707ZM12.1767 7.3679C12.2865 7.3725 12.4193 7.41173 12.5434 7.5126C12.6751 7.61972 12.7777 7.78346 12.8075 7.97196L9.84434 8.44056C10.0352 9.64765 11.0679 10.3241 12.0512 10.3653L12.1767 7.3679ZM12.8079 7.97442C12.783 7.81551 12.7801 7.64305 12.7995 7.48386L9.82156 7.1207C9.76851 7.55571 9.77642 8.00643 9.84396 8.4381L12.8079 7.97442ZM12.7995 7.4835C12.7533 7.86342 12.4213 8.07934 12.1305 8.06955L12.2315 5.07125C11.0802 5.03247 9.97645 5.84803 9.82152 7.12106L12.7995 7.4835ZM12.1308 8.06956C11.8046 8.05864 11.5594 7.80075 11.5269 7.53015L14.5054 7.17223C14.366 6.01215 13.4233 5.11114 12.2312 5.07124L12.1308 8.06956ZM11.5267 7.52903C11.5218 7.48776 11.5239 7.469 11.5232 7.50799C11.5228 7.52901 11.5222 7.54591 11.5211 7.58614C11.5201 7.62013 11.5189 7.66857 11.5189 7.72166H14.5189C14.5189 7.66704 14.5203 7.69371 14.5227 7.56283C14.5242 7.47795 14.525 7.336 14.5056 7.17335L11.5267 7.52903ZM13.0189 9.22166C12.9684 9.22166 12.9291 9.21887 12.91 9.21732C12.9003 9.21654 12.8931 9.21584 12.8912 9.21565C12.8902 9.21555 12.8896 9.21549 12.8904 9.21557C12.8906 9.21559 12.8931 9.21584 12.895 9.21603L13.1935 6.23092C13.2003 6.2316 13.1749 6.22896 13.1524 6.22713C13.1249 6.2249 13.0775 6.22166 13.0189 6.22166V9.22166ZM11.5553 7.54116C11.5465 7.61306 11.5406 7.67952 11.5364 7.72795C11.5315 7.78424 11.5294 7.81144 11.5262 7.84384C11.5201 7.90497 11.5181 7.89307 11.5288 7.85439L14.4202 8.65415C14.478 8.44518 14.5 8.25665 14.5116 8.13934C14.5288 7.96523 14.5235 7.98445 14.5331 7.90578L11.5553 7.54116ZM15.4717 6.21079H15.4672V9.21079H15.4717V6.21079ZM13.9672 7.71079C13.9672 7.76641 13.9685 7.81741 13.9695 7.8542C13.9708 7.89722 13.9714 7.91699 13.9719 7.94114C13.9727 7.98597 13.9707 7.97508 13.9744 7.94245L16.9546 8.2871C16.9737 8.12132 16.973 7.97592 16.9714 7.88578C16.9689 7.7515 16.9672 7.7698 16.9672 7.71079H13.9672ZM13.9739 7.94708C14.0128 7.60138 14.3084 7.36902 14.6091 7.3684L14.6152 10.3684C15.7927 10.366 16.8184 9.49773 16.9551 8.28247L13.9739 7.94708ZM14.609 7.3684C14.7345 7.36814 14.8807 7.41134 15.0096 7.51908C15.1439 7.63123 15.2376 7.79727 15.2587 7.97757L12.279 8.32626C12.4266 9.58758 13.5047 10.3707 14.6153 10.3684L14.609 7.3684ZM15.2583 7.97459C15.2406 7.82561 15.239 7.65692 15.2549 7.47789L12.2665 7.21362C12.2353 7.5672 12.2337 7.94561 12.2794 8.32923L15.2583 7.97459ZM15.2549 7.47786C15.2246 7.82072 14.9191 8.07511 14.5975 8.06924L14.6522 5.06974C13.4375 5.04757 12.3784 5.9487 12.2665 7.21366L15.2549 7.47786ZM14.5954 8.0692C14.441 8.06617 14.2788 8.0013 14.1559 7.87981C14.0342 7.75948 13.9802 7.61349 13.9733 7.49276L16.9684 7.32194C16.8986 6.09847 15.9342 5.09493 14.6543 5.06978L14.5954 8.0692ZM13.9738 7.50176C13.9735 7.49665 13.9742 7.50378 13.9738 7.54195C13.9735 7.56226 13.9732 7.57946 13.9727 7.61043C13.9723 7.63771 13.9717 7.6729 13.9717 7.71079H16.9717C16.9717 7.66678 16.9726 7.66181 16.9736 7.57551C16.9743 7.51246 16.9745 7.4186 16.9679 7.31294L13.9738 7.50176ZM16.4245 7.94609C16.432 7.83515 16.4845 7.68346 16.6179 7.55553C16.7529 7.42607 16.9211 7.36958 17.0621 7.3693L17.0679 10.3693C18.3557 10.3668 19.3338 9.38267 19.4176 8.1494L16.4245 7.94609ZM17.0622 7.3693C17.195 7.36905 17.3651 7.42137 17.5057 7.55511C17.6448 7.68745 17.6965 7.84327 17.7038 7.951L14.7107 8.15355C14.7948 9.39677 15.7798 10.3718 17.0679 10.3693L17.0622 7.3693ZM17.7041 7.9557C17.7042 7.95661 17.7034 7.94514 17.704 7.90195C17.7043 7.87888 17.7047 7.85942 17.7052 7.82526C17.7058 7.79506 17.7063 7.75662 17.7063 7.71532H14.7063C14.7063 7.76358 14.7053 7.77304 14.7042 7.86565C14.7034 7.93478 14.7031 8.03562 14.7104 8.14885L17.7041 7.9557ZM17.7063 7.70626C17.7051 7.50608 17.7528 7.59489 17.6214 7.76707C17.5476 7.8637 17.4413 7.95212 17.3127 8.00926C17.1896 8.06393 17.0918 8.07 17.0507 8.06922L17.1083 5.06977C16.4209 5.05657 15.7164 5.3183 15.2365 5.9471C14.8089 6.50741 14.7031 7.17456 14.7064 7.72438L17.7063 7.70626ZM17.0502 8.06921C17.015 8.06852 16.9226 8.06027 16.805 8.00469C16.6814 7.94628 16.5783 7.85804 16.5064 7.76111C16.3791 7.5895 16.4258 7.50234 16.4255 7.70895L19.4255 7.71263C19.4262 7.18102 19.3275 6.52865 18.9158 5.97366C18.4527 5.34942 17.7716 5.08275 17.1089 5.06978L17.0502 8.06921ZM16.4255 7.71079C16.4255 7.87195 16.4273 7.90267 16.4241 7.95117L19.4179 8.14432C19.4293 7.96819 19.4255 7.77427 19.4255 7.71079H16.4255ZM23.1565 7.35885C22.6476 7.39181 22.136 7.39165 21.6319 7.35661L21.4239 10.3494C22.0665 10.3941 22.7125 10.3939 23.3504 10.3526L23.1565 7.35885ZM21.6319 7.35661C21.7568 7.36529 21.8636 7.42815 21.9281 7.50314C21.9879 7.57273 22.017 7.6572 22.0146 7.74157L19.0158 7.65827C18.9792 8.97386 19.9491 10.2469 21.4239 10.3494L21.6319 7.35661ZM22.0146 7.741C22.0127 7.81356 21.9817 7.8994 21.9151 7.96946C21.8475 8.04061 21.7599 8.07761 21.6847 8.08295L21.4725 5.09046C20.0924 5.1883 19.0529 6.30263 19.0158 7.65884L22.0146 7.741ZM21.6791 8.08334C21.8862 8.06944 22.0024 8.08398 22.3911 8.08398V5.08398C22.2382 5.08398 21.8109 5.06774 21.4782 5.09007L21.6791 8.08334ZM23.8911 6.58398V6.58217H20.8911V6.58398H23.8911ZM22.3911 8.08217C22.7666 8.08217 22.9011 8.0693 23.1141 8.08216L23.2949 5.08762C22.9681 5.06788 22.5591 5.08217 22.3911 5.08217V8.08217ZM23.1101 8.08192C23.0406 8.07753 22.9569 8.04425 22.89 7.97577C22.8234 7.90777 22.7872 7.81883 22.7842 7.73567L25.7824 7.62975C25.734 6.26178 24.6647 5.17399 23.2989 5.08786L23.1101 8.08192ZM22.7842 7.73456C22.7816 7.65872 22.8076 7.5738 22.8702 7.50104C22.9374 7.42293 23.042 7.36659 23.1522 7.35914L23.3547 10.3523C24.843 10.2516 25.8289 8.97507 25.7824 7.63086L22.7842 7.73456Z" fill="black" mask="url(#path-2-inside-2_686_2266)"/>
<path d="M11.8024 3.80689C11.8287 3.79624 11.8529 3.78472 11.8751 3.7724M11.8024 3.80689C11.5886 3.89384 11.5189 4.07047 11.6049 4.27699M11.8024 3.80689L11.937 4.13785L11.9937 4.11411L11.8751 3.7724M11.8024 3.80689L11.9366 4.13805L11.6049 4.27699M11.8751 3.7724L12.0716 4.47136C11.8669 4.53072 11.6949 4.49179 11.6049 4.27699M11.8751 3.7724L11.9368 4.13871L11.6049 4.27699M11.994 4.11489L12.1131 4.45812L11.9944 4.11471L11.994 4.11489ZM11.9941 4.11392L11.876 3.77193C11.8907 3.76376 11.9045 3.75524 11.9175 3.74639L11.9941 4.11392Z" fill="black" stroke="black" stroke-width="1.5"/>
<path d="M9.03657 4.57643C8.99174 4.53364 8.94402 4.49563 8.89907 4.45983C8.80416 4.38421 8.72164 4.31848 8.70505 4.23857C8.6965 4.19936 8.6985 4.1518 8.7085 4.10277L8.78977 4.2201L8.7903 4.22086L9.03657 4.57643ZM9.03657 4.57643C9.11164 4.52444 9.18539 4.47857 9.25593 4.43469C9.27149 4.42501 9.28689 4.41543 9.30212 4.40591L9.25534 4.34724L9.03657 4.57643ZM9.64073 4.14618C9.59957 4.19153 9.5533 4.23213 9.50307 4.27044C9.54562 4.23099 9.58943 4.18705 9.63208 4.13837L9.64073 4.14618ZM9.64073 4.14618C9.78949 3.98143 9.87773 3.79709 9.91239 3.60244C9.90375 3.64214 9.89271 3.6823 9.87895 3.72281C9.82261 3.88866 9.73043 4.02611 9.6321 4.13835L9.64073 4.14618ZM9.3024 4.40573L9.25555 4.34702L9.44798 4.14542C9.45156 4.18747 9.44861 4.21766 9.44677 4.23197C9.44359 4.25677 9.4386 4.27271 9.43524 4.28186C9.43184 4.29114 9.42578 4.30528 9.41356 4.32428C9.41071 4.32871 9.40652 4.33499 9.40078 4.3427C9.369 4.36377 9.33613 4.38462 9.3024 4.40573ZM9.36899 0.465941C9.45504 0.422463 9.71319 0.546557 9.76392 0.655252C9.80993 0.752288 9.75473 0.960571 9.66897 1.05964C9.66831 1.0604 9.66764 1.06116 9.66698 1.06191C9.6605 1.06922 9.65386 1.07591 9.64707 1.08188C9.60047 1.12345 9.55924 1.16144 9.52323 1.19718C9.48732 1.20362 9.45729 1.20586 9.43564 1.20665C9.37908 1.20869 9.33738 1.20213 9.31662 1.19809C9.27719 1.19041 9.25757 1.18085 9.25536 1.17977C9.2553 1.17974 9.25525 1.17972 9.25522 1.1797L9.25515 1.17967C9.25209 1.1782 9.24159 1.17317 9.22334 1.15851C9.22319 1.15839 9.223 1.15824 9.22276 1.15805C9.21375 1.15089 9.14208 1.094 9.08624 0.976567C9.08558 0.975191 9.08493 0.973808 9.08428 0.972416L9.08427 0.972422L9.08623 0.976568C9.08558 0.97518 9.08493 0.973796 9.08428 0.972415C9.02921 0.854048 9.03005 0.759436 9.03068 0.734971C9.03157 0.700054 9.03686 0.679816 9.03872 0.673183C9.03896 0.672327 9.03922 0.671417 9.03951 0.670451C9.08725 0.633656 9.13718 0.59923 9.18813 0.567308C9.18949 0.566459 9.19084 0.56561 9.1922 0.564764C9.2504 0.528491 9.30991 0.495484 9.36899 0.465941Z" fill="black" stroke="black" stroke-width="1.5"/>
<path d="M15.0192 4.45424C15.0136 4.45626 15.008 4.45822 15.0024 4.46011L14.8548 4.11959L14.8923 4.10187L15.0192 4.45424ZM15.0192 4.45424C15.0424 4.44591 15.0652 4.43664 15.0877 4.4265C15.1125 4.40033 15.1398 4.36407 15.1633 4.31508C15.198 4.24272 15.2124 4.16498 15.2093 4.09331C15.2063 4.02535 15.1884 3.98107 15.1811 3.96551L14.8926 4.10174L15.0192 4.45424ZM15.5745 0.666212C15.5807 0.695155 15.5827 0.728022 15.581 0.762503M15.5745 0.666212L15.5745 0.666197C15.5726 0.659862 15.5708 0.653526 15.5681 0.647191C15.5663 0.639944 15.5627 0.633604 15.5591 0.628169C15.5554 0.621828 15.5518 0.615488 15.5473 0.609147C15.5391 0.597372 15.5283 0.584691 15.5156 0.572916M15.5745 0.666212L15.5104 0.680047L15.5053 0.674121L15.4998 0.667694L15.4974 0.664881L15.4965 0.663904L15.4867 0.652431L15.486 0.651595L15.4659 0.628148L15.5156 0.572916M15.5745 0.666212L15.5134 0.683646L15.581 0.762503M15.581 0.762503L15.2602 0.374547C15.3091 0.414402 15.3562 0.448822 15.3996 0.480525C15.4178 0.493206 15.435 0.505887 15.4513 0.518568C15.4629 0.526876 15.4738 0.535947 15.4839 0.544381C15.4848 0.545142 15.4857 0.545898 15.4866 0.546648M15.581 0.762503L15.4651 0.627264L15.5156 0.572916M15.5156 0.572916C15.5124 0.570075 15.5093 0.567125 15.506 0.564103C15.5 0.558451 15.4937 0.55255 15.4866 0.546648M15.4866 0.546648L15.4419 0.60023L15.4866 0.546648ZM14.7149 3.79663C14.7353 3.7879 14.7544 3.77859 14.7724 3.76873L14.8922 4.10138L14.8546 4.11916L14.7149 3.79665L14.8532 4.11982L14.503 4.28573L14.8534 4.12025L14.9993 4.46113C14.7861 4.5323 14.6057 4.50278 14.5029 4.28576C14.3951 4.0575 14.4975 3.89084 14.7149 3.79663ZM14.8107 3.74565C14.8378 3.74559 14.8735 3.74888 14.9156 3.76041C14.9828 3.7788 15.047 3.81351 15.0995 3.86082C15.1494 3.90588 15.1727 3.94787 15.1807 3.9647L14.8924 4.10125L14.7729 3.76845C14.7862 3.76114 14.7988 3.75353 14.8107 3.74565Z" fill="black" stroke="black" stroke-width="1.5"/>
<mask id="path-7-inside-3_686_2266" fill="white">
<path d="M18.3809 4.09287C18.2287 4.28309 17.9905 4.40537 17.7513 4.58834C17.5965 4.44432 17.4262 4.36008 17.399 4.24233C17.3709 4.12276 17.4443 3.92167 17.543 3.84287C17.9153 3.54577 17.966 3.4416 17.7994 3.00139C17.6481 2.60193 17.4524 2.21607 17.341 1.80665C17.1952 1.27585 17.4606 0.719696 17.8972 0.510457C18.1109 0.408103 18.3247 0.385458 18.4615 0.617341C18.5992 0.851036 18.4923 1.0177 18.2676 1.13817C17.9724 1.29487 17.9923 1.56299 18.0838 1.8148C18.2024 2.1427 18.3709 2.45157 18.4959 2.77675C18.6707 3.23055 18.6988 3.69432 18.3809 4.09287Z"/>
</mask>
<path d="M18.3809 4.09287C18.2287 4.28309 17.9905 4.40537 17.7513 4.58834C17.5965 4.44432 17.4262 4.36008 17.399 4.24233C17.3709 4.12276 17.4443 3.92167 17.543 3.84287C17.9153 3.54577 17.966 3.4416 17.7994 3.00139C17.6481 2.60193 17.4524 2.21607 17.341 1.80665C17.1952 1.27585 17.4606 0.719696 17.8972 0.510457C18.1109 0.408103 18.3247 0.385458 18.4615 0.617341C18.5992 0.851036 18.4923 1.0177 18.2676 1.13817C17.9724 1.29487 17.9923 1.56299 18.0838 1.8148C18.2024 2.1427 18.3709 2.45157 18.4959 2.77675C18.6707 3.23055 18.6988 3.69432 18.3809 4.09287Z" fill="black"/>
<path d="M18.3809 4.09287L19.5522 5.02991L19.5535 5.02829L18.3809 4.09287ZM17.7513 4.58834L16.7299 5.68684L17.6572 6.54907L18.6629 5.77962L17.7513 4.58834ZM17.399 4.24233L18.8606 3.90503L18.8593 3.89938L17.399 4.24233ZM17.543 3.84287L16.6074 2.67046L16.6073 2.67052L17.543 3.84287ZM17.7994 3.00139L19.2022 2.47028L19.2021 2.47017L17.7994 3.00139ZM17.341 1.80665L18.7884 1.41278L18.7874 1.40926L17.341 1.80665ZM17.8972 0.510457L17.2494 -0.842453L17.2489 -0.842221L17.8972 0.510457ZM18.4615 0.617341L19.7539 -0.144065L19.7535 -0.144733L18.4615 0.617341ZM18.2676 1.13817L18.9708 2.46317L18.9766 2.46008L18.2676 1.13817ZM18.0838 1.8148L19.4943 1.30438L19.4936 1.30259L18.0838 1.8148ZM18.4959 2.77675L17.0958 3.31496L17.0962 3.31597L18.4959 2.77675ZM17.2096 3.15583C17.2671 3.08394 17.3081 3.06492 17.2288 3.12134C17.1872 3.15095 17.1538 3.17319 17.0786 3.225C17.0137 3.26963 16.9297 3.32833 16.8398 3.39706L18.6629 5.77962C18.7664 5.70038 18.7693 5.70722 18.9686 5.5653C19.1063 5.46729 19.3425 5.29202 19.5522 5.02991L17.2096 3.15583ZM18.7728 3.48984C18.689 3.41195 18.6116 3.34993 18.5615 3.31058C18.54 3.29368 18.5103 3.27072 18.5008 3.26334C18.4936 3.25774 18.4888 3.2539 18.4851 3.251C18.4815 3.24815 18.4803 3.24712 18.4806 3.24741C18.481 3.24771 18.4839 3.2501 18.4886 3.25421C18.4933 3.25832 18.5008 3.26496 18.5102 3.27386C18.5281 3.29068 18.5599 3.32199 18.5971 3.3668C18.669 3.4532 18.798 3.63383 18.8606 3.90504L15.9374 4.57962C16.0136 4.9097 16.1741 5.14502 16.2903 5.28483C16.4028 5.42008 16.5169 5.5166 16.5739 5.56355C16.6231 5.60399 16.7018 5.66468 16.7081 5.66957C16.7343 5.6902 16.7363 5.69272 16.7299 5.68684L18.7728 3.48984ZM18.8593 3.89938C18.9039 4.08936 18.8946 4.24047 18.8849 4.32105C18.8741 4.40969 18.8542 4.48166 18.8339 4.53788C18.8134 4.59442 18.7837 4.65929 18.7388 4.72947C18.6977 4.79379 18.6171 4.90483 18.4787 5.01522L16.6073 2.67052C16.2629 2.94536 16.0929 3.29614 16.013 3.51675C15.9356 3.73051 15.8316 4.12896 15.9387 4.58527L18.8593 3.89938ZM18.4787 5.01529C18.6013 4.91743 19.1002 4.55426 19.3 3.93906C19.518 3.2675 19.2775 2.66926 19.2022 2.47028L16.3965 3.5325C16.4286 3.61731 16.4148 3.59687 16.4028 3.52616C16.387 3.43227 16.3724 3.24103 16.4466 3.01254C16.5176 2.79398 16.6308 2.66324 16.6667 2.62473C16.6927 2.59687 16.6941 2.60122 16.6074 2.67046L18.4787 5.01529ZM19.2021 2.47017C19.1162 2.24324 19.0044 1.9868 18.9413 1.83427C18.8661 1.65262 18.8186 1.52397 18.7884 1.41278L15.8937 2.20051C15.9748 2.49875 16.0809 2.76774 16.1692 2.98124C16.2696 3.22386 16.3312 3.36008 16.3966 3.5326L19.2021 2.47017ZM18.7874 1.40926C18.8124 1.50026 18.7997 1.5833 18.7719 1.64612C18.7467 1.70297 18.6845 1.79648 18.5455 1.86314L17.2489 -0.842221C16.1337 -0.307751 15.5638 0.999995 15.8946 2.20404L18.7874 1.40926ZM18.545 1.86337C18.5341 1.86857 18.4891 1.88956 18.4157 1.90767C18.3423 1.92578 18.2129 1.94784 18.0468 1.92985C17.8702 1.91074 17.6793 1.84884 17.504 1.73005C17.3333 1.61432 17.2284 1.47926 17.1695 1.37941L19.7535 -0.144733C19.471 -0.623561 18.9874 -0.985845 18.3697 -1.05273C17.8642 -1.10745 17.4544 -0.940634 17.2494 -0.842453L18.545 1.86337ZM17.1691 1.37875C17.1224 1.29947 17.0542 1.15456 17.0308 0.952862C17.0061 0.739415 17.0387 0.518987 17.1262 0.319082C17.285 -0.0441169 17.5474 -0.177643 17.5587 -0.183731L18.9766 2.46008C19.2126 2.33352 19.6407 2.05642 19.8747 1.52135C20.1522 0.886971 20.0007 0.27494 19.7539 -0.144065L17.1691 1.37875ZM17.5645 -0.186817C17.037 0.0931112 16.6581 0.577411 16.5528 1.18435C16.4658 1.6855 16.5956 2.11148 16.6739 2.32701L19.4936 1.30259C19.4936 1.30259 19.4961 1.30943 19.4997 1.32229C19.5032 1.33504 19.5086 1.35699 19.5134 1.38697C19.5225 1.44378 19.5334 1.55404 19.5086 1.69729C19.4821 1.84983 19.4183 2.01842 19.3026 2.17305C19.1891 2.32477 19.062 2.41478 18.9708 2.46316L17.5645 -0.186817ZM16.6733 2.32522C16.756 2.5537 16.8518 2.76404 16.9231 2.92014C17.0021 3.09302 17.0535 3.20482 17.0958 3.31496L19.896 2.23854C19.8134 2.0235 19.718 1.81827 19.6518 1.67345C19.578 1.51185 19.5302 1.4038 19.4943 1.30438L16.6733 2.32522ZM17.0962 3.31597C17.1144 3.36332 17.1218 3.39292 17.1244 3.40629C17.1269 3.41916 17.1236 3.40968 17.125 3.38234C17.1264 3.35311 17.1328 3.31104 17.1503 3.26358C17.1681 3.21545 17.1908 3.17937 17.2083 3.15745L19.5535 5.02829C20.3393 4.04327 20.1681 2.94473 19.8956 2.23753L17.0962 3.31597Z" fill="black" mask="url(#path-7-inside-3_686_2266)"/>
</svg>
