<?xml version="1.0" encoding="UTF-8"?>
<!DOCTYPE svg PUBLIC "-//W3C//DTD SVG 1.1//EN" "http://www.w3.org/Graphics/SVG/1.1/DTD/svg11.dtd">
<svg xmlns="http://www.w3.org/2000/svg" version="1.1" width="512px" height="512px" style="shape-rendering:geometricPrecision; text-rendering:geometricPrecision; image-rendering:optimizeQuality; fill-rule:evenodd; clip-rule:evenodd" xmlns:xlink="http://www.w3.org/1999/xlink">
<g><path style="opacity:0.889" fill="#000000" d="M 154.5,-0.5 C 157.167,-0.5 159.833,-0.5 162.5,-0.5C 165.893,4.79706 164.726,8.79706 159,11.5C 158.125,12.8732 157.625,14.3732 157.5,16C 161.075,24.8152 164.075,33.8152 166.5,43C 165.9,51.9152 161.4,57.4152 153,59.5C 147.615,59.4009 145.615,56.7343 147,51.5C 149.333,49.5 151.667,47.5 154,45.5C 154.167,44.6667 154.333,43.8333 154.5,43C 150.917,34.173 147.917,25.173 145.5,16C 145.791,8.91151 148.791,3.41151 154.5,-0.5 Z"/></g>
<g><path style="opacity:0.892" fill="#000000" d="M 197.5,-0.5 C 200.167,-0.5 202.833,-0.5 205.5,-0.5C 207.391,1.83574 207.891,4.5024 207,7.5C 205.185,9.40494 203.185,11.0716 201,12.5C 200.833,13.6667 200.667,14.8333 200.5,16C 202.564,22.967 205.064,29.8003 208,36.5C 210.304,45.1228 208.137,52.2894 201.5,58C 198.298,59.4833 194.964,59.8166 191.5,59C 189.406,56.3661 189.073,53.5328 190.5,50.5C 194.046,49.1206 196.38,46.6206 197.5,43C 195.725,37.1152 193.392,31.4485 190.5,26C 186.049,15.1703 188.383,6.33698 197.5,-0.5 Z"/></g>
<g><path style="opacity:0.891" fill="#000000" d="M 239.5,-0.5 C 242.5,-0.5 245.5,-0.5 248.5,-0.5C 251.77,4.97176 250.437,8.97176 244.5,11.5C 243.926,13.0589 243.26,14.5589 242.5,16C 244.409,22.0511 246.909,27.8844 250,33.5C 253.146,42.3186 251.646,50.152 245.5,57C 241.391,60.0385 237.224,60.2051 233,57.5C 232.333,55.1667 232.333,52.8333 233,50.5C 235,49.1667 237,47.8333 239,46.5C 239.167,45.1667 239.333,43.8333 239.5,42.5C 237.582,35.3235 235.082,28.3235 232,21.5C 230.047,12.5239 232.547,5.19058 239.5,-0.5 Z"/></g>
<g><path style="opacity:0.893" fill="#000000" d="M 282.5,-0.5 C 285.167,-0.5 287.833,-0.5 290.5,-0.5C 294.038,4.94732 292.871,8.94732 287,11.5C 286.219,12.7287 285.719,14.062 285.5,15.5C 287.443,22.0525 289.943,28.3858 293,34.5C 295.991,42.9556 294.491,50.4556 288.5,57C 285.119,59.2448 281.452,59.9115 277.5,59C 273.233,53.6718 274.399,49.8384 281,47.5C 281.923,45.9656 282.423,44.299 282.5,42.5C 280.291,35.744 277.791,29.0773 275,22.5C 272.453,13.0063 274.953,5.33962 282.5,-0.5 Z"/></g>
<g><path style="opacity:0.916" fill="#000000" d="M 124.5,78.5 C 132.507,78.3336 140.507,78.5003 148.5,79C 158.607,83.0379 162.607,90.5379 160.5,101.5C 165.179,101.666 169.845,101.499 174.5,101C 179.155,82.1705 190.821,75.5039 209.5,81C 211.977,82.6427 214.31,84.476 216.5,86.5C 228.684,75.8768 240.85,75.8768 253,86.5C 265.634,75.6381 277.967,75.9714 290,87.5C 292.936,91.706 294.436,96.3726 294.5,101.5C 300.167,101.5 305.833,101.5 311.5,101.5C 314.021,88.8131 321.688,81.3131 334.5,79C 344.5,78.3333 354.5,78.3333 364.5,79C 376.967,81.467 384.967,88.8004 388.5,101C 422.167,101.333 455.833,101.667 489.5,102C 493.5,105.333 493.5,108.667 489.5,112C 455.502,112.5 421.502,112.667 387.5,112.5C 385.622,123.548 379.288,130.715 368.5,134C 356.167,134.667 343.833,134.667 331.5,134C 320.165,131.156 313.498,123.989 311.5,112.5C 305.833,112.5 300.167,112.5 294.5,112.5C 293.346,126.654 285.68,133.987 271.5,134.5C 263.92,134.957 257.754,132.29 253,126.5C 246.07,134.023 237.57,136.523 227.5,134C 223.504,132.337 219.837,130.171 216.5,127.5C 207.482,134.983 197.482,136.483 186.5,132C 179.906,127.562 175.906,121.396 174.5,113.5C 169.88,112.507 165.214,112.173 160.5,112.5C 161.739,129.592 153.739,137.258 136.5,135.5C 119.261,137.258 111.261,129.592 112.5,112.5C 106.491,112.666 100.491,112.499 94.5,112C 90.6327,108.582 90.6327,105.249 94.5,102C 100.491,101.501 106.491,101.334 112.5,101.5C 110.515,90.4617 114.515,82.795 124.5,78.5 Z M 126.5,90.5 C 133.175,90.3337 139.842,90.5004 146.5,91C 147,91.5 147.5,92 148,92.5C 148.667,102.167 148.667,111.833 148,121.5C 147.5,122 147,122.5 146.5,123C 139.833,123.667 133.167,123.667 126.5,123C 126,122.5 125.5,122 125,121.5C 124.333,111.833 124.333,102.167 125,92.5C 125.717,91.9558 126.217,91.2891 126.5,90.5 Z M 195.5,90.5 C 202.314,89.7062 207.147,92.3729 210,98.5C 210.667,104.167 210.667,109.833 210,115.5C 205.613,123.407 199.446,125.241 191.5,121C 189.19,119.363 187.69,117.196 187,114.5C 186.139,108.415 186.473,102.415 188,96.5C 190.134,93.8474 192.634,91.8474 195.5,90.5 Z M 231.5,90.5 C 242.464,90.1311 247.798,95.4644 247.5,106.5C 248.163,116.233 243.83,121.9 234.5,123.5C 228.766,122.933 224.932,119.933 223,114.5C 221.859,107.916 222.526,101.583 225,95.5C 226.965,93.4497 229.132,91.783 231.5,90.5 Z M 267.5,90.5 C 275.419,89.7026 280.586,93.0359 283,100.5C 284.061,106.724 283.394,112.724 281,118.5C 275.786,123.842 269.953,124.675 263.5,121C 261.106,119.048 259.606,116.548 259,113.5C 258.161,108.079 258.494,102.746 260,97.5C 261.742,94.2543 264.242,91.921 267.5,90.5 Z M 335.5,90.5 C 345.172,90.3335 354.839,90.5002 364.5,91C 376.473,96.1258 379.64,104.626 374,116.5C 371.441,119.531 368.274,121.698 364.5,123C 354.833,123.667 345.167,123.667 335.5,123C 325.608,119.725 321.442,112.891 323,102.5C 325.111,96.2195 329.278,92.2195 335.5,90.5 Z"/></g>
<g><path style="opacity:0.918" fill="#000000" d="M 385.5,511.5 C 380.833,511.5 376.167,511.5 371.5,511.5C 366.627,509.467 362.794,506.134 360,501.5C 348.995,471.319 338.495,440.986 328.5,410.5C 309.167,410.5 289.833,410.5 270.5,410.5C 270.667,439.169 270.5,467.835 270,496.5C 266.575,505.111 260.408,510.111 251.5,511.5C 250.5,511.5 249.5,511.5 248.5,511.5C 237.804,510.208 231.304,504.208 229,493.5C 228.5,465.835 228.333,438.169 228.5,410.5C 209.488,410.167 190.488,410.5 171.5,411.5C 161,441.167 150.5,470.833 140,500.5C 136.876,505.464 132.709,509.13 127.5,511.5C 123.167,511.5 118.833,511.5 114.5,511.5C 103.136,506.106 98.6362,497.106 101,484.5C 109.807,459.91 118.307,435.244 126.5,410.5C 119.159,410.666 111.826,410.5 104.5,410C 91.534,405.919 86.3673,397.086 89,383.5C 91.4413,377.392 95.6079,372.892 101.5,370C 114.778,368.742 128.111,368.075 141.5,368C 147.688,353.1 152.855,337.934 157,322.5C 104.479,292.183 71.9785,247.183 59.5,187.5C 54.0992,190.074 49.0992,193.241 44.5,197C 30.1941,200.677 21.5275,195.344 18.5,181C 19.1066,175.392 22.1066,173.392 27.5,175C 28.3333,175.833 29.1667,176.667 30,177.5C 29.7835,184.289 32.9502,187.123 39.5,186C 44.8372,181.08 51.0039,177.58 58,175.5C 56.1123,162.775 60.9457,153.608 72.5,148C 191.889,147.006 311.223,147.339 430.5,149C 440.348,154.86 444.014,163.36 441.5,174.5C 448.713,176.879 455.046,180.713 460.5,186C 462.971,186.706 465.305,186.373 467.5,185C 468.723,181.43 470.39,178.097 472.5,175C 477.938,173.447 480.938,175.447 481.5,181C 478.573,195.47 469.906,200.803 455.5,197C 450.901,193.241 445.901,190.074 440.5,187.5C 428.019,247.768 395.352,293.268 342.5,324C 347.838,338.683 353.172,353.35 358.5,368C 370.167,368.333 381.833,368.667 393.5,369C 408.202,373.059 413.702,382.559 410,397.5C 407.014,403.82 402.181,407.987 395.5,410C 387.833,410.333 380.167,410.667 372.5,411C 381.525,435.741 390.359,460.574 399,485.5C 401.065,497.707 396.565,506.374 385.5,511.5 Z M 77.5,158.5 C 192.5,158.333 307.5,158.5 422.5,159C 427.866,160.7 430.533,164.366 430.5,170C 421.276,242.867 382.943,293.533 315.5,322C 246.683,345.477 184.349,334.144 128.5,288C 94.2313,256.129 74.5647,216.796 69.5,170C 69.671,164.343 72.3377,160.51 77.5,158.5 Z M 168.5,328.5 C 174.07,330.786 179.737,332.786 185.5,334.5C 181.833,345.833 178.167,357.167 174.5,368.5C 167.8,368.83 161.134,368.497 154.5,367.5C 159.175,354.472 163.842,341.472 168.5,328.5 Z M 329.5,328.5 C 330.496,328.414 331.329,328.748 332,329.5C 336.401,342.205 340.901,354.871 345.5,367.5C 338.866,368.497 332.2,368.83 325.5,368.5C 322.134,357.427 318.468,346.427 314.5,335.5C 319.702,333.396 324.702,331.063 329.5,328.5 Z M 196.5,338.5 C 207.305,341.527 218.305,343.527 229.5,344.5C 229.5,352.5 229.5,360.5 229.5,368.5C 215.163,368.667 200.829,368.5 186.5,368C 190.136,358.26 193.469,348.426 196.5,338.5 Z M 301.5,338.5 C 302.497,338.47 303.164,338.97 303.5,340C 306.838,349.35 310.172,358.683 313.5,368C 299.171,368.5 284.837,368.667 270.5,368.5C 270.5,360.5 270.5,352.5 270.5,344.5C 281.197,343.76 291.531,341.76 301.5,338.5 Z M 240.5,345.5 C 246.833,345.5 253.167,345.5 259.5,345.5C 259.5,353.167 259.5,360.833 259.5,368.5C 253.167,368.5 246.833,368.5 240.5,368.5C 240.5,360.833 240.5,353.167 240.5,345.5 Z M 105.5,380.5 C 201.834,380.333 298.167,380.5 394.5,381C 401.163,385.635 401.829,390.969 396.5,397C 394.608,397.973 392.608,398.64 390.5,399C 296.833,399.667 203.167,399.667 109.5,399C 101.76,397.7 98.9268,393.2 101,385.5C 102.366,383.638 103.866,381.972 105.5,380.5 Z M 139.5,410.5 C 146.175,410.334 152.842,410.5 159.5,411C 149.537,438.431 139.704,465.931 130,493.5C 125.128,501.69 119.462,502.356 113,495.5C 112.5,494 112,492.5 111.5,491C 120.939,464.181 130.273,437.347 139.5,410.5 Z M 240.5,410.5 C 246.833,410.5 253.167,410.5 259.5,410.5C 259.667,437.835 259.5,465.169 259,492.5C 253,501.833 247,501.833 241,492.5C 240.5,465.169 240.333,437.835 240.5,410.5 Z M 341.5,410.5 C 348.09,410.189 354.59,410.522 361,411.5C 370.364,437.925 379.531,464.425 388.5,491C 386.663,498.865 381.997,501.532 374.5,499C 372.622,497.457 371.122,495.624 370,493.5C 360.193,465.91 350.693,438.244 341.5,410.5 Z"/></g>
</svg>
