<svg width="36" height="33" viewBox="0 0 36 33" fill="none" xmlns="http://www.w3.org/2000/svg">
<path d="M18.0047 0.979404L17.8159 0.902402L17.627 0.979404L17.1508 1.17364L17.1505 1.17375L1.90942 7.39937L1.90248 7.4022L1.89563 7.40524L1.10183 7.75761L0.804688 7.88951V8.21461V11.5204V12.0204H1.30469H3.34487V24.7168H1.30469H0.804688V25.2168V31.4424V31.9424H1.30469H34.327H34.827V31.4424V25.2168V24.7168H34.327H32.2869V12.0204H34.327H34.827V11.5204V8.21336V7.88686L34.5281 7.75557L33.7343 7.40693L33.7344 7.40678L33.7224 7.40188L18.4813 1.17378L18.481 1.17364L18.0047 0.979404ZM17.8159 4.70681L27.1765 8.53016H8.45522L17.8159 4.70681ZM6.88505 12.0204H8.42523V24.7168H6.88505V12.0204ZM11.9654 12.0204H13.5056V24.7168H11.9654V12.0204ZM18.586 12.0204V24.7168H17.0458V12.0204H18.586ZM22.1261 12.0204H23.6663V24.7168H22.1261V12.0204ZM27.2065 12.0204H28.7467V24.7168H27.2065V12.0204ZM31.2869 28.207V28.4521H4.34487V28.207H31.2869Z" stroke="black"/>
</svg>
