<svg width="37" height="34" viewBox="0 0 37 34" fill="none" xmlns="http://www.w3.org/2000/svg">
<path d="M35.3373 30.23C34.2488 30.2575 33.1585 30.2344 32.0682 30.2398C31.4345 30.2424 30.8926 30.0424 30.481 29.5865C30.2242 29.3015 29.9561 29.0093 29.7761 28.68C29.3429 27.886 28.9557 27.069 28.5545 26.2599C27.8908 24.9206 27.3217 23.5308 26.5464 22.2508C25.2226 20.0644 23.2145 18.8906 20.4677 19.0261C20.1902 19.0393 19.9127 19.0278 19.6211 19.0278V13.3882C19.6924 13.3705 19.7477 13.351 19.8049 13.3431C20.5971 13.2342 21.1483 12.8314 21.3902 12.11C21.632 11.3903 21.4277 10.761 20.8624 10.2298C19.6071 9.05164 18.3555 7.87078 17.0983 6.69524C17.0018 6.60495 16.8808 6.51643 16.7543 6.48279C16.518 6.41817 16.3108 6.49784 16.1833 6.70497C16.0296 6.95548 16.114 7.1697 16.3174 7.36091C17.3964 8.37623 18.4755 9.39155 19.5536 10.4078C19.7777 10.6193 20.0111 10.822 20.2192 11.0469C20.5174 11.3673 20.493 11.8382 20.1827 12.1277C19.878 12.4136 19.4121 12.4358 19.0633 12.1773C18.9714 12.1091 18.8908 12.0277 18.8083 11.9498C16.3708 9.65003 13.9352 7.3494 11.4977 5.05054C11.1162 4.69115 10.8715 4.69203 10.4881 5.05319C9.78212 5.71709 9.079 6.38276 8.37495 7.04755C6.61808 8.70641 4.85935 10.3635 3.10529 12.025C2.87936 12.2384 2.63374 12.3915 2.29999 12.3499C1.95687 12.3074 1.71968 12.1304 1.60531 11.817C1.46749 11.4408 1.6353 11.1575 1.91093 10.8973C4.70466 8.26204 7.49558 5.62415 10.2893 2.98802C10.7637 2.541 11.2193 2.53923 11.6918 2.98183C12.5234 3.76169 13.3493 4.54686 14.178 5.32937C14.3355 5.4772 14.4865 5.63388 14.6552 5.7702C14.883 5.95344 15.1971 5.94105 15.3827 5.74807C15.5852 5.53651 15.589 5.31079 15.4033 5.08772C15.3386 5.00982 15.2599 4.94166 15.1858 4.87084C14.2915 4.02548 13.3971 3.18011 12.5018 2.33563C11.5259 1.41502 10.4646 1.41591 9.48963 2.33563C6.83839 4.83986 4.18998 7.34586 1.53312 9.84478C1.10937 10.244 0.695936 10.6406 0.5 11.1903V11.9206C0.694999 12.4428 0.977184 12.9093 1.53124 13.1536C1.7928 13.2687 2.08249 13.3236 2.37967 13.4121V32.8361C2.00186 32.8361 1.6203 32.8511 1.24062 32.8316C0.918122 32.8148 0.670624 32.906 0.5 33.168V33.4999L36.4998 33.2344V30.8444C36.2654 30.3805 35.8801 30.2159 35.3373 30.23ZM4.69341 32.8095H3.4756V22.6403H4.69341V32.8095ZM8.32338 32.8095H5.79871V22.6394H8.32338V32.8095ZM12.5693 32.8104H9.42307V31.2586H12.5693V32.8104ZM12.573 30.2221H9.42494V28.3977H12.573V30.2221ZM12.574 27.3629H9.43056V25.5252H12.574V27.3629ZM9.43056 24.478V22.6403H12.5618V24.478H9.43056ZM13.6408 21.6082H8.38901C8.37963 21.5285 8.36088 21.4444 8.36088 21.3612C8.35807 20.6424 8.35151 19.9237 8.36088 19.2058C8.38151 17.7673 9.50838 16.6829 10.9812 16.6741C12.4634 16.6652 13.6212 17.7655 13.639 19.212C13.6493 20.0051 13.6408 20.7982 13.6408 21.6082ZM11.7312 15.7464C9.54494 15.302 7.3887 16.8777 7.31745 18.9907C7.28839 19.8502 7.31277 20.7124 7.31277 21.6002H3.44935V21.2258C3.44935 18.6808 3.45779 16.135 3.43904 13.5909C3.43623 13.2271 3.55154 12.9917 3.82248 12.7385C6.01434 10.6937 8.18932 8.63117 10.3671 6.57219C10.5649 6.38453 10.7459 6.18182 10.9568 5.96495C11.0974 6.09065 11.1977 6.17562 11.2934 6.26591C13.5565 8.4019 15.8074 10.5476 18.0921 12.6624C18.4455 12.9899 18.5627 13.3006 18.5589 13.7485C18.5383 16.2271 18.5486 18.7056 18.5486 21.1842V21.6011H14.6955C14.6955 20.7832 14.7049 19.9883 14.6937 19.1934C14.6674 17.4752 13.4824 16.1022 11.7312 15.7464ZM16.1843 32.8254H13.6727V22.6412H16.1843V32.8254ZM19.6033 32.8219V32.2571C19.6033 31.4056 19.6061 30.554 19.6024 29.7016C19.6005 29.2749 19.4177 29.0545 19.0783 29.0492C18.7371 29.0447 18.5514 29.2643 18.5496 29.6883C18.5468 30.6062 18.5486 31.5251 18.5486 32.443V32.8175H17.2849V22.643H18.5486V23.0227C18.5486 24.3399 18.5486 25.6562 18.5496 26.9725C18.5496 27.0938 18.5439 27.2177 18.5655 27.3363C18.6096 27.5709 18.768 27.7072 19.0192 27.7285C19.2846 27.7506 19.4805 27.6417 19.5583 27.3983C19.5986 27.2752 19.6014 27.1371 19.6014 27.0052C19.6042 25.6783 19.6033 24.3505 19.6033 23.0236V22.5934C20.3036 22.6279 20.972 22.6147 21.6236 22.7085C22.218 22.7952 22.6736 23.1892 22.9652 23.6592C23.508 24.5329 24.0086 25.4331 24.467 26.3484C24.9264 27.2664 25.2958 28.2242 25.7364 29.151C26.3992 30.5452 27.2373 31.826 28.607 32.8219H19.6033ZM35.4329 32.798C35.3926 32.8113 35.3616 32.8316 35.3298 32.8316C34.1232 32.8325 32.9148 32.867 31.7101 32.8228C30.1107 32.7652 28.9061 31.9951 27.9629 30.816C27.1426 29.7919 26.6195 28.6207 26.0908 27.4505C25.5995 26.3644 25.1317 25.2649 24.5692 24.2116C24.2523 23.6185 23.8052 23.0732 23.3439 22.5651C22.7486 21.9109 21.9358 21.6365 21.0255 21.6277C20.5699 21.6232 20.1142 21.6268 19.6314 21.6268V20.0671C21.8617 19.8121 23.7855 20.2937 25.1861 22.088C25.9642 23.0847 26.4995 24.1992 27.0123 25.3278C27.5242 26.4538 28.0014 27.5966 28.5807 28.6915C28.9004 29.2953 29.357 29.8494 29.8267 30.3646C30.3892 30.9824 31.1635 31.2338 32.026 31.2338H35.4329V32.798Z" fill="black"/>
<path d="M36.4359 5.95987C36.0947 4.15318 34.5272 2.84928 32.5922 2.74483C32.4506 2.73686 32.2688 2.63064 32.1872 2.51733C31.0041 0.863778 28.906 0.126407 26.9279 0.684083C24.916 1.2515 23.5838 2.93426 23.567 4.94366C23.5651 5.11628 23.5266 5.21276 23.3504 5.30305C22.1138 5.93685 21.5429 7.154 21.8738 8.40922C22.1973 9.63433 23.3495 10.4646 24.7501 10.4673C27.3038 10.4708 29.8575 10.4726 32.4113 10.4664C34.3135 10.462 35.9063 9.2714 36.3759 7.52136C36.4153 7.37265 36.4584 7.22482 36.4997 7.07699V6.14753C36.4781 6.08468 36.4472 6.02449 36.4359 5.95987ZM32.8903 9.43516C32.685 9.46969 32.4713 9.47057 32.2603 9.47057C31.0313 9.47411 29.8013 9.47234 28.5722 9.47234C27.3432 9.47234 26.0654 9.47234 24.8129 9.47146C23.792 9.47057 23.0082 8.89254 22.8638 8.03832C22.7101 7.12479 23.2182 6.36618 24.1988 6.04839C24.5841 5.92269 24.6985 5.75273 24.6498 5.37652C24.4341 3.71589 25.4691 2.1721 27.1416 1.66046C28.8047 1.15235 30.6113 1.84104 31.4466 3.32463C31.6322 3.65393 31.8666 3.77166 32.2575 3.75926C33.9216 3.70438 35.2725 4.81442 35.4347 6.34228C35.5913 7.82321 34.4906 9.16695 32.8903 9.43516Z" fill="black"/>
<path d="M10.998 9.76663C9.72118 9.76043 8.66275 10.7448 8.65243 11.9486C8.64118 13.1826 9.67337 14.1793 10.9699 14.1873C12.273 14.1953 13.3268 13.2198 13.339 11.9929C13.3512 10.7766 12.2946 9.77194 10.998 9.76663ZM10.9812 13.1915C10.264 13.187 9.69868 12.6409 9.70712 11.9602C9.71555 11.3007 10.2855 10.766 10.9868 10.7625C11.6984 10.7589 12.2852 11.3104 12.2843 11.9814C12.2834 12.6524 11.6984 13.1959 10.9812 13.1915Z" fill="black"/>
</svg>
