<svg width="32" height="23" viewBox="0 0 32 23" fill="none" xmlns="http://www.w3.org/2000/svg">
<path d="M31.5996 8.39983C30.3104 3.81337 26.2865 0.614816 21.5286 0.455767C19.6952 0.394659 17.8575 0.445722 16.0216 0.445722V0.429817C14.3629 0.429817 12.7033 0.398007 11.0463 0.443211C10.1659 0.467487 9.26887 0.53864 8.4136 0.737032C2.20681 2.17517 -1.41576 8.70872 0.611643 14.7534C2.11903 19.2461 6.23069 22.1785 11.0455 22.186C14.3629 22.1919 17.6803 22.1952 20.9969 22.1801C21.6306 22.1776 22.271 22.1299 22.8964 22.0303C29.2486 21.0132 33.3402 14.596 31.5996 8.39983ZM20.8523 3.78826C21.3932 3.83597 21.9333 3.84016 22.4566 3.93726C26.3058 4.64879 28.9025 8.06081 28.5949 11.9776C28.329 15.3662 25.6102 18.255 22.2484 18.7104C21.8463 18.7648 21.4383 18.7983 21.0337 18.7991C17.6853 18.8058 14.3378 18.8117 10.9894 18.7999C7.50566 18.7882 4.58619 16.5716 3.68661 13.2793C2.50194 8.94478 5.38127 4.54081 9.82317 3.90294C10.2036 3.84853 10.5915 3.82007 10.9752 3.81839C13.1657 3.81086 15.3561 3.81421 17.5465 3.81504C17.6477 3.81504 17.7489 3.82593 17.8651 3.83179V5.44404H17.4797C15.3101 5.44404 13.1406 5.43734 10.9711 5.44655C8.04156 5.45827 5.56604 7.52088 5.13213 10.295C4.5561 13.9741 7.21806 17.1425 10.941 17.1676C14.3303 17.191 17.7196 17.1894 21.1098 17.1684C24.1454 17.1492 26.5223 15.043 26.9562 12.0362C27.4202 8.82173 24.8895 5.68596 21.659 5.47334C21.399 5.45659 21.139 5.44487 20.8523 5.42897V3.78826ZM18.778 1.32551H19.9502V2.91349H18.778V1.32551ZM19.9518 6.35061V7.92938H18.7822V6.35061H19.9518ZM18.7764 3.83346H19.9485V5.41892H18.7764V3.83346ZM21.0571 8.83094C22.4892 8.83931 23.5142 9.78021 23.6254 11.1673C23.7257 12.4213 22.7425 13.6183 21.4952 13.7573C21.3296 13.7757 21.1624 13.7874 20.9961 13.7874C17.6803 13.7891 14.3646 13.7899 11.0488 13.7874C9.7496 13.7866 8.79233 13.08 8.49052 11.9123C8.11263 10.4524 9.13761 8.95734 10.6425 8.86024C11.66 8.79494 12.6849 8.83345 13.7058 8.82926C14.4774 8.82591 15.2491 8.82926 16.0208 8.82926C17.6995 8.82926 19.3783 8.82173 21.0571 8.83094ZM17.8701 7.93106C17.738 7.93775 17.6176 7.95031 17.4972 7.95031C15.3385 7.95198 13.179 7.94696 11.0204 7.95282C9.34913 7.95784 8.01564 8.96487 7.64026 10.4884C7.11272 12.6297 8.66859 14.6379 10.9309 14.658C14.3211 14.6873 17.7112 14.6781 21.1014 14.6605C22.7969 14.6513 24.1003 13.5698 24.4397 11.96C24.7549 10.4683 23.9757 8.89205 22.5469 8.2751C22.0336 8.05244 21.45 7.99133 20.8606 7.84818V6.29537C21.3096 6.34141 21.7661 6.3481 22.205 6.44018C24.5593 6.93575 26.2113 9.08207 26.1168 11.4937C26.0223 13.9163 24.2299 15.912 21.8396 16.2451C21.5721 16.2828 21.2987 16.2928 21.0287 16.2937C17.6903 16.297 14.3529 16.2995 11.0145 16.2945C8.50306 16.2903 6.41713 14.596 6.0058 12.2404C5.46738 9.15155 7.65949 6.41172 10.7997 6.33471C13.0929 6.27946 15.3887 6.32299 17.6836 6.32299C17.7338 6.32299 17.7848 6.33387 17.8701 6.34392V7.93106ZM31.1047 11.801C30.889 16.3673 27.574 20.2498 23.0268 21.1195C22.3655 21.2459 21.6808 21.2978 21.0069 21.3012C17.6795 21.3196 14.3512 21.3154 11.0237 21.3087C6.20394 21.2978 2.2528 18.1504 1.16009 13.4626C-0.0597 8.22823 3.35387 2.75444 8.58833 1.59841C9.36585 1.4268 10.1751 1.33388 10.9711 1.32049C13.1615 1.28282 15.3528 1.3071 17.5432 1.30793C17.6444 1.30793 17.7464 1.31798 17.8651 1.32468V2.93693H17.4512C15.1563 2.94195 12.8588 2.88419 10.5672 2.96539C6.53752 3.10686 3.28782 6.0434 2.64239 10.0255C1.90082 14.5952 5.16223 18.9858 9.75294 19.5885C10.1751 19.6446 10.6049 19.6755 11.0304 19.6764C14.3587 19.6831 17.6862 19.6848 21.0136 19.6789C25.1127 19.6714 28.4385 16.9985 29.3205 13.0148C30.3146 8.52289 27.2396 3.8954 22.7166 3.09765C22.113 2.99134 21.4968 2.95785 20.8573 2.88754V1.31798C21.8045 1.29119 22.72 1.39081 23.6221 1.62268C28.0514 2.76114 31.3371 6.88301 31.1047 11.801Z" fill="black"/>
</svg>
