<svg width="32" height="34" viewBox="0 0 32 34" fill="none" xmlns="http://www.w3.org/2000/svg">
<path d="M20.4439 33.003V24.1138C20.4439 23.6423 20.2566 23.1901 19.9232 22.8567C19.5898 22.5232 19.1376 22.3359 18.6661 22.3359H13.3325C12.861 22.3359 12.4088 22.5232 12.0754 22.8567C11.742 23.1901 11.5547 23.6423 11.5547 24.1138V33.003" stroke="black" stroke-linecap="round" stroke-linejoin="round"/>
<path d="M3.55487 15.2208V25.8879C3.55487 29.2409 3.55487 30.9157 4.59669 31.9575C5.63851 32.9993 7.31324 32.9993 10.6663 32.9993H21.3333C24.6864 32.9993 26.3611 32.9993 27.4029 31.9575C28.4447 30.9157 28.4447 29.2409 28.4447 25.8879V15.2208M2.88107 3.69148C3.20464 2.39721 3.36642 1.75185 3.84822 1.37495C4.33179 0.998047 4.99848 0.998047 6.33187 0.998047H25.6677C27.0011 0.998047 27.6678 0.998047 28.1514 1.37495C28.6314 1.75185 28.795 2.39721 29.1185 3.69148L31.2573 12.25C31.4297 12.9398 31.5169 13.283 31.4973 13.5639C31.473 13.9181 31.3431 14.257 31.1245 14.5368C30.9059 14.8166 30.6084 15.0245 30.2706 15.1337C30.0039 15.2208 29.6412 15.2208 28.9141 15.2208C27.9665 15.2208 27.4918 15.2208 27.0953 15.1284C26.5457 15.0003 26.0344 14.7433 25.6037 14.3785C25.1731 14.0137 24.8355 13.5516 24.6188 13.0305C24.4606 12.6536 24.3841 12.1949 24.233 11.2829C24.1903 11.0269 24.169 10.8989 24.1441 10.8651C24.1276 10.8423 24.106 10.8238 24.081 10.811C24.0559 10.7982 24.0282 10.7916 24.0001 10.7916C23.972 10.7916 23.9443 10.7982 23.9193 10.811C23.8942 10.8238 23.8726 10.8423 23.8561 10.8651C23.8312 10.8989 23.8099 11.0251 23.7672 11.2829L23.6232 12.1523C23.5077 12.9893 23.0978 13.7578 22.4671 14.3201C21.8364 14.8824 21.0261 15.2017 20.1813 15.2208H19.8186C18.9739 15.2017 18.1635 14.8824 17.5328 14.3201C16.9021 13.7578 16.4923 12.9893 16.3767 12.1523L16.2327 11.2811C16.19 11.0269 16.1687 10.8989 16.1438 10.8651C16.1273 10.8423 16.1057 10.8238 16.0806 10.811C16.0556 10.7982 16.0279 10.7916 15.9998 10.7916C15.9717 10.7916 15.944 10.7982 15.919 10.811C15.8939 10.8238 15.8723 10.8423 15.8558 10.8651C15.8309 10.8989 15.8096 11.0251 15.7669 11.2829L15.6229 12.1523C15.5074 12.9893 15.0975 13.7578 14.4668 14.3201C13.8361 14.8824 13.0257 15.2017 12.181 15.2208H11.8183C11.005 15.2018 10.2228 14.9044 9.60224 14.3783C8.98169 13.8522 8.5603 13.1293 8.4084 12.33C8.39556 12.2712 8.38488 12.2119 8.37639 12.1523L8.23239 11.2811C8.18972 11.0269 8.16839 10.8989 8.1435 10.8651C8.12701 10.8423 8.10537 10.8238 8.08034 10.811C8.0553 10.7982 8.0276 10.7916 7.99949 10.7916C7.97138 10.7916 7.94368 10.7982 7.91865 10.811C7.89361 10.8238 7.87197 10.8423 7.85549 10.8651C7.8306 10.8989 7.80926 11.0251 7.76659 11.2829C7.61548 12.1967 7.53903 12.6518 7.3808 13.0305C7.16429 13.5514 6.82694 14.0134 6.39663 14.3781C5.96631 14.7429 5.45538 15.0001 4.90604 15.1284C4.5078 15.2208 4.03489 15.2208 3.08552 15.2208C2.35838 15.2208 1.9957 15.2208 1.72902 15.1337C1.39116 15.0245 1.09375 14.8166 0.875114 14.5368C0.656477 14.257 0.526632 13.9181 0.502309 13.5639C0.484531 13.283 0.569867 12.9398 0.742319 12.25L2.88107 3.69148Z" stroke="black"/>
</svg>
