<svg width="26" height="34" viewBox="0 0 26 34" fill="none" xmlns="http://www.w3.org/2000/svg">
<path d="M9.42869 18.1351V31.7618M15.3806 6.37896V0.5M3.47683 6.37896V0.5M18.3574 9.8525V14.6616C18.3574 15.5828 17.9811 16.4664 17.3113 17.1178C16.6415 17.7692 15.7331 18.1351 14.7859 18.1351H4.07148C3.12426 18.1351 2.21584 17.7692 1.54606 17.1178C0.876279 16.4664 0.5 15.5828 0.5 14.6616V9.85076C0.5 8.92952 0.876279 8.04601 1.54606 7.3946C2.21584 6.74318 3.12426 6.37722 4.07148 6.37722H14.7859C15.7331 6.37722 16.6415 6.74318 17.3113 7.3946C17.9811 8.04601 18.3574 8.92952 18.3574 9.85076V9.8525Z" stroke="black" stroke-linecap="round"/>
<path d="M21.3323 23.0791L18.3555 28.2894H25.4984L22.5216 33.4997" stroke="black" stroke-linecap="round" stroke-linejoin="round"/>
</svg>
