<svg width="30" height="39" viewBox="0 0 30 39" fill="none" xmlns="http://www.w3.org/2000/svg">
<path d="M22.9631 13.6722L23.0435 13.6304L22.6197 13.1507L21.6397 12.0417L21.6254 12.0255L21.6098 12.0107C21.2164 11.636 20.7976 11.3108 20.4019 11.0036C20.3527 10.9653 20.3039 10.9274 20.2554 10.8897C19.8103 10.5428 19.3953 10.2085 19.0214 9.8117L19.0215 9.81163L19.0145 9.80449C17.27 8.02526 16.8969 5.02053 18.0055 2.71682L18.4778 1.73545L17.4257 2.017C16.1754 2.3516 15.0078 3.08995 14.0806 3.88319C10.648 6.80152 9.30071 11.9436 10.9032 16.3498L10.9939 16.6458C10.9744 16.7332 10.9105 16.8072 10.8356 16.8383L10.8281 16.8414L10.8206 16.8448C10.7646 16.8703 10.6824 16.88 10.5639 16.7852L10.4074 16.5931C9.11103 14.8396 8.89311 12.2915 9.78808 10.2459L9.00428 9.66611C6.74936 11.6023 5.58634 14.8543 5.75073 17.8907L5.75059 17.8907L5.75152 17.9025C5.8038 18.5725 5.87582 19.2707 6.11714 19.9964C6.30784 20.8691 6.67817 21.7075 7.09267 22.4377L7.09264 22.4377L7.09565 22.4429C8.51223 24.8704 10.9848 26.6461 13.7099 26.9957C16.5031 27.3722 19.5774 26.834 21.8022 24.7167L21.8022 24.7168L21.8052 24.7139C24.2361 22.3617 25.169 18.6023 23.846 15.3307L23.842 15.3207L23.8374 15.3108L23.6815 14.9688C23.4846 14.5193 23.2412 14.0783 22.9631 13.6722ZM17.9029 21.5284L17.6314 21.7729C17.3373 21.9789 16.9894 22.1614 16.7203 22.2367L16.703 22.2415L16.686 22.2476C15.7999 22.5658 14.8767 22.3089 14.1307 21.8027C15.3675 21.204 16.101 20.0968 16.3615 18.9971L16.3638 18.9875L16.3657 18.9779C16.4881 18.3524 16.4288 17.7898 16.3261 17.2711C16.2827 17.0517 16.2299 16.8328 16.1793 16.6234C16.171 16.5888 16.1627 16.5543 16.1545 16.5202C16.0959 16.2761 16.0415 16.0409 16.0009 15.8007C15.9307 15.3627 15.9028 14.9619 15.9296 14.5754C15.9913 14.6713 16.0551 14.7639 16.1208 14.8522C16.391 15.2181 16.6939 15.5275 16.9883 15.8068C17.1139 15.9259 17.2315 16.0339 17.3451 16.1382C17.5122 16.2915 17.6705 16.4369 17.8326 16.5979C18.3401 17.1019 18.7279 17.6147 18.8794 18.3708L18.9282 18.9118C18.9551 19.8792 18.5589 20.9378 17.9029 21.5284ZM13.75 30.2273V29.7273H13.25H9.75H9.25V30.2273V32.0455C9.25 32.7875 8.66852 33.3636 8 33.3636C7.33148 33.3636 6.75 32.7875 6.75 32.0455V30.2273V29.7273H6.25C5.1745 29.7273 3.77233 30.174 2.64123 30.8695C1.53712 31.5484 0.5 32.5875 0.5 33.8636V37.5V38H1H29H29.5V37.5V33.8636C29.5 32.5886 28.4687 31.5494 27.3657 30.8698C26.2361 30.1738 24.8339 29.7273 23.75 29.7273H23.25V30.2273V32.0455C23.25 32.7875 22.6685 33.3636 22 33.3636C21.3315 33.3636 20.75 32.7875 20.75 32.0455V30.2273V29.7273H20.25H16.75H16.25V30.2273V32.0455C16.25 32.7875 15.6685 33.3636 15 33.3636C14.3315 33.3636 13.75 32.7875 13.75 32.0455V30.2273Z" stroke="black"/>
</svg>
