<svg width="36" height="26" viewBox="0 0 36 26" fill="none" xmlns="http://www.w3.org/2000/svg">
<path d="M33.558 0.716797C23.1833 0.727182 12.8086 0.722855 2.43393 0.724586C2.2418 0.724586 2.04362 0.727182 1.85755 0.769588C0.996459 0.963442 0.504898 1.63328 0.504033 2.60774C0.502302 6.0703 0.503168 9.53372 0.503168 12.9963C0.503168 13.4065 0.491917 13.8167 0.511822 14.226C0.550766 15.017 1.07867 15.6661 1.81601 15.8245C2.05833 15.8764 2.31363 15.8876 2.56201 15.8885C12.8571 15.8911 23.1521 15.8911 33.4472 15.8894C33.6402 15.8894 33.8349 15.8781 34.0253 15.8504C34.6926 15.7535 35.14 15.377 35.3849 14.7522C35.4221 14.6587 35.4619 14.5661 35.5 14.4727V2.09801C35.1755 1.18412 34.5653 0.716797 33.558 0.716797ZM34.3351 13.8556C34.3351 14.5653 34.1811 14.7219 33.4749 14.7219C23.1556 14.7219 12.8354 14.7219 2.51614 14.7219C1.82813 14.7219 1.66803 14.561 1.66803 13.8781C1.66716 10.1637 1.66716 6.45022 1.66803 2.73583C1.66803 2.06253 1.84198 1.88858 2.51787 1.88858H33.4766C34.188 1.88858 34.3351 2.0357 34.3351 2.74794C34.336 6.45108 34.336 10.1534 34.3351 13.8556Z" fill="black"/>
<path d="M19.7461 21.9344C19.7417 22.4519 19.5963 22.8639 19.2839 23.1797C19.0001 23.4688 18.6764 23.7258 18.3406 23.9534C18.0412 24.1559 17.6379 24.0348 17.4778 23.7483C17.3159 23.4593 17.4051 23.2074 17.7417 22.9781C17.9287 22.85 18.1225 22.7262 18.2878 22.5731C18.6686 22.22 18.6729 21.8634 18.2757 21.5311C17.946 21.255 17.5539 21.0517 17.232 20.7678C16.9464 20.5168 16.6677 20.2295 16.4782 19.9041C16.1044 19.2602 16.1736 18.5887 16.6426 18.0253C16.9343 17.6756 17.322 17.3952 17.7002 17.1313C17.9737 16.94 18.261 17.0283 18.4159 17.2689C18.589 17.5389 18.5371 17.8522 18.2913 18.0599C18.0827 18.2356 17.8629 18.4009 17.6777 18.599C17.3324 18.9686 17.3428 19.3009 17.7262 19.6263C17.9659 19.8305 18.2497 19.9846 18.5189 20.1516C19.2112 20.5817 19.7011 21.1434 19.7461 21.9344Z" fill="black"/>
<path d="M13.0029 24.1477C12.7026 24.5319 12.2759 24.8193 11.8934 25.1351C11.8147 25.2 11.6823 25.1983 11.6191 25.2148C11.2911 25.1871 11.0981 25.0572 11.0159 24.7829C10.9354 24.5094 11.054 24.3251 11.2747 24.178C11.4633 24.0516 11.6572 23.9287 11.8277 23.7799C12.2742 23.3904 12.2734 23.0287 11.8043 22.647C11.4702 22.3753 11.0886 22.1615 10.7528 21.8915C10.2102 21.4554 9.81901 20.9231 9.8493 20.1797C9.87959 19.4225 10.6766 18.4342 11.4174 18.2325C11.6952 18.1572 11.9142 18.2446 12.044 18.5069C12.1747 18.7691 12.16 19.0053 11.9099 19.2044C11.6875 19.3809 11.459 19.5558 11.2651 19.7609C10.9155 20.1313 10.925 20.4584 11.3084 20.7898C11.5386 20.988 11.8346 21.1101 12.0674 21.3056C12.411 21.5947 12.7874 21.876 13.0401 22.2377C13.4694 22.8539 13.4694 23.5523 13.0029 24.1477Z" fill="black"/>
<path d="M25.2773 24.7727C25.0264 24.9709 24.733 25.1137 24.4595 25.2824C24.1376 25.202 23.9429 25.0713 23.8529 24.8039C23.762 24.5347 23.871 24.3443 24.0926 24.1946C24.2812 24.0674 24.476 23.9471 24.6464 23.7982C25.1129 23.3906 25.112 23.0401 24.6274 22.6429C24.321 22.3919 23.9679 22.1981 23.659 21.9488C23.4314 21.7654 23.2142 21.5559 23.0411 21.3214C22.5244 20.6195 22.5409 19.781 23.112 19.125C23.376 18.8212 23.7118 18.572 24.0441 18.3392C24.3557 18.1219 24.6603 18.1808 24.8282 18.4283C25.0134 18.7 24.9424 19.0332 24.6655 19.266C24.4483 19.4486 24.225 19.6295 24.0398 19.8415C23.7672 20.1557 23.7758 20.4646 24.0874 20.7407C24.3392 20.964 24.6395 21.1353 24.9277 21.3145C25.4972 21.6684 25.9627 22.1141 26.1151 22.7874C26.3072 23.6347 25.9134 24.269 25.2773 24.7727Z" fill="black"/>
<path d="M32.6921 13.5242C32.5589 13.5476 32.4204 13.5519 32.2845 13.5519C22.7623 13.5536 13.2409 13.5536 3.71864 13.5528C3.10246 13.5528 2.85149 13.3892 2.84024 12.9833C2.82812 12.5662 3.09467 12.3827 3.72124 12.3827C8.49404 12.3818 13.266 12.3827 18.0388 12.3827C22.8116 12.3827 27.4918 12.3818 32.2187 12.3836C32.378 12.3836 32.5372 12.3914 32.6947 12.4113C33.0097 12.4502 33.1413 12.6648 33.1629 12.9522C33.1846 13.2447 32.9924 13.4731 32.6921 13.5242Z" fill="black"/>
<path d="M33.1632 10.6511C33.1511 11.018 32.9218 11.211 32.4553 11.2119C30.2563 11.2154 28.0581 11.2136 25.8599 11.2136H18.001C13.2628 11.2136 8.52465 11.2136 3.7856 11.2128C3.62722 11.2128 3.46626 11.2119 3.30875 11.1929C2.99547 11.1539 2.85181 10.9384 2.84402 10.6511C2.83709 10.3664 2.96431 10.1405 3.27673 10.0834C3.41 10.0592 3.54761 10.047 3.68261 10.047C13.2282 10.0453 22.773 10.0462 32.3177 10.0462C32.3636 10.0462 32.4086 10.0444 32.4545 10.0462C32.9253 10.0635 33.1754 10.2764 33.1632 10.6511Z" fill="black"/>
<path d="M20.9055 5.35366C20.915 5.62367 20.8103 5.84695 20.5247 5.92657C20.4165 5.95686 20.3005 5.96984 20.188 5.96984C18.7332 5.97244 17.2785 5.97936 15.8246 5.96292C15.6255 5.96119 15.3564 5.89714 15.249 5.76041C15.1331 5.61329 15.0933 5.31558 15.1642 5.14163C15.2265 4.98932 15.4836 4.83267 15.661 4.82489C16.4433 4.79113 17.2283 4.81017 18.0123 4.81017V4.80238C18.7055 4.80238 19.3987 4.80152 20.092 4.80412C20.227 4.80498 20.3663 4.80758 20.4978 4.83614C20.7713 4.89325 20.8959 5.0949 20.9055 5.35366Z" fill="black"/>
</svg>
