<svg width="36" height="33" viewBox="0 0 36 33" fill="none" xmlns="http://www.w3.org/2000/svg">
<path d="M18.1894 1.36039L18.0003 1.28311L17.8112 1.36039L17.3359 1.5546L17.3356 1.55471L2.12621 7.77944L2.11926 7.78228L2.1124 7.78533L1.32025 8.13765L1.02344 8.26966V8.5945V11.8998V12.3998H1.52344H3.55834V25.0942H1.52344H1.02344V25.5942V31.819V32.319H1.52344H34.4771H34.9771V31.819V25.5942V25.0942H34.4771H32.4422V12.3998H34.4771H34.9771V11.8998V8.59326V8.26701L34.6785 8.13561L33.8864 7.78702L33.8864 7.78687L33.8744 7.78195L18.665 1.55474L18.6647 1.5546L18.1894 1.36039ZM18.0003 5.08743L27.3407 8.90994H8.65984L18.0003 5.08743ZM7.09324 12.3998H8.62814V25.0942H7.09324V12.3998ZM12.163 12.3998H13.6979V25.0942H12.163V12.3998ZM18.7677 12.3998V25.0942H17.2328V12.3998H18.7677ZM22.3026 12.3998H23.8375V25.0942H22.3026V12.3998ZM27.3724 12.3998H28.9073V25.0942H27.3724V12.3998ZM31.4422 28.5841V28.8291H4.55834V28.5841H31.4422ZM33.685 8.24464L33.685 8.24461L33.685 8.24464Z" stroke="black"/>
</svg>
