<svg width="28" height="28" viewBox="0 0 28 28" fill="none" xmlns="http://www.w3.org/2000/svg">
<path d="M27.1719 12.8737C26.2609 12.8621 25.3489 12.8651 24.4379 12.8712C24.1594 12.8727 23.9946 13.0438 23.9976 13.2886C24.0012 13.5333 24.166 13.6862 24.4511 13.6882C25.0978 13.6923 25.7451 13.6897 26.3918 13.6897H27.1623V14.7139H0.835427V13.6897H1.1976C8.29696 13.6897 15.3968 13.6897 22.4962 13.6897C22.5966 13.6897 22.6981 13.6963 22.797 13.6852C23.0181 13.6608 23.1465 13.5237 23.1622 13.3094C23.1779 13.0921 23.0592 12.9413 22.8487 12.8885C22.7447 12.8621 22.6316 12.8697 22.5231 12.8697C18.3211 12.8687 14.1201 12.8692 9.91861 12.8692H9.58028C9.58028 12.7316 9.58738 12.6325 9.57825 12.5345C9.55948 12.3182 9.58434 12.1811 9.8547 12.1106C10.2159 12.0161 10.4213 11.7241 10.4502 11.3413C10.4664 11.1234 10.4619 10.9031 10.4527 10.6847C10.4436 10.4511 10.3122 10.3135 10.0794 10.2912C9.85622 10.2694 9.68223 10.4171 9.64673 10.6558C9.63202 10.7543 9.6381 10.8563 9.6376 10.9564C9.63692 11.2272 9.50622 11.3626 9.2455 11.3626C8.43442 11.3631 7.62283 11.3626 6.81175 11.3626C5.73691 11.3626 4.66105 11.358 3.58569 11.3662C3.36707 11.3682 3.26055 11.3113 3.28591 11.0747C3.30012 10.9391 3.29504 10.8005 3.28338 10.6644C3.2641 10.4445 3.13628 10.3125 2.91766 10.2922C2.6965 10.2719 2.55041 10.3856 2.48904 10.5948C2.26534 11.3509 2.57375 11.9455 3.32801 12.2091V12.8692C2.57425 12.8692 1.83774 12.888 1.10173 12.8626C0.574705 12.8443 0.201882 13.024 0 13.5217V14.945C0.249563 15.4979 0.709632 15.6264 1.30666 15.5426V15.9163C1.30666 19.4834 1.32086 23.0506 1.29499 26.6177C1.28941 27.4179 1.81491 28.0009 2.68077 27.9988C10.227 27.9801 17.7733 27.9801 25.3195 27.9983C26.1854 28.0004 26.7098 27.42 26.7043 26.6172C26.6789 23.0501 26.6931 19.4824 26.6931 15.9153V15.5426C27.2739 15.6299 27.7492 15.5096 27.9998 14.945V13.5217C27.8395 13.1576 27.599 12.8788 27.1719 12.8742V12.8737ZM4.18069 12.203H8.74688V12.8524H4.18069V12.203ZM13.5677 27.1661H13.2852C9.73955 27.1661 6.19495 27.1661 2.64983 27.1656C2.21766 27.1656 2.12687 27.0732 2.12687 26.6324C2.12687 23.0379 2.12687 19.4433 2.12737 15.8488C2.12737 15.7609 2.13549 15.6721 2.14056 15.5705H13.5677V27.1661ZM14.431 15.5715H25.8531V20.9662H14.431V15.5715ZM25.8724 26.6949C25.8719 27.0569 25.7623 27.1651 25.3971 27.1656C21.818 27.1666 18.2389 27.1661 14.6593 27.1656C14.5883 27.1656 14.5178 27.1585 14.4107 27.1524V26.8203C14.4107 25.2523 14.4143 23.6838 14.4062 22.1163C14.4052 21.8918 14.4432 21.7989 14.7004 21.7994C18.3343 21.8086 21.9681 21.8055 25.6015 21.806C25.6822 21.806 25.7618 21.8152 25.8551 21.8202C25.8622 21.904 25.8724 21.9746 25.8724 22.0447C25.8734 23.5954 25.8739 25.1451 25.8724 26.6949Z" fill="black"/>
<path d="M19.9774 4.27596C19.9774 4.15409 19.9764 4.03172 19.9738 3.90934C19.9688 3.62702 19.8135 3.45488 19.5772 3.45133C19.3393 3.44727 19.1638 3.61737 19.1597 3.89462C19.1506 4.50395 19.1501 5.11379 19.1607 5.72312C19.1658 5.99884 19.3469 6.16082 19.5893 6.15016C19.8227 6.13949 19.9667 5.98259 19.9733 5.71042C19.9764 5.59008 19.9774 5.46923 19.9774 5.34838C19.9774 5.16913 19.9754 4.98938 19.9754 4.81014C19.9754 4.6314 19.9774 4.45419 19.9774 4.27596ZM23.2866 3.86872C23.2821 3.61382 23.0995 3.44828 22.8722 3.45133C22.6455 3.45336 22.4796 3.62296 22.4735 3.87938C22.4659 4.17948 22.4715 4.48008 22.4715 4.78018C22.4715 5.08027 22.4674 5.39966 22.4725 5.7089C22.4781 5.97802 22.6227 6.13797 22.8555 6.15016C23.0979 6.16234 23.2831 5.9963 23.2871 5.72566C23.2963 5.10668 23.2968 4.4877 23.2866 3.86872ZM23.2866 3.86872C23.2821 3.61382 23.0995 3.44828 22.8722 3.45133C22.6455 3.45336 22.4796 3.62296 22.4735 3.87938C22.4659 4.17948 22.4715 4.48008 22.4715 4.78018C22.4715 5.08027 22.4674 5.39966 22.4725 5.7089C22.4781 5.97802 22.6227 6.13797 22.8555 6.15016C23.0979 6.16234 23.2831 5.9963 23.2871 5.72566C23.2963 5.10668 23.2968 4.4877 23.2866 3.86872ZM23.2866 3.86872C23.2821 3.61382 23.0995 3.44828 22.8722 3.45133C22.6455 3.45336 22.4796 3.62296 22.4735 3.87938C22.4659 4.17948 22.4715 4.48008 22.4715 4.78018C22.4715 5.08027 22.4674 5.39966 22.4725 5.7089C22.4781 5.97802 22.6227 6.13797 22.8555 6.15016C23.0979 6.16234 23.2831 5.9963 23.2871 5.72566C23.2963 5.10668 23.2968 4.4877 23.2866 3.86872ZM27.1254 0.000488281H15.3133C14.6488 0.250822 14.4282 0.742348 14.4353 1.43394C14.4576 3.68643 14.4616 5.93943 14.4337 8.19192C14.4246 8.94089 14.8476 9.55784 15.7926 9.55073C19.4001 9.52382 23.0087 9.53042 26.6162 9.54819C27.306 9.55124 27.7737 9.31258 28.0004 8.65044V0.876401L27.1254 0.000488281ZM20.8037 8.70274C20.6997 8.70833 20.6033 8.71798 20.508 8.71798C18.9223 8.71848 17.3367 8.7195 15.751 8.71798C15.3305 8.71798 15.2646 8.65044 15.2636 8.2229C15.2636 5.91455 15.2636 3.60671 15.2646 1.29887C15.2646 0.898743 15.3422 0.821561 15.7445 0.821561H20.8037V8.70274ZM27.1797 8.28688C27.1797 8.61896 27.097 8.71645 26.7962 8.71696C25.1381 8.72001 23.4804 8.71848 21.8222 8.71747C21.77 8.71747 21.7172 8.70782 21.6523 8.70122V0.821561H21.9323C23.5266 0.821561 25.1208 0.821053 26.7146 0.821561C27.1021 0.822577 27.1797 0.898743 27.1802 1.28313C27.1802 3.61737 27.1807 5.95263 27.1797 8.28688ZM22.8722 3.45133C22.6455 3.45336 22.4796 3.62296 22.4735 3.87938C22.4659 4.17948 22.4715 4.48008 22.4715 4.78018C22.4715 5.08027 22.4674 5.39966 22.4725 5.7089C22.4781 5.97802 22.6227 6.13797 22.8555 6.15016C23.0979 6.16234 23.2831 5.9963 23.2871 5.72566C23.2963 5.10668 23.2968 4.4877 23.2866 3.86872C23.2821 3.61382 23.0995 3.44828 22.8722 3.45133ZM19.5893 6.15016C19.8227 6.13949 19.9667 5.98259 19.9733 5.71042C19.9764 5.59008 19.9774 5.46923 19.9774 5.34838C19.9774 5.16913 19.9754 4.98938 19.9754 4.81014C19.9754 4.6314 19.9774 4.45419 19.9774 4.27596C19.9774 4.15409 19.9764 4.03172 19.9738 3.90934C19.9688 3.62702 19.8135 3.45488 19.5772 3.45133C19.3393 3.44727 19.1638 3.61737 19.1597 3.89462C19.1506 4.50395 19.1501 5.11379 19.1607 5.72312C19.1658 5.99884 19.3469 6.16082 19.5893 6.15016Z" fill="black"/>
<path d="M13.4267 3.67166C13.4079 3.13545 13.0787 2.81758 12.5375 2.80743C12.3569 2.80387 12.1769 2.80692 12.0019 2.80692C11.9714 2.71044 11.9501 2.64088 11.9288 2.57182C11.6828 1.76547 10.9803 1.21352 10.1433 1.21098C7.85566 1.20286 5.568 1.20337 3.28084 1.21098C2.47686 1.21352 1.76267 1.73044 1.53289 2.49972C1.4502 2.77645 1.3239 2.83485 1.07485 2.80946C0.563039 2.75767 0.186158 2.94707 0 3.44977V4.54504C0.1821 5.0325 0.544271 5.19448 1.04847 5.19296C4.83047 5.18382 8.61246 5.18839 12.395 5.18839C12.4589 5.18839 12.5228 5.19042 12.5862 5.18687C13.0818 5.16097 13.3998 4.8492 13.4252 4.35564C13.4368 4.12815 13.4343 3.89965 13.4267 3.67166ZM12.5923 4.34751H0.835428V3.62799H1.12151C1.9052 3.62799 2.68889 3.63053 3.47258 3.62596C3.80381 3.62393 3.99859 3.41422 3.93518 3.13444C3.87939 2.88817 3.69577 2.80794 3.46446 2.80743C3.08302 2.80641 2.70208 2.80743 2.31607 2.80743C2.42766 2.31996 2.82585 2.03104 3.37975 2.03002C4.61895 2.02596 5.85814 2.02901 7.09733 2.02901C8.09051 2.02901 9.08369 2.02495 10.0769 2.03053C10.5907 2.03307 10.9706 2.31032 11.1198 2.80692H10.8266C9.02231 2.80692 7.21805 2.80641 5.41379 2.80794C5.30575 2.80794 5.19314 2.80895 5.09017 2.8379C4.8888 2.89375 4.79344 3.04253 4.80764 3.25021C4.82184 3.45941 4.94155 3.58534 5.14648 3.61733C5.24438 3.63307 5.34684 3.62749 5.44676 3.62749C7.71515 3.62698 9.98404 3.62495 12.2529 3.62393H12.5923V4.34751Z" fill="black"/>
<path d="M21.6669 16.6063C21.6669 16.8562 21.4924 17.0146 21.1941 17.0197C20.8391 17.0258 20.4845 17.0212 20.1299 17.0212C19.7754 17.0212 19.4386 17.0258 19.0931 17.0197C18.7994 17.0146 18.6143 16.849 18.6133 16.6068C18.6128 16.3621 18.7954 16.2021 19.0916 16.2011C19.7921 16.1986 20.4921 16.1986 21.1926 16.2011C21.4975 16.2021 21.6664 16.3524 21.6664 16.6063H21.6669Z" fill="black"/>
<path d="M21.6669 23.089C21.6649 23.3423 21.497 23.4881 21.1896 23.4916C20.8447 23.4962 20.4987 23.4926 20.1533 23.4926C19.8079 23.4926 19.4437 23.4957 19.0891 23.4916C18.7944 23.4876 18.6113 23.3246 18.6133 23.0808C18.6158 22.8396 18.803 22.6746 19.0967 22.6731C19.7972 22.669 20.4972 22.6685 21.1977 22.6736C21.496 22.6751 21.6684 22.8361 21.6669 23.0885V23.089Z" fill="black"/>
<path d="M11.9423 19.5282C9.26254 19.5257 6.58379 19.5257 3.90454 19.5287C3.33237 19.5292 3.05288 19.8166 3.05237 20.3914C3.05034 22.0793 3.05034 23.7671 3.05187 25.455C3.05288 26.0572 3.33643 26.3344 3.94309 26.3349C5.26446 26.336 6.58633 26.3349 7.90769 26.3349C9.22906 26.3349 10.5687 26.3349 11.8992 26.3349C12.5271 26.3344 12.8051 26.0638 12.8061 25.4433C12.8077 23.7641 12.8077 22.0859 12.8061 20.4072C12.8046 19.8116 12.5307 19.5287 11.9423 19.5282ZM11.9697 25.5057H3.89287V20.3625H11.9697V25.5057Z" fill="black"/>
<path d="M4.39026 16.2002C3.64664 16.1997 3.05519 16.7918 3.05469 17.5362C3.05469 18.2755 3.65323 18.8797 4.38772 18.8802C5.11663 18.8807 5.72988 18.2679 5.7314 17.5382C5.73242 16.8019 5.12981 16.2007 4.39026 16.2002ZM4.38975 18.0571C4.10468 18.0581 3.87388 17.8215 3.87693 17.5311C3.87896 17.2498 4.09453 17.0299 4.37402 17.0228C4.66315 17.0162 4.90308 17.2432 4.90815 17.529C4.91322 17.8073 4.66873 18.0561 4.38975 18.0571Z" fill="black"/>
<path d="M7.93389 16.2002C7.19129 16.1987 6.59629 16.7897 6.59376 17.5321C6.59122 18.2699 7.19129 18.8772 7.92527 18.8802C8.65823 18.8823 9.26287 18.2785 9.26591 17.5412C9.26844 16.7989 8.67599 16.2017 7.93389 16.2002ZM7.9202 18.0566C7.63766 18.051 7.41042 17.8088 7.41803 17.5209C7.42513 17.2411 7.64476 17.0248 7.92476 17.0228C8.21592 17.0203 8.44367 17.2482 8.44265 17.5387C8.44113 17.8251 8.20171 18.0627 7.9202 18.0566Z" fill="black"/>
<path d="M19.9749 4.81152C19.9749 4.99076 19.9769 5.17051 19.9769 5.34976C19.9769 5.47061 19.9759 5.59146 19.9729 5.7118C19.9663 5.98397 19.8222 6.14087 19.5889 6.15153C19.3464 6.1622 19.1653 6.00022 19.1603 5.7245C19.1496 5.11516 19.1501 4.50533 19.1593 3.896C19.1633 3.61875 19.3388 3.44865 19.5767 3.45271C19.8131 3.45626 19.9683 3.6284 19.9734 3.91072C19.9759 4.0331 19.9769 4.15547 19.9769 4.27734C19.9769 4.45556 19.9754 4.63278 19.9749 4.81152Z" fill="black"/>
<path d="M23.2864 5.727C23.2823 5.99765 23.0972 6.16369 22.8547 6.1515C22.6219 6.13932 22.4773 5.97937 22.4717 5.71025C22.4667 5.40101 22.4707 5.09127 22.4707 4.78153C22.4707 4.47178 22.4651 4.18083 22.4728 3.88073C22.4788 3.62431 22.6447 3.45471 22.8714 3.45268C23.0987 3.44963 23.2813 3.61517 23.2859 3.87007C23.296 4.48905 23.2955 5.10803 23.2864 5.727Z" fill="black"/>
</svg>
