<svg width="33" height="33" viewBox="0 0 33 33" fill="none" xmlns="http://www.w3.org/2000/svg">
<path d="M20.6687 32.503V23.6138C20.6687 23.1423 20.4813 22.6901 20.1476 22.3567C19.814 22.0232 19.3615 21.8359 18.8896 21.8359H13.5525C13.0807 21.8359 12.6281 22.0232 12.2945 22.3567C11.9609 22.6901 11.7734 23.1423 11.7734 23.6138V32.503" stroke="black" stroke-linecap="round" stroke-linejoin="round"/>
<path d="M3.76788 14.7208V25.3879C3.76788 28.7409 3.76788 30.4157 4.8104 31.4575C5.85293 32.4993 7.52879 32.4993 10.8841 32.4993H21.5584C24.9137 32.4993 26.5895 32.4993 27.6321 31.4575C28.6746 30.4157 28.6746 28.7409 28.6746 25.3879V14.7208M3.09362 3.19148C3.41741 1.89721 3.5793 1.25185 4.06142 0.87495C4.54532 0.498047 5.21247 0.498047 6.54676 0.498047H25.8957C27.23 0.498047 27.8971 0.498047 28.381 0.87495C28.8614 1.25185 29.0251 1.89721 29.3489 3.19148L31.4891 11.75C31.6616 12.4398 31.7488 12.783 31.7292 13.0639C31.7049 13.4181 31.575 13.757 31.3562 14.0368C31.1374 14.3166 30.8398 14.5245 30.5017 14.6337C30.2348 14.7208 29.8719 14.7208 29.1443 14.7208C28.196 14.7208 27.721 14.7208 27.3243 14.6284C26.7743 14.5003 26.2626 14.2433 25.8317 13.8785C25.4007 13.5137 25.0629 13.0516 24.8461 12.5305C24.6877 12.1536 24.6112 11.6949 24.46 10.7829C24.4173 10.5269 24.396 10.3989 24.3711 10.3651C24.3546 10.3423 24.3329 10.3238 24.3079 10.311C24.2828 10.2982 24.2551 10.2916 24.227 10.2916C24.1988 10.2916 24.1711 10.2982 24.1461 10.311C24.121 10.3238 24.0994 10.3423 24.0829 10.3651C24.058 10.3989 24.0366 10.5251 23.9939 10.7829L23.8498 11.6523C23.7342 12.4893 23.3241 13.2578 22.6929 13.8201C22.0618 14.3824 21.2509 14.7017 20.4056 14.7208H20.0426C19.1973 14.7017 18.3864 14.3824 17.7553 13.8201C17.1241 13.2578 16.714 12.4893 16.5984 11.6523L16.4543 10.7811C16.4116 10.5269 16.3902 10.3989 16.3653 10.3651C16.3488 10.3423 16.3272 10.3238 16.3021 10.311C16.2771 10.2982 16.2494 10.2916 16.2212 10.2916C16.1931 10.2916 16.1654 10.2982 16.1403 10.311C16.1153 10.3238 16.0936 10.3423 16.0771 10.3651C16.0522 10.3989 16.0309 10.5251 15.9882 10.7829L15.8441 11.6523C15.7285 12.4893 15.3183 13.2578 14.6872 13.8201C14.056 14.3824 13.2452 14.7017 12.3998 14.7208H12.0369C11.223 14.7018 10.4403 14.4044 9.81935 13.8783C9.19837 13.3522 8.7767 12.6293 8.62469 11.83C8.61184 11.7712 8.60116 11.7119 8.59266 11.6523L8.44856 10.7811C8.40586 10.5269 8.38452 10.3989 8.35961 10.3651C8.34312 10.3423 8.32146 10.3238 8.29641 10.311C8.27136 10.2982 8.24363 10.2916 8.21551 10.2916C8.18738 10.2916 8.15966 10.2982 8.13461 10.311C8.10956 10.3238 8.0879 10.3423 8.0714 10.3651C8.0465 10.3989 8.02515 10.5251 7.98245 10.7829C7.83123 11.6967 7.75473 12.1518 7.5964 12.5305C7.37974 13.0514 7.04217 13.5134 6.61156 13.8781C6.18095 14.2429 5.66967 14.5001 5.11996 14.6284C4.72145 14.7208 4.24822 14.7208 3.29821 14.7208C2.57058 14.7208 2.20765 14.7208 1.94079 14.6337C1.6027 14.5245 1.30509 14.3166 1.08631 14.0368C0.867521 13.757 0.737588 13.4181 0.713248 13.0639C0.695458 12.783 0.780852 12.4398 0.95342 11.75L3.09362 3.19148Z" stroke="black"/>
</svg>
