<svg width="36" height="32" viewBox="0 0 36 32" fill="none" xmlns="http://www.w3.org/2000/svg">
<path d="M28.2 1V9.33333M7.8 1V9.33333M32.45 2.66667V5.16667M32.45 5.16667V7.66667M32.45 5.16667H35M3.55 2.66667V5.16667M3.55 5.16667V7.66667M3.55 5.16667H1M28.2 5.16667H7.8M12.9 9.33333V22.6667M23.1 9.33333V22.6667M24.8 27.6667V31M11.2 27.6667V31M9.9709 27.6667H26.0308C28.1337 27.6667 29.186 27.6667 29.6212 27.1617C30.6072 26.0183 28.7168 24.505 28.0266 23.7433C27.2497 22.8833 26.6802 22.6667 25.531 22.6667H10.469C9.3198 22.6667 8.752 22.8833 7.9734 23.7433C7.2832 24.505 5.3928 26.0183 6.3788 27.1617C6.814 27.6667 7.868 27.6667 9.9709 27.6667Z" stroke="black" stroke-linecap="round" stroke-linejoin="round"/>
</svg>
