<svg width="36" height="32" viewBox="0 0 36 32" fill="none" xmlns="http://www.w3.org/2000/svg">
<path d="M27.8981 1.00244V9.33577M7.48429 1.00244V9.33577M32.151 2.66911V5.16911M32.151 5.16911V7.66911M32.151 5.16911H34.7027M3.23141 2.66911V5.16911M3.23141 5.16911V7.66911M3.23141 5.16911H0.679688M27.8981 5.16911H7.48429M12.5877 9.33577V22.6691M22.7947 9.33577V22.6691M24.4958 27.6691V31.0024M10.8866 27.6691V31.0024M9.65666 27.6691H25.7274C27.8318 27.6691 28.8848 27.6691 29.3203 27.1641C30.3069 26.0208 28.4153 24.5074 27.7246 23.7458C26.9472 22.8858 26.3773 22.6691 25.2273 22.6691H10.1551C9.00512 22.6691 8.43694 22.8858 7.65781 23.7458C6.96714 24.5074 5.07546 26.0208 6.06213 27.1641C6.49762 27.6691 7.55234 27.6691 9.65666 27.6691Z" stroke="black" stroke-linecap="round" stroke-linejoin="round"/>
</svg>
