<?xml version="1.0" encoding="UTF-8"?>
<!DOCTYPE svg PUBLIC "-//W3C//DTD SVG 1.1//EN" "http://www.w3.org/Graphics/SVG/1.1/DTD/svg11.dtd">
<svg xmlns="http://www.w3.org/2000/svg" version="1.1" width="512px" height="512px" style="shape-rendering:geometricPrecision; text-rendering:geometricPrecision; image-rendering:optimizeQuality; fill-rule:evenodd; clip-rule:evenodd" xmlns:xlink="http://www.w3.org/1999/xlink">
<g><path style="opacity:0.905" fill="#000000" d="M 219.5,49.5 C 227.981,49.814 231.481,54.1474 230,62.5C 223.022,69.8094 215.689,76.8094 208,83.5C 204.265,89.1176 203.598,95.1176 206,101.5C 219.519,115.831 220.853,131.164 210,147.5C 203.198,153.301 196.698,159.468 190.5,166C 185.921,167.577 182.921,166.077 181.5,161.5C 187.406,153.089 194.239,145.423 202,138.5C 207.441,127.923 205.441,118.923 196,111.5C 188.398,98.2709 188.732,85.2709 197,72.5C 204.087,64.2483 211.587,56.5817 219.5,49.5 Z"/></g>
<g><path style="opacity:0.903" fill="#000000" d="M 270.5,49.5 C 279.726,50.1943 283.226,54.8609 281,63.5C 273.667,70.1667 266.333,76.8333 259,83.5C 254.41,90.5296 254.41,97.5296 259,104.5C 270.487,117.683 271.487,131.683 262,146.5C 255.262,153.115 248.429,159.615 241.5,166C 235,167.5 232.5,165 234,158.5C 241.032,151.803 247.698,144.803 254,137.5C 258.392,127.668 256.392,119.334 248,112.5C 239.333,99.1667 239.333,85.8333 248,72.5C 255.087,64.2483 262.587,56.5817 270.5,49.5 Z"/></g>
<g><path style="opacity:0.902" fill="#000000" d="M 321.5,49.5 C 329.989,49.1538 333.822,53.1538 333,61.5C 325.279,69.7108 317.279,77.7108 309,85.5C 306.352,90.3731 306.019,95.3731 308,100.5C 310.28,104.447 312.947,108.113 316,111.5C 321.119,123.168 320.452,134.502 314,145.5C 307.136,152.698 299.97,159.532 292.5,166C 286,167.5 283.5,165 285,158.5C 292.738,151.432 299.738,143.766 306,135.5C 309.286,126.696 307.286,119.362 300,113.5C 289.771,98.968 290.104,84.6347 301,70.5C 307.365,62.9689 314.199,55.9689 321.5,49.5 Z"/></g>
<g><path style="opacity:0.923" fill="#000000" d="M 20.5,189.5 C 177.497,191.535 334.497,192.035 491.5,191C 500.333,193.167 505.833,198.667 508,207.5C 508.251,215.024 508.751,222.524 509.5,230C 508.665,240.499 503.499,247.999 494,252.5C 491.932,326.153 490.599,399.82 490,473.5C 485.493,494.169 472.66,505.503 451.5,507.5C 323.498,506.757 195.498,507.757 67.5,510.5C 49.6714,512.178 35.1714,506.178 24,492.5C 21.1635,487.828 19.1635,482.828 18,477.5C 16.4301,402.485 15.5967,327.485 15.5,252.5C 6.23747,247.648 1.23747,239.981 0.5,229.5C 1.03484,221.119 1.86817,212.785 3,204.5C 6.2818,196.376 12.1151,191.376 20.5,189.5 Z M 197.5,199.5 C 228.167,199.5 258.833,199.5 289.5,199.5C 289.5,212.5 289.5,225.5 289.5,238.5C 262.164,238.468 234.83,238.135 207.5,237.5C 145.501,238.479 83.5005,238.979 21.5,239C 17.4794,237.132 15.3128,233.965 15,229.5C 14.3333,223.167 14.3333,216.833 15,210.5C 16.692,205.478 20.192,202.645 25.5,202C 82.9998,201.301 140.333,200.468 197.5,199.5 Z M 306.5,199.5 C 346.502,199.627 386.502,199.96 426.5,200.5C 428.928,235.773 430.262,271.107 430.5,306.5C 388.833,306.844 347.167,307.177 305.5,307.5C 307.438,271.532 307.772,235.532 306.5,199.5 Z M 442.5,200.5 C 458.194,200.229 473.86,200.729 489.5,202C 496.032,205.718 498.699,211.385 497.5,219C 497.353,223.87 496.853,228.703 496,233.5C 494.437,236.728 491.937,238.895 488.5,240C 472.514,239.748 456.514,239.582 440.5,239.5C 441.2,226.502 441.867,213.502 442.5,200.5 Z M 473.5,253.5 C 475.144,253.286 476.644,253.62 478,254.5C 479.692,317.491 480.858,380.491 481.5,443.5C 466.838,443.064 452.171,442.731 437.5,442.5C 353.681,445.005 269.848,446.671 186,447.5C 135.137,447.844 84.3038,446.844 33.5,444.5C 34.6938,381.166 34.6938,317.832 33.5,254.5C 118.871,255.801 204.204,256.135 289.5,255.5C 289.501,283.197 290.334,310.864 292,338.5C 297.301,351.326 306.968,356.993 321,355.5C 354.487,354.176 387.987,353.342 421.5,353C 429.893,350.941 435.393,345.775 438,337.5C 438.635,310.166 439.302,282.833 440,255.5C 451.265,254.843 462.431,254.177 473.5,253.5 Z M 305.5,322.5 C 347.169,323.111 388.835,323.778 430.5,324.5C 431.092,330.105 430.259,335.439 428,340.5C 426.421,342.041 424.587,343.208 422.5,344C 411.014,345.261 399.514,345.761 388,345.5C 363.5,344.715 339,343.882 314.5,343C 310.501,342.332 307.668,340.165 306,336.5C 305.501,331.845 305.334,327.179 305.5,322.5 Z M 132.5,455.5 C 189.178,455.312 245.845,455.978 302.5,457.5C 302.109,467.233 302.609,476.9 304,486.5C 305.667,487.833 307.333,487.833 309,486.5C 311.69,477.313 312.19,467.98 310.5,458.5C 315.544,458.173 320.544,458.506 325.5,459.5C 324.158,468.833 324.325,478.166 326,487.5C 327.037,490.384 328.871,491.05 331.5,489.5C 332.189,487.556 332.689,485.556 333,483.5C 333.815,475.254 333.648,467.088 332.5,459C 337.501,458.749 342.501,458.916 347.5,459.5C 346.083,470.579 346.583,481.579 349,492.5C 352.652,493.995 354.652,492.661 355,488.5C 356.73,478.851 356.897,469.185 355.5,459.5C 360.167,459.5 364.833,459.5 369.5,459.5C 369.144,470.881 369.644,482.215 371,493.5C 371.879,496.346 373.546,497.013 376,495.5C 376.988,492.576 377.654,489.576 378,486.5C 378.816,477.588 378.65,468.755 377.5,460C 383.455,460.304 389.455,460.471 395.5,460.5C 395.334,470.506 395.5,480.506 396,490.5C 396.147,493.571 396.98,496.404 398.5,499C 284.155,498.924 169.821,497.591 55.5,495C 37.9452,489.757 30.6119,477.923 33.5,459.5C 66.6427,457.816 99.6427,456.483 132.5,455.5 Z M 479.5,459.5 C 484.093,479.274 476.426,492.274 456.5,498.5C 456.755,485.863 456.422,473.196 455.5,460.5C 463.684,460.826 471.684,460.492 479.5,459.5 Z M 403.5,460.5 C 409.5,460.5 415.5,460.5 421.5,460.5C 420.779,473.388 421.113,486.388 422.5,499.5C 415.492,499.666 408.492,499.5 401.5,499C 404.591,486.334 405.257,473.501 403.5,460.5 Z M 429.5,460.5 C 435.5,460.5 441.5,460.5 447.5,460.5C 447.246,473.197 447.579,485.863 448.5,498.5C 441.732,498.679 435.065,498.679 428.5,498.5C 430.697,485.896 431.031,473.229 429.5,460.5 Z"/></g>
<g><path style="opacity:0.937" fill="#000000" d="M 98.5,282.5 C 103.439,281.352 106.939,283.019 109,287.5C 110.213,329.495 110.547,371.495 110,413.5C 105.708,419.034 100.708,419.701 95,415.5C 93.158,412.246 92.3246,408.746 92.5,405C 93.2763,365.503 94.1096,326.003 95,286.5C 95.6897,284.65 96.8564,283.316 98.5,282.5 Z"/></g>
<g><path style="opacity:0.937" fill="#000000" d="M 149.5,282.5 C 151.857,282.337 154.19,282.503 156.5,283C 158.333,283.5 159.5,284.667 160,286.5C 160.89,326.003 161.724,365.503 162.5,405C 162.497,416.659 157.163,420.325 146.5,416C 145.874,415.25 145.374,414.416 145,413.5C 144.453,371.495 144.787,329.495 146,287.5C 146.997,285.677 148.164,284.01 149.5,282.5 Z"/></g>
<g><path style="opacity:0.93" fill="#000000" d="M 200.5,282.5 C 202.857,282.337 205.19,282.503 207.5,283C 209.333,283.5 210.5,284.667 211,286.5C 212.377,328.159 213.044,369.826 213,411.5C 210.35,417.63 205.85,419.464 199.5,417C 198.333,415.833 197.167,414.667 196,413.5C 195.727,371.498 196.061,329.498 197,287.5C 197.997,285.677 199.164,284.01 200.5,282.5 Z"/></g>
<g><path style="opacity:0.926" fill="#000000" d="M 252.5,282.5 C 260.579,281.746 264.079,285.413 263,293.5C 263.724,333.168 264.058,372.834 264,412.5C 260.774,417.766 256.274,419.266 250.5,417C 248.951,415.786 247.785,414.286 247,412.5C 246.942,372.834 247.276,333.168 248,293.5C 248.333,290.833 248.667,288.167 249,285.5C 250.145,284.364 251.312,283.364 252.5,282.5 Z"/></g>
<g><path style="opacity:0.909" fill="#000000" d="M 303.5,376.5 C 308.809,375.565 312.309,377.565 314,382.5C 315.117,392.817 315.45,403.15 315,413.5C 312.459,418.069 308.625,419.569 303.5,418C 299.198,416.065 297.198,412.732 297.5,408C 298.106,398.81 298.939,389.643 300,380.5C 300.69,378.65 301.856,377.316 303.5,376.5 Z"/></g>
<g><path style="opacity:0.917" fill="#000000" d="M 355.5,376.5 C 358.862,376.07 361.695,377.07 364,379.5C 366.194,390.702 366.86,402.035 366,413.5C 362.634,418.609 358.134,419.776 352.5,417C 350.03,414.934 348.696,412.267 348.5,409C 349.312,399.504 350.146,390.004 351,380.5C 352.397,378.93 353.897,377.596 355.5,376.5 Z"/></g>
<g><path style="opacity:0.918" fill="#000000" d="M 406.5,376.5 C 410.426,376.047 413.592,377.38 416,380.5C 416.854,390.004 417.688,399.504 418.5,409C 416.773,417.698 411.773,420.365 403.5,417C 402.299,416.097 401.465,414.931 401,413.5C 400.401,402.81 400.734,392.143 402,381.5C 403.025,379.313 404.525,377.646 406.5,376.5 Z"/></g>
</svg>
