<svg width="32" height="23" viewBox="0 0 32 23" fill="none" xmlns="http://www.w3.org/2000/svg">
<path d="M31.597 8.29062C30.3061 3.7035 26.2765 0.504492 21.5119 0.345421C19.6759 0.284304 17.8357 0.335374 15.9972 0.335374V0.319467C14.3361 0.319467 12.6742 0.287653 11.0149 0.332863C10.1333 0.357142 9.23495 0.428305 8.37848 0.626726C2.16297 2.06507 -1.46469 8.59955 0.565561 14.6451C2.07507 19.1385 6.1925 22.0712 11.014 22.0788C14.3361 22.0846 17.6582 22.088 20.9794 22.0729C21.6141 22.0704 22.2554 22.0227 22.8816 21.923C29.2428 20.9058 33.3401 14.4877 31.597 8.29062ZM20.8346 3.67839C21.3763 3.72611 21.9171 3.73029 22.4412 3.82741C26.2958 4.53905 28.8962 7.95155 28.5881 11.8689C28.3218 15.2579 25.5992 18.1472 22.2328 18.6026C21.8301 18.6571 21.4215 18.6905 21.0163 18.6914C17.6632 18.6981 14.311 18.7039 10.9579 18.6922C7.46926 18.6805 4.5457 16.4635 3.64485 13.1708C2.45851 8.83565 5.34189 4.43104 9.79003 3.79308C10.171 3.73867 10.5594 3.7102 10.9437 3.70853C13.1372 3.70099 15.3307 3.70434 17.5242 3.70518C17.6256 3.70518 17.7269 3.71606 17.8432 3.72192V5.3344H17.4573C15.2847 5.3344 13.1121 5.32771 10.9395 5.33691C8.00592 5.34864 5.52692 7.41154 5.0924 10.1861C4.51556 13.8657 7.18126 17.0345 10.9094 17.0596C14.3035 17.0831 17.6976 17.0814 21.0925 17.0605C24.1324 17.0412 26.5126 14.9348 26.9471 11.9275C27.4118 8.71258 24.8775 5.57636 21.6425 5.36371C21.3821 5.34696 21.1218 5.33524 20.8346 5.31933V3.67839ZM18.7575 1.21529H19.9312V2.80349H18.7575V1.21529ZM19.9329 6.24111V7.8201H18.7617V6.24111H19.9329ZM18.7558 3.7236H19.9296V5.30929H18.7558V3.7236ZM21.0397 8.72179C22.4739 8.73016 23.5003 9.67119 23.6117 11.0585C23.7121 12.3126 22.7276 13.5098 21.4784 13.6488C21.3127 13.6672 21.1452 13.679 20.9786 13.679C17.6582 13.6806 14.3378 13.6815 11.0174 13.679C9.71635 13.6781 8.75774 12.9715 8.4555 11.8036C8.07708 10.3435 9.10351 8.84821 10.6105 8.75109C11.6294 8.68579 12.6558 8.7243 13.6781 8.72011C14.4508 8.71676 15.2236 8.72011 15.9963 8.72011C17.6775 8.72011 19.3586 8.71258 21.0397 8.72179ZM17.8483 7.82178C17.716 7.82848 17.5954 7.84103 17.4749 7.84103C15.3132 7.84271 13.1506 7.83769 10.9889 7.84355C9.31532 7.84857 7.97996 8.85574 7.60405 10.3795C7.07577 12.5211 8.63383 14.5296 10.8993 14.5497C14.2943 14.579 17.6892 14.5698 21.0841 14.5522C22.782 14.543 24.0872 13.4613 24.4271 11.8513C24.7427 10.3594 23.9625 8.7829 22.5316 8.16587C22.0176 7.94317 21.4332 7.88206 20.843 7.73889V6.18585C21.2926 6.2319 21.7497 6.2386 22.1892 6.33069C24.5468 6.82633 26.2012 8.97295 26.1066 11.385C26.012 13.8079 24.217 15.8038 21.8234 16.137C21.5555 16.1747 21.2817 16.1847 21.0113 16.1856C17.6682 16.1889 14.3261 16.1914 10.9831 16.1864C8.46806 16.1822 6.3792 14.4877 5.96729 12.1318C5.42812 9.04244 7.62331 6.30223 10.7679 6.2252C13.0644 6.16995 15.3634 6.21348 17.6616 6.21348C17.7118 6.21348 17.7629 6.22437 17.8483 6.23441V7.82178ZM31.1014 11.6922C30.8854 16.2593 27.5658 20.1423 23.0122 21.0121C22.35 21.1386 21.6643 21.1905 20.9895 21.1938C17.6574 21.2122 14.3244 21.2081 10.9923 21.2014C6.16571 21.1905 2.20902 18.0425 1.11478 13.3541C-0.106725 8.11899 3.31164 2.64442 8.55346 1.48822C9.33207 1.31659 10.1425 1.22366 10.9395 1.21027C13.133 1.17259 15.3274 1.19687 17.5209 1.19771C17.6222 1.19771 17.7243 1.20776 17.8432 1.21445V2.82694H17.4288C15.1306 2.83196 12.83 2.77419 10.5352 2.8554C6.49976 2.99689 3.2455 5.93385 2.59916 9.9165C1.85655 14.4869 5.12254 18.8781 9.7197 19.4809C10.1425 19.537 10.5728 19.5679 10.999 19.5688C14.3319 19.5755 17.6641 19.5772 20.9962 19.5713C25.1011 19.5638 28.4315 16.8905 29.3148 12.9062C30.3102 8.41369 27.231 3.78555 22.7016 2.98768C22.0971 2.88135 21.4801 2.84787 20.8396 2.77754V1.20776C21.7882 1.18096 22.705 1.28059 23.6083 1.5125C28.0439 2.65112 31.3342 6.77358 31.1014 11.6922Z" fill="black"/>
</svg>
