<svg width="36" height="33" viewBox="0 0 36 33" fill="none" xmlns="http://www.w3.org/2000/svg">
<path d="M18.1889 1.53707L18 1.45997L17.8111 1.53707L17.3351 1.7313L17.3349 1.73141L2.10409 7.95703L2.09715 7.95986L2.09029 7.96291L1.29702 8.31528L1 8.44722V8.77223V12.078V12.578H1.5H3.53846V25.2744H1.5H1V25.7744V32V32.5H1.5H34.5H35V32V25.7744V25.2744H34.5H32.4615V12.578H34.5H35V12.078V8.77098V8.44457L34.7012 8.31324L33.9079 7.9646L33.908 7.96445L33.896 7.95954L18.6652 1.73144L18.6649 1.7313L18.1889 1.53707ZM18 5.26448L27.3542 9.08778H8.64582L18 5.26448ZM7.07692 12.578H8.61538V25.2744H7.07692V12.578ZM12.1538 12.578H13.6923V25.2744H12.1538V12.578ZM18.7692 12.578V25.2744H17.2308V12.578H18.7692ZM22.3077 12.578H23.8462V25.2744H22.3077V12.578ZM27.3846 12.578H28.9231V25.2744H27.3846V12.578ZM31.4615 28.7646V29.0098H4.53846V28.7646H31.4615Z" stroke="black"/>
</svg>
