<svg width="36" height="33" viewBox="0 0 36 33" fill="none" xmlns="http://www.w3.org/2000/svg">
<path d="M18.1847 1.34571L17.9956 1.2685L17.8066 1.34571L17.331 1.53995L17.3307 1.54005L2.11119 7.76567L2.10425 7.76851L2.09739 7.77156L1.30471 8.12393L1.00781 8.25591V8.58082V11.8866V12.3866H1.50781H3.5444V25.083H1.50781H1.00781V25.583V31.8086V32.3086H1.50781H34.4834H34.9834V31.8086V25.583V25.083H34.4834H32.4468V12.3866H34.4834H34.9834V11.8866V8.57957V8.25326L34.6847 8.12188L33.892 7.77325L33.8921 7.7731L33.8801 7.76819L18.6606 1.54008L18.6603 1.53995L18.1847 1.34571ZM17.9956 5.07313L27.3427 8.89637H8.64849L17.9956 5.07313ZM7.08098 12.3866H8.61757V25.083H7.08098V12.3866ZM12.1542 12.3866H13.6907V25.083H12.1542V12.3866ZM18.7639 12.3866V25.083H17.2273V12.3866H18.7639ZM22.3005 12.3866H23.8371V25.083H22.3005V12.3866ZM27.3737 12.3866H28.9102V25.083H27.3737V12.3866ZM31.4468 28.5732V28.8183H4.5444V28.5732H31.4468Z" stroke="black"/>
</svg>
