<svg width="31" height="38" viewBox="0 0 31 38" fill="none" xmlns="http://www.w3.org/2000/svg">
<path d="M23.1105 13.1723L23.191 13.1304L22.7668 12.6506L21.7861 11.5415L21.7718 11.5254L21.7562 11.5105C21.3626 11.1359 20.9435 10.8107 20.5475 10.5035C20.4983 10.4652 20.4494 10.4273 20.401 10.3896C19.9555 10.0427 19.5402 9.70843 19.1661 9.31158L19.1662 9.31151L19.1592 9.30437C17.4135 7.52514 17.0402 4.52054 18.1495 2.21694L18.6221 1.23557L17.5698 1.51697C16.3187 1.85156 15.1504 2.5899 14.2225 3.38316C10.7877 6.30145 9.43945 11.4435 11.0431 15.8499L11.1338 16.1458C11.1143 16.233 11.0504 16.307 10.9753 16.3382L10.9678 16.3414L10.9603 16.3448C10.904 16.3703 10.8215 16.3799 10.7028 16.2851L10.5462 16.093C9.24899 14.3395 9.03095 11.7915 9.92648 9.74598L9.14286 9.166C6.88645 11.1021 5.72259 14.3542 5.8871 17.3907L5.88696 17.3907L5.88789 17.4026C5.9402 18.0725 6.01227 18.7708 6.25377 19.4964C6.44461 20.3692 6.81519 21.2076 7.22997 21.9379L7.22994 21.9379L7.23296 21.943C8.65049 24.3705 11.1246 26.1461 13.8512 26.4957C16.6462 26.8722 19.7225 26.3341 21.9487 24.2169L21.9487 24.2169L21.9517 24.214C24.3843 21.8619 25.3178 18.1024 23.994 14.8306L23.9899 14.8205L23.9854 14.8106L23.8293 14.4686C23.6323 14.0192 23.3888 13.5783 23.1105 13.1723ZM18.0475 21.0283L17.7758 21.2728C17.4815 21.4788 17.1333 21.6613 16.8639 21.7366L16.8466 21.7415L16.8296 21.7476C15.9427 22.0659 15.0187 21.8089 14.2723 21.3027C15.5097 20.704 16.2436 19.597 16.5044 18.4972L16.5067 18.4876L16.5086 18.4779C16.6311 17.8524 16.5717 17.2897 16.469 16.7711C16.4255 16.5516 16.3727 16.3328 16.3221 16.1234C16.3137 16.0887 16.3054 16.0543 16.2972 16.0201C16.2385 15.776 16.1842 15.5408 16.1435 15.3005C16.0733 14.8623 16.0453 14.4612 16.0723 14.0745C16.1342 14.1708 16.1982 14.2637 16.2642 14.3524C16.5346 14.7183 16.8377 15.0276 17.1323 15.3069C17.258 15.426 17.3757 15.534 17.4894 15.6383C17.6565 15.7917 17.815 15.937 17.9772 16.0981C18.485 16.6021 18.8731 17.1148 19.0246 17.8709L19.0735 18.4118C19.1004 19.3792 18.704 20.4377 18.0475 21.0283ZM13.8911 29.7273V29.2273H13.3911H9.88874H9.38874V29.7273V31.5455C9.38874 32.2872 8.80703 32.8636 8.13755 32.8636C7.46807 32.8636 6.88637 32.2872 6.88637 31.5455V29.7273V29.2273H6.38637C5.3103 29.2273 3.90728 29.674 2.77546 30.3695C1.67072 31.0483 0.632812 32.0874 0.632812 33.3636V37V37.5H1.13281H29.1518H29.6518V37V33.3636C29.6518 32.0884 28.6197 31.0492 27.5161 30.3697C26.3858 29.6737 24.9827 29.2273 23.8982 29.2273H23.3982V29.7273V31.5455C23.3982 32.2872 22.8165 32.8636 22.147 32.8636C21.4776 32.8636 20.8958 32.2872 20.8958 31.5455V29.7273V29.2273H20.3958H16.8935H16.3935V29.7273V31.5455C16.3935 32.2872 15.8118 32.8636 15.1423 32.8636C14.4728 32.8636 13.8911 32.2872 13.8911 31.5455V29.7273Z" stroke="black"/>
</svg>
