<svg width="36" height="25" viewBox="0 0 36 25" fill="none" xmlns="http://www.w3.org/2000/svg">
<path d="M33.6116 0.216797C23.2299 0.227182 12.8482 0.222855 2.46649 0.224586C2.27423 0.224586 2.07592 0.227182 1.88972 0.269588C1.02804 0.463442 0.536152 1.13328 0.535286 2.10774C0.533554 5.5703 0.53442 9.03372 0.53442 12.4963C0.53442 12.9065 0.523162 13.3167 0.54308 13.726C0.58205 14.517 1.11032 15.1661 1.84816 15.3245C2.09064 15.3764 2.34611 15.3876 2.59465 15.3885C12.8967 15.3911 23.1987 15.3911 33.5008 15.3894C33.6939 15.3894 33.8888 15.3781 34.0793 15.3504C34.747 15.2535 35.1947 14.877 35.4398 14.2522C35.477 14.1587 35.5168 14.0661 35.555 13.9727V1.59801C35.2302 0.684125 34.6197 0.216797 33.6116 0.216797ZM34.3893 13.3556C34.3893 14.0653 34.2352 14.2219 33.5285 14.2219C23.2022 14.2219 12.875 14.2219 2.54876 14.2219C1.86028 14.2219 1.70007 14.061 1.70007 13.3781C1.6992 9.66375 1.6992 5.95022 1.70007 2.23583C1.70007 1.56253 1.87414 1.38858 2.55049 1.38858H33.5302C34.2421 1.38858 34.3893 1.5357 34.3893 2.24794C34.3902 5.95108 34.3902 9.65336 34.3893 13.3556Z" fill="black"/>
<path d="M19.7836 21.4344C19.7793 21.9519 19.6338 22.3639 19.3211 22.6797C19.0371 22.9688 18.7132 23.2258 18.3772 23.4534C18.0776 23.6559 17.674 23.5348 17.5138 23.2483C17.3518 22.9593 17.441 22.7074 17.7779 22.4781C17.965 22.35 18.159 22.2262 18.3244 22.0731C18.7054 21.72 18.7097 21.3634 18.3122 21.0311C17.9823 20.755 17.59 20.5517 17.2678 20.2678C16.9821 20.0168 16.7032 19.7295 16.5135 19.4041C16.1394 18.7602 16.2087 18.0887 16.6781 17.5253C16.9699 17.1756 17.3579 16.8952 17.7363 16.6313C18.01 16.44 18.2975 16.5283 18.4525 16.7689C18.6257 17.0389 18.5738 17.3522 18.3278 17.5599C18.1191 17.7356 17.8992 17.9009 17.7138 18.099C17.3683 18.4686 17.3787 18.8009 17.7623 19.1263C18.0022 19.3305 18.2863 19.4846 18.5556 19.6516C19.2484 20.0817 19.7386 20.6434 19.7836 21.4344Z" fill="black"/>
<path d="M13.0402 23.6482C12.7397 24.0324 12.3127 24.3197 11.93 24.6356C11.8512 24.7005 11.7187 24.6988 11.6554 24.7152C11.3272 24.6875 11.1341 24.5577 11.0518 24.2834C10.9713 24.0099 11.0899 23.8256 11.3108 23.6785C11.4996 23.5521 11.6936 23.4292 11.8642 23.2804C12.311 22.8909 12.3101 22.5292 11.8408 22.1475C11.5065 21.8758 11.1246 21.662 10.7886 21.392C10.2456 20.9558 9.85415 20.4236 9.88446 19.6802C9.91477 18.923 10.7124 17.9347 11.4537 17.733C11.7317 17.6577 11.9508 17.7451 12.0807 18.0074C12.2114 18.2696 12.1967 18.5058 11.9464 18.7049C11.7239 18.8814 11.4952 19.0562 11.3012 19.2614C10.9514 19.6318 10.9609 19.9589 11.3446 20.2903C11.5749 20.4885 11.8711 20.6105 12.104 20.8061C12.4478 21.0952 12.8246 21.3764 13.0774 21.7382C13.507 22.3544 13.507 23.0528 13.0402 23.6482Z" fill="black"/>
<path d="M25.3221 24.2727C25.0709 24.4709 24.7774 24.6137 24.5037 24.7824C24.1815 24.702 23.9867 24.5713 23.8966 24.3039C23.8057 24.0347 23.9148 23.8443 24.1365 23.6946C24.3253 23.5674 24.5201 23.4471 24.6907 23.2982C25.1575 22.8906 25.1567 22.5401 24.6717 22.1429C24.3651 21.8919 24.0118 21.6981 23.7026 21.4488C23.4749 21.2654 23.2575 21.0559 23.0843 20.8214C22.5673 20.1195 22.5838 19.281 23.1553 18.625C23.4195 18.3212 23.7555 18.072 24.088 17.8392C24.3998 17.6219 24.7046 17.6808 24.8726 17.9283C25.0579 18.2 24.9869 18.5332 24.7098 18.766C24.4924 18.9486 24.269 19.1295 24.0837 19.3415C23.8109 19.6557 23.8195 19.9646 24.1313 20.2407C24.3833 20.464 24.6838 20.6353 24.9722 20.8145C25.542 21.1684 26.0079 21.6141 26.1604 22.2874C26.3526 23.1347 25.9586 23.769 25.3221 24.2727Z" fill="black"/>
<path d="M32.7397 13.0237C32.6063 13.0471 32.4678 13.0514 32.3318 13.0514C22.8031 13.0531 13.2753 13.0531 3.74658 13.0523C3.12998 13.0523 2.87884 12.8887 2.86758 12.4828C2.85546 12.0657 3.12219 11.8822 3.74918 11.8822C8.52522 11.8814 13.3004 11.8822 18.0764 11.8822C22.8525 11.8822 27.5358 11.8814 32.266 11.8831C32.4253 11.8831 32.5847 11.8909 32.7423 11.9108C33.0575 11.9497 33.1891 12.1643 33.2108 12.4517C33.2324 12.7442 33.0402 12.9727 32.7397 13.0237Z" fill="black"/>
<path d="M33.215 10.1511C33.2029 10.518 32.9734 10.711 32.5066 10.7119C30.3061 10.7154 28.1064 10.7136 25.9068 10.7136H18.0425C13.3011 10.7136 8.55975 10.7136 3.81748 10.7128C3.65901 10.7128 3.49793 10.7119 3.34031 10.6929C3.02682 10.6539 2.88306 10.4384 2.87527 10.1511C2.86834 9.86639 2.99564 9.64051 3.30827 9.58339C3.44164 9.55916 3.57933 9.54705 3.71443 9.54705C13.2665 9.54531 22.8177 9.54618 32.3689 9.54618C32.4148 9.54618 32.4599 9.54445 32.5058 9.54618C32.9769 9.56349 33.2271 9.77638 33.215 10.1511Z" fill="black"/>
<path d="M20.9523 4.85366C20.9619 5.12367 20.8571 5.34695 20.5713 5.42657C20.463 5.45686 20.347 5.46984 20.2344 5.46984C18.7786 5.47244 17.3229 5.47936 15.868 5.46292C15.6688 5.46119 15.3995 5.39714 15.2921 5.26041C15.1761 5.11329 15.1362 4.81558 15.2072 4.64163C15.2696 4.48932 15.5268 4.33267 15.7043 4.32489C16.4872 4.29113 17.2727 4.31017 18.0573 4.31017V4.30238C18.7509 4.30238 19.4446 4.30152 20.1383 4.30412C20.2734 4.30498 20.4128 4.30758 20.5444 4.33614C20.8181 4.39325 20.9428 4.5949 20.9523 4.85366Z" fill="black"/>
</svg>
