<svg width="32" height="28" viewBox="0 0 32 28" fill="none" xmlns="http://www.w3.org/2000/svg">
<path d="M31.8725 11.499C31.7366 10.5386 30.693 9.86052 29.7497 10.1126C29.0018 10.3132 28.5 10.9461 28.4813 11.7271C28.4716 12.1452 28.4796 12.565 28.4796 12.9822H24.8575C24.8575 12.5269 24.8415 12.0937 24.8619 11.6623C24.885 11.1538 25.2847 10.8067 25.8132 10.8014C26.3514 10.7961 26.7387 11.1209 26.7964 11.6286C26.8035 11.6881 26.8 11.7511 26.8133 11.8088C26.8622 12.0112 27.0034 12.1603 27.1979 12.107C27.3276 12.0715 27.4626 11.91 27.5123 11.7742C27.5603 11.6473 27.5221 11.4733 27.4821 11.3313C27.2396 10.4739 26.4438 9.96082 25.5574 10.0806C24.7509 10.1889 24.1327 10.915 24.1292 11.7786C24.1229 13.181 24.1274 14.5834 24.1274 15.9859V16.3302C23.3245 16.3302 22.5597 16.34 21.795 16.3205C21.6609 16.3169 21.4894 16.2228 21.4042 16.1163C20.5701 15.0654 19.7432 14.0083 18.9332 12.9396C18.7404 12.6858 18.5308 12.5961 18.2191 12.597C15.3111 12.6068 12.404 12.6032 9.49606 12.6032H9.12301C8.64338 10.8129 8.16997 9.0457 7.69212 7.26429C7.81469 7.22701 7.90884 7.19506 8.00477 7.16932C9.52359 6.76457 11.0424 6.35983 12.5612 5.95686C13.3979 5.73584 13.4104 5.71721 13.1688 4.88996C12.3898 2.21829 9.95881 0.370303 7.1894 0.34545C4.4271 0.321485 1.96412 2.13041 1.14431 4.79676C1.02706 5.17843 0.958672 5.5743 0.867188 5.96396V7.235C0.960449 7.65572 1.04305 8.07911 1.15141 8.49628C1.24823 8.86996 1.37613 8.93209 1.74828 8.83268C3.1019 8.4732 4.45463 8.11284 5.80825 7.75336C6.19373 7.65128 6.58009 7.55276 6.98778 7.44625C7.44964 9.17086 7.90085 10.8564 8.35205 12.542C8.22238 12.4914 8.14866 12.4141 8.08382 12.3307C7.52425 11.6162 6.96113 10.9035 6.41045 10.1818C6.26034 9.9839 6.08714 9.90313 5.84289 9.91111C5.23802 9.93242 4.63138 9.92532 4.02741 9.95904C3.86842 9.96881 3.66324 10.046 3.57176 10.1641C3.43409 10.3407 3.57798 10.5165 3.71209 10.6673C4.62428 11.6925 5.53291 12.7213 6.44242 13.7491C6.61473 13.9435 6.78349 14.1414 6.96291 14.3473C6.40867 14.99 5.87309 15.6193 5.32329 16.237C5.26378 16.3045 5.12789 16.3294 5.02663 16.3311C4.6225 16.3418 4.21837 16.3347 3.81513 16.3365C3.42609 16.3373 3.26444 16.443 3.25822 16.6942C3.25201 16.9516 3.41099 17.0616 3.79736 17.0625C4.46262 17.0634 5.12877 17.0625 5.79404 17.0625H24.1274C24.1274 17.9403 24.1256 18.7765 24.1283 19.6126C24.1292 19.9179 24.2535 20.0706 24.4871 20.0715C24.7216 20.0732 24.8495 19.9179 24.853 19.6161C24.8575 19.3277 24.8539 19.0392 24.8539 18.7543H28.4822C28.4822 19.096 28.452 19.4209 28.4973 19.7351C28.5151 19.8593 28.6954 20.0413 28.8109 20.0493C28.9308 20.0573 29.0782 19.8984 29.1812 19.7848C29.2283 19.7315 29.2043 19.6099 29.2043 19.5203C29.2061 18.8137 29.2043 18.1072 29.2061 17.4016C29.2061 17.2959 29.2168 17.1894 29.2239 17.0616C29.7399 17.0616 30.2231 17.0669 30.7054 17.059C31.0003 17.0545 31.1522 16.8734 31.0953 16.6169C31.042 16.3808 30.8599 16.3373 30.6548 16.3365C30.1831 16.3356 29.7115 16.3365 29.2337 16.3365C29.2212 16.2672 29.2079 16.2291 29.2079 16.1909C29.207 14.6979 29.2008 13.205 29.2114 11.7121C29.215 11.1839 29.5863 10.828 30.1103 10.8032C30.6752 10.7765 31.082 11.1032 31.1504 11.6384C31.1593 11.7085 31.1362 11.8053 31.1744 11.8434C31.2792 11.9499 31.4044 12.0937 31.5296 12.1026C31.6336 12.1106 31.7819 11.9659 31.8512 11.8523C31.9054 11.7626 31.8885 11.6162 31.8725 11.499ZM9.70656 1.71324C11.1357 2.46859 12.0523 3.63933 12.5097 5.21305C11.7583 5.41365 11.0309 5.60892 10.2617 5.81484C10.1214 4.76925 9.68169 3.86478 8.97379 3.12808C8.28633 2.41178 7.52336 1.76827 6.81636 1.11411C7.22582 0.91884 8.71977 1.19222 9.70656 1.71324ZM1.81934 8.07733C1.07325 5.72164 2.25189 2.7757 4.77793 1.62182C3.92704 3.51862 3.22358 5.38879 4.03007 7.48175C3.28842 7.68146 2.55388 7.8794 1.81934 8.07733ZM4.76905 7.28737C4.41288 6.56753 4.34538 5.84679 4.4342 5.10032C4.59141 3.7778 5.09325 2.57865 5.73186 1.42655C7.70633 2.33545 9.49606 4.49143 9.51915 6.01366C7.9497 6.43439 6.36959 6.85777 4.76905 7.28737ZM4.90761 10.9194C4.84988 10.8546 4.80103 10.7836 4.69267 10.6434C5.09413 10.6434 5.42366 10.6292 5.75051 10.6523C5.83756 10.6585 5.93437 10.7614 5.99921 10.8422C6.57299 11.57 7.14854 12.2979 7.70722 13.0381C7.87154 13.2556 8.05806 13.3337 8.32363 13.3328C11.4599 13.3275 14.597 13.3452 17.7341 13.3142C18.2546 13.3088 18.5344 13.5041 18.7627 13.9754H18.4305C14.9301 13.9754 11.4297 13.9737 7.92927 13.9799C7.70989 13.9799 7.55712 13.924 7.40967 13.7535C6.58187 12.8038 5.74252 11.8638 4.90761 10.9194ZM6.22659 16.3143C6.69112 15.7764 7.11834 15.274 7.55978 14.7832C7.61396 14.7219 7.74186 14.705 7.83601 14.705C11.6091 14.7006 15.3813 14.7006 19.1544 14.705C19.2467 14.705 19.3764 14.7246 19.4261 14.7858C19.8241 15.2749 20.2078 15.7764 20.627 16.3143H6.22659ZM24.8735 13.7509H28.4556V14.6633H24.8735V13.7509ZM28.4556 17.9874H24.8673V17.1051H28.4556V17.9874ZM28.4565 16.3027H24.8664V15.4231H28.4565V16.3027Z" fill="black"/>
<path d="M30.7392 24.1366C30.3297 24.457 29.8625 24.6266 29.0862 24.6301C28.8482 24.5538 28.3304 24.4872 27.9262 24.2387C26.9439 23.6342 25.9864 23.6671 25.0405 24.2254C24.44 24.5795 23.9737 24.607 23.3253 24.2192C22.1662 23.5268 20.9521 23.707 19.8489 24.4632C19.5372 24.6772 19.2956 24.6754 19.0007 24.4783C18.7671 24.3212 18.522 24.1783 18.2688 24.0549C17.4659 23.6626 16.6443 23.7043 15.8307 24.0088C15.4728 24.1419 15.1237 24.307 14.7915 24.4934C14.541 24.6328 14.343 24.6337 14.0925 24.4863C13.1839 23.9538 12.2122 23.6617 11.1446 23.8153C10.6783 23.8828 10.2768 24.0718 9.98014 24.4508C9.80161 24.6798 9.5991 24.6763 9.37172 24.5227C8.82547 24.1508 8.24104 23.8615 7.58377 23.7416C6.95581 23.6262 6.3998 23.715 5.92106 24.2085C5.31975 24.8289 3.82579 24.6727 3.32041 23.9724C3.19251 23.794 3.12323 23.5978 3.30975 23.4283C3.5016 23.2543 3.68812 23.3209 3.8702 23.486C4.46707 24.0283 5.01598 24.0265 5.60664 23.5029C6.28789 22.8993 7.0926 22.8469 7.9124 23.0733C8.43111 23.2162 8.91518 23.4824 9.41879 23.6848C9.49607 23.7159 9.62663 23.7381 9.67548 23.6972C10.5299 22.9854 11.5229 22.917 12.5399 23.1363C13.1235 23.2614 13.6822 23.5144 14.2417 23.7363C14.398 23.7984 14.5055 23.8162 14.6556 23.7336C15.2338 23.4168 15.8405 23.1824 16.5004 23.0892C17.4774 22.9508 18.3585 23.2171 19.1854 23.7088C19.364 23.8153 19.4848 23.8197 19.6704 23.7106C21.0995 22.8709 22.5384 22.8629 23.9666 23.7159C24.1158 23.8046 24.218 23.7993 24.3761 23.7372C24.9632 23.5064 25.5538 23.2739 26.1596 23.0972C26.6756 22.9463 27.1748 23.1017 27.6553 23.3182C28.0675 23.5029 28.4822 23.6893 28.9104 23.8313C29.4131 23.9964 29.8785 23.9032 30.2924 23.5455C30.6264 23.257 30.8004 23.2481 30.9657 23.4469C31.1238 23.6387 31.0465 23.8961 30.7392 24.1366Z" fill="black"/>
<path d="M30.9853 20.8089C30.948 20.9305 30.8246 21.037 30.718 21.1258C30.3618 21.4222 29.8085 21.606 29.3431 21.6006C29.336 21.6246 29.328 21.6494 29.3209 21.6743C28.8625 21.5305 28.3492 21.4764 27.9584 21.2278C26.9103 20.5621 25.9004 20.6722 24.9092 21.2625C24.3691 21.5829 23.9703 21.5696 23.4125 21.2323C22.2206 20.5142 20.9904 20.6607 19.8535 21.4338C19.5418 21.6459 19.3011 21.6521 19.0071 21.4524C18.5541 21.1462 18.0807 20.8834 17.5291 20.7894C16.8026 20.6651 16.1266 20.8426 15.4676 21.1195C15.2544 21.2092 15.0386 21.3033 14.8485 21.4329C14.5696 21.6219 14.3396 21.6006 14.0438 21.4329C13.0641 20.8781 12.0187 20.5479 10.888 20.8604C10.5683 20.9491 10.2725 21.1843 10.0105 21.4054C9.75468 21.6219 9.64277 21.6725 9.35322 21.4808C8.80164 21.1151 8.2181 20.8258 7.56083 20.7095C6.94175 20.6003 6.39551 20.6944 5.92654 21.1781C5.32612 21.7994 3.83927 21.6512 3.32589 20.9518C3.19621 20.7752 3.1216 20.5808 3.30457 20.4077C3.49287 20.2293 3.68028 20.2879 3.86503 20.4547C4.47433 21.0059 5.00281 21.0015 5.62455 20.461C6.30047 19.8734 7.0963 19.821 7.90545 20.0447C8.42327 20.1885 8.90823 20.453 9.41184 20.6544C9.49089 20.6855 9.62234 20.7157 9.6703 20.6757C10.483 19.9932 11.4343 19.8911 12.4131 20.089C13.0286 20.2124 13.6219 20.4601 14.209 20.6935C14.4009 20.7698 14.5279 20.7752 14.7037 20.682C15.5831 20.216 16.5023 19.9177 17.5193 20.0642C18.1286 20.1512 18.6855 20.3757 19.206 20.6935C19.3606 20.7876 19.4707 20.8027 19.6386 20.7024C21.0846 19.8432 22.5359 19.8334 23.9934 20.6917C24.0894 20.7476 24.2581 20.7459 24.3674 20.7042C24.7528 20.5577 25.1206 20.366 25.5069 20.2213C26.3045 19.9231 27.0808 19.9692 27.8438 20.374C28.1875 20.5568 28.5597 20.6971 28.9336 20.8116C29.4141 20.9607 29.8715 20.8888 30.2623 20.5399C30.3378 20.4725 30.416 20.3757 30.503 20.3642C30.6452 20.3438 30.8361 20.334 30.9294 20.4112C31.0084 20.4769 31.0218 20.6864 30.9853 20.8089Z" fill="black"/>
<path d="M30.9604 26.9235C30.8992 27.0132 30.821 27.0975 30.734 27.1641C30.3218 27.4809 29.8573 27.6531 29.0881 27.6522C28.8616 27.5821 28.4113 27.449 27.9663 27.2999C27.8153 27.2493 27.6732 27.1641 27.5347 27.0833C26.9635 26.7487 26.3658 26.7132 25.7591 26.951C25.3195 27.1232 24.886 27.3185 24.4659 27.5342C24.2208 27.6593 24.0289 27.6602 23.798 27.5005C22.5154 26.6155 21.0819 26.6129 19.8189 27.5058C19.5426 27.7002 19.3286 27.6789 19.047 27.5306C18.5692 27.2795 18.0878 26.999 17.5726 26.8658C16.7093 26.6413 15.8788 26.9093 15.1372 27.3425C14.6415 27.6318 14.2676 27.6301 13.7631 27.3425C12.9451 26.8756 12.0338 26.6812 11.0781 26.8481C10.6589 26.9218 10.2956 27.101 10.014 27.4321C9.77687 27.7108 9.64986 27.7224 9.34254 27.5244C8.65685 27.0824 7.94007 26.7283 7.09717 26.7212C6.64952 26.7176 6.27736 26.8729 5.96205 27.1969C5.3412 27.8315 3.87567 27.7241 3.33564 27.0141C3.19708 26.8312 3.11359 26.628 3.31699 26.4487C3.51151 26.2765 3.70247 26.3457 3.87656 26.5161C4.25582 26.888 4.69548 27.0194 5.20619 26.8232C5.2888 26.7913 5.37939 26.7513 5.4389 26.6883C6.15834 25.9268 7.04566 25.8504 7.98004 26.1158C8.46944 26.2543 8.92509 26.5081 9.40116 26.6954C9.49087 26.7318 9.64364 26.7469 9.70493 26.6954C10.4208 26.1078 11.2539 25.9995 12.1315 26.0874C12.8829 26.1637 13.5926 26.391 14.2507 26.7602C14.4071 26.8481 14.5163 26.8303 14.6629 26.7522C15.6754 26.2108 16.7359 25.8762 17.887 26.1939C18.348 26.3217 18.7832 26.549 19.2193 26.7531C19.3677 26.8232 19.4662 26.857 19.6252 26.7611C21.0801 25.8912 22.5403 25.8788 24.0058 26.7504C24.0947 26.8028 24.2501 26.8002 24.3531 26.762C24.8621 26.5756 25.3559 26.343 25.8711 26.1744C26.4821 25.9747 27.0817 26.0705 27.6634 26.3421C28.0818 26.5383 28.509 26.722 28.9478 26.8632C29.4292 27.0185 29.8857 26.9315 30.273 26.58C30.3325 26.5259 30.3982 26.4788 30.4631 26.43C30.6185 26.3137 30.7775 26.2933 30.9294 26.4336C31.0928 26.5845 31.0741 26.7575 30.9604 26.9235Z" fill="black"/>
<path d="M19.3728 2.90869C18.3994 2.9078 17.6275 3.68534 17.6328 4.66081C17.6373 5.63007 18.4224 6.39607 19.3995 6.3863C20.3525 6.37654 21.1155 5.59457 21.1093 4.63418C21.1021 3.67291 20.3339 2.90958 19.3728 2.90869ZM19.3471 5.66025C18.768 5.65226 18.3567 5.21734 18.3683 4.62353C18.3798 4.03062 18.8008 3.6241 19.3941 3.63564C19.9848 3.64629 20.3783 4.06435 20.3685 4.67058C20.3596 5.26438 19.943 5.66824 19.3471 5.66025Z" fill="black"/>
<path d="M19.7717 1.91549C19.7558 2.06283 19.7717 2.26698 19.7025 2.43651C19.6537 2.55812 19.4939 2.71078 19.3821 2.71167C19.2694 2.71167 19.0688 2.55456 19.0563 2.44805C19.0137 2.08236 19.0137 1.70602 19.0492 1.33944C19.0581 1.24092 19.2543 1.08648 19.359 1.09091C19.4833 1.09624 19.6564 1.2205 19.7087 1.33678C19.7788 1.493 19.7522 1.69093 19.7717 1.91549Z" fill="black"/>
<path d="M19.7759 7.41567C19.759 7.55858 19.7679 7.7787 19.6978 7.97131C19.6579 8.08137 19.4901 8.21274 19.3809 8.21185C19.27 8.21185 19.0747 8.06895 19.0649 7.97309C19.0241 7.59674 19.0206 7.21153 19.0534 6.8343C19.0623 6.73843 19.262 6.58577 19.3676 6.59198C19.491 6.59819 19.6579 6.72423 19.7147 6.84228C19.783 6.98608 19.7555 7.17602 19.7759 7.41567Z" fill="black"/>
<path d="M22.0157 6.94057C22.0051 7.20596 21.7148 7.38703 21.5169 7.23081C21.2124 6.98939 20.9373 6.70536 20.6834 6.41067C20.6266 6.34499 20.6657 6.12398 20.7376 6.04054C20.8113 5.95622 21.0447 5.87989 21.0962 5.92604C21.4148 6.21007 21.7033 6.52872 21.998 6.83938C22.0202 6.86335 22.0122 6.91749 22.0157 6.94057Z" fill="black"/>
<path d="M22.9452 4.66677C22.9399 4.78127 22.7791 4.97211 22.669 4.98542C22.3323 5.02714 21.9868 5.00939 21.6458 4.99519C21.4406 4.9872 21.3047 4.86471 21.3047 4.64813C21.3047 4.44754 21.429 4.33392 21.6227 4.30818C21.811 4.28422 22.0019 4.27357 22.1547 4.26025C22.3634 4.27712 22.5544 4.24872 22.6974 4.31706C22.8155 4.37387 22.9496 4.54961 22.9452 4.66677Z" fill="black"/>
<path d="M18.0091 3.27775C17.931 3.35763 17.6904 3.40201 17.6185 3.34343C17.3167 3.09845 17.0274 2.82862 16.7815 2.52773C16.6217 2.33157 16.833 2.02446 17.1241 2.02002C17.1561 2.02801 17.2306 2.02623 17.2679 2.06262C17.5386 2.32979 17.8191 2.59163 18.0561 2.8872C18.1174 2.96265 18.0854 3.19964 18.0091 3.27775Z" fill="black"/>
<path d="M17.1216 5.00325C16.9804 5.01035 16.84 5.01568 16.6988 5.02189C16.6988 5.02722 16.6988 5.03254 16.6988 5.03787C16.5087 5.02367 16.3178 5.01479 16.1277 4.99438C15.935 4.97307 15.8053 4.86834 15.7973 4.66597C15.7893 4.46803 15.8968 4.32601 16.0948 4.31448C16.4546 4.29406 16.8196 4.27276 17.1749 4.31448C17.2815 4.3269 17.4218 4.54081 17.4414 4.67839C17.4671 4.85769 17.3286 4.99083 17.1225 5.00325H17.1216Z" fill="black"/>
<path d="M18.0872 6.34788C17.8315 6.67718 17.5404 6.98695 17.22 7.25145C17.0362 7.40323 16.7424 7.18932 16.7344 6.93902C16.7256 6.67806 17.5226 5.89609 17.788 5.90585C18.0082 5.91384 18.2159 6.18278 18.0872 6.34788Z" fill="black"/>
<path d="M21.9606 2.52689C21.7308 2.8269 21.4547 3.09584 21.1662 3.34082C21.0935 3.40295 20.8627 3.36301 20.7677 3.28934C20.6861 3.22632 20.6239 2.98578 20.6745 2.92897C20.947 2.61476 21.2568 2.3325 21.5568 2.04315C21.5816 2.02007 21.634 2.0254 21.6571 2.02007C21.9429 2.01563 22.1293 2.30499 21.9606 2.52689Z" fill="black"/>
</svg>
