<svg width="32" height="32" viewBox="0 0 32 32" fill="none" xmlns="http://www.w3.org/2000/svg">
<path d="M32 12.3625C32.001 12.04 31.9199 11.8045 31.6396 11.6248C31.3632 11.4479 31.1269 11.2056 30.8437 11.0434C30.4892 10.8391 30.413 10.5616 30.4149 10.1727C30.4306 7.24522 30.4237 4.3187 30.4227 1.39218C30.4227 0.859638 30.3368 0.77365 29.8114 0.77365C27.6667 0.772673 25.5221 0.77365 23.3774 0.77365C22.6703 0.77365 22.6361 0.80785 22.6361 1.51823V4.86297C22.4437 4.72421 22.3265 4.64116 22.2113 4.55517C20.2913 3.11487 18.3722 1.67359 16.4522 0.233294C16.0371 -0.0774357 15.9648 -0.0764586 15.5586 0.228408C10.5006 4.02458 5.44369 7.82174 0.380883 11.6111C0.106452 11.8153 0 12.0361 0 12.3752C0.00781297 18.6924 0.00585973 25.0096 0.00585973 31.3268C0.00585973 31.9062 0.101569 32 0.688518 32H31.3242C31.9004 32 31.9951 31.9023 31.9951 31.3141C31.9951 24.9969 31.9932 18.6797 32 12.3625ZM23.4301 1.59151H29.6405V2.29701H23.4301V1.59151ZM23.4038 3.13246H29.6317V10.0906C29.5057 10.0105 29.4061 9.9558 29.3162 9.8874C27.4353 8.47739 25.5572 7.0625 23.6714 5.65836C23.4731 5.51081 23.392 5.36131 23.3979 5.11507C23.4145 4.46039 23.4038 3.80473 23.4038 3.13246ZM18.7013 31.1929H13.3055V23.4227H18.7013V31.1929ZM29.6551 30.8108V31.1987H19.51V30.7952C19.51 28.283 19.511 25.7708 19.51 23.2585C19.51 22.7182 19.4299 22.6351 18.9035 22.6341C16.9659 22.6341 15.0283 22.6341 13.0906 22.6341C12.5789 22.6351 12.491 22.7221 12.491 23.2273C12.49 25.7395 12.491 28.2517 12.491 30.7639V31.188H2.34585V30.805C2.34585 25.0125 2.34585 19.22 2.34389 13.4266C2.34389 13.2155 2.35952 13.0436 2.55777 12.8901C6.98773 9.45453 11.4099 6.01012 15.834 2.56865C15.8818 2.53152 15.9316 2.49732 16.0068 2.4426C16.7637 3.03084 17.5225 3.61809 18.2794 4.20731C21.9818 7.08888 25.6832 9.97241 29.3885 12.8491C29.5809 12.9986 29.661 13.1491 29.661 13.3963C29.6541 19.2005 29.6551 25.0057 29.6551 30.8108ZM31.2089 31.1948H30.4237V30.7112C30.4237 24.8708 30.4208 19.0295 30.4296 13.1891C30.4306 12.8247 30.3241 12.5872 30.0311 12.3596C25.5152 8.85848 21.0081 5.34665 16.499 1.83677C16.0225 1.46546 15.9941 1.46351 15.5263 1.82798C10.9977 5.35251 6.47012 8.87997 1.93566 12.3957C1.66221 12.6077 1.57138 12.8325 1.57138 13.1676C1.58017 19.008 1.57822 24.8483 1.57822 30.6897V31.186H0.79204V30.8079C0.79204 24.7477 0.79204 18.6875 0.78911 12.6273C0.788134 12.4084 0.826222 12.253 1.02252 12.1055C5.93884 8.42756 10.8493 4.7418 15.7558 1.05116C15.9521 0.903609 16.0723 0.923152 16.2568 1.06191C21.1644 4.75157 26.0778 8.43342 30.9823 12.127C31.1015 12.2169 31.2001 12.4192 31.2001 12.5696C31.2109 18.6787 31.2089 24.7868 31.2089 30.8958V31.1948Z" fill="black"/>
<path d="M28.8464 30.0712C28.819 30.206 28.6335 30.3242 28.4968 30.4151C28.4274 30.4601 28.3063 30.4278 28.2096 30.4278C25.7847 30.4278 23.3588 30.4278 20.9338 30.4278C20.8127 30.4278 20.6594 30.4601 20.5773 30.3995C20.4582 30.3115 20.3263 30.1572 20.3205 30.0243C20.3146 29.9138 20.4592 29.7575 20.5764 29.6891C20.6799 29.6305 20.8381 29.6617 20.9719 29.6608C23.1771 29.6598 25.3833 29.6608 27.5885 29.6608H28.0592C28.0729 29.479 28.0387 29.3158 28.1042 29.222C28.2008 29.0813 28.363 28.9123 28.5065 28.9025C28.6179 28.8957 28.819 29.0999 28.8474 29.2377C28.9011 29.5064 28.9011 29.8025 28.8464 30.0721V30.0712Z" fill="black"/>
<path d="M9.35683 30.0239C9.36562 30.3229 9.17811 30.4245 8.90758 30.4245C7.14283 30.4245 5.3771 30.4236 3.61234 30.4265C3.29982 30.4265 3.13282 30.2887 3.13282 29.9672C3.13477 29.4923 3.13477 29.0165 3.13282 28.5416C3.13184 28.2817 3.25197 28.1077 3.51272 28.098C3.77641 28.0892 3.90826 28.268 3.91509 28.5201C3.92486 28.8836 3.91802 29.2471 3.91802 29.6575H8.91051C9.16151 29.6575 9.34902 29.7444 9.35683 30.0239Z" fill="black"/>
<path d="M18.2046 11.5373C18.1031 11.6321 17.895 11.6731 17.7544 11.6467C17.6499 11.6262 17.5727 11.4572 17.479 11.3497C17.5493 11.208 17.5864 11.1074 17.645 11.0194C17.94 10.5768 17.9321 10.3882 17.5903 9.98756C17.0483 9.3534 17.0327 8.59709 17.5444 8.00397C17.7036 7.82027 17.8853 7.70594 18.1118 7.8701C18.3472 8.04012 18.3169 8.25021 18.1675 8.47397C17.8589 8.93323 17.8745 9.10716 18.2359 9.53612C18.773 10.1713 18.7711 11.0077 18.2046 11.5373Z" fill="black"/>
<path d="M20.1895 16.1565C20.0255 16.3598 19.8311 16.479 19.5948 16.309C19.3604 16.1409 19.3965 15.9269 19.5518 15.7031C19.8497 15.2713 19.8321 15.0758 19.4873 14.6664C18.9375 14.0147 18.9316 13.2075 19.4991 12.6594C19.6006 12.5617 19.8086 12.502 19.9434 12.5323C20.0577 12.5577 20.1378 12.7375 20.2344 12.8509C20.1573 12.9975 20.1133 13.0961 20.0547 13.1851C19.7706 13.617 19.7842 13.7987 20.1397 14.2228C20.6524 14.8335 20.669 15.5663 20.1895 16.1565Z" fill="black"/>
<path d="M11.2108 19.8649C11.0145 20.244 10.8631 20.5938 10.659 20.9104C10.5311 21.1088 10.2713 21.1361 10.1248 20.9524C10.033 20.8361 10.0018 20.5713 10.0711 20.4424C10.4012 19.8307 10.4149 19.8111 9.97637 19.261C9.51345 18.6825 9.51931 17.9595 9.98809 17.3869C10.1512 17.1885 10.3416 17.0624 10.5809 17.2374C10.8143 17.4093 10.7772 17.6204 10.6229 17.8422C10.325 18.2692 10.3641 18.4637 10.6717 18.8838C10.8788 19.1662 11.0145 19.5024 11.2108 19.8649Z" fill="black"/>
<path d="M16.8323 15.1908C16.6516 15.5533 16.5061 15.8933 16.3176 16.208C16.1935 16.4132 15.9719 16.4435 15.7765 16.2979C15.5783 16.1503 15.5763 15.9529 15.7052 15.7477C16.0558 15.1908 16.05 15.1175 15.631 14.5996C15.1407 13.9948 15.1564 13.2297 15.6671 12.6668C15.8224 12.4949 15.9972 12.3991 16.2082 12.5525C16.426 12.7108 16.4201 12.9121 16.2834 13.129C15.9494 13.6557 15.9797 13.7573 16.3508 14.2576C16.5461 14.5205 16.6584 14.8449 16.8323 15.1908Z" fill="black"/>
<path d="M6.90455 20.8621C6.82252 20.9559 6.70239 21.0165 6.64868 21.0566C6.26389 21.0732 6.03926 20.7253 6.24143 20.4771C6.64184 19.9885 6.49339 19.626 6.12716 19.201C5.66229 18.6626 5.73847 17.8506 6.2258 17.3366C6.38694 17.1666 6.56762 17.0904 6.77173 17.2447C6.98561 17.407 6.97682 17.6043 6.83424 17.8203C6.50023 18.3264 6.51195 18.4564 6.91432 18.9362C7.41142 19.5293 7.41142 20.2856 6.90455 20.8621Z" fill="black"/>
<path d="M14.476 17.6878C14.3051 17.9047 14.102 18.0298 13.8569 17.8373C13.6313 17.6604 13.6869 17.4455 13.8422 17.2285C14.1332 16.822 14.1137 16.612 13.7817 16.227C13.225 15.584 13.2133 14.7349 13.7787 14.1955C13.8803 14.0988 14.0893 14.045 14.2241 14.0763C14.3393 14.1027 14.4204 14.2795 14.5092 14.3821C14.4467 14.516 14.4194 14.5961 14.3764 14.6665C14.0356 15.2244 14.0405 15.3046 14.4604 15.8146C14.9351 16.3892 14.939 17.0947 14.476 17.6878Z" fill="black"/>
<path d="M24.456 15.2106C24.2636 15.579 24.1141 15.9161 23.9178 16.2239C23.788 16.4262 23.537 16.4565 23.3875 16.2747C23.2938 16.1594 23.2596 15.8956 23.327 15.7676C23.6649 15.1344 23.6805 15.1393 23.2352 14.5892C22.7479 13.9863 22.7684 13.2182 23.2821 12.6623C23.454 12.4776 23.6444 12.3984 23.8553 12.5724C24.0448 12.7287 24.0282 12.9251 23.9022 13.1264C23.5643 13.6658 23.5936 13.7469 23.9647 14.2521C24.1649 14.5227 24.2792 14.8569 24.456 15.2106Z" fill="black"/>
<path d="M14.5368 20.858C14.3658 21.0612 14.1656 21.157 13.9381 20.9762C13.7301 20.8091 13.7603 20.6039 13.9088 20.3948C14.2213 19.9522 14.2057 19.7675 13.8424 19.3327C13.3033 18.6868 13.3091 17.8494 13.8844 17.3256C13.9859 17.2328 14.194 17.1947 14.3336 17.223C14.4381 17.2455 14.5123 17.4155 14.6022 17.5211C14.5299 17.6657 14.4909 17.7663 14.4332 17.8553C14.1422 18.3018 14.152 18.4884 14.4938 18.8959C15.0231 19.5262 15.0378 20.2639 14.5368 20.858Z" fill="black"/>
<path d="M18.8276 19.9148C18.6264 20.2881 18.4809 20.6321 18.2622 20.9203C18.1909 21.0151 17.8705 21.0376 17.769 20.9584C17.6693 20.8803 17.6254 20.591 17.6908 20.465C18.0327 19.8142 18.0473 19.822 17.5971 19.2553C17.1293 18.667 17.1537 17.9078 17.6527 17.3567C17.8207 17.172 18.0073 17.0811 18.2241 17.2512C18.435 17.4183 18.4057 17.6225 18.268 17.8326C17.9408 18.3338 17.9731 18.4433 18.3266 18.9289C18.5307 19.2103 18.6489 19.5553 18.8276 19.9148Z" fill="black"/>
<path d="M23.9657 25.5583C23.7977 25.7478 23.6063 25.828 23.3934 25.6667C23.1814 25.5065 23.198 25.3032 23.3416 25.0893C23.4471 24.9319 23.5262 24.758 23.6375 24.5557C23.5066 24.3593 23.4041 24.1707 23.2703 24.0076C22.7644 23.391 22.7517 22.6689 23.2449 22.0787C23.409 21.8823 23.5975 21.7504 23.8367 21.9321C24.0672 22.107 24.0233 22.32 23.8719 22.5399C23.5721 22.9767 23.5887 23.1614 23.9354 23.5737C24.4686 24.2079 24.4774 24.9788 23.9657 25.5583Z" fill="black"/>
<path d="M8.77338 16.1211C8.61126 16.3361 8.41985 16.4895 8.16104 16.3097C7.90419 16.1309 7.96181 15.909 8.12784 15.6784C8.42278 15.2661 8.40324 15.0765 8.06045 14.6788C7.50866 14.0388 7.50085 13.1711 8.06729 12.6464C8.16886 12.5516 8.37492 12.5086 8.51458 12.535C8.62298 12.5565 8.70307 12.7236 8.80464 12.835C8.72455 12.9806 8.67572 13.089 8.60931 13.1877C8.33097 13.604 8.34172 13.8014 8.67475 14.1922C9.20798 14.8166 9.24119 15.5006 8.77338 16.1211Z" fill="black"/>
<path d="M8.73305 25.5373C8.56214 25.7425 8.36388 25.8354 8.13633 25.6556C7.92538 25.4894 7.95761 25.2882 8.10215 25.0771C8.42639 24.6022 8.41272 24.4547 8.03965 24.0198C7.52106 23.416 7.50446 22.6382 8.01035 22.0646C8.1002 21.962 8.23106 21.8946 8.29259 21.8486C8.67445 21.8525 8.8395 22.1779 8.68031 22.4593C8.43876 22.8834 8.46708 23.284 8.76528 23.6612C9.22038 24.2377 9.20573 24.9696 8.73305 25.5373Z" fill="black"/>
<path d="M27.8211 25.5082C27.6512 25.7222 27.4539 25.8551 27.2029 25.6626C26.9705 25.4847 27.0271 25.2747 27.1824 25.0568C27.4881 24.6297 27.4686 24.4529 27.1082 24.0288C26.5545 23.3771 26.5593 22.5191 27.1453 22.0013C27.2479 21.9104 27.4578 21.8791 27.5955 21.9123C27.701 21.9387 27.7713 22.1097 27.8543 22.2133C27.7899 22.3442 27.7547 22.4351 27.7039 22.5152C27.3797 23.0204 27.3856 23.1308 27.7782 23.6047C28.2694 24.1979 28.2841 24.9258 27.8211 25.5082Z" fill="black"/>
<path d="M12.5128 16.219C12.3477 16.3959 12.1592 16.4526 11.9659 16.306C11.7549 16.1467 11.7666 15.9435 11.9112 15.7295C12.2413 15.2419 12.2295 15.0982 11.8467 14.6419C11.3428 14.0429 11.3301 13.2984 11.8233 12.716C11.9112 12.6114 12.0391 12.5401 12.1729 12.4326C12.3047 12.5254 12.4551 12.5763 12.501 12.6759C12.5528 12.7893 12.5694 12.9935 12.502 13.0746C12.1016 13.5514 12.2374 13.9257 12.6094 14.3556C13.0792 14.896 13.003 15.6933 12.5128 16.219Z" fill="black"/>
<path d="M22.635 19.8835C22.4455 20.2557 22.3 20.5948 22.1066 20.9036C21.9797 21.1059 21.757 21.1274 21.5646 20.973C21.3732 20.8186 21.3771 20.629 21.5109 20.4238C21.8664 19.8747 21.8586 19.8121 21.424 19.2825C20.9337 18.6855 20.9493 17.9126 21.4601 17.3546C21.6281 17.17 21.8166 17.081 22.0314 17.254C22.2414 17.4221 22.2111 17.6243 22.0715 17.8354C21.7433 18.3327 21.7746 18.4314 22.1408 18.9288C22.341 19.2004 22.4572 19.5336 22.635 19.8835Z" fill="black"/>
<path d="M25.9735 20.8601C25.8006 21.0643 25.6043 21.1571 25.3768 20.9744C25.1668 20.8064 25.2 20.608 25.3465 20.396C25.6707 19.9289 25.6551 19.7774 25.283 19.3406C24.7459 18.7104 24.7449 17.8642 25.3074 17.3365C25.409 17.2408 25.6131 17.1939 25.7528 17.2183C25.8612 17.2369 25.9432 17.404 26.0458 17.5134C25.9696 17.659 25.9227 17.7704 25.8573 17.8691C25.5731 18.2971 25.5819 18.4788 25.9149 18.8726C26.4569 19.5126 26.4765 20.266 25.9735 20.8601Z" fill="black"/>
<path d="M4.91144 25.547C4.74835 25.7375 4.55986 25.8304 4.34207 25.6731C4.10866 25.506 4.13112 25.2949 4.29226 25.0711C4.39579 24.9275 4.46513 24.7594 4.57646 24.5542C4.44559 24.3598 4.33524 24.1624 4.19363 23.9904C3.70141 23.3905 3.69946 22.6283 4.19753 22.0576C4.37039 21.8603 4.56474 21.7557 4.79522 21.9463C5.00422 22.1202 4.96223 22.3195 4.82159 22.5286C4.50029 22.9996 4.51396 23.1423 4.88605 23.5859C5.40171 24.1995 5.40854 24.9656 4.91144 25.547Z" fill="black"/>
<path d="M28.8632 27.3382C28.8632 27.472 28.9091 27.6313 28.8525 27.7339C28.7744 27.8727 28.622 28.0505 28.4951 28.0564C28.3681 28.0622 28.1425 27.8932 28.1181 27.771C28.0614 27.4779 28.0595 27.1593 28.1132 26.8662C28.1376 26.7372 28.3652 26.5437 28.4755 26.5584C28.6181 26.5789 28.7734 26.7577 28.8535 26.9063C28.914 27.0196 28.8652 27.1916 28.8652 27.3382H28.8632Z" fill="black"/>
<path d="M11.6754 30.0429C11.6754 30.168 11.5025 30.3781 11.3765 30.4035C11.0953 30.4592 10.7876 30.4641 10.5093 30.4055C10.3706 30.3762 10.1958 30.169 10.1802 30.0273C10.1685 29.9208 10.3657 29.7508 10.5054 29.6804C10.6216 29.6228 10.7906 29.6687 10.9371 29.6687V29.6707C11.0826 29.6707 11.2535 29.6228 11.3678 29.6824C11.5035 29.7547 11.6744 29.9179 11.6754 30.0429Z" fill="black"/>
<path d="M17.9301 27.7508C17.852 27.8867 17.6733 28.0704 17.5609 28.0557C17.4193 28.0371 17.224 27.8583 17.1898 27.7157C17.1293 27.4616 17.1302 27.1733 17.1879 26.9193C17.2221 26.7717 17.4154 26.5665 17.5443 26.5607C17.6732 26.5548 17.849 26.7444 17.933 26.889C17.9955 26.9984 17.9448 27.1743 17.9448 27.3199H17.9614C17.9545 27.4655 17.9946 27.6385 17.9301 27.7508Z" fill="black"/>
<path d="M28.8705 8.07385C28.8725 8.3582 28.7738 8.57512 28.4711 8.57024C28.1644 8.56535 28.0824 8.33182 28.0824 8.05724C28.0843 7.05861 28.0834 6.06095 28.0824 5.06232C28.0824 4.94506 28.0707 4.82683 28.0628 4.67049C27.6986 4.67049 27.3607 4.66756 27.0227 4.67146C26.761 4.6744 26.5471 4.59525 26.5393 4.30211C26.5305 3.98552 26.7493 3.89953 27.0286 3.90148C27.4788 3.90539 27.9291 3.90734 28.3793 3.90148C28.7123 3.8966 28.8715 4.04805 28.8705 4.38516C28.8666 5.61538 28.8666 6.84462 28.8705 8.07385Z" fill="black"/>
<path d="M25.7159 4.3067C25.7237 4.4181 25.5509 4.62525 25.4337 4.64577C25.1387 4.6956 24.8223 4.70049 24.5293 4.64675C24.4004 4.62427 24.2197 4.41614 24.2188 4.29107C24.2178 4.166 24.3906 3.995 24.5283 3.92758C24.6553 3.86602 24.837 3.91487 24.9952 3.91487C25.1407 3.91585 25.3145 3.86602 25.4249 3.92855C25.5577 4.00477 25.7071 4.17088 25.7159 4.3067Z" fill="black"/>
</svg>
