<svg width="31" height="28" viewBox="0 0 31 28" fill="none" xmlns="http://www.w3.org/2000/svg">
<path d="M30.9843 11.3052C30.8485 10.3448 29.8056 9.66667 28.863 9.91875C28.1156 10.1193 27.6141 10.7522 27.5955 11.5333C27.5857 11.9514 27.5937 12.3712 27.5937 12.7884H23.9741C23.9741 12.333 23.9581 11.8999 23.9785 11.4685C24.0016 10.9599 24.401 10.6129 24.9291 10.6075C25.467 10.6022 25.854 10.9271 25.9117 11.4348C25.9188 11.4942 25.9152 11.5573 25.9286 11.615C25.9774 11.8173 26.1185 11.9664 26.3129 11.9132C26.4425 11.8777 26.5774 11.7161 26.6271 11.5803C26.675 11.4534 26.6369 11.2794 26.5969 11.1374C26.3546 10.28 25.5593 9.76697 24.6735 9.8868C23.8676 9.99509 23.2498 10.7211 23.2462 11.5848C23.24 12.9872 23.2445 14.3896 23.2445 15.792V16.1364C22.4421 16.1364 21.6778 16.1462 20.9136 16.1266C20.7796 16.1231 20.6083 16.029 20.5231 15.9225C19.6896 14.8716 18.8633 13.8144 18.0538 12.7458C17.8612 12.4919 17.6517 12.4023 17.3401 12.4031C14.4341 12.4129 11.529 12.4094 8.62303 12.4094H8.25024C7.77094 10.6191 7.29784 8.85186 6.82032 7.07044C6.9428 7.03316 7.03689 7.00121 7.13275 6.97547C8.65055 6.57072 10.1683 6.16598 11.6861 5.76301C12.5223 5.542 12.5347 5.52336 12.2933 4.69611C11.5148 2.02444 9.08547 0.176455 6.31793 0.151602C3.5575 0.127637 1.09619 1.93657 0.276931 4.60292C0.159768 4.98458 0.0914228 5.38045 0 5.77011V7.04115C0.093198 7.46188 0.175745 7.88526 0.284032 8.30243C0.38078 8.67611 0.508595 8.73824 0.880499 8.63883C2.2332 8.27936 3.58502 7.91899 4.93772 7.55951C5.32294 7.45744 5.70904 7.35891 6.11645 7.2524C6.578 8.97701 7.0289 10.6626 7.4798 12.3481C7.35021 12.2975 7.27654 12.2203 7.21175 12.1369C6.65256 11.4223 6.08982 10.7096 5.53951 9.98798C5.38951 9.79005 5.21642 9.70928 4.97233 9.71727C4.36788 9.73857 3.76165 9.73147 3.15808 9.7652C2.9992 9.77496 2.79416 9.85218 2.70274 9.97023C2.56516 10.1469 2.70895 10.3226 2.84298 10.4735C3.75455 11.4987 4.66256 12.5274 5.57146 13.5552C5.74366 13.7496 5.9123 13.9476 6.0916 14.1535C5.53773 14.7961 5.00251 15.4254 4.45309 16.0432C4.39362 16.1106 4.25782 16.1355 4.15663 16.1373C3.75277 16.1479 3.34891 16.1408 2.94594 16.1426C2.55717 16.1435 2.39563 16.2491 2.38942 16.5003C2.38321 16.7577 2.54209 16.8678 2.92819 16.8687C3.593 16.8695 4.2587 16.8687 4.92352 16.8687H23.2445C23.2445 17.7465 23.2427 18.5826 23.2453 19.4187C23.2462 19.7241 23.3705 19.8767 23.6039 19.8776C23.8383 19.8794 23.9661 19.7241 23.9696 19.4223C23.9741 19.1338 23.9705 18.8453 23.9705 18.5604H27.5964C27.5964 18.9022 27.5662 19.227 27.6115 19.5412C27.6292 19.6655 27.8094 19.8474 27.9248 19.8554C28.0446 19.8634 28.1919 19.7045 28.2949 19.5909C28.3419 19.5377 28.318 19.4161 28.318 19.3264C28.3198 18.6199 28.318 17.9134 28.3198 17.2077C28.3198 17.1021 28.3304 16.9956 28.3375 16.8678C28.8532 16.8678 29.3361 16.8731 29.818 16.8651C30.1127 16.8607 30.2645 16.6796 30.2077 16.4231C30.1544 16.187 29.9725 16.1435 29.7674 16.1426C29.2961 16.1417 28.8248 16.1426 28.3473 16.1426C28.3348 16.0734 28.3215 16.0352 28.3215 15.997C28.3206 14.5041 28.3144 13.0112 28.3251 11.5182C28.3286 10.9901 28.6996 10.6342 29.2233 10.6093C29.7878 10.5827 30.1944 10.9093 30.2627 11.4445C30.2716 11.5147 30.2485 11.6114 30.2867 11.6496C30.3914 11.7561 30.5166 11.8999 30.6417 11.9088C30.7456 11.9167 30.8938 11.7721 30.963 11.6584C31.0172 11.5688 31.0003 11.4223 30.9843 11.3052ZM8.83339 1.51939C10.2615 2.27474 11.1775 3.44549 11.6347 5.0192C10.8837 5.2198 10.1568 5.41507 9.38814 5.62099C9.2479 4.5754 8.80854 3.67094 8.10112 2.93423C7.41412 2.21794 6.65167 1.57443 5.94514 0.920264C6.35433 0.724992 7.84727 0.998373 8.83339 1.51939ZM0.951507 7.88349C0.205923 5.5278 1.38377 2.58185 3.9081 1.42797C3.05778 3.32477 2.3548 5.19495 3.16074 7.28791C2.4196 7.48762 1.68555 7.68555 0.951507 7.88349ZM3.89923 7.09352C3.5433 6.37368 3.47584 5.65295 3.5646 4.90648C3.72171 3.58395 4.2232 2.3848 4.86138 1.2327C6.83452 2.1416 8.62303 4.29758 8.64611 5.81982C7.07772 6.24054 5.49868 6.66392 3.89923 7.09352ZM4.03769 10.7256C3.98 10.6608 3.93118 10.5898 3.82289 10.4495C4.22409 10.4495 4.55339 10.4353 4.88002 10.4584C4.96701 10.4646 5.06376 10.5676 5.12855 10.6484C5.70194 11.3762 6.27711 12.104 6.83541 12.8443C6.99961 13.0617 7.18601 13.1399 7.4514 13.139C10.5855 13.1336 13.7205 13.1514 16.8555 13.1203C17.3757 13.115 17.6552 13.3103 17.8834 13.7816H17.5514C14.0534 13.7816 10.5553 13.7798 7.05731 13.786C6.83807 13.786 6.6854 13.7301 6.53806 13.5597C5.71082 12.61 4.87204 11.67 4.03769 10.7256ZM5.35578 16.1204C5.81999 15.5825 6.24693 15.0801 6.68806 14.5893C6.74221 14.5281 6.87002 14.5112 6.96411 14.5112C10.7346 14.5068 14.5043 14.5068 18.2748 14.5112C18.3671 14.5112 18.4967 14.5307 18.5464 14.592C18.944 15.081 19.3275 15.5825 19.7464 16.1204H5.35578ZM23.99 13.557H27.5697V14.4695H23.99V13.557ZM27.5697 17.7935H23.9838V16.9113H27.5697V17.7935ZM27.5706 16.1089H23.9829V15.2293H27.5706V16.1089Z" fill="black"/>
<path d="M29.8533 23.9428C29.4442 24.2632 28.9773 24.4327 28.2015 24.4363C27.9636 24.3599 27.4462 24.2934 27.0423 24.0448C26.0606 23.4404 25.1038 23.4732 24.1585 24.0315C23.5585 24.3857 23.0925 24.4132 22.4445 24.0253C21.2862 23.333 20.0729 23.5132 18.9705 24.2694C18.6589 24.4833 18.4175 24.4815 18.1228 24.2845C17.8894 24.1274 17.6444 23.9845 17.3914 23.8611C16.589 23.4688 15.768 23.5105 14.955 23.8149C14.5973 23.9481 14.2484 24.1132 13.9165 24.2996C13.6662 24.4389 13.4682 24.4398 13.2179 24.2925C12.3099 23.7599 11.3389 23.4679 10.272 23.6214C9.80601 23.6889 9.40482 23.878 9.10836 24.257C8.92995 24.486 8.72758 24.4824 8.50035 24.3289C7.95448 23.957 7.37044 23.6676 6.71361 23.5478C6.08608 23.4324 5.53044 23.5211 5.05203 24.0147C4.45112 24.6351 2.95818 24.4789 2.45314 23.7786C2.32532 23.6001 2.25609 23.404 2.44248 23.2345C2.63421 23.0605 2.8206 23.1271 3.00256 23.2921C3.59903 23.8345 4.14756 23.8327 4.73782 23.309C5.41861 22.7054 6.22277 22.6531 7.04203 22.8794C7.56038 23.0223 8.04413 23.2886 8.54739 23.491C8.62462 23.522 8.75509 23.5442 8.80391 23.5034C9.65778 22.7915 10.6501 22.7232 11.6664 22.9424C12.2496 23.0676 12.8079 23.3206 13.3671 23.5425C13.5233 23.6046 13.6307 23.6223 13.7807 23.5398C14.3585 23.2229 14.9647 22.9886 15.6242 22.8954C16.6006 22.7569 17.4811 23.0232 18.3074 23.5149C18.4858 23.6214 18.6066 23.6259 18.7921 23.5167C20.2202 22.677 21.6581 22.6691 23.0854 23.522C23.2345 23.6108 23.3366 23.6055 23.4946 23.5433C24.0813 23.3126 24.6715 23.08 25.2769 22.9034C25.7926 22.7525 26.2914 22.9078 26.7716 23.1244C27.1834 23.309 27.5979 23.4954 28.0258 23.6374C28.5281 23.8025 28.9932 23.7093 29.4069 23.3516C29.7406 23.0631 29.9146 23.0543 30.0797 23.2531C30.2377 23.4448 30.1604 23.7022 29.8533 23.9428Z" fill="black"/>
<path d="M30.0993 20.615C30.0621 20.7366 29.9387 20.8432 29.8322 20.9319C29.4763 21.2284 28.9233 21.4121 28.4582 21.4068C28.4511 21.4307 28.4431 21.4556 28.436 21.4805C27.978 21.3367 27.465 21.2825 27.0744 21.034C26.027 20.3683 25.0178 20.4784 24.0273 21.0686C23.4876 21.389 23.0891 21.3757 22.5317 21.0384C21.3405 20.3204 20.1112 20.4668 18.9751 21.2399C18.6635 21.452 18.423 21.4583 18.1292 21.2586C17.6765 20.9523 17.2034 20.6896 16.6522 20.5955C15.9262 20.4713 15.2507 20.6488 14.5921 20.9257C14.3791 21.0153 14.1634 21.1094 13.9734 21.239C13.6947 21.4281 13.4648 21.4068 13.1693 21.239C12.1903 20.6843 11.1455 20.3541 10.0156 20.6665C9.6961 20.7553 9.40053 20.9905 9.13869 21.2115C8.88306 21.4281 8.77122 21.4787 8.48186 21.287C7.93066 20.9213 7.34751 20.6319 6.69069 20.5156C6.07203 20.4065 5.52616 20.5005 5.0575 20.9843C4.45749 21.6056 2.97164 21.4574 2.45861 20.7579C2.32902 20.5813 2.25446 20.3869 2.43731 20.2138C2.62548 20.0354 2.81276 20.094 2.99738 20.2609C3.60628 20.8121 4.1344 20.8077 4.75572 20.2671C5.43118 19.6795 6.22647 19.6271 7.03507 19.8508C7.55255 19.9946 8.03717 20.2591 8.54044 20.4606C8.61944 20.4917 8.7508 20.5218 8.79873 20.4819C9.61089 19.7993 10.5615 19.6973 11.5396 19.8952C12.1547 20.0186 12.7477 20.2662 13.3344 20.4997C13.5261 20.576 13.653 20.5813 13.8288 20.4881C14.7075 20.0221 15.6262 19.7239 16.6425 19.8703C17.2513 19.9573 17.8079 20.1819 18.328 20.4997C18.4824 20.5937 18.5925 20.6088 18.7603 20.5085C20.2053 19.6493 21.6556 19.6396 23.1122 20.4979C23.208 20.5538 23.3767 20.552 23.4858 20.5103C23.8711 20.3639 24.2385 20.1721 24.6246 20.0275C25.4217 19.7292 26.1975 19.7754 26.9599 20.1801C27.3034 20.363 27.6753 20.5032 28.049 20.6177C28.5292 20.7668 28.9863 20.6949 29.3768 20.3461C29.4523 20.2786 29.5304 20.1819 29.6174 20.1704C29.7594 20.1499 29.9502 20.1402 30.0434 20.2174C30.1224 20.2831 30.1357 20.4926 30.0993 20.615Z" fill="black"/>
<path d="M30.0745 26.7297C30.0132 26.8193 29.9351 26.9037 29.8481 26.9702C29.4363 27.2871 28.9721 27.4593 28.2034 27.4584C27.9771 27.3883 27.5271 27.2551 27.0824 27.106C26.9315 27.0554 26.7895 26.9702 26.651 26.8894C26.0803 26.5548 25.4829 26.5193 24.8767 26.7572C24.4373 26.9294 24.0042 27.1247 23.5843 27.3403C23.3394 27.4655 23.1476 27.4664 22.9169 27.3066C21.6352 26.4217 20.2026 26.419 18.9404 27.3119C18.6644 27.5063 18.4505 27.485 18.1691 27.3368C17.6916 27.0856 17.2105 26.8051 16.6957 26.672C15.8329 26.4474 15.003 26.7155 14.2619 27.1486C13.7666 27.438 13.3929 27.4362 12.8888 27.1486C12.0713 26.6818 11.1606 26.4874 10.2056 26.6542C9.78662 26.7279 9.42359 26.9072 9.14222 27.2383C8.90523 27.517 8.7783 27.5285 8.47119 27.3306C7.78597 26.8886 7.06967 26.5344 6.22734 26.5273C5.77999 26.5238 5.40809 26.6791 5.09299 27.0031C4.47256 27.6377 3.00802 27.5303 2.46836 26.8202C2.3299 26.6374 2.24646 26.4341 2.44972 26.2548C2.64411 26.0826 2.83494 26.1519 3.00891 26.3223C3.38791 26.6942 3.82727 26.8255 4.33764 26.6294C4.42019 26.5974 4.51073 26.5575 4.5702 26.4945C5.28915 25.7329 6.17586 25.6566 7.10962 25.922C7.59868 26.0604 8.05402 26.3143 8.52978 26.5016C8.61942 26.538 8.77209 26.553 8.83333 26.5016C9.54874 25.914 10.3813 25.8057 11.2583 25.8936C12.0092 25.9699 12.7184 26.1971 13.3761 26.5664C13.5323 26.6542 13.6415 26.6365 13.7879 26.5584C14.7998 26.0169 15.8596 25.6823 17.0099 26.0001C17.4706 26.1279 17.9055 26.3551 18.3413 26.5593C18.4895 26.6294 18.588 26.6631 18.7469 26.5672C20.2008 25.6974 21.66 25.685 23.1246 26.5566C23.2133 26.609 23.3687 26.6063 23.4716 26.5681C23.9802 26.3817 24.4737 26.1492 24.9885 25.9805C25.5992 25.7808 26.1983 25.8767 26.7797 26.1483C27.1978 26.3445 27.6247 26.5282 28.0632 26.6693C28.5442 26.8247 29.0005 26.7377 29.3875 26.3862C29.4469 26.332 29.5126 26.285 29.5774 26.2362C29.7327 26.1199 29.8916 26.0995 30.0434 26.2397C30.2067 26.3906 30.1881 26.5637 30.0745 26.7297Z" fill="black"/>
<path d="M18.5006 2.71484C17.5277 2.71396 16.7564 3.49149 16.7617 4.46696C16.7662 5.43622 17.5508 6.20222 18.5272 6.19246C19.4796 6.18269 20.242 5.40072 20.2358 4.44034C20.2287 3.47907 19.4609 2.71573 18.5006 2.71484ZM18.4748 5.4664C17.8961 5.45841 17.4851 5.02349 17.4967 4.42969C17.5082 3.83677 17.9289 3.43025 18.5219 3.44179C19.1121 3.45244 19.5053 3.8705 19.4956 4.47673C19.4867 5.07053 19.0704 5.47439 18.4748 5.4664Z" fill="black"/>
<path d="M18.8928 1.72165C18.8769 1.86899 18.8928 2.07313 18.8236 2.24267C18.7748 2.36427 18.615 2.51693 18.5032 2.51782C18.3905 2.51782 18.1899 2.36072 18.1774 2.2542C18.1348 1.88851 18.1348 1.51217 18.1703 1.14559C18.1792 1.04707 18.3754 0.892628 18.4801 0.897066C18.6044 0.902392 18.7775 1.02666 18.8298 1.14293C18.8999 1.29915 18.8733 1.49708 18.8928 1.72165Z" fill="black"/>
<path d="M18.897 7.22183C18.8801 7.36473 18.889 7.58485 18.8189 7.77746C18.7789 7.88753 18.6112 8.01889 18.502 8.018C18.3911 8.018 18.1958 7.8751 18.186 7.77924C18.1452 7.4029 18.1416 7.01768 18.1745 6.64045C18.1834 6.54459 18.3831 6.39192 18.4887 6.39813C18.6121 6.40435 18.7789 6.53039 18.8358 6.64844C18.9041 6.79223 18.8766 6.98217 18.897 7.22183Z" fill="black"/>
<path d="M21.1329 6.74672C21.1223 7.01211 20.832 7.19318 20.6341 7.03697C20.3296 6.79554 20.0545 6.51151 19.8006 6.21682C19.7438 6.15114 19.7829 5.93013 19.8548 5.8467C19.9284 5.76237 20.1619 5.68604 20.2134 5.7322C20.532 6.01623 20.8205 6.33487 21.1152 6.64553C21.1373 6.6695 21.1294 6.72364 21.1329 6.74672Z" fill="black"/>
<path d="M22.0652 4.47293C22.0599 4.58743 21.8992 4.77826 21.7891 4.79158C21.4527 4.83329 21.1075 4.81554 20.7666 4.80134C20.5616 4.79335 20.4258 4.67086 20.4258 4.45429C20.4258 4.25369 20.55 4.14008 20.7435 4.11434C20.9317 4.09037 21.1225 4.07972 21.2752 4.06641C21.4838 4.08327 21.6746 4.05487 21.8175 4.12321C21.9356 4.18002 22.0696 4.35576 22.0652 4.47293Z" fill="black"/>
<path d="M17.1341 3.0839C17.056 3.16378 16.8154 3.20816 16.7435 3.14958C16.4417 2.90461 16.1524 2.63478 15.9065 2.33388C15.7467 2.13772 15.958 1.83061 16.2491 1.82617C16.2811 1.83416 16.3556 1.83239 16.3929 1.86878C16.6636 2.13594 16.9441 2.39779 17.1811 2.69336C17.2424 2.7688 17.2104 3.00579 17.1341 3.0839Z" fill="black"/>
<path d="M16.2457 4.80941C16.1046 4.81651 15.9643 4.82183 15.8232 4.82805C15.8232 4.83337 15.8232 4.8387 15.8232 4.84402C15.6333 4.82982 15.4424 4.82094 15.2525 4.80053C15.0599 4.77923 14.9303 4.67449 14.9223 4.47212C14.9143 4.27418 15.0217 4.13217 15.2196 4.12063C15.5791 4.10021 15.9439 4.07891 16.299 4.12063C16.4055 4.13305 16.5457 4.34697 16.5652 4.48454C16.591 4.66384 16.4525 4.79698 16.2466 4.80941H16.2457Z" fill="black"/>
<path d="M17.2122 6.15403C16.9565 6.48333 16.6654 6.7931 16.345 7.05761C16.1612 7.20939 15.8674 6.99547 15.8594 6.74517C15.8506 6.48422 16.6476 5.70224 16.913 5.712C17.1332 5.71999 17.3409 5.98894 17.2122 6.15403Z" fill="black"/>
<path d="M21.0778 2.33304C20.8479 2.63305 20.5719 2.90199 20.2834 3.14697C20.2106 3.2091 19.9799 3.16916 19.8849 3.09549C19.8032 3.03247 19.7411 2.79193 19.7917 2.73512C20.0642 2.42091 20.374 2.13866 20.674 1.8493C20.6988 1.82622 20.7512 1.83155 20.7743 1.82622C21.0601 1.82178 21.2465 2.11114 21.0778 2.33304Z" fill="black"/>
</svg>
